<?xml version="1.0" encoding="utf-8"?>
<svg version="1.1" id="Layer_1" xmlns="http://www.w3.org/2000/svg" xmlns:xlink="http://www.w3.org/1999/xlink" x="0px" y="0px"
	 viewBox="0 0 750 750" style="enable-background:new 0 0 750 750;" xml:space="preserve">
<style type="text/css">
	.st0{fill:#F1CA84;}
	.st1{fill:#F47929;}
	.st2{fill:#8A461E;}
	.st3{fill:#4A8ECC;}
	.st4{fill:#F37B7D;}
	.st5{fill:#9ACA3C;}
	.st6{fill:#FDB933;}
	.st7{fill:#76CED9;}
</style>
<g>
	<path class="st0" d="M267.4,178.7c-8.1-10.5-16.6-21.2-24.6-32.6c-25.5-36.5-26.7-62.7-18-78.5c8.7-15.7,30-16.8,36.4-1.8
		c6.4,15-9.5,23.3-4.8,55.2c1.1,7.8,5.2,16.1,10.7,24.9c-0.2,3.3,0.7,6.6,2.7,9.5c1.8,2.7,4.4,4.7,7.1,6.1c-2.5,1.2-4.7,2.8-6.3,4.9
		C267.5,170.2,266.4,174.6,267.4,178.7z M285.4,130.8c1.6,0.2,3.3,0.6,4.8,1.2c-1.6-4.5-2.1-9.3-1.6-13.9c0.6-5.1,2.4-9.5,5.3-12.9
		c0.4-0.5,0.8-0.9,1.3-1.3c-4.5-3.2-11.1-3.6-17,2.5c-5.3,5.4-6.4,18-6.2,29C275.4,132,280.3,130.2,285.4,130.8z M320.9,111.5
		c0.5,4.8-0.5,9.7-2.7,14.2c2.4-0.3,4.7-0.2,6.8,0.5c4.6,1.5,7.6,4.9,8.3,9.3c0.9,5.8-2.4,12.1-6,16.7c1.2,0.5,2.3,1.1,3.3,1.9
		c2.6,2,4.3,5.2,4.7,8.8c0.3,3-0.3,6-1.6,8.5c2.6,0.8,5,2.2,7,3.9c4-1.5,8.7-1.4,12.6,0c-1.2-20.9,26.7-47.8,29.6-56.8
		c3-9.4-6.1-21.6-19.2-14.7c-12.8,6.8-18.9,43.2-19.2,44.9c-4.4-14.4-7.5-27.2-5.7-37.7c5.2-31.8,22.9-34.9,21.3-51.1
		c-1.6-16.2-22.2-21.6-35.3-9.2c-9.5,9-15.7,25-13.2,49.4C316.6,101.9,320.4,106.3,320.9,111.5z"/>
	<path class="st1" d="M426.9,342.7c0.3-2.7,0.4-5.4,0.4-8.1c-8.1-3.4-15.7-9.2-20.5-16.3c-0.1-0.1-0.1-0.2-0.2-0.3
		c-0.9,0.4-1.9,0.6-2.8,0.8c-1,0.2-1.9,0.3-2.9,0.3c-3.5,0-7-1.1-10.4-3.3c-4.8-3-8.6-7.3-11.1-12.4c-1.9,0.5-3.9,0.9-5.9,0.9
		c-9.8,0.3-18.9-5.6-22.2-14.4c-2.4-6.2-1.4-12.3-0.1-16.5c-2.5-1.2-4.8-2.6-6.7-4.4c-0.8-0.8-1.6-1.6-2.3-2.4
		c-0.8,0.3-1.6,0.5-2.4,0.5c-0.9,0-1.7-0.2-2.5-0.5c-2-0.9-3.9-2.1-5.5-3.5c-2.4,0.8-5.3,1.1-8.1,0.6c-4.9-0.8-9.5-3.5-12.5-7.4
		c-0.4-0.5-0.7-0.9-1-1.4c-1.6,1.6-3.3,3.1-5.1,4.5c0.7,4.6-0.8,11-10.8,16.9c-3.6,2.1-7.2,4.1-11.5,5.5c-2.9,0.9-5.8,1.3-8.6,1.3
		c-2.8,0-5.5-0.4-7.9-1.3c-6-2.1-10.1-7-10.6-12.6c-0.3-3.1,0.5-5.6,1.6-7.7c-21.1-5.1-34.8-29.1-28.5-49.1
		c7.1,1.2,15.4,3.8,23.2,8.2c1.3-0.5,2.6-1,3.9-1.4c-0.3-0.2-0.7-0.4-1-0.5c-1.9-1.1-7.7-4.6-10-11.1c-2.8-8.2,1.5-17.5,9.6-20.7
		c0.1,0,0.1,0,0.2-0.1c-18.3-8.5-36.4-16.9-43.4-35.1c-32.3,41.4-18.9,132.8,42.4,132.5c-6.8,10.3-11.4,22.2-14.2,35.5
		c-9.7,47.6-1,97.2,12,142.5c0.9,8.4,2,16.9,3.5,25.6l0.2,1.3c4.7,27,12.2,53.7,22.3,79.6c0.4,0.8,0.7,1.5,0.9,2.3
		c0.8,2,1.6,4.1,2.4,6.1c2.8-0.2,5.6,0,8.2,0.9c0.3-0.3,0.6-0.6,0.9-0.9c-12.4-29.2-21.4-59.5-26.7-90.3l-0.3-1.7
		c-13.2-78.6,1.3-137.3,16-153.9c9.9-11.2,24.8-17,40.9-15.8c17.5,1.3,33.4,10.3,42.5,24.2c15.7,24,11.2,43.8,4.6,60.1
		c-5.9,14.8-5.1,29.7,2.2,40.8c4.8,7.3,12.1,12.5,21.2,15.1c-17.4,6-41.9,3.4-61.3-2.8c-8.2-2.6-15.8-6-21.8-9.8l-6.2-3.9l-0.3,7.3
		c-1.2,34,0.9,75.8,6.3,126.6c3.4,1.2,6.5,3.5,8.8,6.7c1-0.1,2-0.2,3.1-0.2c6,0,11.8,2,16.4,5.5c-0.6-3.4-1-6.9-1.1-10.4l0-0.1
		c-5.3-1.4-9.8-3.7-13.1-7c-3.9-3.8-6.6-9.2-8.1-15.9c-2.5-11.2-0.2-20.2,6.4-24.6c1.8-1.2,3.8-1.9,5.8-2c2.3-0.1,4.5,0.5,6.4,1.9
		c3.1,2.3,4.1,5.5,4.7,8.2c0.2,1.3,0.9,1.2,1.1,0c0.4-2.3,1.1-4.9,3.2-7c1.6-1.6,3.9-2.6,6.3-2.7c1.4-0.1,2.8,0.1,4.1,0.6
		c2.9,1,5.3,3.3,6.8,6.3c0.4,0.8,0.7,1.6,1,2.4c0.1,0.4,0.3,0.7,0.4,1.1c0.2-0.3,0.3-0.6,0.5-1l0.4-1.1c1-2.6,2.3-6.1,5.9-8
		c1.2-0.7,2.5-1,4-1.1c1-0.1,2.1,0.1,3.1,0.3c0.4,0.1,0.7-0.4,0.4-0.6c-0.8-0.8-1.6-1.7-2.5-2.6c-0.7-0.1-1.5-0.3-2.2-0.6
		c-3.4-1.3-6-4.3-7.2-8c-0.2,0.3-0.4,0.6-0.7,0.9c-2.5,3.1-6.2,5-10,5h-0.1c-4.2,0-8.2-2.3-10.3-5.9c-0.4-0.7-0.7-1.5-0.9-2.2
		c-0.6,2.3-1.9,4.4-3.6,6.1c-2.4,2.4-5.6,3.7-9,3.7c-0.4,0-0.8,0-1.2-0.1h0c-2.9-0.3-5.5-1.5-7.2-3.6c-2-2.2-2.9-5.4-2.4-8.7
		c0.6-4.5,3.5-8.4,7.6-10.3c3.8-1.8,8.2-1.6,11.5,0.3c2.2,1.3,3.7,3.4,4.4,5.8c0.4-1.3,1.1-2.5,2-3.6c1.9-2.2,4.5-3.6,8-4.2
		c0.1,0,0.3,0,0.4,0c-8.6-11.9-15.7-23.9-20.5-34.8c23.8,7,53.6,8.5,72.3-2.4c-0.2-0.1-0.4-0.3-0.6-0.4h-0.2l-1.7-1.6
		c-2.4-2.3-3.9-5-4.7-8c-1.3-5.1,0.3-10.9,4.4-16.5c-4-2.5-6.2-7.9-3.9-14.4C407.4,385.2,424.5,367.8,426.9,342.7z"/>
	<path class="st1" d="M466.5,519.3c9.5,21.9-8.2,51.2-44.3,39.4c-12.7-4.2-26.4-13.6-39.5-25.5c-0.4-0.3-1,0-0.8,0.5
		c0.5,1.6,0.9,3.5,1,5.5c0.5,11-4.9,22.2-14.1,29.1c-2.8,2.1-5.8,3.7-9.1,5l-0.3,1.8c-0.5,2.9-0.7,5.8-0.7,8.8l0,3
		c1.5,0.1,2.9,0.3,4.4,0.6c1.9-6.4,6.1-11.9,11.8-15.2c9.9-5.6,23.3-3.7,31.2,4.5c3.6,3.7,5.9,8.7,6.7,13.9c0.5,0,1,0.1,1.5,0.2
		c0-0.1,0-0.3,0.1-0.4c0.2-0.6,0.3-1,0.4-1.3c0.7-2.1,2.7-3.6,4.9-3.8c10.7-0.7,21.3,3.4,28.9,10.7c3.5-8.6,10-16.2,18.5-21
		c2-1.1,4.4-0.9,6.1,0.5c0.8-2.2,1.8-4.4,2.9-6.4c1.5-2.6,4.8-3.5,7.4-2.1c2.7,1.4,5.2,3.3,7.3,5.5
		C499.3,554.2,494.7,522.8,466.5,519.3z"/>
	<path class="st2" d="M446.2,431.5c-5.4-19.5-30-10-40.8,2.8c-3.8,4.5-5.9,9.4-4.9,13.6c0.5,2.1,1.6,3.9,3.2,5.4h0
		C415.9,465.2,454.3,460.5,446.2,431.5z M428.1,425.6c4.1-1.2,8,0,8.9,2.9c0.9,2.8-1.7,6.1-5.8,7.4c-4.1,1.2-8,0-8.9-2.9
		C421.4,430.2,424,426.9,428.1,425.6z M305.8,358.3c0.4-0.2,0.6-0.3,0.6-0.3c-0.2-1.7-0.4-3.4-0.5-5.3c-0.1,0-0.1,0-0.2-0.1
		c-0.2-0.1-0.4-0.1-0.9-0.3c-0.4-0.1-0.9-0.3-1.4-0.4c-1.8-0.7-4-1.9-5.7-3.6c-1.8-1.7-3-3.8-3.4-5.5c-0.2-0.8-0.3-1.5-0.4-2
		c0-0.5,0-0.8,0-0.8c0-0.4,0.2-0.8,0.6-1.1c0.6-0.3,1.3-0.1,1.6,0.4l0.1,0.1c0,0,0.4,0.7,1.3,1.5c0.9,0.8,2.3,1.4,3.7,1.6
		c1.4,0.2,2.8,0,3.8-0.2c0.3-0.1,0.4-0.2,0.5-0.2c0.1-0.1,0.3-0.1,0.5-0.2c0.1-1.6,0.2-3.2,0.3-4.9c0.2-2.3,2.3-4,4.5-3.8
		c2.3,0.2,4,2.2,3.8,4.5c-2,22,2.1,31.6,6.5,33.2c4.4,1.6,11.7-3.3,17.8-12c1.3-1.9,3.9-2.4,5.8-1c1.9,1.3,2.4,3.9,1,5.8
		c-7.1,10.2-15.5,15.9-22.9,15.9c-1.6,0-3.1-0.3-4.6-0.8c-3.3-1.2-6.7-3.9-9.2-9.6c-0.5,0-1,0-1.5,0c0,0-0.2,0-0.7-0.1
		c-0.2,0-0.4-0.1-0.9-0.1c-0.4-0.1-1-0.1-1.4-0.2c-1.9-0.4-4.2-1.3-6.2-2.8c-2-1.4-3.5-3.4-4.2-5c-0.4-0.8-0.5-1.5-0.6-2
		c-0.1-0.5-0.1-0.7-0.1-0.7c-0.1-0.4,0.1-0.9,0.4-1.1c0.5-0.4,1.3-0.3,1.7,0.2l0.1,0.1c0,0,0.5,0.7,1.5,1.3c1,0.6,2.4,1,3.9,1
		c1.4,0,2.8-0.4,3.7-0.8c0.2-0.1,0.3-0.2,0.5-0.3C305.4,358.5,305.6,358.4,305.8,358.3z"/>
	<path class="st3" d="M317.8,643.9c-0.1-6.9,3.5-13.9,9.6-18.7c0.2-0.2,0.4-0.3,0.6-0.5c-1.2-2.3-2.1-4.8-2.5-7.2
		c-1.3-8,1.9-16.7,8.3-22.6c0.7-0.6,1.4-1.2,2.2-1.8c-0.1-0.1-0.1-0.2-0.2-0.2c-4-4.9-10.3-7.8-16.7-7.8c-2,0-4,0.3-5.9,0.9
		c-1.9-4.4-6.1-8.3-11-8.3c0,0,0,0-0.1,0c-4.8,0-9.5,3-11.4,7.4c-2.3-1.9-5.2-2.8-8.1-2.8c-1.6,0-3.3,0.3-4.9,0.8
		c-4.4,1.5-8,5.3-9.2,9.8c-1.2,4.5,0.1,9.6,3.3,13c-0.2,0-0.4,0-0.5,0c-4.1,0-8.4,2.5-10.6,5.9c-2.3,3.6-2.5,8.5-0.5,12.3
		c2,3.8,6.2,6.4,10.5,6.5c-5,5.6-4.6,15.4,0.2,21c3,3.5,7.5,5.3,12.1,5.3c2.9,0,5.8-0.8,8.3-2.3c1.3,3.4,4.1,5.9,7.4,7.5
		c2.1,1.1,4.5,1.7,6.9,1.7c1.3,0,2.5-0.2,3.8-0.5c3.2-0.9,6.4-3.2,6.9-6.5c2.4,2.1,5.7,3.1,9.1,3.1c0.1,0,0.1,0,0.2,0
		C320.8,655.9,317.8,650.1,317.8,643.9z M299.3,632.1c-5.3-1.4-9.3-7.2-8.2-12.6c1-5,5.6-8.5,10.3-9.8c6.7-1.9,14.6-0.1,14.8,8.1
		C316.2,626.4,308.2,634.4,299.3,632.1z"/>
	<path class="st4" d="M295.5,382.8c-2,3.5-8.5,3.5-14.6,0c-6-3.5-9.3-9.1-7.3-12.6c2-3.5,8.5-3.5,14.6,0
		C294.3,373.7,297.5,379.3,295.5,382.8z M430.9,635.4c3,3.7,4.4,8.9,4,14.2c-0.3,3.6-1.4,6.6-3.3,8.9c-2.4,2.9-6.3,4.8-11.2,5.4
		c-2,0.2-4,0.3-6,0.1c0.7,3.3,0.8,6.9,0.1,10.3c-0.8,3.8-2.5,6.7-5,8.4c-1.9,1.3-4.3,2-7,2c-0.8,0-1.7-0.1-2.5-0.2
		c-6.9-0.9-13.2-4.8-17.4-10.4c-2,3.1-4.8,5.7-8.1,7.3c-6.7,3.3-15.2,2.1-20.2-2.9c-3.9-3.9-5.1-9-5.5-12.6c-0.2-2.1-0.2-4.1,0-6.2
		c-4.6,1.2-9,1.1-13-0.2c-7.2-2.4-12.3-8.9-12.4-15.8c0-5.2,2.7-10.5,7.4-14.3c1.6-1.3,3.4-2.3,5.2-3.2c-2.6-2.7-4.4-6.3-5-9.8
		c-1-6.2,1.5-12.9,6.6-17.5c5.3-4.8,11.9-6.4,16.5-6.8c4.2-0.4,9.1,0.6,13.5,1.7c0.3-6.8,4-13.5,10.1-17c7.7-4.4,18.2-2.9,24.4,3.5
		c4.1,4.2,5.9,10.2,5.4,16c4.9-0.9,10-0.2,14.3,2.2c7,4,11.2,12,10.5,20c-0.4,4.8-2.5,9.3-5.8,12.7
		C428.1,632.5,429.6,633.8,430.9,635.4z M427.4,649c0.3-3.4-0.6-6.7-2.4-8.9c-1.8-2.3-4.6-3.5-7.2-3.1c-1.9,0.3-3.7-0.9-4.2-2.8
		c-0.5-1.9,0.5-3.8,2.3-4.4c4.8-1.7,8.4-6.5,8.9-11.6c0.4-5.1-2.4-10.4-6.8-12.9c-4.4-2.5-10.2-2.2-14.4,0.8c-1.5,1-3.4,0.9-4.7-0.3
		c-1.3-1.2-1.5-3.2-0.6-4.7c2.9-4.7,2.2-11.4-1.6-15.4c-3.8-4-10.5-4.9-15.3-2.2c-4.8,2.7-7.4,9-5.9,14.3c0.3,1.3,0,2.6-0.9,3.5
		c-0.9,0.9-2.2,1.4-3.5,1.1c-1.3-0.3-2.6-0.6-4.1-0.9c-4.2-1-8.9-2.1-12.3-1.8c-4.9,0.5-9.2,2.2-12.2,4.9c-3.2,2.9-4.8,7.1-4.2,10.8
		c0.6,3.6,3.6,7.7,7,7.9c1.8,0.1,3.3,1.5,3.5,3.3c0.2,1.8-0.9,3.5-2.7,4c-3.6,1.1-7.6,2.5-10.7,4.9c-2.9,2.3-4.6,5.4-4.6,8.3
		c0,3.7,3.1,7.5,7.2,8.8c3.8,1.3,8.6,0.7,13.4-1.7c1.2-0.6,2.7-0.5,3.8,0.3c1.1,0.8,1.7,2.2,1.5,3.5c-0.5,3.5-1,7.1-0.6,10.5
		c0.3,3.4,1.5,6.2,3.3,8c2.8,2.8,7.8,3.4,11.6,1.5c3.9-1.9,6.6-5.8,7.2-10.4c0.2-1.8,1.7-3.1,3.4-3.2c0.1,0,0.2,0,0.3,0
		c1.7,0,3.1,1.1,3.6,2.7c1.9,6.9,8.2,12.3,15.3,13.2c1.9,0.3,3.4,0.1,4.3-0.5c0.9-0.6,1.6-2,1.9-3.8c0.9-4.2,0.2-8.5-2-11.9
		c-0.8-1.3-0.8-3.1,0.2-4.3c1-1.2,2.6-1.7,4.1-1.2c3.2,1.1,6.6,1.5,9.9,1.1c2.1-0.2,4.8-0.9,6.3-2.7
		C427,652.4,427.3,650.4,427.4,649z M368.3,530.1c-2.3,1.3-3.1,4.2-4.1,6.6c-0.9,2.2-2.7,4.5-4.9,4.6c-0.3,0-0.6,0-0.9-0.1
		c-1.4-0.3-2.4-1.5-3.1-2.8c-0.6-1.3-1-2.7-1.7-3.9c-0.9-1.7-2.3-3.3-4.2-3.9c-0.7-0.3-1.5-0.4-2.2-0.3c-1.2,0.1-2.4,0.5-3.2,1.4
		c-1.7,1.7-1.8,4.4-2.1,6.8c-0.3,2.4-1.4,5.2-3.8,5.6c-0.1,0-0.3,0-0.4,0.1c-2.2,0.1-4.1-2.1-4.9-4.3c-1-3-1-6.9-3.8-8.9
		c-1-0.8-2.2-1.1-3.3-1c-1.2,0.1-2.3,0.5-3.4,1.2c-6.1,4.1-5.7,13.3-4.3,19.6c1.1,5,3.1,9.9,6.8,13.5c3.6,3.6,8.6,5.5,13.7,6.4
		c2.8,0.5,5.6,0.6,8.4,0.5c6.8-0.4,13.5-2.6,19-6.7c7.7-5.8,12.6-15.4,12.1-25c-0.1-2.7-0.7-5.4-2.4-7.5c-1.3-1.5-3.3-2.5-5.2-2.4
		C369.6,529.6,368.9,529.8,368.3,530.1z M258,213.1c-2.5-1.5-5.9-3.8-7.2-7.7c-1.7-5,1-10.9,6-12.9c3.1-1.2,6.3-0.8,9.3-0.1
		c4.4,1,8.8,2.3,14,4.3c4.7,1.8,7.4,5.6,7.5,10.2c1.8,0.4,3.7,0.6,5.5,0.8c0.5,2.4,1.6,4.7,3.1,6.7c-0.8,0.9-1.4,1.8-2.1,2.8
		c-3.1-0.5-6.2-1.4-9.1-2.7c-1,1.2-2.2,2.3-3.6,3c-1.8,0.9-3.8,1.4-6.1,1.4c-2.2,0-4.6-0.4-7.2-1.3C264.5,216.5,261.2,215,258,213.1
		z M257.4,203.2c0.6,1.7,2.6,3.1,4.2,4c2.7,1.6,5.6,2.9,8.6,3.9c3.6,1.1,6.1,1.3,7.9,0.3c1.3-0.7,2.2-2,2.4-3.4
		c0.3-2.2-0.7-3.8-2.9-4.6c-4.9-1.9-9-3.1-13-4h0c-1.1-0.2-2.3-0.5-3.5-0.5c-0.6,0-1.3,0.1-1.8,0.3
		C257.8,199.6,256.9,201.7,257.4,203.2z M297.4,256.9c0.1,0.2,0.3,0.5,0.5,0.7c2.4,4.6,0.1,9.1-6.9,13.2c-3.4,2-6.6,3.8-10.2,4.9
		c-2.3,0.7-4.5,1.1-6.7,1.1c-2.1,0-4-0.3-5.8-1c-3.7-1.3-6.1-4.1-6.4-7.3c-0.3-3.7,2.4-6.5,3.4-7.6c3.2-3.4,6.9-6.3,10.9-8.6
		c2.1-1.2,4.8-2.6,8-2.8c3-0.2,6.3,1,9.1,3c2.7-2,5.4-4.2,7.9-6.5c2.1,1.1,4.3,1.9,6.7,2.3C304.7,251.6,301.2,254.5,297.4,256.9z
		 M291.6,260.8c-1.2-2.3-4.7-4.5-7.1-4.3c-1.6,0.1-3.3,1-4.8,1.8c-3.5,2-6.6,4.5-9.4,7.4c-1.4,1.5-1.4,2-1.4,2.1
		c0,0.2,0.6,0.8,1.8,1.3c2.9,1,6,0.5,8.1-0.2c2.9-0.9,5.7-2.4,8.7-4.2C292,262,291.7,261,291.6,260.8z M271.9,246.1
		c-3,0.4-5.9,0.8-8.7,0.8c-0.8,0-1.7,0-2.5-0.1c-4.7-0.4-8.7-2-11.7-4.6c-2.9-2.6-4.2-6.1-3.2-9.1c1.1-3.6,4.6-5.1,5.9-5.7
		c4.3-1.9,8.7-3.2,13.4-3.9c2.4-0.3,5.5-0.6,8.4,0.4c2.9,1,5.5,3.3,7.3,6.2c3.4-0.9,6.7-2,9.9-3.2c-0.2,2.2-0.1,4.5,0.5,6.7
		c-2.7,1-5.4,1.7-8.2,2.1c0,0.3,0.1,0.6,0.2,0.8C283.7,241.7,279.9,244.9,271.9,246.1z M270.9,239.1c5.2-0.8,5.4-1.8,5.3-2
		c-0.3-2.6-2.7-5.9-5-6.7c-0.7-0.3-1.6-0.3-2.4-0.3c-0.9,0-1.9,0.1-2.8,0.2c-4,0.6-7.8,1.7-11.5,3.4c-1.9,0.9-2.1,1.4-2.1,1.4
		c-0.1,0.2,0.2,1,1.2,1.8c2.3,2,5.4,2.7,7.6,2.9C264.3,240.1,267.4,239.6,270.9,239.1z M339.7,260.8c-2.9-1.3-5.4-3.4-6.7-6.2
		c-1.4,2.1-4,3-6.5,3c-0.6,0-1.3-0.1-1.9-0.2c-3.4-0.6-6.5-2.4-8.6-5.1c-2.1-2.7-3.6-5.9-3.4-9.3c-0.6,0.1-1.3,0.1-1.9,0.1
		c-6.3,0-12.5-4.4-14.3-10.5c-1.9-6.7,1.6-15.2,8-18c-3.6-1.8-6.2-5.6-6.4-9.6c-0.3-4,1.8-8.1,5.2-10.3c1.9-1.3,4.3-1.9,6.7-1.9
		c1.8,0,3.6,0.4,5.1,1.2c-1.4-4.2-0.5-9,2.2-12.4c2.5-3.1,6.4-4.9,10.3-4.9c0.4,0,0.9,0,1.3,0.1c4.4,0.5,8.4,2.8,10.4,6.7
		c2.1-1.9,5-2.9,7.9-2.9c1.6,0,3.3,0.3,4.8,1c4.1,1.9,6.2,6.8,6.1,11.4c7.8,1,14.6,7.1,16.6,14.6c0,0.1,0,0.2,0.1,0.3
		c-0.9,0.2-1.7,0.4-2.6,0.7c-7.8,2.5-13.9,8.6-15.8,16c-0.6,2.2-0.8,4.7-0.7,7.1c-0.2,0.1-0.5,0.1-0.7,0.2
		c-7,1.7-12.8,6.3-15.4,12.2C337.1,249.3,337.3,255.4,339.7,260.8z M326.1,212.8c-3,4.2-1.8,10.6,2.1,13.9
		c6.6,5.5,16.6,1.7,19.8-5.7c3.1-7.1-2.9-11.7-9.4-12.6C334.1,207.8,328.9,208.9,326.1,212.8z"/>
	<path class="st5" d="M231,566.5c0.7,0.5,1.3,1,2,1.5c-2-4.4-3.7-8.9-4.9-13.5c-4.1-3.2-7.2-7.7-8.8-12.6c-1.1-3.5-1.5-7.3-0.5-10.9
		c1-3.5,3.7-6.7,7.2-7.8c3.5-1.1,7.8,0.2,9.6,3.4c4.6,8,3,18.8-2,26.8c1.5,4.3,3.4,8.6,5.5,12.6c0-2.2,0.1-4.5,0.5-6.7
		c0.9-5.3,3.2-10.5,7.2-14c1.7-1.5,3.7-2.7,5.9-2.9c10.8-1.2,7.3,16.5,4.2,21.9c-2.8,4.8-7.5,8.5-12.8,10.2c2.7,4.1,5.8,8,9.1,11.6
		c0-0.7-0.1-1.3-0.1-2c0-4.5,1-9.1,3.9-12.6c2.5-3,7.2-5.5,11.2-4.6c4,1,6.3,6.1,5.3,9.8c-0.3,1.1-0.8,2.1-1.5,3
		c-2.7,1.7-5,4-6.6,6.8c-2,1.9-4,3.8-5.9,5.8c1.1,1,2.1,1.9,3.2,2.8c-0.2,2.4,0.1,4.9,0.8,7.2c-0.7,0.3-1.3,0.7-2,1.1
		c-2.2-1.6-4.3-3.3-6.4-5.2c-3.1,4.2-6.5,8.1-10.9,10.8c-7.6,4.6-24.3,4.1-21.1-8.9c1-4.2,4.6-7.5,8.6-9c4.1-1.5,8.6-1.3,12.8-0.3
		c1.5,0.4,3,0.9,4.5,1.4c-4-4.3-7.5-8.9-10.6-13.9c-3,2-6.3,3.8-9.5,4.9c-4.5,1.5-10.3,1.7-14.5-0.8c-7.8-4.6-5.2-15.8,2.9-18.4
		C221.9,562.6,227,563.9,231,566.5z M340.1,574.4c0.2,3.9,0.6,7.8,1.3,11.6c2.9-1.1,6.1-1.8,9.4-2.1c0.8-0.1,1.5-0.1,2.3-0.1
		c0-3.3,0.2-6.5,0.8-9.8c-2.6,0.5-5.3,0.7-8.1,0.7C343.9,574.7,342,574.6,340.1,574.4z M528.5,551.1c-3.7,6.3-5.5,13.8-5.2,21.2
		c-3,5.2-6.5,10.1-10.4,14.7c4-9.8,4.7-21.2,0.9-30.5c-1.5-3.6-3.8-6.5-7.2-8.3c-9.8,13.8-10.7,33.2-2.4,47.9
		c-3.1,2.8-6.3,5.4-9.7,7.8c2.5,0.2,5,0.7,7.4,1.1c3.6-2.8,7-5.8,10.3-9c3.8,5.9,10,9.7,17,8.9c7.9-0.9,14.5-6.5,20-12.2
		c-5.4-4.3-12.4-6.7-19.4-6.5c-3.7,0.1-7.4,0.9-10.8,2.4c2.9-3.3,5.5-6.7,8-10.2c9.5-1.5,17.7-5.6,22.5-14.1
		c5.3-9.4,5.6-20.6,1-30.3C541.5,536.6,533.4,542.8,528.5,551.1z M490.5,603.6l0.3,0c0.4,0,0.7,0,1,0c1.7-4.2,2.6-8.6,2.2-12.4
		c-0.7-8.1-5.9-15.6-13.1-19.4c-1.4,2.5-2.6,5.2-3.4,7.9c3.7,4.6,6.2,10.2,7.1,16c0.4,2.9,0.5,5.8,0.1,8.7
		C486.6,603.9,488.5,603.6,490.5,603.6z M522.5,619.8c-2.7-4.3-6.7-7.7-11.3-9.8l-0.1,1.7c-0.4,5.8-2.4,11.4-5.5,16.3
		C512,628,518.4,624.9,522.5,619.8z M507.7,635c-2.1-0.8-4.2-1.2-6.4-1.6c-2.5,2.6-5.3,4.8-8.3,6.5c6,6.1,9.9,14.2,10.9,22.8
		c8,1,16.8-0.4,22.8-4.5C525.9,647.7,517.6,638.6,507.7,635z M290.2,185.9c4.8-0.6,9.2-2.6,13.5-5c1,2.3,2.2,4.6,3.4,6.9
		c0.7-0.1,1.4-0.2,2.1-0.2c0.3-2.3,1-4.4,2.1-6.5c-0.6-1.2-1.2-2.4-1.7-3.6c2.4-1,4.8-1.8,7.3-2.7c2.4-1.7,5.2-2.8,8.2-3.2
		c0.9-0.5,1.8-1.2,2.4-2c2.3-2.8,2.3-8.1-0.7-10.4c-3-2.4-8-2-11.3-0.4c-3.8,1.9-6.5,5.4-8.2,9.2c-0.3,0.6-0.4,1.2-0.7,1.7
		c-1.4-4.4-2.5-8.9-3.3-13.4c5.2,0.6,10.6-0.7,14.9-3.7c4.7-3.3,14.5-17.2,4.8-20.3c-2-0.6-4.2-0.4-6.2,0.2c-4.8,1.5-8.8,5-11.6,9.2
		c-1.2,1.8-2.2,3.6-3,5.5c-0.3-4.3-0.2-8.6,0.2-12.9c7.4-4.9,13-13.5,12.1-22.1c-0.3-3.4-3.5-6.2-6.9-6.6c-3.4-0.4-6.9,1.3-9.1,3.9
		c-2.3,2.6-3.4,6-3.8,9.5c-0.5,4.8,0.4,9.8,2.6,14.2c-0.7,4.4-1,8.9-1,13.4c-0.3-0.7-0.7-1.4-1.1-2.1c-2.4-3.8-6.2-6.8-10.6-7.4
		c-7.9-0.9-14.5,7.6-9.6,14.6c2.6,3.7,7.7,5.8,12.1,6.3c3.2,0.3,6.7,0.1,10-0.5c0.7,5.4,2,10.8,3.7,16c-1-1-2.1-2-3.3-2.9
		c-3.2-2.5-7-4.4-11-4.7c-4-0.3-8.3,1.2-10.9,4.3C267.8,179.9,281.9,186.9,290.2,185.9z M394.1,209.9c1.2-2.8,2.7-5.5,4.4-8
		c-4.2-1.1-8.2-2.8-11.9-5.1c-1.4,3.4-2.5,6.9-3.4,10.4c2.9,0.2,5.9,0.8,8.8,1.9C392.8,209.3,393.4,209.6,394.1,209.9z M529.8,284.3
		c-6.7,1.7-12.8,5.4-17.5,10.4c-5.5,1.4-11,2.3-16.6,2.7c9.1-3.7,17.2-10.8,21-19.5c1.4-3.3,1.8-6.8,0.8-10.3
		c-15.6,2.5-29.2,14.7-33.6,29.9c-5.5-0.3-10.9-1-16.2-2.1c5-1.6,9.8-4.4,12.7-7.8c4.9-5.8,6.6-14.2,4.4-21.5
		c-12.8,3.3-23.2,14-26.6,26.7c-4.6-1.5-9-3.3-13.3-5.4c-0.2,1.9-0.7,3.8-1.4,5.7c5.7,2.5,11.6,4.5,17.6,6
		c-2.2,6.1-3.3,13.3,0.4,18.2c4.2,5.7,11.6,8.8,18.7,8.1c1.4-6.2,0.3-12.9-3-18.2c-1.4-2.3-3.2-4.2-5.2-5.9
		c5.8,0.9,11.6,1.4,17.4,1.5c-1.4,6.4,0.1,13.1,5.2,17.2c5.8,4.7,13.9,5.4,21.3,5.3c-0.7-6.5-3.7-12.7-8.4-17.2
		c-2.5-2.4-5.5-4.3-8.7-5.6c4.1-0.2,8.1-0.7,12.1-1.3c7.2,5.3,15.4,8.2,24.2,5.8c9.7-2.6,17.4-9.8,20.9-19.2
		C548,283.4,538.5,282.1,529.8,284.3z M448.9,241.6c0.3,0.4,0.6,0.7,0.9,1.1c5.6,7.7,6.2,18.5,1.5,26.8c-1.2,2.1-2.8,4.1-4.5,5.7
		c4.3-0.1,8.4-1,11.9-3c10.7-6,18.3-17.4,18.4-29.7C468.2,239,458.1,238.8,448.9,241.6z M439.2,300.4c-1.7,2.1-3.7,3.7-6,4.9
		c-4.5,2.2-9.8,2.3-15.6,0.5c-0.1,0-0.2-0.1-0.4-0.1c-0.8,1.7-1.7,3.3-2.8,4.8c-0.9,1.2-1.9,2.3-3,3.3c0.2,0.3,0.4,0.7,0.6,1
		c6.2,9.2,19.4,17.1,30.5,16.6C447.6,321.8,445.6,309.3,439.2,300.4z"/>
	<path class="st6" d="M230.8,650.1c2,0,4-0.1,6-0.3c6.1-0.7,10.3-2.7,12.9-6c1-1.3,1.8-2.9,2.2-4.5c3.4,0,6.8-0.5,10-1.4
		c0.2-1.2,0.4-2.5,0.8-3.7c-2.3-1.3-4.3-3-5.9-5.1c-1.9,0.7-3.8,1.3-5.7,1.7c-2.1-4.5-6.4-7-11.8-6.6c-5.9,0.4-10.9,1-15.5,2
		c-3.2,0.7-6.5,1.7-9,4.2c-4,4.1-4,11-0.1,15.1c3,3.2,7.4,4,10.4,4.3C227,650,228.9,650.1,230.8,650.1z M220.1,635.6
		c1-1.1,2.8-1.6,5.2-2.1h0c4.3-0.9,8.9-1.5,14.4-1.9c0.2,0,0.3,0,0.5,0c2.3,0,3.8,1.1,4.4,3.2c0.4,1.5,0.1,3.2-0.8,4.4
		c-1.3,1.7-3.9,2.7-7.8,3.2c-3.3,0.4-6.7,0.4-10.1,0c-1.9-0.2-4.5-0.6-5.8-2C218.9,639.1,219,636.8,220.1,635.6z M283.1,662.7
		c-0.6,0-1.1,0-1.7-0.1c-1.4,3.4-3,6.6-4.8,9.8c-3.5-0.7-7.2-0.4-10.1,1.1c-3,1.5-5.1,4.1-6.5,6.2c-2.9,4.1-5.2,8.5-6.8,13.2
		c-0.5,1.5-1.9,5.4,0.1,8.8c1.5,2.7,4.6,4.3,8.3,4.3c0.4,0,0.7,0,1.1,0c4.2-0.4,8.4-2.3,12.1-5.6c3-2.7,5.3-5.8,7.7-9.2
		c5-7,5.3-12.4,0.9-15.8c-0.2-0.2-0.5-0.3-0.8-0.5c2.7-4,4.8-8.4,6.3-13C287.1,662.4,285.1,662.7,283.1,662.7z M276.4,686.9
		c-2.2,3.1-4.2,5.8-6.6,8c-1.8,1.6-4.5,3.5-7.8,3.8c-1.3,0.1-2.2-0.3-2.3-0.4c0-0.1-0.3-0.6,0.5-2.7c1.4-4,3.4-7.9,5.9-11.4
		c1-1.5,2.3-3.1,3.9-3.9c0.9-0.4,2-0.7,3.2-0.7c2,0,4.2,0.6,5.6,1.7C279,681.4,279.6,682.3,276.4,686.9z M259.9,661.3
		c-0.1-0.3-0.3-0.5-0.5-0.8c2.5-1.7,4.8-3.6,7-5.7c-1.5-1.9-2.6-4-3.4-6.3c-2.6,2.7-5.4,5.2-8.2,7.5c-3-2-6.6-3.1-9.8-2.7
		c-3.3,0.3-6.2,1.9-8.4,3.3c-4.2,2.7-8,5.9-11.3,9.7c-1,1.2-3.8,4.3-3.2,8.2c0.4,3.4,3.2,6.2,7.2,7.4c1.7,0.5,3.5,0.8,5.4,0.8
		c2.6,0,5.2-0.5,8-1.5c3.8-1.4,7.1-3.4,10.6-5.7C260.4,671,262.6,666.2,259.9,661.3z M249.1,669.4c-3.2,2-6,3.8-9.1,4.9
		c-2.2,0.8-5.5,1.5-8.6,0.6c-1.3-0.4-1.9-1.1-2-1.3c0-0.1,0-0.6,1.4-2.3c2.8-3.2,6.1-6,9.7-8.3c1.5-1,3.3-2,5.1-2.2h0
		c0.1,0,0.3,0,0.4,0c2.6,0,6,2,7.4,4.3C253.5,665.2,253.8,666.3,249.1,669.4z M326.8,515.2L326.8,515.2c-1.3-0.1-2.7-0.7-3.6-1.7
		c-1-1.1-1.3-2.8-1.1-4.3c0.3-2.6,2-4.9,4.4-6c3.4-1.6,8.2-0.6,8.4,3.6C335.2,511.6,331.5,515.7,326.8,515.2z M357,510.7
		c-1.4,1.7-3.5,2.9-5.7,2.9c-2.2,0-4.4-1.2-5.5-3.1c-1.1-1.9-0.9-4.5,0.5-6.1c1.2-1.4,3-2,4.8-2.4C356.6,501,360.9,505.8,357,510.7z
		 M380.9,510.8c-0.4,1.8-1.6,3.3-3.1,4.2c-1.9,1.3-4.4,1.8-6.6,1c-2-0.8-3.4-2.6-4-4.7c-0.9-3.2,0.6-7,3.5-8.5
		C375.8,500.1,382.1,505.3,380.9,510.8z M481.7,638.3c6.3-1.2,12.1-4.8,16.4-9.6c4.3-4.8,6.9-11,7.4-17.4c-5-1-9.7-2.2-14.7-2.2
		c-0.1,0-0.2,0-0.2,0c-5.1,0-11.2,3.2-15.4,6.1c3.5-5.5,5-12.3,4-18.7c-1-6.4-4.3-12.5-9.3-16.7c-10.4,5.9-18.1,17.3-18.4,29.2
		c-5.3-11-17.2-18.2-29.4-18.2c-0.7,0-1.3,0-2,0.1c-0.1,0.4-0.2,0.7-0.3,1.1c1.7,0.5,3.3,1.2,4.8,2.1c8.8,5.1,14.2,15.2,13.3,25.4
		c-0.3,4-1.7,7.9-3.7,11.3c0.4,0.4,0.8,0.8,1.1,1.3c3.5,4.4,5.4,10,5.3,16.1c1.5-0.8,2.9-1.6,4.3-2.6c-5.2,11.5-3,25.8,5.6,35.1
		c7.7-7.3,12.7-18,12.3-28.7c6.6,8.7,17.3,13.8,28.1,13.8c2.5,0,5.1-0.3,7.6-0.9C497.8,653.8,491.3,643.6,481.7,638.3z M466.9,633.4
		c-1.3,5.8-8,10.3-13.3,6.5c-5-3.6-9.5-10.9-5-16.7c2.9-3.8,8.8-4.2,12.9-1.8C465.5,623.9,467.9,628.9,466.9,633.4z M392,623.3
		c2,5.1,1.4,13.5-3.2,17.1c-6.2,4.8-15.6,5.3-21.8,0.3c-4.1-3.2-6.4-8.6-6-13.7c0.5-5.2,3.8-10,8.6-12.1c3.9-1.7,8.5-1.6,12.5-0.3
		C386.4,616,390.4,619,392,623.3z M394.5,134.9c-0.4-1.4,0-2.9,0.7-4.1c1.3-2.1,3.6-3.4,6.1-3.4c3.5,0,7.2,2.6,5.8,6.4
		c-1.5,4.1-6.3,6.1-10.2,3.9C395.8,137.1,394.8,136.1,394.5,134.9z M415,141.1c-0.2-2,0.9-4.2,2.8-5.1c1.5-0.7,3.3-0.6,5-0.2
		c5.1,1.2,6.9,7,1.6,9.7c-1.8,0.9-4.1,1.1-5.9,0.3C416.6,145,415.1,143.1,415,141.1z M432.9,150.1c0.5-3.1,3.2-5.7,6.3-5.9
		c5.3-0.4,8.7,6.5,5.6,10.7c-1,1.4-2.6,2.1-4.3,2.4c-2.1,0.3-4.5-0.2-6-1.7C433.1,154.2,432.6,152,432.9,150.1z M382.6,260.3
		c-2.2-4.3-2.2-9.8,0.2-14c2.4-4.2,7.2-7.1,12-7c4,0,7.9,1.9,10.8,4.6c3,2.9,5.3,7,5.1,11.3c-0.3,5.2-4,12.1-9.4,13.3
		C394.2,270.2,386,267,382.6,260.3z"/>
	<path class="st7" d="M410.1,307.4c2-2.7,3.3-5.7,3.9-8.9c1.6,0.9,3.3,1.7,5.1,2.2c4.4,1.4,8.4,1.3,11.7-0.2
		c2.5-1.2,4.6-3.3,6.3-6.3c2.4-4.3,3.2-9.3,2.1-13.7c-0.5-1.8-1.2-3.5-2.3-5c4.1-1.7,7.7-4.7,9.9-8.6c3.7-6.6,3.2-15.1-1.2-21.2
		c-2.7-3.8-6.8-6.4-11.3-7.5c2.7-4.7,3.4-10.6,1.6-15.8c-2.8-7.9-11.2-13.2-19.4-12.5c-6.5,0.6-12.3,4.8-15.2,10.6
		c-3.4-2.6-7.1-5.4-10.9-6.7c-4.1-1.4-10.3-2.7-16.7-0.6c-6.1,2-10.9,6.7-12.4,12.4c-0.9,3.2-0.7,7,0.5,10.3
		c-1.9,0.1-3.8,0.3-5.7,0.7c-5.5,1.4-9.9,4.8-11.9,9.3c-2.6,6-0.8,13.5,4.4,18.3c2.9,2.6,6.7,4.4,11,5.2c-0.9,1.7-1.7,3.4-2.4,5.3
		c-1.1,3.2-2,8.1-0.2,12.9c2.4,6.2,9.1,10.5,16.1,10.3c3.5-0.1,6.9-1.2,9.8-3.1c1.4,6.3,5.3,12.2,10.8,15.6c2.5,1.5,4.8,2.3,7.1,2.3
		c0.6,0,1.2-0.1,1.8-0.2C405.4,312.1,408,310.3,410.1,307.4z M397.4,304.6c-5.7-3.5-8.9-10.6-7.9-17.2c0.2-1.6-0.7-3.2-2.2-3.8
		c-0.4-0.1-0.8-0.2-1.2-0.2c-1.2,0-2.3,0.6-3,1.6c-2.3,3.6-6.1,5.9-10.2,6.1c-4,0.2-8-2.3-9.3-5.8c-0.8-2.2-0.7-5.1,0.3-8.1
		c1-3,2.9-5.9,4.6-8.7c0.7-1.1,0.7-2.5,0.1-3.6c-0.6-1.1-1.8-1.8-3.1-1.8c-5.1,0.1-9.3-1.2-12.1-3.8c-3-2.7-4.2-7.2-2.8-10.3
		c1.1-2.5,3.8-4.5,7.2-5.3c3.6-0.9,7.6-0.5,11,0c1.7,0.2,3.3-0.8,3.8-2.4c0.5-1.6-0.2-3.4-1.7-4.2c-2.8-1.5-3.8-6.2-2.9-9.4
		c0.9-3.4,4-6.3,7.8-7.5c3.6-1.1,7.9-1,12.3,0.6c3,1,6.6,3.8,9.8,6.3c1.1,0.8,2.1,1.7,3.1,2.4c1,0.7,2.3,0.9,3.4,0.4
		c1.1-0.5,1.9-1.5,2.1-2.7c0.8-5.1,5.4-9.4,10.6-9.9c5.1-0.5,10.5,3,12.2,7.8c1.7,4.9-0.3,10.9-4.6,13.7c-1.4,0.9-1.9,2.7-1.3,4.2
		c0.6,1.5,2.3,2.4,3.9,2.1c4.8-0.9,9.9,1,12.6,4.9c2.8,3.9,3.1,9.5,0.8,13.6c-2.3,4.2-7.3,6.8-12,6.5c-1.8-0.1-3.4,1.1-3.7,2.9
		c-0.3,1.8,0.8,3.5,2.5,4c2.4,0.7,4.3,2.8,5,5.4c0.7,2.6,0.2,5.8-1.4,8.6c-0.6,1.2-1.7,2.7-3.2,3.4c-2,1-4.6,0.5-6.5-0.1
		c-3-1-5.8-2.6-8.1-4.8c-1.1-1-2.7-1.2-4-0.6c-1.3,0.7-2.1,2.1-1.9,3.6c0.5,3.7-0.6,7.6-2.9,10.9c-1,1.4-2.1,2.3-3.1,2.5
		C400.4,305.9,399,305.5,397.4,304.6z M374.7,178.1c-1.7-5.4-1.2-11.3,0.3-16.7c1.9-6.9,6.2-16.1,14.3-17c0.3,0,0.7-0.1,1-0.1
		c2.4,0,4.6,1,5.7,3.3c1.7,3.5-0.3,7.2-0.9,10.7c-0.4,2.7,0.4,6.1,3,6.9c0.4,0.1,0.7,0.2,1.1,0.2c2.2,0,4.2-1.8,5.5-3.7
		c1.6-2.2,3-4.8,5.6-5.6c0.5-0.1,1-0.2,1.4-0.2c1.6,0,3.3,0.8,4.4,2c1.5,1.6,2.1,3.8,2.1,6c0,1.6-0.4,3.1-0.4,4.7
		c0,1.6,0.4,3.3,1.6,4.3c0.7,0.6,1.6,0.9,2.6,0.9c1.9,0,3.9-1.1,5.4-2.3c2.3-1.9,4.5-4.4,7.5-4.4c0,0,0,0,0.1,0c2.9,0,5.4,2.6,6,5.5
		c0.6,2.9-0.2,5.9-1.5,8.6c-4.5,9.7-14.2,16.6-24.7,18.3c-1.9,0.3-3.9,0.5-5.8,0.5c-8.7,0-17.3-3.1-24.3-8.4
		C380.3,187.9,376.5,183.4,374.7,178.1z"/>
</g>
</svg>
