<?xml version="1.0" encoding="utf-8"?>
<!-- Generator: Adobe Illustrator 21.1.0, SVG Export Plug-In . SVG Version: 6.00 Build 0)  -->
<svg version="1.1" xmlns="http://www.w3.org/2000/svg" xmlns:xlink="http://www.w3.org/1999/xlink" x="0px" y="0px"
	 viewBox="0 0 1920 1080" style="enable-background:new 0 0 1920 1080;" xml:space="preserve">
<style type="text/css">
	.st0{fill:url(#SVGID_1_);}
	.st1{opacity:0.64;fill:url(#SVGID_2_);}
	.st2{fill:#FFF9DC;}
	.st3{opacity:0.5;fill:url(#SVGID_3_);}
	.st4{fill:url(#SVGID_4_);}
	.st5{opacity:0.5;fill:url(#SVGID_5_);}
	.st6{fill:url(#SVGID_6_);}
	.st7{opacity:0.5;fill:url(#SVGID_7_);}
	.st8{fill:url(#SVGID_8_);}
	.st9{opacity:0.5;fill:url(#SVGID_9_);}
	.st10{fill:url(#SVGID_10_);}
	.st11{fill:url(#SVGID_11_);}
	.st12{fill:url(#SVGID_12_);}
</style>
<g id="Layer_1">
	<g>
		<linearGradient id="SVGID_1_" gradientUnits="userSpaceOnUse" x1="486.1731" y1="-280.6922" x2="1433.8269" y2="1360.6921">
			<stop  offset="0.2" style="stop-color:#E094FF"/>
			<stop  offset="0.5476" style="stop-color:#EFADAF;stop-opacity:0.5655"/>
			<stop  offset="0.8556" style="stop-color:#FAC26D;stop-opacity:0.1804"/>
			<stop  offset="1" style="stop-color:#FFCA54;stop-opacity:0"/>
		</linearGradient>
		<rect class="st0" width="1920" height="1080"/>
	</g>
</g>
<g id="Layer_3">
	<radialGradient id="SVGID_2_" cx="1316.5" cy="474.5" r="168.5" gradientUnits="userSpaceOnUse">
		<stop  offset="0" style="stop-color:#FEFFF2"/>
		<stop  offset="0.3239" style="stop-color:#FEECBB;stop-opacity:0.6761"/>
		<stop  offset="0.7857" style="stop-color:#FFD471;stop-opacity:0.2143"/>
		<stop  offset="1" style="stop-color:#FFCA54;stop-opacity:0"/>
		<stop  offset="1" style="stop-color:#FFE298;stop-opacity:2.000000e-02"/>
	</radialGradient>
	<circle class="st1" cx="1316.5" cy="474.5" r="168.5"/>
	<g>
		<path class="st2" d="M1274,467.6c4,39.1,24.8,67.6,39.8,81.8c3.7,3.5,11.3,10.5,23.2,16.7c3.3,1.7,13.2,6.6,29.3,9.7
			c28.1,5.5,55.1,1.8,70-1c-5.7-2-13.5-5.2-22.4-9.7c-13.9-7.2-63.3-33.6-88-93c-22.2-53.4-11.1-101.5-6.9-117.1v0
			c-6,5.6-13.6,13.6-21.1,24.1c-1.4,1.9-8.7,12.3-13.9,23.4C1270.9,430.5,1273.2,459.8,1274,467.6z"/>
	</g>
	<radialGradient id="SVGID_3_" cx="1523.5" cy="118.4265" r="31.9666" gradientUnits="userSpaceOnUse">
		<stop  offset="0" style="stop-color:#FEFFF2"/>
		<stop  offset="3.191958e-02" style="stop-color:#FEFFF1;stop-opacity:0.9668"/>
		<stop  offset="0.9604" style="stop-color:#FFFAD4;stop-opacity:0"/>
		<stop  offset="1" style="stop-color:#FFFAFF;stop-opacity:2.000000e-02"/>
	</radialGradient>
	<ellipse class="st3" cx="1523.5" cy="118.4" rx="31.5" ry="32.4"/>
	<radialGradient id="SVGID_4_" cx="1521.7794" cy="115.8854" r="11.8332" gradientUnits="userSpaceOnUse">
		<stop  offset="0" style="stop-color:#FEFFF2"/>
		<stop  offset="3.191958e-02" style="stop-color:#FEFFF1;stop-opacity:0.9668"/>
		<stop  offset="0.9604" style="stop-color:#FFFAD4;stop-opacity:0"/>
		<stop  offset="1" style="stop-color:#FFFAFF;stop-opacity:2.000000e-02"/>
	</radialGradient>
	<polygon class="st4" points="1521.8,104.4 1525.5,111.9 1533.9,113.2 1527.8,119.1 1529.3,127.4 1521.8,123.5 1514.3,127.4 
		1515.7,119.1 1509.7,113.2 1518,111.9 	"/>
	<radialGradient id="SVGID_5_" cx="838.8" cy="364.5" r="24.1525" gradientUnits="userSpaceOnUse">
		<stop  offset="0" style="stop-color:#FEFFF2"/>
		<stop  offset="3.191958e-02" style="stop-color:#FEFFF1;stop-opacity:0.9668"/>
		<stop  offset="0.9604" style="stop-color:#FFFAD4;stop-opacity:0"/>
		<stop  offset="1" style="stop-color:#FFFAFF;stop-opacity:2.000000e-02"/>
	</radialGradient>
	<ellipse class="st5" cx="838.8" cy="364.5" rx="23.8" ry="24.5"/>
	<radialGradient id="SVGID_6_" cx="837.5" cy="362.5801" r="8.9407" gradientUnits="userSpaceOnUse">
		<stop  offset="0" style="stop-color:#FEFFF2"/>
		<stop  offset="3.191958e-02" style="stop-color:#FEFFF1;stop-opacity:0.9668"/>
		<stop  offset="0.9604" style="stop-color:#FFFAD4;stop-opacity:0"/>
		<stop  offset="1" style="stop-color:#FFFAFF;stop-opacity:2.000000e-02"/>
	</radialGradient>
	<polygon class="st6" points="837.5,353.9 840.3,359.6 846.7,360.5 842.1,365 843.2,371.3 837.5,368.3 831.8,371.3 832.9,365 
		828.3,360.5 834.7,359.6 	"/>
	<radialGradient id="SVGID_7_" cx="385.5428" cy="141" r="15.7731" gradientUnits="userSpaceOnUse">
		<stop  offset="0" style="stop-color:#FEFFF2"/>
		<stop  offset="3.191958e-02" style="stop-color:#FEFFF1;stop-opacity:0.9668"/>
		<stop  offset="0.9604" style="stop-color:#FFFAD4;stop-opacity:0"/>
		<stop  offset="1" style="stop-color:#FFFAFF;stop-opacity:2.000000e-02"/>
	</radialGradient>
	<ellipse class="st7" cx="385.5" cy="141" rx="15.5" ry="16"/>
	<radialGradient id="SVGID_8_" cx="384.6939" cy="139.7462" r="5.8388" gradientUnits="userSpaceOnUse">
		<stop  offset="0" style="stop-color:#FEFFF2"/>
		<stop  offset="3.191958e-02" style="stop-color:#FEFFF1;stop-opacity:0.9668"/>
		<stop  offset="0.9604" style="stop-color:#FFFAD4;stop-opacity:0"/>
		<stop  offset="1" style="stop-color:#FFFAFF;stop-opacity:2.000000e-02"/>
	</radialGradient>
	<polygon class="st8" points="384.7,134.1 386.5,137.8 390.7,138.4 387.7,141.3 388.4,145.4 384.7,143.5 381,145.4 381.7,141.3 
		378.7,138.4 382.8,137.8 	"/>
	<radialGradient id="SVGID_9_" cx="140" cy="640.4117" r="14.2074" gradientUnits="userSpaceOnUse">
		<stop  offset="0" style="stop-color:#FEFFF2"/>
		<stop  offset="3.191958e-02" style="stop-color:#FEFFF1;stop-opacity:0.9668"/>
		<stop  offset="0.9604" style="stop-color:#FFFAD4;stop-opacity:0"/>
		<stop  offset="1" style="stop-color:#FFFAFF;stop-opacity:2.000000e-02"/>
	</radialGradient>
	<ellipse class="st9" cx="140" cy="640.4" rx="14" ry="14.4"/>
	<radialGradient id="SVGID_10_" cx="139.2353" cy="639.2824" r="5.2592" gradientUnits="userSpaceOnUse">
		<stop  offset="0" style="stop-color:#FEFFF2"/>
		<stop  offset="3.191958e-02" style="stop-color:#FEFFF1;stop-opacity:0.9668"/>
		<stop  offset="0.9604" style="stop-color:#FFFAD4;stop-opacity:0"/>
		<stop  offset="1" style="stop-color:#FFFAFF;stop-opacity:2.000000e-02"/>
	</radialGradient>
	<polygon class="st10" points="139.2,634.2 140.9,637.5 144.6,638.1 141.9,640.7 142.6,644.4 139.2,642.7 135.9,644.4 136.5,640.7 
		133.8,638.1 137.6,637.5 	"/>
</g>
<g id="Layer_2">
	<g>
		<linearGradient id="SVGID_11_" gradientUnits="userSpaceOnUse" x1="400.6107" y1="1135.9595" x2="400.6107" y2="548.9667">
			<stop  offset="0.2" style="stop-color:#E094FF"/>
			<stop  offset="0.5476" style="stop-color:#EFADAF;stop-opacity:0.5655"/>
			<stop  offset="0.8556" style="stop-color:#FAC26D;stop-opacity:0.1804"/>
			<stop  offset="1" style="stop-color:#FFCA54;stop-opacity:0"/>
		</linearGradient>
		<path class="st11" d="M176.8,678.1c18.2,18.4,28.2,43.1,39.9,66.1c27.8,54.4,68,102.4,116.7,139.3
			c48.4-44.4,85.7-99.7,132.7-145.6c18-17.6,37.4-33.7,55.2-51.5c40.6-40.6,72.3-89.3,103.6-137.5
			c49.1,85.7,100.2,170.3,153.2,253.7c25.5,40.1,51.9,81.1,61.8,127.6c11.3,53.4,0.1,111.6,22.6,161.3c-73.5-2.7-147-1.7-220.4,3.1
			c-231.9,15-465.6,67.2-694.2,25.6c-3-0.5-6.2-1.3-7.9-3.8c-1.8-2.6-1.1-6.1-0.3-9.2c0,0,0,0,0,0c20-81.5,29.2-174.5,77.4-243.4
			C28.6,847.1,169.6,671,176.8,678.1z"/>
	</g>
	<g>
		<linearGradient id="SVGID_12_" gradientUnits="userSpaceOnUse" x1="1263.3621" y1="1139.4207" x2="1263.3621" y2="263.7866">
			<stop  offset="0.2" style="stop-color:#E094FF"/>
			<stop  offset="0.5476" style="stop-color:#EFADAF;stop-opacity:0.5655"/>
			<stop  offset="0.8556" style="stop-color:#FAC26D;stop-opacity:0.1804"/>
			<stop  offset="1" style="stop-color:#FFCA54;stop-opacity:0"/>
		</linearGradient>
		<path class="st12" d="M609,1043c28-34.7,56-69.3,84-104c22.3-26.4,50.9-58,86-92c40.9-39.6,57-49.7,142-124
			c34.9-30.4,61.3-53.5,95-85c46.6-43.5,83.9-81.3,109.9-108.5c34.3,77.7,68.6,155.4,102.9,233.1c37.8-40.9,40.8-104.4,75.9-147.7
			c17.3-21.4,41.2-36.2,63.7-52.1c104.9-74.1,187.4-179.4,234.3-299c56.2,109.6,159.6,186,238.9,280.2
			c29.2,34.6,55.6,72.6,69.8,115.6c13.1,39.7,15.3,82.1,17.3,123.9c4.9,98.3,9.7,196.6,14.6,295c0.5,9.4,0.7,19.6-4.9,27.1
			c-4.8,6.5-13,9.6-20.7,12c-48.1,14.9-99.1,17.3-149.4,18.8c-103.4,3.2-206.9,3.1-310.3,3c-274.8-0.2-549.6-0.3-824.4-0.5
			c-10.5,0-35.8-0.5-46-16.2C573.8,1101.4,594.9,1064.1,609,1043z"/>
	</g>
</g>
</svg>
