<?xml version="1.0" encoding="utf-8"?>
<!-- Generator: Adobe Illustrator 21.1.0, SVG Export Plug-In . SVG Version: 6.00 Build 0)  -->
<svg version="1.1" xmlns="http://www.w3.org/2000/svg" xmlns:xlink="http://www.w3.org/1999/xlink" x="0px" y="0px"
	 viewBox="0 0 400 300" style="enable-background:new 0 0 400 300;" xml:space="preserve">
<style type="text/css">
	.st0{display:none;fill:#EFE9FF;}
	.st1{fill:#F6C784;}
	.st2{fill:#D1953E;}
	.st3{fill:#FF5758;}
	.st4{fill:#59EFF2;}
	.st5{fill:#FFFFFF;stroke:#000000;stroke-miterlimit:10;}
	.st6{fill:#AA4141;}
	.st7{fill:#00AFAF;}
	.st8{fill:#BBF9F9;}
	.st9{fill:#FFAEB2;}
	.st10{fill:#FFD24C;}
	.st11{fill:#D691FF;}
	.st12{fill:#9FFF7C;}
	.st13{fill:#FFFFFF;}
</style>
<g id="Layer_1">
	<rect class="st0" width="400" height="300"/>
</g>
<g id="strut">
	<g>
		<polygon class="st1" points="163.5,279.7 163,120.6 61.3,157.8 		"/>
		<g>
			<path d="M165,279.7c-0.2-46.4-0.3-92.7-0.5-139.1c0-6.7,0-13.3-0.1-20c0-0.9-1-1.8-1.9-1.4c-29.7,10.8-59.3,21.7-89,32.5
				c-4.2,1.5-8.5,3.1-12.7,4.6c-1.1,0.4-1.4,1.6-0.7,2.5c29.8,35.5,59.6,71.1,89.3,106.6c4.3,5.1,8.6,10.2,12.8,15.3
				c1.2,1.5,3.4-0.7,2.1-2.1C134.8,243.1,105,207.6,75.2,172c-4.3-5.1-8.6-10.2-12.8-15.3c-0.2,0.8-0.4,1.7-0.7,2.5
				c29.7-10.8,59.3-21.7,89-32.5c4.2-1.5,8.5-3.1,12.7-4.6c-0.6-0.5-1.3-1-1.9-1.4c0.2,46.4,0.3,92.7,0.5,139.1c0,6.7,0,13.3,0.1,20
				C162,281.7,165,281.7,165,279.7z"/>
		</g>
	</g>
	<g>
		<g>
			<path class="st2" d="M136.8,142.3c4.7,7.9,5.8,16.9,7.8,25.8c2.2,9.7,5.8,19,9,28.4c2.1,6.1,11,3.7,9.6-2.7
				c-1.8-8.3-2.4-16.8-4.2-25.2c-1.7-8.1-4.2-17.2-3.4-25.6c-0.5,1.2-1,2.4-1.5,3.5c-0.4,0.2-0.8,0.5-1.3,0.7
				c6.3-1.2,3.6-10.8-2.7-9.6c-4.2,0.8-4.8,4.8-4.6,8.4c0.2,5.6,1,11.3,2,16.9c1,5.6,2.4,11.2,3.5,16.8c1.1,5.6,1.3,11.2,2.5,16.8
				c3.2-0.9,6.4-1.8,9.6-2.7c-3.4-9.9-7.2-19.8-9.4-30.1c-2-9.2-3.6-18.3-8.5-26.5C142.2,131.8,133.5,136.8,136.8,142.3L136.8,142.3
				z"/>
		</g>
	</g>
	<g>
		<g>
			<path class="st2" d="M160.1,273.3c0,0.5,0.1,0.9,0.1,1.4c0.1,0.6,0.4,1.3,1.1,1.4c0.6,0.1,1.4-0.1,1.7-0.7c0-0.1,0.1-0.2,0.1-0.2
				c0.3-0.7,0.2-1.6-0.5-2.1c-0.6-0.4-1.7-0.2-2.1,0.5c0,0.1-0.1,0.2-0.1,0.2c0.9,0.3,1.9,0.5,2.8,0.8c0-0.5-0.1-0.9-0.1-1.4
				c-0.1-0.8-0.6-1.5-1.5-1.5C160.9,271.9,160.1,272.5,160.1,273.3L160.1,273.3z"/>
		</g>
	</g>
	<g>
		<g>
			<path class="st2" d="M155.4,133.7c-4.5,3.8-2.7,12.8-2.8,18c-0.1,7.8-0.2,15.6-0.3,23.5c-0.2,13.6,2.2,26.8,0.9,40.4
				c-1.8,17.6,0,35.8,1.3,53.4c0.5,6.4,10.5,6.4,10,0c-1.3-17.2-3-34.9-1.4-52.1c0.4-4.4,0.9-8.7,0.9-13c0-7-1.6-13.8-1.7-20.8
				c-0.1-7.2,0.2-14.3,0.3-21.5c0.1-3.9,0.1-7.8,0.2-11.7c0-2,0.1-3.9,0.1-5.9c0-0.7,0-1.3,0-2c0.2-2.2,0.1-2.6-0.3-1.1
				C167.4,136.6,160.3,129.6,155.4,133.7L155.4,133.7z"/>
		</g>
	</g>
	<g>
		<g>
			<path class="st2" d="M148.2,139.2c-0.4,13.6-10.4,27.4-17.9,38.1c-7.6,11-16.4,21-26.2,30.1c-0.9,0.8,0.8,4.2,0,5
				c10.2-9.5,19.3-20,27.2-31.5c7.2-10.6,16.5-23.7,16.9-36.9C148.3,142.5,148.2,140.4,148.2,139.2L148.2,139.2z"/>
		</g>
	</g>
	<g>
		<g>
			<path class="st2" d="M153.3,173.1c-3.3,10.6-6,21.6-10,32c-3.9,10.5-10.9,19.7-16.9,29c-0.8,1.2,0.7,3.8,0,5
				c6-9.3,13-18.5,16.9-29c3.9-10.4,6.7-21.3,10-32C153.8,176.5,152.9,174.6,153.3,173.1L153.3,173.1z"/>
		</g>
	</g>
	<g>
		<g>
			<path class="st2" d="M155.6,218.8c-3,5.7-4.5,11.8-6.5,17.8c-1.9,5.7-5.5,10.8-7,16.6c-0.4,1.6,0.4,3.5,0,5
				c1.5-5.8,5.1-10.9,7-16.6c2-6,3.5-12.1,6.5-17.8C156.2,222.4,154.9,220.1,155.6,218.8L155.6,218.8z"/>
		</g>
	</g>
	<g>
		<g>
			<path class="st2" d="M117,146.1c-1.5,8.3-7.1,14-12.5,20.2c-5.7,6.6-11.8,12.9-18.1,19c-0.9,0.8,0.8,4.2,0,5
				c6.3-6.1,12.4-12.4,18.1-19c5.4-6.2,11-11.9,12.5-20.2C117.3,149.5,116.7,147.7,117,146.1L117,146.1z"/>
		</g>
	</g>
	<g>
		<g>
			<path class="st2" d="M95.3,158.3c6.8,6.1,18.1,6.6,26.8,6.8c10.1,0.3,20.2-1.2,29.8-4.2c0.5-0.2-0.4-4.9,0-5
				c-9.7,3-19.7,4.4-29.8,4.2c-8.7-0.2-20-0.8-26.8-6.8C96.2,154,94.5,157.5,95.3,158.3L95.3,158.3z"/>
		</g>
	</g>
	<g>
		<g>
			<path class="st2" d="M80.1,166.7c4.2,3.8,9.4,5.3,14.7,6.7c6.4,1.8,12.8,3.6,19.2,5.2c13.4,3.4,27.1,5.7,40.8,3.3
				c0.3-0.1-0.2-5,0-5c-13.7,2.4-27.4,0.1-40.8-3.3c-6.4-1.6-12.8-3.5-19.2-5.2c-5.3-1.5-10.5-2.9-14.7-6.7
				C81,162.5,79.3,165.9,80.1,166.7L80.1,166.7z"/>
		</g>
	</g>
	<g>
		<g>
			<path class="st2" d="M94.1,199.8c10.4,4.2,23.7,4.2,34.7,3.8c11.9-0.4,23.7-2.4,35.1-5.8c0.5-0.1-0.4-4.9,0-5
				c-11.4,3.4-23.2,5.4-35.1,5.8c-11.1,0.4-24.3,0.4-34.7-3.8C94.7,195.1,93.5,199.6,94.1,199.8L94.1,199.8z"/>
		</g>
	</g>
	<g>
		<g>
			<path class="st2" d="M115,224.7c7,2.3,14.1,1.6,21.2,0.2c7.6-1.5,15.2-3.3,22.8-4.9c0.4-0.1-0.3-4.9,0-5
				c-7.6,1.6-15.2,3.4-22.8,4.9c-7.1,1.4-14.2,2.2-21.2-0.2C115.5,219.9,114.5,224.5,115,224.7L115,224.7z"/>
		</g>
	</g>
	<g>
		<g>
			<path class="st2" d="M136.4,250.7c8.2-1.1,15.9-3.4,23.3-7c0.7-0.3-0.6-4.7,0-5c-7.4,3.6-15.1,6-23.3,7
				C136.2,245.8,136.6,250.7,136.4,250.7L136.4,250.7z"/>
		</g>
	</g>
	<g>
		<g>
			<path class="st2" d="M165,279.7c-0.2-46.4-0.3-92.7-0.5-139.1c0-6.7,0-13.3-0.1-20c0-0.9-1-1.8-1.9-1.4
				c-29.7,10.8-59.3,21.7-89,32.5c-4.2,1.5-8.5,3.1-12.7,4.6c-1.1,0.4-1.4,1.6-0.7,2.5c29.8,35.5,59.6,71.1,89.3,106.6
				c4.3,5.1,8.6,10.2,12.8,15.3c1.2,1.5,3.4-0.7,2.1-2.1C134.8,243.1,105,207.6,75.2,172c-4.3-5.1-8.6-10.2-12.8-15.3
				c-0.2,0.8-0.4,1.7-0.7,2.5c29.7-10.8,59.3-21.7,89-32.5c4.2-1.5,8.5-3.1,12.7-4.6c-0.6-0.5-1.3-1-1.9-1.4
				c0.2,46.4,0.3,92.7,0.5,139.1c0,6.7,0,13.3,0.1,20C162,281.7,165,281.7,165,279.7z"/>
		</g>
	</g>
</g>
<g id="glasskulor">
	<g>
		<path class="st3" d="M60.7,169c-4-1.8-7.9-3.6-11.1-6c-6.1-4.6-8.9-11.4-9.6-18.5c-0.8-7.1,0.4-14.6,1.5-22c0.5-3.3,1-6.7,2.6-10
			c4.2-9,15.1-16.6,26.1-22.5c23-12.2,37.8-19,59.3-19.8c10.3-0.4,23.9-0.8,33.5,7.8c4.3,3.8,7.2,8.8,8.3,10.8
			c5.7,9.9,6.5,19,6.6,21c0.3,4.8,0.9,13.4-4.1,22.5c-3.6,6.5-8.4,10.4-11.3,12.4c0.3-3.2,0.6-6.4,0.9-9.6c0.1-0.5,0.1-1.1-0.4-1.4
			c-0.6-0.4-1.6-0.2-2.5,0c-3.6,0.9-7.1,2.5-10,4.5c-1,0.7-2,1.5-3.3,1.8c-2.9,0.7-4.2-1.7-6.7-2.4c-3.7-0.9-8.3,2.3-11.1,5.3
			c-2.8,2.9-6.3,6.5-10.6,6.6c-1.5,0.1-2.9-0.3-4.3,0.2c-3.2,1.1-3.6,5.1-6.8,6.1c-2.6,0.8-4.1-1.1-6.1-1.9
			c-3.6-1.5-10.2,1.6-10.8,5.1c-0.2,1.4,0.2,3-1.3,4.2c-0.8,0.7-2,0.9-3.1,1.2c-3.8,0.7-7.7,1-11.3,0.7c-0.2,0,2,9.8,1.1,10.3
			C74.3,176.5,62.6,169.8,60.7,169z"/>
	</g>
	<g>
		<path class="st4" d="M32.4,83.7L32.4,83.7c-2.3-2.9-6.1-9-3-16.5c1.4-3.5,4.1-6.6,15.2-15.9c12.1-9.9,18.1-14.9,23.3-17.9
			c4-2.4,28.5-16.2,51.6-14.7c5.4,0.3,11.1,1.6,12.4,1.8c7.7,1.7,14.3,3.1,18.6,6.3c9.2,7-1.7,15.3,6.1,29.2c0,0,3.1,5.5,2.5,13.2
			c-0.1,1.8-0.5,4.8-2.5,5.6c-2.1,0.9-3.8-1.4-7.1-0.6c-2.6,0.6-5,2.8-5.6,4.7c-0.6,1.8-0.6,2.7,1.3,5.5c1.1,1.7,1.6,4.1-0.8,5.6
			c-1.7,1.1-4,1-5.7,0.4c-2.4-0.9-4.1-2.5-6.4-3.5c-2.3-1-5.9-1.1-8.2,0.7c-4.7,3.6,1.7,8.9-2.3,12.9c-1.7,1.6-4.4,2.3-6.9,2.5
			c-4.1,0.4-8-0.2-12.1,0.2c-4.1,0.4-8.9,2.2-10.7,5.3c-0.7,1.2-0.9,2.5-2.1,3.5c-2,1.8-6.3,0.6-7.4,0.4c-6.8-1.5-6.8-5.8-10.6-5.3
			c-2.9,0.4-6.1,3.4-7.1,5.7c-1.3,3.1,0.9,5.3-0.4,6.1c-1,0.6-3.5,0.3-4.3-0.7c-2.9-3.4-1.3-8-6.6-10.3c-3.3-1.4-8.3-0.1-11.3-1.4
			c-3.9-1.7-1.6-6.5-2.1-9.7C39.2,92,35.4,87.9,32.4,83.7z"/>
	</g>
	<path class="st5" d="M6.1,170.7"/>
	<g>
		<path class="st6" d="M139.6,100.9L139.6,100.9c-1.6,2-2.6,4.3-3.6,6.5c-0.5,1.2-1.1,2.5-1.1,3.8c0,1.6,0.6,3,1.2,4.5
			c0.9,2.6,1.5,5.3,1.6,8c0,0.8,0,1.7-0.2,2.5c-0.3,1.1-1,2.1-1.8,2.9c-1.6,1.8-3.4,3.3-5.5,4.4c-3.1,1.7-6.7,2.6-8.9,5.3
			c-1.7,2.1-1.4,4.9-1.4,7.7c0,2.3,0.4,2.7,0.7,2.9c0.7,0.4,1.8-0.1,5.3-3c3.4-2.9,6.2-5.6,9.9-7.9c0.8-0.5,1.7-1,2.8-1
			c1.6-0.1,3,0.6,4.8,1.4c1.7,0.8,1.7,1.1,2.6,1.2c0.4,0,1.4,0.1,3.7-1.2c2.5-1.3,2.3-1.9,4.4-2.9c1.7-0.8,1.7-0.4,3.8-1.4
			c1.1-0.5,1.7-0.9,2.8-1c0.9-0.1,1.7,0.1,2.2,0.3c0.2,0.6,0.5,1.3,0.7,1.9c-0.1,0.7-0.2,1.5-0.3,2.2s-0.2,1.5-0.3,2.2
			c-0.2,1.5-0.3,2.2-0.3,2.2c-0.2,1.8-0.4,2.1-0.3,2.2c0.6,0.4,3.3-2.3,4.9-3.9c1.5-1.5,2.2-2.2,3.1-3.3c0.6-0.8,3.6-4.5,5.7-10.6
			c0.7-2.1,1-3.8,1.7-7c0.6-3.1,1.2-5.9,1.3-8.5c0.2-4.4-0.9-7.9-3.4-14.6c-1.3-3.5-3-8-6.5-12.7c-1.5-2.1-1.1-1.1-5.6-6.4
			c-0.8-1-1.7-2.1-3.3-3c-0.9-0.5-2.6-1.6-4.8-1.5c-0.5,0-1,0.1-1.8,0.4c-1.4,0.5-2.8,0.9-4.3,1.4c-2.3,0.8-5,1.9-5.3,4.3
			c-0.3,2.1,1.3,3.9,1.6,5.9c0.3,1.7-0.1,3.2-0.7,4.8c-0.6,1.7-1,3.5-1.6,5.3C142.8,97.5,141.1,99.1,139.6,100.9z"/>
	</g>
	<g>
		<path class="st7" d="M127.9,30.5c1.2,3.5,3.1,10.3,4.4,17.7c0.6,3.3,1.1,6.8,0.2,10.1c-1.1,3.9-4.1,7.7-2.9,11.6
			c0.5,1.6,1.7,3,1.8,4.7c0.2,2.6-2.2,4.8-4.7,5.6c-2.5,0.8-5.2,0.6-7.8,1c-2.6,0.4-5.4,1.7-6.3,4.2c-0.3,0.9-0.4,1.9-0.7,2.8
			c-1.1,2.6-4.3,3.3-6.8,4.4c-2,0.9-3.8,2.1-5.3,3.7c-1,1-1.8,2.2-2,3.6c-0.2,1.3,0.7,2.7,1.8,3.4c1.1,0.7,2.4,0.5,3.1,0.4
			c3.1-0.4,6.3-0.1,9.5-0.3c5.7-0.2,6.6,0.3,8.2-0.9c1.6-1.2,2.3-2.9,2.7-4.2c1.8-4.9-0.8-7.5,1-9.6c1.9-2.3,6.9-2.2,10.1-0.6
			c1.9,0.9,2.1,1.9,4.2,2.5c0.4,0.1,3.7,1.1,6.3-0.2c4-2,1.9-7.2,6.2-12.3c3.2-3.8,5.4-2.2,7.5-5.5c3.9-6.1-0.7-16.2-1-16.9
			c-1.2-2.6-2.1-5.4-3.2-8.1c-0.5-1.2-1-2.4-0.9-3.7c0.1-1.4,0.8-2.7,1.1-4c0.3-1.5-0.2-1.8-0.2-4.8c0-1.5,0.1-1.8,0.1-2.5
			c-0.1-3.2-2.7-5.8-3.4-6.5c-2.7-2.5-4-1.5-12.4-4.8c-2.6-1-3.7-1.6-6.1-2c-2.4-0.4-5.9-1.1-7.3,0.5
			C124,21.4,125.6,24.1,127.9,30.5z"/>
	</g>
	<g>
		<path class="st8" d="M45.2,63.6c1.8-1.7,3.6-3.5,5.8-4.8c1-0.6,2.1-1.2,3-2c1.9-1.6,2.9-3.8,4.5-5.7c1.5-1.9,4-3.4,6.3-2.6
			c1.7,0.6,2.7,2.2,3.3,3.9c0.6,1.6,1,3.4,0.7,5.1c-0.4,2.1-1.9,3.8-3.7,5c-1.8,1.2-3.8,1.9-5.8,2.6c-2,0.7-3.9,1.4-5.9,2
			c-0.5,0.2-1,0.4-1.4,0.7c-0.5,0.4-0.7,1.1-0.9,1.6l0,0C47.6,76.7,37.9,70.6,45.2,63.6z"/>
	</g>
	<g>
		<path class="st9" d="M50.4,138.5c0.3,1.3,1,2.7,2.2,3.2c1.9,0.7,3.7-1,5.4-2.2c2.4-1.7,5.3-2.3,7.9-3.5c2.9-1.4,5.5-3.6,8.5-4.8
			c1.7-0.7,3.6-1.1,5-2.1c1.5-1.1,2.4-3.3,1.3-4.8c-1.2-1.7-3.9-1.3-5.8-0.3c-1.9,0.9-3.9,2.3-5.9,1.7c-1.4-0.4-2.5-1.6-3.8-2.2
			c-1.9-0.8-4-0.1-6,0.4s-4.4,0.5-5.7-1c-0.8-0.9-1-2.1-1.4-3.2c-0.1-0.3-0.2-0.5-0.5-0.7c-0.8-0.5-1.4,0.8-1.4,1.8h0
			c0,3,0.7,6.1,0.5,8.9C50.5,132.8,49.5,135.2,50.4,138.5z"/>
	</g>
	<rect x="81.7" y="39" transform="matrix(0.9939 0.1105 -0.1105 0.9939 5.7936 -8.9941)" class="st10" width="4.7" height="17.6"/>
	
		<rect x="74.3" y="67.4" transform="matrix(0.3431 -0.9393 0.9393 0.3431 -19.1478 119.6588)" class="st11" width="3.3" height="12.2"/>
	
		<rect x="73.2" y="84.5" transform="matrix(-0.9393 0.3432 -0.3432 -0.9393 178.8709 155.7765)" class="st12" width="4.9" height="18.5"/>
	<rect x="102.6" y="56.2" transform="matrix(0.6758 0.7371 -0.7371 0.6758 80.8704 -56.4787)" class="st10" width="4" height="15"/>
	
		<rect x="103.3" y="23" transform="matrix(-0.2316 -0.9728 0.9728 -0.2316 100.0194 139.9205)" class="st11" width="4" height="15"/>
	<rect x="98.7" y="74.4" transform="matrix(0.7159 0.6982 -0.6982 0.7159 87.2112 -46.8745)" class="st3" width="5" height="18.7"/>
	<rect x="48.3" y="79.3" transform="matrix(0.5023 -0.8647 0.8647 0.5023 -50.0109 86.634)" class="st10" width="4" height="15"/>
	<rect x="117.7" y="42.2" transform="matrix(0.8867 -0.4623 0.4623 0.8867 -9.3938 60.9754)" class="st3" width="4" height="15"/>
	
		<rect x="118.6" y="101.6" transform="matrix(0.6422 0.7666 -0.7666 0.6422 127.9072 -53.2258)" class="st11" width="4.7" height="17.6"/>
	
		<rect x="108.9" y="128.7" transform="matrix(0.5825 -0.8129 0.8129 0.5825 -62.6997 145.4779)" class="st10" width="2.7" height="10.1"/>
	
		<rect x="88.3" y="127.4" transform="matrix(-0.9926 -0.1212 0.1212 -0.9926 164.6731 285.3709)" class="st4" width="5.5" height="20.6"/>
	<rect x="62.6" y="143.4" transform="matrix(0.7158 -0.6983 0.6983 0.7158 -87.0432 88.0088)" class="st10" width="4" height="15"/>
	
		<rect x="160.9" y="103.5" transform="matrix(0.6758 0.7371 -0.7371 0.6758 133.0106 -84.3253)" class="st12" width="3" height="11.1"/>
	
		<rect x="159.3" y="83.2" transform="matrix(-0.2316 -0.9728 0.9728 -0.2316 110.755 267.9975)" class="st4" width="3.8" height="14.2"/>
	
		<rect x="147.6" y="117.2" transform="matrix(0.8867 -0.4623 0.4623 0.8867 -40.7889 83.3031)" class="st10" width="4.1" height="15.4"/>
	
		<rect x="143.1" y="71.3" transform="matrix(0.5439 0.8392 -0.8392 0.5439 130.0956 -86.3759)" class="st11" width="2.8" height="10.4"/>
	
		<rect x="135.8" y="27.5" transform="matrix(0.5023 -0.8647 0.8647 0.5023 40.2422 134.6229)" class="st10" width="2.6" height="9.8"/>
	<rect x="143" y="50.9" transform="matrix(0.9512 -0.3084 0.3084 0.9512 -10.9408 47.573)" class="st12" width="4" height="15"/>
	<g id="strössel">
	</g>
</g>
<g id="svartvit_glass">
	<g>
		<polygon class="st13" points="212.7,280.6 318.3,161.5 217.7,121.6 		"/>
		<g>
			<path d="M213.8,281.7c30.8-34.7,61.5-69.4,92.3-104.1c4.4-5,8.8-10,13.3-15c0.8-0.9,0.4-2.1-0.7-2.5c-29.3-11.7-58.7-23.3-88-35
				c-4.2-1.7-8.4-3.3-12.5-5c-0.9-0.4-1.9,0.6-1.9,1.4c-1.5,46.3-2.9,92.7-4.4,139c-0.2,6.7-0.4,13.3-0.6,20c-0.1,1.9,2.9,1.9,3,0
				c1.5-46.3,2.9-92.7,4.4-139c0.2-6.7,0.4-13.3,0.6-20c-0.6,0.5-1.3,1-1.9,1.4c29.3,11.7,58.7,23.3,88,35c4.2,1.7,8.4,3.3,12.5,5
				c-0.2-0.8-0.4-1.7-0.7-2.5c-30.8,34.7-61.5,69.4-92.3,104.1c-4.4,5-8.8,10-13.3,15C210.4,281,212.5,283.1,213.8,281.7z"/>
		</g>
	</g>
	<g>
		<path class="st13" d="M289.2,161.3c-1.8,11-9.2,20.1-14.1,30.1c-1.2,2.3-2.2,4.8-3.2,7.2c-2.2,5.2-4.4,10.4-6.6,15.6
			c1.3-2.5,3.1-4.7,4.7-7c6.3-8.8,10.7-18.8,16.9-27.7c2-2.9,4.3-5.8,6.5-8.6c0.2-0.3,0.5-0.6,0.9-0.8c0.4-0.2,0.9-0.1,1.1,0.2"/>
		<g>
			<path d="M284.4,160c-1.8,9.3-7.1,17-11.6,25.2c-4.6,8.4-8,17.6-11.8,26.5c-2.4,5.7,5.3,10.8,8.6,5c4.2-7.4,9.4-14.1,13.6-21.6
				c4.1-7.2,8.4-15.8,14.5-21.5c-1.2,0.5-2.4,1-3.5,1.5c-0.5-0.2-1-0.3-1.4-0.5c5.5,3.4,10.5-5.3,5-8.6c-4.1-2.5-7.2,0.3-9.7,3.5
				c-3.4,4.4-6.6,8.8-9.5,13.5c-2.8,4.6-5.3,9.4-8.1,14.1c-3,5-6.7,9.5-9.6,14.5c2.9,1.7,5.8,3.4,8.6,5c4-9.4,7.6-19.1,12.6-27.9
				c4.7-8.4,10-16.5,11.8-26.1C295.3,156.3,285.6,153.7,284.4,160L284.4,160z"/>
		</g>
	</g>
	<g>
		<path class="st13" d="M304.2,171.2c-1-0.4-2,0.4-2.7,1.2c-8.8,9.6-17.6,19.2-26.4,28.8c-1.8,1.9-3.5,3.8-5.1,5.9
			c-2.2,2.8-4,5.9-6.1,8.7c-4.7,6.3-9.2,10.4-12.5,13.3c-5.5,4.9-15.4,15.6-34.6,40.7"/>
		<g>
			<path d="M304.2,166.2c-6.8,0.8-11.1,8-15.5,12.8c-5.3,5.8-10.6,11.5-15.9,17.3c-4.5,5-8.3,10.1-12.2,15.6
				c-3.7,5.2-8.2,9.6-12.9,13.9c-13.3,12.2-24.2,27.3-35.2,41.5c-3.9,5.1,4.8,10.1,8.6,5c10.3-13.5,20.8-27.6,33.3-39.2
				c3.5-3.3,7-6.5,10.1-10.1c4.3-5.1,7.6-10.9,12-15.9c4.6-5.2,9.3-10.2,14-15.3c5.1-5.6,10-12,15.8-16.9c-1.2,0.5-2.4,1-3.5,1.5
				c0.5-0.1,1-0.1,1.4-0.2C310.5,175.5,310.6,165.4,304.2,166.2L304.2,166.2z"/>
		</g>
	</g>
	<g>
		<path class="st13" d="M293.3,167.4c-3.9,4.5-9.6,7.1-15.2,9.3c-20.1,7.8-41.6,12-63.2,12.3"/>
		<g>
			<path d="M293.3,164.9c-8.8,9.4-24.3,12.9-36.4,16c-13.8,3.5-27.9,5.3-42,5.6c-0.1,0,0,5,0,5c14.2-0.3,28.3-2.1,42-5.6
				c12.1-3.1,27.5-6.6,36.4-16C294.2,169,292.5,165.7,293.3,164.9L293.3,164.9z"/>
		</g>
	</g>
	<g>
		<path class="st13" d="M274.5,196.1c-6.9,4.2-13.8,8.4-20.8,12.6c-3.7,2.2-7.4,4.5-11.3,6.2c-5.1,2.3-10.5,3.8-15.9,5.3
			c-4.2,1.2-8.5,2.3-12.7,3.5"/>
		<g>
			<path d="M274.5,193.6c-9.5,5.8-18.9,12.1-28.7,17.2c-9.9,5.2-21.2,7.4-31.9,10.4c-0.5,0.1,0.4,4.9,0,5c10.7-2.9,22-5.2,31.9-10.4
				c9.9-5.1,19.2-11.4,28.7-17.2C275.3,198.2,273.8,194,274.5,193.6L274.5,193.6z"/>
		</g>
	</g>
	<g>
		<path class="st13" d="M245.7,231.7c-8.1,2.8-14.9,8.7-22.8,12c-3.4,1.4-7.1,2.4-10.1,4.6"/>
		<g>
			<path d="M245.7,229.2c-5.9,2.2-11,5.7-16.3,8.8c-5.3,3.1-11.5,4.6-16.6,7.9c-0.8,0.5,0.7,4.5,0,5c5.1-3.4,11.3-4.9,16.6-7.9
				c5.4-3.1,10.5-6.6,16.3-8.8C246.3,234,245.2,229.4,245.7,229.2L245.7,229.2z"/>
		</g>
	</g>
	<g>
		<path class="st13" d="M265.4,151.8c-1.5,1.2-3,2.3-4.6,3.2c-2.2,1.1-4.6,1.5-7,1.9c-12.4,2.1-24.9,3.3-37.3,3.7"/>
		<g>
			<path d="M265.4,149.3c-6.6,5.1-14.4,5.7-22.4,6.7c-8.8,1.1-17.7,1.8-26.6,2.1c-0.1,0,0,5,0,5c8.9-0.3,17.7-1,26.6-2.1
				c8-1,15.9-1.6,22.4-6.7C266.2,153.7,264.6,149.9,265.4,149.3L265.4,149.3z"/>
		</g>
	</g>
	<g>
		<path class="st13" d="M244.4,142.7c0.2,4.2,2.6,8,5.1,11.3c9.2,12.2,21.5,22.1,35.4,28.4"/>
		<g>
			<path d="M244.4,145.2c1.1,9.3,9.5,17.4,16,23.5c7.2,6.7,15.5,12.1,24.5,16.2c-0.6-0.3,0.7-4.7,0-5c-9-4.1-17.2-9.5-24.5-16.2
				c-6.5-6-15-14.2-16-23.5C244.6,141.8,244.3,143.6,244.4,145.2L244.4,145.2z"/>
		</g>
	</g>
	<g>
		<path class="st13" d="M227.5,138.9c0.2,5,2.9,9.3,5.5,13.4c1.8,2.9,3.7,5.7,5.5,8.6c9.6,14.9,19.6,30.2,34.5,39.2"/>
		<g>
			<path d="M227.5,141.4c0.7,6.7,4.7,12.1,8.3,17.7c3.5,5.5,7.1,11,10.8,16.4c7.3,10.5,15.6,20.3,26.5,27c-0.7-0.4,0.8-4.5,0-5
				c-11-6.8-19.2-16.6-26.5-27c-3.7-5.4-7.2-10.9-10.8-16.4c-3.6-5.5-7.6-10.9-8.3-17.7C227.6,138,227.3,139.7,227.5,141.4
				L227.5,141.4z"/>
		</g>
	</g>
	<g>
		<path class="st13" d="M215.9,172.9c0.9,2.1,2.3,4,3.8,5.9c13.2,16.7,30.3,30.2,49.6,39.2"/>
		<g>
			<path d="M215.9,175.4c5,10.2,15.1,19.2,23.7,26.3c9,7.5,19,13.7,29.6,18.7c-0.6-0.3,0.7-4.7,0-5c-10.6-5-20.6-11.2-29.6-18.7
				c-8.6-7.2-18.7-16.1-23.7-26.3C216.5,171.8,215.2,174.1,215.9,175.4L215.9,175.4z"/>
		</g>
	</g>
	<g>
		<path class="st13" d="M214.8,205.4c3.9,7.4,11.5,11.9,18.8,16.1c5.7,3.2,11.4,6.5,17.1,9.7"/>
		<g>
			<path d="M214.8,207.9c3.3,5.9,8.6,10,14.3,13.4c7.1,4.3,14.4,8.2,21.6,12.3c-0.7-0.4,0.7-4.6,0-5c-7.2-4.1-14.5-8-21.6-12.3
				c-5.7-3.5-11-7.5-14.3-13.4C215.5,204.1,214.1,206.6,214.8,207.9L214.8,207.9z"/>
		</g>
	</g>
	<g>
		<polygon class="st13" points="212.7,280.6 318.3,161.5 217.7,121.6 		"/>
		<g>
			<path d="M213.8,281.7c30.8-34.7,61.5-69.4,92.3-104.1c4.4-5,8.8-10,13.3-15c0.8-0.9,0.4-2.1-0.7-2.5c-29.3-11.7-58.7-23.3-88-35
				c-4.2-1.7-8.4-3.3-12.5-5c-0.9-0.4-1.9,0.6-1.9,1.4c-1.5,46.3-2.9,92.7-4.4,139c-0.2,6.7-0.4,13.3-0.6,20c-0.1,1.9,2.9,1.9,3,0
				c1.5-46.3,2.9-92.7,4.4-139c0.2-6.7,0.4-13.3,0.6-20c-0.6,0.5-1.3,1-1.9,1.4c29.3,11.7,58.7,23.3,88,35c4.2,1.7,8.4,3.3,12.5,5
				c-0.2-0.8-0.4-1.7-0.7-2.5c-30.8,34.7-61.5,69.4-92.3,104.1c-4.4,5-8.8,10-13.3,15C210.4,281,212.5,283.1,213.8,281.7z"/>
		</g>
	</g>
	<g>
		<path class="st13" d="M209.8,129.5c-1.8-4-3.5-7.9-4.3-11.9c-1.4-7.5,1-14.4,5.1-20.2c4.1-5.8,10-10.6,15.8-15.4
			c2.6-2.1,5.2-4.3,8.6-5.7c9.1-4,22.3-2.4,34.5,0.6c25.3,6.2,40.8,11,57.5,24.7c8,6.6,18.3,15.3,19.8,28.1c0.7,5.7-0.5,11.3-1,13.6
			c-2.4,11.2-7.8,18.5-9.1,20.1c-3,3.8-8.2,10.6-18,14.1c-7,2.5-13.2,2.2-16.7,1.7c2.4-2.2,4.7-4.4,7.1-6.5c0.4-0.4,0.8-0.8,0.7-1.3
			c-0.2-0.7-1-1.2-1.8-1.6c-3.3-1.7-6.9-2.9-10.5-3.3c-1.2-0.1-2.5-0.2-3.6-0.8c-2.6-1.4-2-4.1-3.4-6.2c-2.1-3.2-7.8-3.8-11.8-3.5
			c-4,0.3-9,0.6-12.3-2.1c-1.1-0.9-1.9-2.2-3.3-2.8c-3.1-1.4-6.1,1.5-9.2,0c-2.4-1.1-2.3-3.6-3.2-5.5c-1.7-3.5-8.7-5.6-11.5-3.4
			c-1.1,0.9-1.8,2.4-3.8,2.3c-1.1-0.1-2.1-0.6-3.1-1.2c-3.3-2-6.4-4.4-8.9-7c-0.2-0.2-5.1,8.6-6,8.4
			C214.9,144.1,210.6,131.4,209.8,129.5z"/>
		<g>
			<path d="M211.1,128.7c-2.3-5.2-4.6-10.4-4.5-16.2c0.1-5.7,2.8-11.1,6.2-15.5c2.7-3.5,6-6.6,9.3-9.5c4.1-3.5,8.3-7.5,13.2-9.7
				c9.2-4.2,20.6-2.3,30.1-0.2c8.4,1.8,16.8,4.1,25,6.7c14.9,4.7,28,11.9,39.8,22.3c6.4,5.6,12.5,12.2,14.4,20.7
				c2.1,8.9-0.5,19.3-4.4,27.4c-7.2,14.9-21.3,25.1-38.4,23.2c0.4,0.9,0.7,1.7,1.1,2.6c2.1-1.9,9.3-6.1,8-9.7
				c-1.2-3.4-8.7-4.9-11.7-5.4c-1.1-0.2-2.9-0.1-4-0.6c-2.6-1.1-2.2-2.6-3-4.5c-0.6-1.5-1.6-2.7-2.9-3.6c-3.7-2.6-8.7-2.1-13-1.9
				c-3.9,0.2-7.1-0.3-10.2-2.8c-1.5-1.2-2.6-2.3-4.7-2.6c-4.1-0.4-5.9,2.1-9.2-3c-0.9-1.4-1.1-2.5-2.5-3.6c-2.4-2.1-6.4-3.4-9.6-2.6
				c-3,0.8-3.3,3.3-7.4,2c-3.1-1-6.3-4.5-8.6-6.7c-0.6-0.6-1.5-0.5-2.1,0c-1.1,0.9-1.7,2.6-2.4,3.7c-0.6,1-1.5,2-2,3.1
				c-0.3,0.5-0.6,0.9-1,1.3c1.1,0.1,1.2-0.2,0.3-0.8c-2.1-4.4-3.9-8.9-5.8-13.4c-0.7-1.8-3.6-1-2.9,0.8c1.2,2.8,2.2,5.8,3.4,8.6
				c0.9,2.1,2.1,6,4.3,7.2c4.1,2.2,6.1-6.5,8.4-8.4c-0.7,0-1.4,0-2.1,0c3.1,3,7.5,7.4,11.8,8.4c4.3,1,6.2-3.9,10.7-2.5
				c4.9,1.4,3.9,5.9,7.2,8.5c1.3,1,2.8,1.3,4.4,1.3c1,0,2.1-0.6,3-0.6c2.3,0.1,4.2,1.6,6,2.6c3.7,2.1,6.8,2.8,11.1,2.6
				c2.8-0.1,5.6-0.5,8.3,0.2c4.1,1.1,4.2,3.3,5.8,6.4c1.7,3.3,4.7,3.3,7.9,3.9c2,0.4,8.1,1.3,9,3.3c0.5,1.1-5.5,5.7-6.7,6.8
				c-1.1,1-0.1,2.4,1.1,2.6c16.2,1.8,30.1-6.6,38.5-20.1c4.7-7.5,7.5-16.4,8-25.3c0.5-9.4-3.2-17.7-9.4-24.7
				c-11.6-13-27.2-22.4-43.5-28c-10-3.5-20.4-6.3-30.8-8.4c-9.6-2-20.7-3.4-30,0.5c-5.5,2.3-10.1,6.7-14.5,10.6
				c-4.3,3.7-8.5,7.8-11.6,12.6c-6.9,10.8-4.8,21.1,0.1,32.2C209.3,132,211.9,130.5,211.1,128.7z"/>
		</g>
	</g>
	<g>
		<path class="st13" d="M245.4,47L245.4,47c0.2-3.7,1.5-10.7,8.8-14.3c3.4-1.7,7.4-2.2,21.9-1.7c15.6,0.6,23.4,0.9,29.3,2.1
			c4.6,0.9,32,6.9,48.3,23.3c3.8,3.9,7.3,8.6,8,9.6c4.7,6.4,8.6,11.8,9.6,17.1c2.2,11.4-11.5,10.3-14.9,25.9c0,0-1.4,6.2-6.9,11.6
			c-1.3,1.3-3.6,3.2-5.6,2.5c-2.1-0.7-1.9-3.5-4.9-5.1c-2.3-1.2-5.6-1.2-7.4-0.2c-1.7,0.9-2.2,1.6-2.7,5c-0.3,2-1.6,4.1-4.3,3.7
			c-2-0.3-3.7-1.9-4.5-3.5c-1.2-2.3-1.4-4.6-2.4-6.9c-1.1-2.3-3.7-4.8-6.6-5c-5.9-0.4-4.7,7.8-10.3,8.1c-2.3,0.1-4.9-1.2-6.8-2.7
			c-3.3-2.5-5.8-5.5-9.2-7.9c-3.4-2.4-8.1-4.3-11.5-3.2c-1.3,0.4-2.3,1.2-3.9,1.2c-2.7,0-5.2-3.8-5.8-4.6c-4-5.7-1.2-8.9-4.4-11
			c-2.4-1.7-6.8-1.5-9.1-0.4c-3,1.4-2.8,4.6-4.4,4.3c-1.1-0.2-2.8-2.1-2.8-3.4c0.1-4.5,4.3-6.8,1.9-12.1c-1.5-3.2-6.1-5.6-7.5-8.6
			c-1.8-3.9,3.1-5.9,4.9-8.7C245,57.7,244.9,52.2,245.4,47z"/>
		<g>
			<path d="M246.9,47.4c1.1-6.1,2.7-11.5,9.2-13.9c4.8-1.8,10.6-1.3,15.5-1.2c11.9,0.3,24.4,0.1,36.1,2.8c11.5,2.7,22.9,6.8,33,13
				C348,52.6,354,58.3,359.1,65c4.2,5.5,11.3,13.2,11,20.6c-0.2,5.2-5.7,8-8.9,11.4c-3.5,3.7-4.9,7.8-6.4,12.5
				c-1.1,3.5-3.1,6.7-5.7,9.4c-1.4,1.5-1.9,2.1-4,1.8c-2.6-0.4-1.2-0.2-2.6-1.5c-1-0.9-1.5-1.9-2.8-2.6c-3.6-2-9.3-1.6-11.4,2.2
				c-0.6,1.1-0.4,2.3-0.9,3.4c-0.2,0.5-0.3,1-0.5,1.6c-1.9-0.6-3.7-1.1-5.6-1.7c-0.9-0.8-1.1-3.5-1.6-4.8c-1-2.8-2.5-5.3-5.2-6.7
				c-4.5-2.4-7.7-0.4-10.1,3.4c-0.7,1.2-1.2,2.3-2.4,3c-3,1.8-7-1.5-9.1-3.4c-3.1-2.6-5.8-5.6-9.3-7.6c-2.4-1.4-5.2-2.5-8-2.5
				c-1.5,0-2.6,0.6-4.1,0.9c-2.9,0.6-4.6-0.4-6.3-2.7c-4-5.3-1.2-12.5-9.5-13.4c-2.6-0.3-5.6,0.1-7.7,1.7c-0.4,0.3-2,2.8-2.2,2.9
				c-1.3,0.2-0.4-4.7-0.3-5c0.2-0.7,0.7-1.4,0.9-2.1c0.9-2.4,0.9-4.8-0.3-7.2c-1.7-3.4-9.2-6.9-6.6-11.5c1.6-2.8,4.3-4,5.5-7.4
				c1.5-4.1,1.5-8.5,1.9-12.8c0.2-1.9-2.8-1.9-3,0c-0.5,5.4-0.3,11.5-4.1,15.7c-1.7,1.8-4.1,3.3-4.3,6c-0.2,2.5,1.4,4.4,3,6
				c1.7,1.7,3.6,2.9,4.6,5.1c1.5,3.1,0.3,5-0.8,7.8c-0.9,2.4-1.4,4.6,0.2,6.7c1,1.3,2.8,2.5,4.4,1.7c0.8-0.4,1-1.4,1.6-2
				c2.3-2.6,6-4.1,9.2-1.7c1.9,1.5,1.6,2.5,2,4.7c0.4,2.1,1.3,3.9,2.5,5.6c1.3,1.9,3,4.1,5.2,4.9c3.7,1.4,7-1.7,11.1-0.5
				c8,2.3,13.3,14.1,22.2,13.5c2.1-0.1,3.6-1.1,4.9-2.7c0.8-1,1.2-2.1,1.9-3.1c3.1-4.5,7.8-0.5,9.4,3.3c1.2,3,1.5,6.1,4.3,8.2
				c2.1,1.6,5.1,2.2,7.3,0.3c2.6-2.2,1.1-6.7,4.6-8c3.3-1.2,5.8,1,7.7,3.3c0.8,0.9,1.2,1.8,2.4,2.4c5.6,2.4,11.4-6.9,13.2-10.9
				c2.6-5.5,3.3-10.9,8-15.5c3.3-3.2,7.7-5.9,8.6-10.8c1.3-7.1-4.4-14.3-8.2-19.7c-4.5-6.2-9.2-12.2-15.2-17
				c-11-8.7-24.4-14.2-37.9-17.7c-13.7-3.6-28.3-3.5-42.4-3.7c-5.2-0.1-11-0.3-15.8,2.1c-6.4,3.2-8.3,8.7-9.5,15.2
				C243.7,48.5,246.5,49.3,246.9,47.4z"/>
		</g>
	</g>
	<path class="st5" d="M215.4,78.7"/>
	<g>
		<path class="st13" d="M314,131.3L314,131.3c-2.5,0.4-4.8,1.4-7,2.5c-1.2,0.5-2.5,1.1-3.4,2.1c-1.1,1.1-1.5,2.7-2.1,4.1
			c-1,2.5-2.4,4.9-4.2,7c-0.5,0.6-1.1,1.3-1.8,1.7c-1,0.6-2.1,0.9-3.3,1c-2.3,0.3-4.7,0.2-7-0.4c-3.4-0.8-6.8-2.5-10.2-2
			c-2.7,0.4-4.3,2.7-6.2,4.8c-1.5,1.7-1.5,2.3-1.4,2.6c0.2,0.7,1.4,1.1,5.9,1.3c4.5,0.1,8.4-0.1,12.6,0.7c0.9,0.2,1.9,0.4,2.8,1.1
			c1.3,1,1.9,2.5,2.6,4.3c0.7,1.7,0.6,2,1.1,2.6c0.3,0.3,0.9,1,3.6,1.6c2.7,0.7,3,0.1,5.2,0.8c1.8,0.5,1.5,0.8,3.7,1.5
			c1.1,0.3,1.9,0.5,2.8,1.1c0.7,0.5,1.2,1.2,1.5,1.7c-0.2,0.6-0.5,1.2-0.7,1.9c-0.6,0.5-1.1,1-1.7,1.5c-0.6,0.5-1.1,1-1.7,1.5
			c-1.1,1-1.7,1.5-1.7,1.5c-1.4,1.2-1.7,1.3-1.7,1.5c0.1,0.7,4,0.5,6.3,0.4c2.1-0.1,3.1-0.2,4.5-0.4c1-0.2,5.7-0.9,11.3-4.1
			c2-1.1,3.3-2.1,5.9-4.1c2.5-1.9,4.8-3.6,6.7-5.5c3.1-3.2,4.6-6.5,7.2-13.2c1.4-3.5,3.1-8,3.6-13.8c0.2-2.5-0.1-1.6,0.1-8.5
			c0-1.3,0.1-2.7-0.4-4.4c-0.3-1-0.9-2.9-2.6-4.3c-0.4-0.3-0.8-0.6-1.6-1c-1.4-0.6-2.8-1.2-4.1-1.8c-2.2-1-5-1.9-6.8-0.4
			c-1.7,1.4-1.6,3.8-2.7,5.5c-0.9,1.4-2.3,2.3-3.7,3.1c-1.6,0.9-3.1,2-4.7,2.9C318.7,130.9,316.4,130.9,314,131.3z"/>
		<g>
			<path d="M314.4,129.9c-2.7-1.1-10.3,3.1-12.1,5.2c-2.1,2.4-2.7,5.8-4.4,8.5c-3.3,5.2-8.5,5.3-14.1,3.9c-5.5-1.4-9.9-2.9-14.3,1.6
				c-1.5,1.6-4.9,4.6-3.2,7c2,2.8,9.7,1.6,12.4,1.7c2,0.1,4.9-0.1,6.7,0.6c3.6,1.2,3.6,2.9,4.8,5.6c0.5,1.1,0.8,1.8,1.7,2.5
				c3,2.3,7.8,1.7,11.1,3.2c1,0.2,1.9,0.7,2.7,1.4c1.7,0.4,1.9,1.1,0.6,1.9c-0.4,0.8-1.8,1.6-2.5,2.2c-1,0.9-3,2.1-3.6,3.3
				c-0.3,0.5-0.3,1.4,0.2,1.8c2.8,2.2,8.9,0.9,12.2,0.4c5.4-0.9,10.5-3.2,14.9-6.4c4.8-3.4,10-7.1,13.1-12.3c3-5,5.2-11.1,6.6-16.7
				c1.1-4.1,1.2-8,1.2-12.2c0-4.9,0.4-10.5-4.3-13.5c-3.3-2.1-10.2-5.5-13.8-2.4c-2.2,1.9-2.1,5.2-4.2,7.1c-3.6,3.2-8.3,4.9-13,5.6
				c-1.9,0.3-1.1,3.2,0.8,2.9c5.2-0.8,9.7-2.6,13.9-6c1.4-1.1,1.9-2.2,2.8-3.6c1.1-1.7-0.6-3.6,3.4-4.3c1.6-0.3,4.2,1.3,5.6,1.9
				c6.4,2.7,5.8,7.7,5.9,13.8c0,3.4-0.3,6.6-1.1,9.9c-1.2,4.7-3.1,9.6-5.2,13.9c-2.4,4.9-6.1,8-10.4,11.3c-4.5,3.4-9.1,6.2-14.6,7.6
				c-1.5,0.4-2.9,0.6-4.4,0.7c-1.3,0.1-6.2,0.9-7.2,0.2c0.1,0.6,0.2,1.2,0.2,1.8c1.3-2.7,5.6-3.9,7-6.8c1.7-3.6-2-4.9-4.8-6
				c-1.7-0.7-3.2-1.4-5-1.8c-2-0.4-4.9,0.1-6.5-1.4c-1.5-1.4-1.6-4.4-3-6c-1-1.3-2.2-2-3.8-2.5c-2.6-0.8-5.6-0.8-8.2-0.9
				c-1.8,0-8.4,0.8-9.6-0.5c-1.2-1.2,6.3-5.3,7.5-5.4c3.1-0.4,7.1,2,10.2,2.4c4.5,0.6,8.7,0.1,11.7-3.4c1.9-2.2,3.2-4.7,4.3-7.4
				c1.1-2.5,2.3-3.9,4.8-5.3c0.9-0.5,5-2.6,5.9-2.3C315.4,133.5,316.2,130.6,314.4,129.9z"/>
		</g>
	</g>
	<g>
		<path class="st13" d="M352.1,70.9c-1.4,3.4-4.6,9.7-8.5,16.2c-1.8,2.9-3.7,5.8-6.5,7.7c-3.4,2.2-8.2,3.1-9.9,6.7
			c-0.7,1.5-0.8,3.4-1.8,4.7c-1.6,2.1-4.8,2.2-7.2,1.1c-2.4-1.1-4.3-3-6.5-4.5c-2.2-1.4-5.1-2.3-7.5-1.1c-0.8,0.5-1.5,1.2-2.4,1.6
			c-2.5,1.2-5.4-0.4-8.1-1.3c-2.1-0.7-4.2-0.9-6.4-0.7c-1.4,0.1-2.8,0.5-3.9,1.4c-1,0.9-1.3,2.5-0.9,3.8c0.4,1.3,1.4,1.9,2.1,2.4
			c2.6,1.8,4.8,4.1,7.3,6.1c4.4,3.6,4.8,4.6,6.7,4.8c2,0.2,3.6-0.7,4.8-1.3c4.6-2.5,4.4-6.1,7.2-6.5c2.9-0.5,6.6,3,7.9,6.3
			c0.8,1.9,0.3,2.8,1.4,4.7c0.2,0.4,2,3.3,4.8,4.1c4.3,1.1,6.2-4.1,12.8-5.1c4.9-0.7,5.5,2,9.3,0.9c6.9-2,10.3-12.6,10.5-13.3
			c0.9-2.8,2-5.5,3-8.2c0.4-1.2,0.9-2.4,1.8-3.3c1-1,2.4-1.4,3.5-2.3c1.3-0.9,1.1-1.5,3-3.7c1-1.1,1.3-1.3,1.8-1.8
			c2.1-2.4,1.8-6.1,1.7-7.1c-0.3-3.7-2-3.8-6-11.8c-1.3-2.5-1.7-3.7-3.2-5.6c-1.5-1.9-3.7-4.7-5.8-4.4
			C355.3,61.6,354.7,64.6,352.1,70.9z"/>
		<g>
			<path d="M350.8,70.2c-2.4,5.6-5.3,11-8.5,16.2c-1.9,3.1-3.9,5.9-7.1,7.8c-2.1,1.3-4.6,1.9-6.6,3.4c-1.3,1-2.3,2.1-3,3.5
				c-1.2,2.5-0.5,6.1-5.9,5.2c-1.8-0.3-3.5-1.9-4.9-2.9c-1.8-1.3-3.6-2.8-5.8-3.4c-3-0.8-4.3,0.5-6.9,1.2c-6.1,1.8-11.9-3.4-18-0.7
				c-3.2,1.4-4.3,5.2-2.1,8.1c1.3,1.7,3.6,2.9,5.2,4.3c2.3,2,4.5,4,6.8,6c2.4,2,4.4,3,7.6,2.1c1.9-0.6,3.8-1.8,5.2-3.1
				c2.5-2.4,4.6-5.9,8.2-2c3.2,3.4,2.4,8.2,6.5,11.2c2.5,1.9,5.1,2,7.9,0.6c1.8-0.9,3.2-2.3,5-3.2c3.9-1.8,6.2-0.3,9.9,0.1
				c7.3,0.8,12-7.8,14.2-13.6c0.5-1.4,1-2.9,1.5-4.3c0.6-1.6,1.1-3.4,1.9-4.9c1.9-3.7,2.2-2.8,4.7-4.7c2.4-1.9,5.5-5.3,6.6-8.3
				c1.1-3,1-6.6-0.5-9.4c-2.2-4.4-4.8-9.1-7.5-13.2c-1.6-2.5-5.1-7.4-8.7-6.1c-3.4,1.2-4.6,7.7-5.8,10.5c-0.7,1.8,2.2,2.6,2.9,0.8
				c0.6-1.5,1.6-6.1,2.9-7.1c2.1-1.8,4.1,0.6,5.5,2.5c2.7,3.6,4.4,8,6.8,11.9c4.2,6.6,0.5,12.9-5.5,16.9c-5.8,3.9-6,12.1-9.1,18.1
				c-1.9,3.6-5.2,8.5-9.8,7.9c-3.6-0.5-6-1.7-9.8-0.3c-2.8,1-6.1,4.9-9.3,4.4c-4.8-0.9-4.5-7.4-6.8-10.5c-1.5-2.1-4-4.4-6.7-4.6
				c-3-0.2-3.9,1.7-5.6,3.7c-1.9,2.3-5.2,5.1-8.4,3.8c-1.5-0.6-2.9-2.5-4.1-3.5c-1.8-1.6-3.6-3.2-5.4-4.7c0.7,0.6-1.3-1-1.5-1.2
				c-2.2-1-2.3-2.8-0.3-5.5c1.3-0.3,2.7-0.3,4-0.1c4.3,0.5,7.6,3.1,12,1.8c2.8-0.9,0.6-2.9,6-1.8c1.5,0.3,2.6,1.3,3.9,2.1
				c2.1,1.4,3.8,3.1,6.2,3.9c2.9,0.9,6.4,0.6,8.3-2c1.9-2.6,1.5-5.4,4.5-7.5c1.7-1.2,3.8-1.8,5.6-2.8c4.2-2.4,6.7-6.4,9.1-10.4
				c2.8-4.7,5.4-9.5,7.5-14.6C354.1,69.9,351.5,68.4,350.8,70.2z"/>
		</g>
	</g>
	<g>
		<path class="st13" d="M268.4,40.5c2.5-0.1,5-0.1,7.5,0.3c1.2,0.2,2.3,0.5,3.5,0.5c2.4,0.1,4.7-0.9,7.1-1.3
			c2.4-0.4,5.3,0.1,6.4,2.2c0.8,1.5,0.5,3.5-0.1,5.1c-0.6,1.6-1.5,3.2-2.9,4.3c-1.7,1.3-4,1.6-6.1,1.3c-2.1-0.3-4.1-1.1-6.1-1.9
			c-1.9-0.8-3.8-1.6-5.7-2.4c-0.5-0.2-1-0.4-1.5-0.4c-0.6,0-1.2,0.3-1.8,0.6l0,0C261.5,51.9,258.3,40.9,268.4,40.5z"/>
		<g>
			<path d="M268.4,42c3.2-0.1,6,0.3,9.2,0.6c2.8,0.2,4.8-0.2,7.5-0.8c2.8-0.6,4.2-1,5.7,1.8c0.9,1.9,1.2,3.6-0.4,5.3
				c-3.5,3.8-8.3,2.2-12.3,0.6c-3.4-1.4-6.1-3.2-9.7-2.2C262.4,48.9,262.2,42.6,268.4,42c1.9-0.2,1.9-3.2,0-3
				c-4.5,0.4-10.4,3.9-7.1,9.2c1.2,1.9,3.4,2.8,5.6,2.6c1.3-0.1,2.3-0.7,3.6-0.7c2.7,0,5.7,2,8.3,3c3.9,1.5,8.6,2.5,12.2-0.3
				c2.6-2,4.6-6.3,3.8-9.6c-0.7-3-3.5-4.5-6.5-4.6c-3.1-0.1-5.9,1.4-9,1.4c-3.7,0-7.2-0.9-11-0.8C266.5,39.1,266.5,42.1,268.4,42z"
				/>
		</g>
	</g>
	<g>
		<path class="st13" d="M222.4,99.9c-0.6,1.2-1.1,2.7-0.5,3.9c0.9,1.8,3.5,1.7,5.5,2c2.9,0.3,5.5,1.8,8.2,2.6c3.1,0.9,6.5,1,9.5,2.1
			c1.7,0.6,3.4,1.6,5.2,1.7c1.8,0.2,3.9-0.9,4.2-2.7c0.2-2.1-2-3.5-4.1-4.1s-4.4-0.9-5.5-2.7c-0.8-1.2-0.7-2.9-1.4-4.2
			c-0.9-1.8-2.9-2.7-4.7-3.7c-1.8-1-3.6-2.5-3.6-4.5c0-1.2,0.7-2.3,1.1-3.4c0.1-0.3,0.2-0.6,0.1-0.8c-0.3-0.9-1.6-0.3-2.2,0.4v0
			c-2,2.2-3.5,5-5.6,7C226.3,95.7,223.9,96.9,222.4,99.9z"/>
		<g>
			<path d="M221.1,99.1c-1.3,3-1.3,6.1,2.2,7.5c2.7,1.1,5.9,1,8.7,2c3.2,1.1,6.4,1.7,9.7,2.4c3.8,0.8,8.8,4.4,12.6,1.5
				c2.6-2,2-5.3-0.4-7.1c-1.7-1.3-3.9-1-5.5-2.1c-2.7-1.8-2.9-5.5-5.3-7.6c-2.1-1.9-6.4-2.5-6.2-6.1c0.1-1.4,1.7-2.7,0.9-4.2
				c-1.2-2.4-3.9-0.6-5.1,0.7c-2.1,2.2-3.5,4.9-5.7,6.9C224.7,95,222.7,96.5,221.1,99.1c-1,1.6,1.6,3.2,2.6,1.5
				c2.1-3.3,5.5-5.3,8-8.3c0.8-1,3.4-3.7,3.6-4.8c0.2-1.1-1.3,1.1-1.3,1.2c-0.7,1.6,0,3.5,0.9,4.8c2.4,3.3,5.9,3.4,7.8,7.5
				c1,2.1,1.3,3.4,3.5,4.6c0.8,0.4,3.4,0.6,3.9,1.2c0.7,3.3,0,4.3-1.9,3.2c-0.6-0.3-1.3-0.5-1.9-0.8c-3.6-1.3-7.4-1.5-11-2.6
				c-1.5-0.5-12.8-2.9-11.5-5.9C224.4,98.9,221.8,97.4,221.1,99.1z"/>
		</g>
	</g>
	
		<rect x="305.6" y="45.9" transform="matrix(0.6678 0.7443 -0.7443 0.6678 142.9551 -211.0424)" class="st5" width="4.7" height="17.6"/>
	
		<rect x="283.1" y="62.3" transform="matrix(0.8815 -0.4722 0.4722 0.8815 1.4216 142.5817)" class="st5" width="3.3" height="12.2"/>
	
		<rect x="268.6" y="74.1" transform="matrix(-0.9292 -0.3695 0.3695 -0.9292 492.1638 260.8803)" class="st5" width="4.9" height="18.5"/>
	
		<rect x="310.7" y="72.7" transform="matrix(1.326020e-02 0.9999 -0.9999 1.326020e-02 388.7511 -233.4999)" class="st5" width="4" height="15"/>
	<rect x="333.3" y="48.3" transform="matrix(0.4751 -0.8799 0.8799 0.4751 126.8448 324.3412)" class="st5" width="4" height="15"/>
	
		<rect x="294.3" y="83.5" transform="matrix(6.907316e-02 0.9976 -0.9976 6.907316e-02 368.9379 -209.6051)" class="st5" width="5" height="18.7"/>
	<rect x="254.8" y="53.7" transform="matrix(0.9506 -0.3105 0.3105 0.9506 -6.3147 82.7494)" class="st5" width="4" height="15"/>
	<rect x="331.3" y="72.3" transform="matrix(0.9693 0.2457 -0.2457 0.9693 29.8274 -79.4481)" class="st5" width="4" height="15"/>
	
		<rect x="291.4" y="117.1" transform="matrix(-3.147241e-02 0.9995 -0.9995 -3.147241e-02 428.8735 -163.726)" class="st5" width="4.7" height="17.6"/>
	
		<rect x="268.9" y="131.2" transform="matrix(0.9758 -0.2185 0.2185 0.9758 -23.2367 62.3247)" class="st5" width="2.7" height="10.1"/>
	
		<rect x="250.5" y="116" transform="matrix(-0.6598 -0.7514 0.7514 -0.6598 325.4 399.9925)" class="st5" width="5.5" height="20.6"/>
	
		<rect x="222.7" y="111.2" transform="matrix(0.999 -4.416102e-02 4.416102e-02 0.999 -5.0205 10.0393)" class="st5" width="4" height="15"/>
	
		<rect x="324.1" y="146.9" transform="matrix(1.326020e-02 0.9999 -0.9999 1.326020e-02 473.7082 -175.0444)" class="st5" width="3" height="11.1"/>
	
		<rect x="335.3" y="130.6" transform="matrix(0.4751 -0.8799 0.8799 0.4751 55.81 368.9976)" class="st5" width="3.8" height="14.2"/>
	
		<rect x="303.4" y="148.1" transform="matrix(0.9693 0.2457 -0.2457 0.9693 47.652 -70.2812)" class="st5" width="4.1" height="15.4"/>
	
		<rect x="332.5" y="111.1" transform="matrix(-0.1531 0.9882 -0.9882 -0.1531 499.9776 -195.8398)" class="st5" width="2.8" height="10.4"/>
	
		<rect x="356.4" y="73.5" transform="matrix(0.9506 -0.3105 0.3105 0.9506 -6.6722 114.9613)" class="st5" width="2.6" height="9.8"/>
	<rect x="344.3" y="95.7" transform="matrix(0.915 0.4034 -0.4034 0.915 71.0522 -130.9544)" class="st5" width="4" height="15"/>
</g>
</svg>
