<?xml version="1.0" encoding="utf-8"?>
<!-- Generator: Adobe Illustrator 21.1.0, SVG Export Plug-In . SVG Version: 6.00 Build 0)  -->
<svg version="1.1" xmlns="http://www.w3.org/2000/svg" xmlns:xlink="http://www.w3.org/1999/xlink" x="0px" y="0px"
	 viewBox="0 0 400 300" style="enable-background:new 0 0 400 300;" xml:space="preserve">
<style type="text/css">
	.st0{display:none;}
	.st1{display:inline;fill:#59EFF2;}
	.st2{fill:#FF0000;}
	.st3{fill:#FFB000;}
	.st4{fill:#FFFF00;}
	.st5{fill:#45C445;}
	.st6{fill:#00EDFF;}
	.st7{fill:#7500B2;}
	.st8{fill:#FFFFFF;}
	.st9{fill:#D691FF;}
	.st10{fill:#FF5758;}
	.st11{fill:#FFD24C;}
	.st12{fill:#9FFF7C;}
</style>
<g id="Layer_3" class="st0">
	<rect class="st1" width="400" height="300"/>
</g>
<g id="rainbow">
	<g>
		<g>
			<path class="st2" d="M119.3,0.3C79.2-3.8,40.1,19.7,26.7,58.8C23,69.5,21.6,80.4,22.1,91h97.2V0.3z"/>
			<path class="st3" d="M145.6-3.1c-42-5.2-83.2,19.1-97.3,60.1c-3.9,11.3-5.3,22.8-4.6,34.1h101.9V-3.1z"/>
			<path class="st4" d="M168.4,19.6c0.1-0.1,0.1-0.1,0.2-0.2V-2.9C126.2-9.5,83.9,14.6,69.7,56c-4,11.6-5.4,23.5-4.5,35h92.3
				C147,67,148.6,38.8,168.4,19.6z"/>
			<path class="st5" d="M168.4,19.6C175,13.2,183,8.3,191.6,4.5v-6.1C148.9-10.5,105.3,13.2,91,54.8c-4.1,12-5.4,24.3-4.2,36.2h70.6
				C147,67,148.6,38.8,168.4,19.6z"/>
			<path class="st6" d="M168.4,19.6c10-9.6,23-15.9,36.6-20.1c-39.6-7.4-79.6,14.8-92.9,53.4c-4.4,12.7-5.3,25.7-3.4,38.1h48.7
				C147,67,148.6,38.8,168.4,19.6z"/>
			<path class="st7" d="M168.4,19.6c9.5-9.2,21.9-15.3,34.8-19.5c-30.7-1.4-59.9,17.2-70.3,47.3c-5.1,14.7-4.8,29.9-0.3,43.6h24.8
				C147,67,148.6,38.8,168.4,19.6z"/>
		</g>
	</g>
	<path class="st8" d="M148.9,85.8c2.4,0.1,9.2,0.4,14.5,5.2c5.4,4.9,8,13.5,5.3,20.7c-3.8,10-16.1,12.3-19.7,12.9
		c-10.2,1.9-12.4-2.8-22.3-1.3c-11.9,1.8-13,9-23.7,11.6c-12.4,3-15.6-5.6-32.9-7.8c-23.6-2.9-33.8,11.3-46,3.9
		c-9.5-5.8-10.4-18.6-10.5-21.3C13,96.7,21.4,83.2,31.9,80.7c12.6-3,21.5,11.5,34.2,6.5c3.4-1.4,4.3-3.1,11.8-6.5
		c6.8-3,10.2-4.6,14.5-3.9c3.9,0.6,8.6,3,11.8,6.5c2,2.1,2.2,3.2,3.9,3.9c3.4,1.3,5.7-1.9,10.5-2.6c5.5-0.7,6.3,2.9,13.1,3.9
		C139.2,89.5,140.6,85.5,148.9,85.8z"/>
	<path class="st8" d="M94.3,149.4c-1.6-0.1-6.1-0.3-9.6-4.6c-3.6-4.4-5.3-12-3.5-18.4c2.5-8.9,10.7-10.9,13-11.5
		c6.7-1.7,8.2,2.5,14.8,1.2c7.9-1.6,8.6-8,15.6-10.4c1.5-0.5,2.8-0.6,4-0.5c7.8,0.7,10.5,4.8,17.7,7.4c9.8,3.5,17.1-2,20.3,2.4
		c1.7,2.3,0.4,5,2.6,6.5c2,1.3,3.7-0.4,7.9,0c2.6,0.3,7.3,1.4,7.9,3.9c0.6,2.9-4.3,4.6-3.9,7.8c0.4,4,8.4,4.1,9.2,7.8
		c1,4.4-8.8,13.6-18.7,13.2c-8.6-0.4-17.5-8-22.6-5.8c-0.2,0.1-1.6,0.8-3.4,1.6c-3.9,1.9-4.1,2.1-5.3,2.6c-1.4,0.6-4.4,1.7-7.9,1.3
		c-2.7-0.3-4.8-1.5-6.6-2.6c-3.3-1.9-3.2-2.8-4.7-2.9c-2.3-0.1-3.2,1.6-6.9,2.3c-3.6,0.6-4.2-2.6-8.7-3.5
		C100.6,146.1,99.8,149.7,94.3,149.4z"/>
	<path class="st8" d="M295.5,118.6c-2.2-0.1-8.4-0.5-13.2-6.4c-4.9-6-7.3-16.6-4.8-25.4c3.5-12.3,14.7-15.1,18-15.9
		c9.3-2.3,11.3,3.4,20.4,1.6c10.9-2.2,11.8-11.1,21.6-14.3c2.1-0.7,3.9-0.9,5.6-0.7c10.8,1,14.5,6.7,24.4,10.3
		c13.5,4.9,23.6-2.7,28,3.3c2.3,3.2,0.6,7,3.6,8.9c2.7,1.7,5.1-0.6,10.9,0c3.6,0.4,10.1,1.9,10.9,5.3c0.9,4-5.9,6.3-5.4,10.7
		c0.6,5.5,11.6,5.7,12.7,10.7c1.3,6.1-12.1,18.8-25.9,18.2c-11.9-0.5-24.2-11.1-31.1-7.9c-0.3,0.1-2.3,1.1-4.6,2.2
		c-5.4,2.6-5.6,2.9-7.3,3.6c-1.9,0.8-6,2.4-10.9,1.8c-3.7-0.5-6.6-2.1-9.1-3.6c-4.5-2.6-4.4-3.9-6.5-4c-3.1-0.1-4.4,2.2-9.6,3.2
		c-5,0.9-5.8-3.6-12-4.8C304.3,114.2,303.1,119.1,295.5,118.6z"/>
</g>
<g id="house">
	<g>
		<path class="st9" d="M135.7,280.8c3.7-12.7,2.4-23.3,0.7-36.7c-0.9-7.1-2.7-16.7-6.7-27.6c17.1,2.8,36.5,4.7,58,5
			c11.7,0.1,22.7-0.3,33-1c-1,3.2-1.8,6.6-2.4,10.1c-5,31.2,12.4,57.9,21.5,69.8c-38.6-1-57.8-0.6-68,0.1c-10,0.7-20.1-1.3-30.1,0
			c-4,0.5-8,1.3-10-1C128.8,296.2,133,289.9,135.7,280.8z"/>
	</g>
	<g>
		<path class="st10" d="M133.7,186.5c4.2-3.2,11.6-8.8,19-18c3.1-3.8,5.8-7.8,14-23c3.9-7.2,9.1-17,15-29
			c3.6,5.1,8.7,12.6,14.3,22.1c6.5,11.1,8.4,16.8,16.2,29.9c6.8,11.5,9.8,17.5,13.9,23.4c5.4,7.7,14,18.5,27.5,29.6
			c-24.4,0-45.2-0.2-61.6-0.6c-24.4-0.5-41.1-0.3-64.4-3c-7.2-0.9-13.1-1.7-17.1-2.4c-4.6-0.5-9.3-1.1-14-1.7
			c-3.4-0.4-6.7-0.9-10-1.3c1.2-1.2,3.2-3.1,6-5c2.3-1.5,4.8-2.8,13-6c4.2-1.6,6.8-2.5,8-3C121.9,195.4,127.6,191.1,133.7,186.5z"/>
	</g>
	<g>
		<path class="st11" d="M147.9,262.7c0,0.2,0,0.3,0.1,0.5c0.2,0.4,0.8,0.3,1.2,0.2c7-1.7,14.1-2.6,21.2-2.8c0.6,0,1.2-0.1,1.6-0.5
			c0.4-0.4,0.4-1.1,0.3-1.6c-0.7-6.6-1.6-13.2-2.8-19.7c-0.1-0.3-0.1-0.7-0.3-0.9c-0.4-0.4-1-0.5-1.6-0.5l0,0
			c-4.4-0.1-8.9-0.2-13.3-0.3c-2.1-0.1-7.3-1.2-8.5,1.3c-0.7,1.4,0.2,4.2,0.3,5.7c0.2,2,0.4,4.1,0.6,6.1
			C147,254.2,147.9,258.5,147.9,262.7z"/>
	</g>
	<g>
		<path class="st11" d="M187.5,260.1C187.5,260.1,187.5,260.1,187.5,260.1c0.1,0.4,0.3,0.8,0.7,0.9c0.2,0.1,0.5,0.1,0.8,0.1
			c6.8-0.2,13.6-0.5,20.4-0.7c0.5,0,0.9,0,1.3-0.3c0.6-0.5,0.6-1.3,0.5-2.1c-0.9-7.4-3.5-14.7-2.9-22.2c0-0.4,0.1-0.9-0.3-1.2
			c-0.2-0.2-0.5-0.2-0.8-0.2c-7.3-0.6-14.7-1.2-22,0c-2.6,0.4-5.4,0.9-5.5,4c-0.1,3,1.9,6.4,3,9.1
			C184.2,251.7,185.9,255.9,187.5,260.1z"/>
	</g>
	<g>
		<path class="st11" d="M166,298.7c9,0.6,18.1,0.8,27.1,0.6c0.4,0,0.8,0,1.1-0.3c0.3-0.3,0.3-0.7,0.3-1c0.1-2-0.2-4-0.5-6
			c-1.1-8-1.4-16.1-0.8-24.1c0-0.4,0-0.9-0.3-1.2c-0.3-0.3-0.8-0.3-1.2-0.3c0,0,0,0,0,0c-4.3,0-8.6-0.1-12.9-0.1
			c-3,0-7.1-0.8-9.8,0.8c-4.9,2.8-3,12.7-3,17.1C166,285.4,166,298.7,166,298.7z"/>
	</g>
	<g>
		<path class="st12" d="M134.4,300.6c-7.1-0.8-13.6-5-18.3-10.4c-4.7-5.4-8-11.9-10.9-18.5c-6.8-15.3-11.9-32.7-6.6-48.6
			c6,4.5,13.8,6.5,21.3,5.5c1.9-0.3,3.8-0.7,5.3-2c1.9-1.5,2.7-4,3-6.4c0.8-6.1-1.5-12.6-6.4-16.4c-4.9-3.7-12.3-4.1-17.1-0.2
			c2.4-6.9,4.8-14.2,3-21.3c-1.4-5.4-5.4-10.1-10.6-12.3c-2.1-0.9-4.6-1.4-6.8-0.9c-4.5,1.1-7,6.1-8,10.6c-1.1,4.6-1.4,9.3-1,13.9
			c0.3-3.6-1.5-7.2-4-9.7c-2.6-2.6-5.8-4.3-9.1-5.8c-5.7-2.6-12.7-4.8-17.8-1.2c-2.3,1.6-3.8,4.1-4.9,6.7c-1.9,4.4-2.7,9.6-0.5,13.8
			c1.8,3.3,5.2,5.5,8.9,6.5s7.4,1.1,11.2,1.1c-8.3,4-14.2,12.5-15,21.7c-0.2,3,0.1,6.3,2.2,8.4c2,2,4.9,2.5,7.7,2.8
			c4.4,0.4,8.9,0.2,13.4-0.5c3.6-0.6,7.2-1.5,10.1-3.5c3-2,5.3-5.3,5.3-8.9c-0.4,4-0.8,8-1.2,12c-0.5,4.9-0.9,9.8-0.8,14.7
			c0.5,19,10,36.5,19.2,53.1"/>
	</g>
	<g>
		<path class="st12" d="M239.2,298.5c10.7-1.1,20.3-7.4,27.4-15.5c7.1-8.1,12-17.8,16.3-27.7c10.1-22.9,17.9-48.9,9.9-72.6
			c-9,6.7-20.7,9.7-31.8,8.1c-2.8-0.4-5.7-1.1-7.9-2.9c-2.8-2.3-4-6-4.5-9.5c-1.2-9.1,2.2-18.9,9.5-24.5c7.3-5.6,18.4-6.1,25.5-0.3
			c-3.6-10.3-7.2-21.3-4.5-31.8c2.1-8.1,8.1-15.1,15.8-18.4c3.2-1.4,6.8-2.1,10.2-1.3c6.8,1.7,10.4,9.1,12,15.8
			c1.6,6.8,2.1,13.9,1.5,20.8c-0.5-5.4,2.2-10.7,6-14.6c3.8-3.8,8.7-6.4,13.6-8.7c8.4-4,18.9-7.1,26.6-1.8c3.4,2.4,5.7,6.1,7.3,10
			c2.8,6.6,4.1,14.4,0.7,20.7c-2.7,5-7.8,8.2-13.3,9.7c-5.4,1.5-11.1,1.6-16.7,1.6c12.4,5.9,21.3,18.7,22.4,32.4
			c0.4,4.5-0.2,9.4-3.3,12.6c-2.9,3-7.4,3.8-11.5,4.1c-6.7,0.6-13.4,0.3-20-0.7c-5.3-0.8-10.7-2.2-15.1-5.3c-4.4-3-7.9-8-8-13.4
			c0.6,6,1.2,12,1.7,18c0.7,7.3,1.4,14.6,1.2,21.9c-0.8,28.4-15,54.6-28.8,79.4"/>
	</g>
</g>
</svg>
