<svg xmlns="http://www.w3.org/2000/svg" xmlns:xlink="http://www.w3.org/1999/xlink" viewBox="0 0 72 72"><defs><style>.cls-1{fill:none;}.cls-2{fill:#59eff2;}.cls-3{fill:url(#linear-gradient);}.cls-4{fill:url(#linear-gradient-2);}.cls-5{fill:#fff;}</style><linearGradient id="linear-gradient" x1="-24.09" y1="141.99" x2="4.13" y2="125.7" gradientTransform="matrix(1.28, -0.29, 0.27, 1.21, 15.95, -109.19)" gradientUnits="userSpaceOnUse"><stop offset="0" stop-color="#fff"/><stop offset="0.42" stop-color="#d691ff"/><stop offset="1" stop-color="#d691ff"/></linearGradient><linearGradient id="linear-gradient-2" x1="-20.01" y1="75.54" x2="4.98" y2="61.12" gradientTransform="matrix(1.14, -0.05, 0.04, 1, 24.78, -12.26)" gradientUnits="userSpaceOnUse"><stop offset="0" stop-color="#fff"/><stop offset="0.42" stop-color="#d691ff"/><stop offset="1" stop-color="#d651ff"/></linearGradient></defs><title>Asset 28</title><g id="Layer_2" data-name="Layer 2"><g id="Layer_9" data-name="Layer 9"><rect class="cls-1" width="72" height="72"/><circle class="cls-2" cx="36" cy="36" r="27"/><path class="cls-1" d="M44.39,39,58.66,50.68A27,27,0,1,0,26.07,61.11Z"/><path class="cls-3" d="M26.07,61.11A27,27,0,0,0,58.66,50.68L44.39,39Z"/><path class="cls-1" d="M36,9A27,27,0,0,0,11.09,46.44L22.5,35.55,42.83,62.13A27,27,0,0,0,36,9Z"/><path class="cls-4" d="M11.09,46.44A27,27,0,0,0,42.83,62.13L22.5,35.55Z"/><path class="cls-5" d="M33.13,30.93l-10,11.92A3.74,3.74,0,0,0,26,49H46a3.74,3.74,0,0,0,2.87-6.15l-10-11.92A3.74,3.74,0,0,0,33.13,30.93Z"/><rect class="cls-5" x="26" y="32" width="5" height="9"/><path class="cls-5" d="M45,59.26V48.74A3.74,3.74,0,0,0,41.26,45H30.74A3.74,3.74,0,0,0,27,48.74V59.26a3.72,3.72,0,0,0,1,2.54,27.14,27.14,0,0,0,16,0A3.72,3.72,0,0,0,45,59.26Z"/></g></g></svg>