<svg xmlns="http://www.w3.org/2000/svg" xmlns:xlink="http://www.w3.org/1999/xlink" viewBox="0 0 72 72"><defs><style>.cls-1{fill:none;}.cls-2{fill:#59eff2;}.cls-3{fill:url(#linear-gradient);}.cls-4{fill:url(#linear-gradient-2);}.cls-5{fill:#fff;}</style><linearGradient id="linear-gradient" x1="50.31" y1="91.73" x2="78.53" y2="75.44" gradientTransform="matrix(1.28, -0.29, 0.27, 1.21, -66.06, -26.89)" gradientUnits="userSpaceOnUse"><stop offset="0" stop-color="#fff"/><stop offset="0.42" stop-color="#d691ff"/><stop offset="1" stop-color="#d691ff"/></linearGradient><linearGradient id="linear-gradient-2" x1="16.66" y1="62.75" x2="41.65" y2="48.33" gradientTransform="matrix(1.14, -0.05, 0.04, 1, -16.59, 2.38)" gradientUnits="userSpaceOnUse"><stop offset="0" stop-color="#fff"/><stop offset="0.42" stop-color="#d691ff"/><stop offset="1" stop-color="#d651ff"/></linearGradient></defs><title>Asset 30</title><g id="Layer_2" data-name="Layer 2"><g id="Layer_6" data-name="Layer 6"><rect class="cls-1" width="72" height="72"/><circle class="cls-2" cx="36" cy="36" r="27"/><path class="cls-1" d="M44.39,39,58.66,50.68A27,27,0,1,0,26.07,61.11Z"/><path class="cls-3" d="M26.07,61.11A27,27,0,0,0,58.66,50.68L44.39,39Z"/><path class="cls-1" d="M36,9A27,27,0,0,0,11.09,46.44L22.5,35.55,42.83,62.13A27,27,0,0,0,36,9Z"/><path class="cls-4" d="M11.09,46.44A27,27,0,0,0,42.83,62.13L22.5,35.55Z"/><rect class="cls-5" x="33.01" y="33.32" width="18.99" height="7.13" rx="3.56" ry="3.56"/><path class="cls-5" d="M21.28,39.55l10.83,8a3.32,3.32,0,0,0,5.29-2.67V28.91a3.32,3.32,0,0,0-5.29-2.67l-10.83,8A3.32,3.32,0,0,0,21.28,39.55Z"/></g></g></svg>