<svg xmlns="http://www.w3.org/2000/svg" xmlns:xlink="http://www.w3.org/1999/xlink" viewBox="0 0 72 72"><defs><style>.cls-1,.cls-5{fill:none;}.cls-2{fill:#59eff2;}.cls-3{fill:url(#linear-gradient);}.cls-4{fill:url(#linear-gradient-2);}.cls-5{stroke:#fff;stroke-linecap:round;stroke-miterlimit:10;stroke-width:6px;}.cls-6{fill:#fff;}</style><linearGradient id="linear-gradient" x1="-10.64" y1="85.85" x2="17.58" y2="69.56" gradientTransform="matrix(1.28, -0.29, 0.27, 1.21, 13.84, -37.17)" gradientUnits="userSpaceOnUse"><stop offset="0" stop-color="#fff"/><stop offset="0.42" stop-color="#d691ff"/><stop offset="1" stop-color="#d691ff"/></linearGradient><linearGradient id="linear-gradient-2" x1="-7.26" y1="69.01" x2="17.73" y2="54.58" gradientTransform="matrix(1.14, -0.05, 0.04, 1, 10.49, -5.08)" gradientUnits="userSpaceOnUse"><stop offset="0" stop-color="#fff"/><stop offset="0.42" stop-color="#d691ff"/><stop offset="1" stop-color="#d651ff"/></linearGradient></defs><title>Asset 27</title><g id="Layer_2" data-name="Layer 2"><g id="Layer_8" data-name="Layer 8"><rect class="cls-1" width="72" height="72"/><circle class="cls-2" cx="36" cy="36" r="27"/><path class="cls-1" d="M44.39,39,58.66,50.68A27,27,0,1,0,26.07,61.11Z"/><path class="cls-3" d="M26.07,61.11A27,27,0,0,0,58.66,50.68L44.39,39Z"/><path class="cls-1" d="M36,9A27,27,0,0,0,11.09,46.44L22.5,35.55,42.83,62.13A27,27,0,0,0,36,9Z"/><path class="cls-4" d="M11.09,46.44A27,27,0,0,0,42.83,62.13L22.5,35.55Z"/><path class="cls-5" d="M16,36.43C17.36,34.34,24.59,24,36,24c2,0,11.88.31,20,12.43"/><path class="cls-5" d="M16,37.57C17.36,39.66,24.59,50,36,50c2,0,11.88-.31,20-12.43"/><circle class="cls-6" cx="36.29" cy="36.67" r="5.67"/></g></g></svg>