 <svg version="1.0" xmlns="http://www.w3.org/2000/svg" width="700.000000pt" height="910.000000pt" viewBox="0 0 700.000000 910.000000" preserveAspectRatio="xMidYMid meet">
<metadata>
Created by potrace 1.12, written by Peter Selinger 2001-2015
</metadata>
<g transform="translate(0.000000,910.000000) scale(0.100000,-0.100000)" fill="#000000" stroke="none">
<path d="M6725 7494 c-184 -153 -230 -198 -399 -394 -203 -236 -231 -273 -409
-525 -104 -147 -315 -479 -397 -625 -20 -36 -95 -168 -167 -295 -160 -282
-179 -320 -233 -465 -24 -63 -51 -122 -60 -130 -10 -8 -32 -37 -51 -63 -60
-85 -78 -109 -122 -161 -24 -28 -62 -80 -86 -116 -24 -36 -63 -87 -86 -115
-23 -27 -69 -89 -101 -137 -58 -85 -147 -203 -274 -362 -79 -99 -355 -401
-437 -476 -87 -81 -585 -475 -831 -658 -57 -42 -140 -105 -184 -139 l-81 -63
-39 36 c-22 19 -63 51 -91 69 -183 122 -333 272 -416 419 -44 76 -81 198 -81
267 0 93 51 151 235 266 127 80 192 174 179 258 -7 49 1 55 39 30 53 -34 143
-57 250 -62 138 -7 225 7 346 59 132 57 208 81 270 87 30 3 56 11 58 16 1 6
-25 18 -59 28 -76 22 -154 85 -186 149 -12 24 -36 79 -52 123 -57 146 -93 201
-193 293 -26 24 -47 51 -47 61 0 11 17 27 44 41 80 40 156 163 156 250 0 65
-28 113 -125 220 -124 137 -151 204 -125 315 17 78 167 183 345 243 33 12 174
43 312 71 343 69 419 89 696 187 132 46 258 87 280 91 23 3 59 19 81 34 23 15
75 49 116 76 41 27 128 87 193 134 450 320 821 516 1080 570 59 12 107 26 107
31 0 13 -39 9 -125 -11 -120 -29 -214 -65 -380 -146 -227 -111 -416 -227 -733
-453 -120 -84 -224 -152 -312 -202 -8 -5 -58 -22 -110 -39 -52 -16 -164 -55
-249 -85 -176 -64 -356 -111 -620 -161 -318 -61 -446 -102 -580 -187 -91 -57
-118 -97 -133 -191 -11 -75 -11 -76 21 -141 19 -39 64 -100 112 -153 45 -48
90 -105 100 -125 27 -52 24 -118 -6 -178 -42 -84 -76 -113 -175 -154 -136 -57
-166 -107 -136 -226 41 -158 139 -257 380 -383 65 -34 84 -48 72 -53 -28 -11
-116 2 -181 26 -70 26 -246 86 -291 100 -17 6 -55 10 -86 10 -69 0 -110 -26
-153 -94 -29 -47 -30 -54 -30 -160 0 -103 -2 -114 -26 -151 -31 -47 -58 -72
-119 -111 -25 -16 -63 -43 -84 -61 -22 -18 -46 -33 -53 -33 -19 0 -91 -77
-114 -122 -25 -50 -24 -98 7 -204 30 -107 87 -211 169 -308 88 -106 136 -146
385 -324 33 -24 60 -47 60 -52 0 -4 -12 -16 -27 -25 -16 -10 -91 -71 -168
-136 -148 -124 -332 -307 -427 -424 -113 -141 -256 -388 -328 -570 -60 -151
-113 -394 -124 -565 -6 -97 17 -397 32 -412 14 -14 35 1 28 19 -11 28 34 232
81 366 81 235 200 437 387 659 66 79 134 147 179 181 188 141 389 249 567 305
164 51 176 51 120 -3 -146 -139 -333 -588 -535 -1280 -89 -305 -231 -542 -405
-675 -88 -67 -110 -87 -110 -100 0 -18 44 -10 165 31 260 87 483 222 688 416
105 99 223 233 275 311 48 73 0 -53 -128 -333 -80 -174 -162 -320 -190 -335
-9 -5 -36 -34 -60 -65 -23 -30 -45 -53 -48 -50 -8 8 -32 -16 -26 -27 3 -5 -2
-18 -12 -29 -16 -18 -16 -19 4 -19 22 0 82 62 165 170 87 114 316 608 381 820
68 227 146 635 146 773 0 104 53 280 128 429 56 111 58 113 102 126 189 56
470 152 545 187 136 63 498 321 513 366 9 23 -59 -20 -118 -77 -63 -60 -293
-220 -375 -262 -22 -11 -108 -43 -190 -72 -258 -88 -213 -76 -815 -221 -326
-78 -505 -158 -754 -337 -174 -126 -402 -416 -528 -672 -54 -111 -118 -280
-118 -314 0 -9 -4 -16 -10 -16 -14 0 -14 3 25 146 70 257 164 472 292 668 98
149 153 214 340 396 168 165 234 221 433 367 58 43 164 123 235 179 131 101
267 195 490 339 584 377 1023 730 1224 985 10 14 22 23 24 20 3 -3 1 -52 -4
-110 -5 -58 -13 -156 -18 -218 -5 -62 -13 -118 -19 -125 -5 -6 -10 -52 -10
-102 -4 -379 -134 -955 -324 -1435 -258 -649 -507 -1014 -919 -1345 -196 -157
-254 -208 -423 -369 -159 -152 -289 -297 -264 -295 7 0 40 32 72 71 68 80 379
376 482 458 38 31 114 92 169 135 121 98 302 275 376 370 84 109 94 123 165
235 37 58 74 116 84 130 19 29 103 203 130 270 10 25 34 81 55 125 65 142 94
214 152 375 54 150 73 213 80 260 3 19 9 40 13 45 4 6 17 48 29 95 13 47 29
105 37 130 13 46 70 339 99 515 9 55 19 104 22 109 4 5 5 50 4 100 -3 192 47
642 124 1106 14 85 30 182 35 215 10 61 73 294 89 330 5 11 22 54 37 95 46
129 143 315 376 725 383 674 827 1257 1168 1538 80 65 156 127 169 136 13 10
22 23 20 29 -2 6 -67 -41 -144 -104z m-1700 -2581 c-30 -104 -85 -421 -130
-742 -13 -94 -20 -118 -39 -135 -12 -12 -39 -44 -59 -72 -59 -83 -385 -382
-557 -512 -222 -167 -336 -245 -709 -487 -134 -87 -276 -183 -315 -214 -79
-61 -447 -341 -541 -411 -81 -61 -372 -347 -447 -439 -123 -153 -245 -359
-321 -542 -73 -177 -147 -463 -147 -570 0 -21 -4 -41 -10 -44 -18 -11 -17 323
1 455 12 86 60 273 96 375 70 193 224 452 383 642 135 160 538 523 582 523 9
0 18 8 20 18 3 9 58 55 124 102 65 47 153 112 195 145 41 33 120 95 175 137
581 452 605 473 871 768 171 190 250 291 649 839 57 80 189 237 200 241 1 0
-8 -35 -21 -77z m-2031 -95 c84 -26 202 -176 252 -323 30 -91 75 -176 98 -185
23 -10 66 -45 66 -54 0 -9 -112 33 -174 65 -109 57 -191 116 -252 182 -52 55
-66 78 -89 147 -30 89 -29 145 2 167 21 16 45 16 97 1z m-97 -494 c43 -14 119
-40 168 -59 110 -42 164 -51 278 -49 96 2 102 -5 20 -25 -29 -7 -76 -26 -105
-41 -81 -43 -233 -80 -330 -80 -120 0 -271 43 -317 89 -29 29 -26 56 14 116
60 92 112 101 272 49z m673 -2031 c0 -4 -9 -16 -19 -27 -21 -23 -71 -110 -71
-123 1 -4 7 3 15 17 8 14 14 20 15 13 0 -7 -12 -24 -26 -40 -15 -16 -23 -35
-20 -46 2 -10 -2 -34 -10 -54 -22 -51 -54 -209 -54 -262 0 -117 -82 -558 -142
-760 -15 -51 -27 -75 -40 -79 -10 -2 -28 -21 -40 -41 -105 -175 -364 -426
-581 -564 -126 -81 -433 -213 -475 -205 -9 2 15 26 61 61 118 91 221 223 305
393 47 93 81 188 131 364 44 151 143 467 166 525 153 398 215 523 315 644 31
36 59 73 62 83 5 11 41 24 125 43 65 14 152 35 193 45 90 22 90 22 90 13z"></path>
<path d="M1029 7221 c-23 -18 -24 -25 -24 -138 0 -65 4 -176 9 -248 l9 -130
-114 111 c-123 119 -232 192 -329 221 -30 8 -60 20 -67 25 -23 18 -136 19
-172 0 -51 -26 -85 -93 -84 -167 1 -59 59 -255 118 -395 13 -30 42 -102 66
-160 23 -58 53 -130 65 -160 13 -30 24 -65 24 -77 0 -12 15 -61 34 -110 19
-49 39 -122 45 -162 6 -40 18 -83 27 -96 14 -21 13 -26 -15 -66 -36 -55 -74
-137 -76 -169 0 -8 -9 -42 -19 -74 -28 -91 -19 -234 19 -304 42 -77 114 -139
256 -220 113 -64 133 -72 195 -78 l70 -6 64 68 c36 38 83 87 106 109 239 233
356 401 424 608 17 53 26 67 41 67 11 0 29 4 39 10 22 12 44 98 35 139 -4 19
-1 40 9 59 21 41 64 191 76 267 6 35 13 71 16 79 4 10 1 16 -8 16 -10 0 -18
-23 -27 -80 -19 -124 -93 -354 -121 -377 -8 -7 -31 -20 -50 -29 -19 -10 -40
-24 -47 -33 -17 -21 -16 -11 1 25 19 41 29 252 16 370 -35 331 -42 367 -97
549 -57 184 -86 253 -155 362 -46 73 -139 162 -200 192 -56 27 -127 28 -159 2z
m21 -192 c0 -10 -4 -19 -10 -19 -5 0 -10 12 -10 26 0 14 4 23 10 19 6 -3 10
-15 10 -26z m227 -111 c30 -33 93 -122 93 -132 0 -10 -117 -7 -144 4 -22 8
-26 15 -26 53 0 53 17 107 34 107 7 0 26 -15 43 -32z m-957 -30 c11 -22 12
-31 2 -54 -17 -36 -33 -20 -40 41 -4 38 -2 47 9 43 8 -3 21 -16 29 -30z m307
-19 c57 -31 158 -103 170 -121 3 -6 -3 -19 -14 -30 -16 -16 -33 -19 -91 -19
-39 0 -89 5 -111 11 -38 10 -39 11 -46 65 -6 55 -1 89 17 113 13 16 9 17 75
-19z m-164 -76 c-9 -22 -21 -14 -28 17 -9 43 6 62 21 25 6 -16 10 -35 7 -42z
m607 -50 c0 -13 -4 -23 -10 -23 -5 0 -10 17 -10 38 0 27 3 33 10 22 5 -8 10
-25 10 -37z m184 -80 c45 -71 46 -93 7 -93 -16 0 -31 6 -34 14 -9 22 -20 136
-14 136 3 0 22 -26 41 -57z m-884 -4 c0 -31 -18 -30 -29 3 -16 45 -14 53 9 33
11 -10 20 -26 20 -36z m241 -10 c23 -11 61 -39 85 -61 l45 -41 -22 -23 c-26
-28 -60 -37 -92 -25 -24 9 -30 23 -72 159 -6 17 10 15 56 -9z m-127 -21 c3
-17 4 -34 1 -37 -9 -8 -25 21 -25 47 0 33 17 27 24 -10z m457 -67 l24 -19 -37
-7 c-40 -8 -58 -1 -58 20 0 12 12 19 41 24 4 0 17 -8 30 -18z m502 3 c4 -4 -3
-20 -14 -36 -21 -29 -21 -29 -36 -8 -8 11 -12 27 -9 35 5 15 47 21 59 9z
m-1001 -111 c18 -16 25 -53 10 -53 -5 0 -16 16 -25 35 -18 38 -14 44 15 18z
m680 -73 c60 -88 113 -174 165 -270 69 -126 112 -214 95 -195 -4 6 -61 73
-124 151 -107 129 -227 248 -320 318 -21 16 -35 33 -32 38 12 19 89 48 123 46
31 -3 40 -12 93 -88z m382 41 c15 -51 46 -231 71 -418 18 -133 20 -227 4 -218
-6 4 -9 21 -8 39 2 17 -2 45 -9 61 -6 17 -31 100 -56 185 -24 86 -58 195 -75
244 l-31 89 38 33 c20 18 40 33 44 34 4 0 14 -22 22 -49z m-831 -33 c-17 -19
-18 -19 -35 19 -24 54 -22 57 17 27 34 -26 35 -27 18 -46z m127 63 c0 -12 -20
-25 -27 -18 -7 7 6 27 18 27 5 0 9 -4 9 -9z m516 -6 c-11 -8 -24 -15 -30 -15
-5 0 -1 7 10 15 10 8 24 14 29 14 6 0 1 -6 -9 -14z m-750 -30 c9 -23 11 -42 6
-51 -7 -13 -11 -11 -20 13 -20 53 -24 73 -12 73 6 0 18 -16 26 -35z m366 -72
c179 -140 180 -157 11 -108 -49 14 -122 31 -163 37 -75 11 -103 23 -98 40 4
10 154 75 176 77 7 1 40 -20 74 -46z m519 -225 c43 -121 61 -184 83 -280 9
-41 -10 -34 -41 15 -31 49 -243 463 -243 475 0 5 21 17 48 29 l47 20 29 -61
c16 -34 50 -123 77 -198z m-609 92 c225 -47 340 -104 418 -207 28 -36 48 -68
46 -71 -3 -2 -101 16 -218 41 -117 25 -230 49 -251 52 -26 4 -41 13 -47 28 -5
12 -23 54 -39 94 -17 39 -31 74 -31 77 0 10 21 7 122 -14z m-272 -31 c14 -25
12 -39 -5 -39 -15 0 -48 53 -39 63 9 9 34 -4 44 -24z m104 -31 c9 -17 16 -36
16 -42 -1 -16 -50 43 -50 60 0 24 18 15 34 -18z m332 -193 c149 -30 267 -72
340 -120 52 -35 82 -70 70 -83 -4 -3 -52 0 -109 7 -56 6 -182 15 -279 18
l-178 6 0 31 c0 17 -8 62 -19 99 l-18 67 35 0 c19 0 90 -11 158 -25z m-259
-66 l2 -44 -14 30 c-18 38 -19 68 -2 63 7 -3 13 -24 14 -49z m-89 17 c11 -25
7 -36 -14 -36 -13 0 -23 28 -17 48 7 19 19 14 31 -12z m985 -248 c-4 -64 -61
-206 -116 -291 -60 -90 -208 -260 -331 -377 l-79 -75 7 39 c11 56 89 215 161
327 42 64 109 143 204 241 107 110 140 150 135 163 -5 13 -3 16 7 13 9 -3 13
-18 12 -40z m-343 -6 c0 -5 -18 -16 -39 -26 -76 -33 -161 -66 -170 -66 -12 0
-26 25 -35 62 -6 26 -4 27 36 31 85 7 208 7 208 -1z m110 -28 c-122 -47 -140
-53 -140 -48 0 6 -94 -42 -143 -73 -45 -28 -51 -27 -34 7 8 15 34 33 72 48 98
40 139 59 160 76 13 10 41 15 85 15 l65 0 -65 -25z m57 -72 c-71 -72 -131
-119 -219 -175 -66 -42 -128 -77 -137 -77 -38 0 -56 55 -26 80 8 7 15 20 15
29 0 15 81 67 175 111 17 8 46 25 65 37 19 12 55 29 80 39 25 9 56 25 70 35
14 10 36 19 50 19 21 0 11 -14 -73 -98z m-469 28 l3 -55 -58 -29 -57 -28 -18
22 c-20 25 -24 55 -7 65 6 4 7 19 4 35 -6 27 -5 29 47 38 81 15 83 14 86 -48z
m-228 -84 c0 -39 -11 -50 -40 -41 -34 11 -17 75 20 75 16 0 20 -7 20 -34z
m220 -68 c0 -41 -3 -46 -64 -93 -83 -64 -100 -65 -104 -4 -2 34 2 49 16 62 18
17 129 75 145 76 4 1 7 -18 7 -41z m-400 -10 c0 -10 -2 -18 -4 -18 -2 0 -11
-3 -20 -6 -19 -7 -21 17 -5 48 9 17 13 18 20 7 5 -8 9 -22 9 -31z m419 -100
c26 -85 25 -90 -33 -135 -29 -24 -63 -43 -74 -43 -21 0 -82 45 -82 60 0 10
161 149 172 150 3 0 11 -15 17 -32z m251 8 c0 -2 -16 -30 -35 -62 -19 -32 -41
-71 -47 -86 -7 -15 -16 -28 -19 -28 -14 0 -30 30 -36 64 -5 34 -4 36 57 75 57
37 80 48 80 37z m-517 -60 c15 -22 15 -25 -3 -41 -25 -23 -50 -5 -50 36 0 37
31 40 53 5z m-171 -73 c21 -24 29 -55 20 -71 -12 -18 -38 13 -47 56 -7 35 4
42 27 15z m521 -46 c30 -41 37 -58 32 -81 -11 -59 -33 -67 -128 -42 -52 14
-97 35 -97 46 0 20 123 129 145 129 6 0 27 -23 48 -52z m-284 -50 c8 -10 7
-19 -4 -33 -13 -18 -15 -18 -31 -2 -18 18 -13 48 9 48 8 0 20 -6 26 -13z
m-108 -67 c22 -12 26 -40 6 -40 -8 0 -24 11 -37 25 -20 21 -21 25 -6 25 9 0
26 -5 37 -10z m269 -40 c44 -23 49 -30 21 -30 -11 0 -33 11 -48 25 -34 30 -25
32 27 5z m-70 -80 c19 -19 27 -40 15 -40 -13 0 -65 31 -65 39 0 26 24 27 50 1z"></path>
<path d="M5183 6513 c-18 -3 -23 -11 -23 -33 0 -16 -9 -52 -20 -80 -24 -60
-24 -60 -6 -60 8 0 18 14 21 32 4 18 16 52 26 75 18 43 19 43 70 43 92 0 276
-69 367 -137 34 -25 52 -24 52 6 0 17 -117 82 -185 103 -166 50 -241 63 -302
51z"></path>
<path d="M5162 6339 c3 -9 27 -17 64 -21 84 -10 345 -99 378 -129 14 -12 36
-11 36 1 0 6 -12 15 -27 20 -16 6 -39 16 -53 24 -58 33 -277 102 -352 112 -41
6 -50 4 -46 -7z"></path>
<path d="M2145 6187 c-22 -18 -63 -55 -90 -82 -28 -28 -99 -97 -158 -154 -59
-57 -107 -108 -107 -112 0 -19 21 -7 52 28 62 70 123 128 238 227 103 89 138
127 113 125 -4 0 -26 -15 -48 -32z"></path>
<path d="M5000 6126 c0 -2 29 -21 65 -42 94 -54 176 -132 204 -193 14 -28 28
-51 33 -51 4 0 8 2 8 5 0 12 -43 92 -66 122 -42 56 -244 188 -244 159z"></path>
<path d="M4801 6055 c-38 -36 -74 -80 -80 -98 l-11 -32 27 35 c15 19 54 63 87
98 32 34 56 62 53 62 -4 0 -38 -29 -76 -65z"></path>
<path d="M4475 5960 c-4 -7 2 -14 14 -17 22 -6 28 -19 12 -25 -5 -1 -7 -15 -4
-30 4 -22 12 -28 44 -33 21 -4 39 -12 39 -18 0 -23 46 -42 114 -47 47 -3 71
-10 74 -19 4 -11 -3 -13 -32 -8 -20 3 -36 3 -36 1 0 -18 24 -44 41 -44 11 0
31 -11 44 -25 19 -18 25 -20 25 -8 0 12 9 14 40 11 22 -2 41 1 43 6 2 5 16 2
32 -6 29 -15 192 -69 245 -81 14 -3 32 -2 40 3 13 9 13 11 0 20 -8 5 -24 10
-35 10 -42 0 -201 53 -293 97 -96 45 -192 124 -192 158 0 18 -4 19 -30 3 -16
-10 -29 -10 -69 5 -56 20 -65 21 -56 7 3 -5 16 -10 28 -10 16 0 18 -3 9 -12
-15 -15 -64 6 -56 25 6 18 -31 53 -41 37z m185 -80 c0 -5 -5 -10 -11 -10 -5 0
-7 5 -4 10 3 6 8 10 11 10 2 0 4 -4 4 -10z m29 -46 c6 -6 -2 -12 -19 -14 -31
-5 -48 1 -54 16 -5 14 -1 15 31 9 21 -4 40 -9 42 -11z m121 -94 c0 -5 -9 -10
-20 -10 -11 0 -20 5 -20 10 0 6 9 10 20 10 11 0 20 -4 20 -10z m55 -20 c3 -5
-3 -10 -14 -10 -12 0 -21 5 -21 10 0 6 6 10 14 10 8 0 18 -4 21 -10z"></path>
<path d="M4658 5763 c6 -2 18 -2 25 0 6 3 1 5 -13 5 -14 0 -19 -2 -12 -5z"></path>
<path d="M4855 5680 c-29 -5 -33 -8 -14 -9 15 0 29 -7 32 -15 3 -7 27 -17 53
-21 26 -4 57 -13 70 -21 14 -10 32 -12 50 -8 21 5 26 4 22 -7 -5 -12 2 -14 30
-11 30 4 34 2 28 -13 -6 -16 -1 -17 46 -11 29 4 57 11 63 17 5 5 22 9 38 9 15
0 26 4 23 9 -9 15 -68 22 -82 10 -13 -11 -24 -10 -106 8 -16 3 -28 9 -28 13 0
5 -11 7 -25 4 -15 -3 -32 2 -41 10 -8 8 -22 12 -31 9 -11 -5 -14 -3 -8 6 6 10
0 12 -24 6 -24 -5 -31 -3 -31 9 0 17 -3 17 -65 6z"></path>
<path d="M2972 2117 c-22 -53 -122 -219 -169 -280 -121 -158 -249 -300 -472
-520 -220 -218 -256 -257 -233 -257 4 0 125 118 269 263 298 299 448 472 540
624 59 97 84 154 80 176 -3 21 -4 20 -15 -6z"></path>
<path d="M6910 1438 c-155 -189 -462 -495 -645 -641 -141 -113 -449 -320 -650
-438 -88 -51 -279 -151 -425 -223 -146 -71 -258 -131 -249 -133 17 -4 521 246
679 338 163 95 523 338 645 436 183 147 388 345 567 550 93 106 168 198 166
204 -2 5 -41 -36 -88 -93z"></path>
<path d="M2482 193 c-34 -67 -75 -183 -69 -190 11 -11 17 1 58 113 40 109 46
147 11 77z"></path>
</g>
</svg>