 <svg version="1.0" xmlns="http://www.w3.org/2000/svg" width="700.000000pt" height="1013.000000pt" viewBox="0 0 700.000000 1013.000000" preserveAspectRatio="xMidYMid meet">
<metadata>
Created by potrace 1.12, written by Peter Selinger 2001-2015
</metadata>
<g transform="translate(0.000000,1013.000000) scale(0.100000,-0.100000)" fill="#000000" stroke="none">
<path d="M1503 9895 c-281 -283 -388 -400 -439 -482 -22 -34 -82 -126 -136
-205 -427 -633 -706 -1238 -832 -1804 -86 -388 -96 -501 -96 -1146 l0 -536 62
65 c35 36 103 98 152 137 l89 72 2 204 c1 190 11 312 35 435 6 28 19 108 30
179 12 71 23 133 26 137 2 4 9 41 14 82 13 105 120 537 186 752 50 164 136
395 229 615 19 47 65 139 102 205 37 66 83 152 103 190 21 39 55 102 77 140
21 39 42 77 45 87 4 9 34 57 67 108 34 50 61 94 61 96 0 3 19 33 42 67 76 112
236 304 500 599 32 36 185 171 244 215 l29 22 -180 0 -180 0 -232 -234z m-220
-616 c-186 -278 -286 -445 -419 -704 -137 -267 -201 -418 -287 -680 -111 -337
-176 -590 -247 -960 -13 -69 -58 -432 -65 -535 -7 -83 -16 -110 -39 -110 -6 0
-48 -23 -94 -50 -46 -28 -85 -50 -88 -50 -8 0 -4 143 6 250 35 350 43 424 55
505 8 50 23 149 34 221 37 237 131 558 211 716 17 35 54 119 81 188 65 161
191 396 343 635 112 177 172 260 320 446 57 72 317 341 323 335 2 -1 -59 -95
-134 -207z"></path>
<path d="M2226 10078 c-37 -29 -102 -80 -144 -113 -43 -33 -90 -68 -106 -79
-16 -10 -74 -62 -130 -115 -55 -54 -125 -119 -154 -146 -31 -29 -51 -54 -48
-62 3 -8 2 -12 -3 -8 -10 6 -113 -105 -133 -144 -7 -14 -18 -30 -24 -36 -24
-23 -72 -93 -94 -138 -12 -27 -29 -51 -36 -54 -16 -6 -95 -117 -124 -172 -10
-21 -26 -41 -35 -44 -8 -4 -15 -14 -15 -24 0 -10 -16 -47 -36 -83 -51 -93
-140 -280 -180 -377 -19 -45 -57 -131 -85 -190 -123 -261 -296 -779 -353
-1058 -95 -466 -112 -584 -127 -860 -11 -215 -9 -305 9 -305 5 0 55 16 112 35
114 39 248 66 411 86 127 15 270 1 386 -37 39 -13 76 -24 82 -24 9 0 22 37 66
195 7 28 16 66 20 85 8 43 43 148 83 255 66 176 312 699 402 855 20 36 61 110
90 165 141 267 338 565 565 854 141 179 541 599 695 729 198 166 445 311 775
452 66 29 129 61 141 71 11 10 24 19 28 19 4 0 22 6 39 14 52 22 169 63 217
76 25 7 55 17 67 23 13 6 26 7 30 4 3 -4 13 -1 21 6 8 6 41 13 73 13 32 1 64
6 71 11 7 5 40 15 73 22 33 7 67 16 75 19 8 3 24 6 35 7 38 3 140 28 153 38 8
6 17 5 26 -2 11 -10 20 -10 36 -1 12 6 42 14 68 16 25 3 49 10 53 16 4 7 25
13 46 13 118 5 223 18 234 31 10 12 -8 14 -119 14 -78 0 -154 -6 -189 -14
-125 -30 -243 -56 -353 -77 -63 -12 -119 -25 -124 -29 -5 -5 -15 -6 -22 -3 -7
3 -87 -18 -176 -47 -205 -66 -301 -101 -433 -160 -77 -34 -115 -50 -120 -50
-11 0 -244 -118 -349 -177 -203 -114 -438 -276 -591 -410 -589 -511 -1207
-1412 -1520 -2218 -124 -317 -195 -489 -209 -504 -11 -10 -22 -11 -47 -3 -70
22 -279 35 -447 29 -168 -7 -257 -22 -364 -63 -26 -10 -50 -15 -54 -11 -13 13
31 408 62 557 69 328 148 600 284 970 24 63 57 156 75 205 100 273 311 713
435 905 168 261 300 429 484 616 165 170 419 402 491 451 39 27 43 33 17 33
-9 0 -48 -24 -86 -52z"></path>
<path d="M5608 10118 c12 -12 131 -12 197 2 29 6 7 8 -84 9 -95 1 -122 -2
-113 -11z"></path>
<path d="M5995 10119 c72 -5 162 -10 200 -13 39 -2 77 -6 85 -9 8 -4 39 -9 68
-11 30 -3 60 -10 67 -16 18 -15 29 4 21 36 l-6 24 -283 -2 c-256 -1 -270 -2
-152 -9z"></path>
<path d="M4366 9551 c-3 -4 -36 -11 -74 -14 -164 -16 -341 -119 -547 -318
-103 -100 -113 -114 -153 -203 -70 -155 -83 -222 -72 -368 16 -205 37 -345 65
-433 7 -22 18 -62 25 -88 7 -27 28 -67 47 -89 18 -22 33 -44 33 -49 0 -4 10
-13 21 -20 31 -16 53 7 36 37 -105 183 -132 341 -83 489 53 161 129 259 242
316 46 23 59 24 204 23 171 -2 199 -8 320 -69 82 -41 126 -78 177 -148 21 -29
64 -85 96 -126 92 -117 123 -204 193 -541 31 -152 34 -181 36 -365 2 -235 -4
-278 -74 -510 -54 -181 -102 -312 -218 -600 -105 -261 -151 -354 -298 -607
-72 -124 -151 -265 -175 -314 -25 -49 -74 -136 -109 -194 -36 -58 -102 -166
-147 -240 -46 -74 -110 -178 -144 -230 -33 -52 -85 -134 -116 -182 -31 -48
-60 -87 -64 -88 -16 0 -82 -87 -211 -280 -44 -66 -282 -525 -313 -605 -7 -16
-33 -82 -58 -145 -114 -282 -216 -568 -244 -679 -50 -198 -61 -368 -42 -621
13 -166 16 -184 52 -344 16 -70 29 -130 29 -132 0 -2 -11 -4 -25 -4 -34 0 -90
24 -127 55 -16 14 -38 25 -48 25 -10 0 -22 5 -25 10 -9 15 -35 12 -42 -6 -3
-8 3 -25 14 -37 48 -53 73 -114 73 -174 0 -108 -22 -159 -104 -238 -100 -97
-133 -142 -162 -227 -23 -65 -25 -83 -20 -172 6 -114 -6 -185 -37 -214 -35
-33 -172 -72 -292 -83 -197 -20 -511 3 -547 39 -8 8 -1 32 23 84 l34 73 -1
380 c-2 394 -14 630 -39 750 -7 39 -23 122 -35 185 -12 63 -27 144 -35 180
-13 61 -19 101 -47 320 -24 191 -35 896 -15 968 11 42 16 46 108 93 57 29 136
82 195 131 116 95 321 276 348 307 11 11 22 21 25 21 3 0 4 -114 2 -252 -4
-325 11 -559 50 -752 61 -309 219 -697 350 -861 34 -44 64 -82 66 -84 2 -3 10
2 19 11 14 13 13 21 -6 74 -45 129 -54 421 -20 676 56 427 244 1006 430 1325
132 226 447 702 572 863 85 111 107 143 195 284 41 66 102 160 134 208 33 48
59 90 59 94 0 4 14 30 32 58 69 113 228 395 355 634 136 253 205 399 248 522
12 36 39 107 59 158 39 99 57 167 81 300 24 130 14 374 -11 295 -3 -10 -10
-27 -14 -38 -5 -11 -12 -31 -15 -45 -4 -14 -20 -64 -37 -111 -40 -116 -69
-138 -222 -174 -200 -47 -344 -32 -494 51 -232 128 -343 276 -473 627 -109
295 -75 638 96 962 42 80 59 125 47 125 -15 -1 -52 -39 -52 -54 0 -9 -10 -33
-23 -54 -13 -20 -43 -75 -67 -122 -23 -47 -51 -96 -60 -110 -17 -25 -112 -199
-233 -427 -70 -133 -196 -442 -251 -618 -19 -60 -73 -231 -120 -380 -181 -571
-285 -999 -331 -1360 -9 -71 -25 -188 -35 -260 -19 -126 -27 -191 -70 -535
-11 -91 -25 -196 -30 -235 -19 -134 -30 -331 -41 -700 -10 -346 -9 -388 10
-625 12 -139 29 -292 37 -339 9 -47 17 -102 19 -121 5 -50 34 -210 45 -240 4
-14 11 -34 14 -44 4 -12 10 -16 16 -10 6 6 6 56 0 138 -21 277 34 679 137
1001 103 323 274 648 537 1020 75 107 240 311 256 317 14 5 150 129 320 293
148 142 299 305 361 389 42 56 36 38 -17 -51 -25 -42 -51 -91 -58 -108 -25
-57 -154 -264 -223 -357 -139 -186 -181 -246 -279 -396 -54 -84 -134 -206
-176 -270 -202 -305 -340 -537 -451 -757 -110 -218 -113 -227 -185 -435 -33
-96 -65 -187 -70 -201 -17 -44 -53 -220 -62 -304 -5 -44 -16 -138 -24 -210
-20 -163 -20 -247 -1 -409 8 -71 13 -131 11 -134 -8 -8 -77 147 -124 278 -110
311 -152 477 -172 682 -6 57 -16 159 -22 228 -8 77 -12 286 -11 545 2 398 3
429 28 590 14 94 36 213 49 265 27 108 32 174 13 167 -6 -2 -18 -26 -24 -53
-7 -27 -17 -58 -22 -69 -5 -11 -17 -58 -26 -105 -18 -88 -90 -323 -143 -466
-28 -77 -128 -249 -197 -341 -105 -139 -423 -372 -507 -373 -31 0 -38 -4 -42
-23 -10 -51 -26 -237 -26 -297 0 -74 33 -456 54 -635 8 -66 20 -169 26 -230 7
-60 20 -165 30 -232 10 -68 24 -187 30 -265 6 -79 18 -198 26 -265 41 -348 35
-954 -12 -1119 -5 -18 3 -24 52 -43 31 -12 136 -35 233 -52 158 -28 188 -30
296 -24 229 13 354 49 405 118 48 66 61 125 58 273 -3 119 -1 132 21 174 42
81 87 127 159 161 86 41 151 93 169 138 12 27 14 57 10 117 l-6 82 35 -8 c20
-5 37 -10 38 -12 2 -1 22 -55 46 -118 96 -256 327 -657 444 -769 l36 -35 -10
32 c-5 18 -18 44 -29 58 -63 80 -144 365 -177 624 -22 177 -15 488 16 665 33
193 118 479 195 660 64 148 172 356 233 445 249 363 250 364 516 644 129 136
180 181 351 309 307 230 389 301 675 582 285 279 430 431 497 523 261 352 464
750 591 1157 80 256 109 447 118 770 7 280 -5 398 -62 615 -61 230 -109 349
-228 575 -77 145 -100 183 -165 270 -65 87 -271 323 -322 370 -103 95 -319
255 -344 255 -2 0 -31 16 -64 35 -33 19 -68 34 -78 33 -10 -2 -72 16 -138 39
-142 49 -231 68 -380 82 -133 13 -172 14 -179 2z m236 -86 c114 -15 255 -47
338 -79 19 -7 50 -19 68 -26 58 -22 245 -122 302 -160 30 -21 101 -79 158
-130 57 -51 106 -89 109 -86 4 3 -4 17 -17 31 -13 14 -19 25 -14 25 18 0 54
-31 54 -46 0 -8 5 -12 10 -9 6 3 10 0 10 -9 0 -8 -6 -16 -12 -19 -8 -3 4 -23
34 -53 41 -44 180 -250 220 -329 8 -16 38 -73 66 -125 76 -142 211 -438 223
-490 6 -25 23 -85 39 -135 15 -49 34 -121 41 -160 17 -87 17 -348 0 -540 -13
-141 -29 -232 -101 -570 -5 -22 -23 -85 -40 -140 -18 -55 -40 -125 -50 -157
-30 -96 -120 -288 -190 -403 -104 -173 -308 -445 -511 -680 -152 -176 -538
-544 -676 -645 -62 -46 -246 -201 -405 -342 -193 -171 -444 -442 -666 -717
-82 -102 -105 -141 -198 -331 -123 -251 -208 -486 -253 -702 -16 -78 -32 -161
-35 -183 -3 -22 -16 -101 -28 -175 -20 -119 -23 -170 -23 -427 0 -169 -4 -283
-8 -270 -79 205 -141 398 -173 542 -15 66 -30 125 -34 130 -31 40 -50 600 -23
690 6 22 23 87 37 145 69 285 160 536 315 865 107 227 245 462 376 640 69 95
203 296 294 442 30 49 97 153 149 233 52 80 121 188 152 240 166 275 198 330
223 385 16 33 83 170 151 305 68 135 149 310 180 390 31 80 70 177 86 215 16
39 34 90 40 114 7 24 23 69 37 100 29 66 72 220 114 416 29 135 30 147 25 330
-5 214 -18 375 -42 515 -26 153 -108 347 -184 435 -22 26 -49 64 -60 85 -39
76 -238 211 -375 253 -149 45 -342 49 -448 8 -105 -41 -220 -168 -252 -277
-26 -91 -38 -80 -50 51 -5 49 -2 90 9 138 22 92 81 228 122 280 19 23 34 48
34 55 0 32 193 205 300 269 76 46 271 100 367 102 33 1 117 -6 185 -14z m253
-15 c3 -5 -3 -10 -14 -10 -11 0 -23 5 -26 10 -3 6 3 10 14 10 11 0 23 -4 26
-10z m55 -15 c9 -10 9 -15 1 -15 -6 0 -11 4 -11 10 0 5 -7 7 -15 4 -8 -4 -15
-1 -15 5 0 16 25 13 40 -4z m142 -54 c10 -13 10 -14 -2 -3 -8 6 -22 12 -32 12
-10 0 -18 4 -18 9 0 14 38 1 52 -18z m72 -33 c-6 -9 -34 1 -34 11 0 4 3 10 6
14 8 7 33 -16 28 -25z m186 -108 c8 -5 11 -10 5 -10 -5 0 -17 5 -25 10 -8 5
-10 10 -5 10 6 0 17 -5 25 -10z m70 -51 c0 -5 -5 -9 -11 -9 -5 0 -7 5 -4 10 3
6 1 10 -4 10 -6 0 -11 5 -11 11 0 8 5 8 15 -1 8 -7 15 -16 15 -21z m75 -52 c8
-12 15 -18 15 -14 0 10 40 -25 51 -45 17 -31 -4 -19 -66 37 -41 37 -53 52 -37
48 12 -3 29 -15 37 -26z m203 -206 c3 -8 -1 -12 -9 -9 -7 2 -15 10 -17 17 -3
8 1 12 9 9 7 -2 15 -10 17 -17z m-2408 -523 c0 -55 40 -267 66 -351 96 -305
361 -575 659 -669 92 -29 110 -32 222 -30 105 1 131 5 184 27 35 14 64 25 66
25 20 0 -45 -155 -154 -370 -94 -184 -139 -260 -213 -358 -104 -139 -148 -199
-197 -268 -28 -40 -85 -115 -125 -166 -41 -51 -108 -143 -150 -205 -122 -178
-429 -575 -557 -718 -17 -19 -113 -166 -225 -341 -88 -139 -249 -427 -292
-524 -23 -52 -61 -135 -84 -185 -60 -127 -139 -353 -152 -435 -2 -14 -8 18
-12 70 -12 147 2 639 25 855 11 104 22 228 24 275 3 47 10 121 15 165 6 44 15
115 20 157 5 43 14 94 19 115 6 21 17 99 26 173 8 74 24 187 35 250 10 63 31
201 45 305 68 500 212 1075 368 1471 30 76 67 175 82 219 50 151 273 563 296
549 5 -3 9 -19 9 -36z"></path>
<path d="M3495 9321 c-3 -6 -31 -27 -61 -46 -30 -19 -54 -39 -54 -44 0 -6 -46
-49 -102 -97 -224 -190 -257 -227 -534 -589 -154 -201 -287 -390 -376 -535
-36 -58 -94 -152 -130 -210 -77 -124 -212 -373 -366 -670 -192 -372 -309 -661
-377 -927 -8 -34 -18 -69 -21 -77 -4 -10 12 -23 53 -42 129 -62 417 -407 473
-567 12 -34 25 -93 30 -130 9 -81 33 -117 60 -92 14 12 18 42 23 158 13 302
111 844 201 1106 15 41 26 86 26 101 0 28 48 265 75 370 34 133 151 447 285
765 32 77 77 184 100 239 89 212 313 645 431 832 32 51 67 111 79 135 13 24
39 64 59 89 20 24 54 72 76 106 22 34 49 73 59 88 13 19 16 30 9 37 -8 8 -13
7 -18 0z m-168 -223 c-2 -7 -55 -94 -117 -193 -178 -284 -368 -640 -457 -855
-19 -47 -38 -89 -42 -95 -4 -5 -25 -53 -45 -105 -21 -52 -45 -109 -52 -127 -8
-17 -14 -39 -14 -49 0 -9 -7 -25 -16 -35 -14 -16 -39 -76 -149 -369 -80 -213
-187 -550 -210 -659 -8 -41 -19 -79 -24 -85 -5 -6 -11 -42 -14 -81 -3 -38 -26
-160 -51 -270 -25 -110 -46 -211 -47 -225 -2 -74 -10 -69 -136 76 -136 156
-166 186 -273 269 -41 33 -78 63 -81 68 -10 14 72 262 124 377 42 94 169 350
240 485 40 77 84 160 97 185 41 80 122 222 193 340 64 106 110 183 158 268 44
76 186 279 316 450 125 165 218 270 421 475 153 154 192 188 179 155z"></path>
<path d="M4120 8695 c-152 -31 -213 -71 -265 -174 -71 -142 -67 -310 9 -466
60 -119 105 -168 195 -204 67 -28 74 -29 159 -21 127 12 204 52 271 143 59 80
93 177 99 278 4 78 2 94 -23 160 -24 62 -40 85 -100 144 -49 48 -98 85 -152
113 -88 45 -96 47 -193 27z m123 -111 c63 -21 178 -142 219 -230 27 -57 29
-70 23 -123 -13 -116 -107 -260 -183 -281 -101 -28 -250 0 -304 58 -45 48 -90
151 -96 219 -10 135 57 298 144 349 48 28 130 31 197 8z"></path>
<path d="M835 6110 c-150 -17 -417 -154 -571 -293 -112 -101 -264 -314 -264
-369 l1 -33 21 39 c42 81 121 165 278 298 30 25 78 67 105 93 128 121 358 205
568 208 159 3 280 -27 446 -110 151 -75 203 -118 321 -261 81 -98 127 -187
168 -327 26 -90 37 -284 22 -402 -21 -161 -105 -402 -169 -483 -15 -19 -34
-46 -41 -60 -23 -44 -173 -190 -230 -225 -107 -65 -323 -115 -494 -115 -111 0
-288 23 -359 46 -84 27 -300 129 -374 177 -87 57 -112 84 -177 193 -56 94 -79
110 -84 57 -3 -25 9 -50 56 -120 33 -48 86 -113 119 -144 60 -58 192 -142 278
-178 102 -43 447 -111 561 -111 74 0 284 35 363 60 120 38 245 139 351 282 98
133 127 185 179 318 56 147 69 212 76 396 8 194 -6 291 -68 469 -52 153 -91
218 -185 313 -101 101 -217 165 -423 233 -147 48 -160 51 -279 54 -69 2 -156
0 -195 -5z"></path>
<path d="M0 4289 c0 -101 3 -129 18 -150 36 -53 129 -152 182 -192 69 -53 68
-51 75 -117 3 -30 15 -127 26 -215 64 -490 132 -761 344 -1370 30 -88 80 -243
111 -345 30 -102 68 -225 84 -275 100 -308 159 -635 117 -651 -23 -8 -249 103
-370 182 -144 94 -382 294 -489 410 -43 46 -58 54 -58 29 0 -8 -4 -15 -10 -15
-5 0 -10 -24 -10 -53 l0 -54 102 -99 c139 -134 272 -227 508 -357 206 -114
396 -195 427 -182 14 5 15 30 10 198 -7 235 -37 407 -117 677 -56 193 -69 235
-89 305 -67 232 -107 364 -143 470 -49 144 -86 266 -98 320 -16 70 -86 333
-95 356 -3 9 -15 54 -25 100 -10 46 -34 149 -53 229 -19 80 -41 179 -48 220
-7 41 -15 80 -19 85 -4 6 -14 57 -21 115 -13 104 -14 105 -54 140 -106 92
-198 199 -271 316 -11 18 -23 37 -27 40 -4 4 -7 -49 -7 -117z"></path>
<path d="M4609 4254 c-7 -9 -56 -51 -108 -93 -174 -139 -396 -372 -612 -641
-124 -154 -190 -260 -255 -403 -44 -97 -52 -122 -42 -134 14 -17 123 -93 134
-93 4 0 29 -14 55 -30 48 -31 376 -150 414 -150 11 0 35 -9 53 -20 18 -11 44
-20 58 -20 13 0 41 -7 61 -15 49 -21 100 -19 112 3 16 30 23 272 12 422 -31
411 -33 489 -16 620 18 136 57 266 125 420 44 97 53 140 34 147 -6 2 -17 -4
-25 -13z m-161 -256 c-5 -18 -22 -82 -35 -143 -24 -104 -26 -127 -28 -450 -3
-354 -12 -460 -52 -590 -18 -56 -21 -60 -52 -63 -43 -4 -210 45 -339 101 -125
54 -261 136 -262 158 -1 71 112 274 255 456 99 127 502 563 520 563 2 0 -1
-15 -7 -32z"></path>
<path d="M429 3986 c-14 -15 23 -241 68 -416 19 -74 51 -200 70 -280 53 -224
127 -483 208 -730 40 -124 78 -252 84 -285 12 -64 56 -235 71 -272 16 -40 115
-506 150 -708 5 -27 14 -77 20 -110 70 -403 92 -567 92 -690 0 -164 -19 -305
-58 -447 -8 -29 14 -21 30 10 23 44 128 490 146 617 20 141 31 335 31 550 0
226 -4 281 -41 540 -10 72 -22 164 -25 205 -3 41 -17 142 -31 224 -14 82 -29
188 -34 235 -14 129 -39 312 -46 334 -7 24 -28 183 -50 392 -16 148 -15 346 2
610 l7 101 -144 0 c-120 1 -161 5 -249 27 -88 21 -219 64 -281 91 -8 4 -17 4
-20 2z m207 -241 c111 -25 263 -45 340 -45 l71 0 7 -46 c3 -26 6 -128 6 -228
0 -205 20 -474 49 -681 11 -77 25 -178 30 -225 6 -47 20 -143 31 -215 73 -470
121 -1060 101 -1240 -6 -50 -15 -155 -21 -235 -5 -80 -13 -158 -17 -175 -8
-36 -15 2 -62 325 -45 307 -85 533 -142 790 -17 74 -37 169 -46 210 -46 224
-68 306 -132 478 -88 238 -241 805 -281 1041 -12 68 -28 153 -36 189 -17 75
-14 98 14 83 11 -6 50 -17 88 -26z"></path>
<path d="M26 1264 c-3 -9 -6 -31 -6 -50 0 -25 -4 -33 -12 -29 -7 4 5 -10 27
-30 55 -51 280 -199 390 -256 119 -63 354 -166 433 -190 34 -11 62 -24 62 -30
0 -6 -18 -41 -40 -77 -67 -114 -182 -401 -210 -528 -5 -22 -12 -48 -16 -57 -5
-15 2 -17 54 -17 l59 0 23 83 c12 45 26 96 31 112 4 17 33 104 64 195 61 176
98 259 139 307 42 50 40 52 -100 87 -55 14 -202 75 -408 170 -155 72 -349 198
-428 278 -26 27 -49 48 -51 48 -3 0 -8 -7 -11 -16z"></path>
</g>
</svg>