 <svg version="1.0" xmlns="http://www.w3.org/2000/svg" width="700.000000pt" height="879.000000pt" viewBox="0 0 700.000000 879.000000" preserveAspectRatio="xMidYMid meet">
<metadata>
Created by potrace 1.12, written by Peter Selinger 2001-2015
</metadata>
<g transform="translate(0.000000,879.000000) scale(0.100000,-0.100000)" fill="#000000" stroke="none">
<path d="M3510 8507 c-9 -10 1 -297 11 -297 5 0 9 49 9 116 0 64 4 114 9 112
5 -1 28 -28 52 -60 246 -318 428 -542 437 -534 2 3 -10 23 -29 45 -19 21 -72
87 -119 145 -47 59 -107 135 -135 169 -54 66 -204 265 -220 292 -6 9 -12 14
-15 12z"></path>
<path d="M3520 8055 c0 -50 4 -85 10 -85 6 0 10 35 10 85 0 50 -4 85 -10 85
-6 0 -10 -35 -10 -85z"></path>
<path d="M3534 7768 c7 -120 10 -137 21 -126 10 10 -8 248 -18 248 -6 0 -7
-43 -3 -122z"></path>
<path d="M4050 7817 c0 -14 461 -569 468 -562 3 2 -6 18 -19 34 -13 16 -52 64
-87 107 -52 64 -247 296 -339 403 -12 14 -23 23 -23 18z"></path>
<path d="M2969 7738 c-12 -23 -162 -258 -340 -535 -51 -79 -97 -151 -103 -162
-6 -10 -31 -52 -56 -92 -25 -40 -52 -85 -61 -101 -9 -15 -21 -33 -26 -40 -6
-7 -13 -22 -17 -32 -5 -16 -4 -17 9 -6 8 7 15 16 15 21 0 4 20 36 44 71 24 35
55 83 68 108 13 25 72 117 130 205 57 88 111 172 118 185 7 14 63 101 123 193
72 110 115 166 124 163 9 -4 13 3 13 19 0 32 -25 33 -41 3z"></path>
<path d="M2990 7645 c0 -30 5 -55 10 -55 6 0 10 25 10 55 0 30 -4 55 -10 55
-5 0 -10 -25 -10 -55z"></path>
<path d="M3550 7520 c0 -33 4 -60 10 -60 6 0 10 27 10 60 0 33 -4 60 -10 60
-6 0 -10 -27 -10 -60z"></path>
<path d="M3001 7554 c0 -11 3 -14 6 -6 3 7 2 16 -1 19 -3 4 -6 -2 -5 -13z"></path>
<path d="M3196 7493 c-24 -52 -158 -253 -168 -253 -4 0 -8 60 -8 134 0 79 -4
137 -10 141 -7 4 -10 -53 -10 -164 l0 -171 -34 -47 c-19 -27 -61 -91 -93 -143
-335 -534 -437 -698 -444 -718 -13 -35 -33 -36 -67 -4 -40 37 -108 70 -164 78
-82 13 -82 15 -28 96 138 209 172 262 181 286 10 27 10 27 -9 7 -23 -23 -212
-322 -212 -334 0 -22 -40 -41 -87 -41 -64 0 -231 -33 -301 -60 -85 -32 -192
-89 -259 -137 -69 -49 -116 -109 -174 -222 -45 -90 -54 -141 -65 -393 -7 -165
-6 -175 27 -300 5 -21 26 -58 46 -84 28 -37 33 -51 25 -63 -21 -31 -107 -175
-111 -186 -3 -9 -23 -40 -99 -158 -24 -36 -24 -63 0 -39 9 9 95 12 316 12 168
0 471 5 675 11 235 7 373 7 379 1 5 -5 10 -101 11 -218 l2 -209 -310 0 -310 0
-9 153 c-4 83 -11 152 -15 152 -10 0 -292 -247 -326 -286 l-30 -34 -180 -10
c-99 -5 -238 -13 -309 -16 l-129 -6 7 -138 c4 -77 11 -167 16 -202 5 -35 9
-88 9 -118 l0 -55 -181 -165 c-306 -280 -304 -277 -220 -266 26 3 131 9 234
12 154 5 189 4 193 -7 3 -8 9 -175 13 -372 7 -293 11 -360 23 -368 13 -8 248
-5 431 6 69 4 77 2 75 -13 -1 -10 28 -44 73 -86 41 -38 157 -150 257 -249 101
-99 185 -178 189 -175 3 4 1 22 -5 40 -13 43 -34 469 -23 480 5 5 71 7 148 6
l139 -3 7 -90 c5 -49 17 -171 28 -271 11 -100 20 -202 20 -226 0 -58 14 -70
65 -58 62 15 245 13 250 -2 2 -7 8 -139 14 -293 10 -250 13 -280 28 -289 21
-12 64 -11 418 14 149 11 401 24 560 30 447 16 688 29 697 38 4 4 11 59 15
122 l8 115 85 6 c111 9 917 37 1225 43 132 3 242 5 244 6 3 0 0 5 -5 10 -11
11 -592 0 -1109 -22 -165 -7 -331 -13 -370 -13 l-70 0 -1 35 c-1 19 2 103 7
185 11 211 13 410 3 413 -5 1 -10 -46 -11 -105 -1 -60 -7 -191 -12 -293 -5
-102 -9 -196 -8 -210 l2 -25 -355 -12 c-195 -7 -358 -9 -362 -5 -11 11 -17
342 -10 492 l7 135 310 7 c322 7 423 14 409 27 -5 5 -83 4 -174 -1 -91 -4
-250 -7 -355 -6 l-190 3 0 210 0 209 40 7 c46 8 454 28 625 31 l115 2 7 -214
c5 -121 12 -218 18 -224 6 -6 57 -9 123 -8 128 2 654 20 768 26 l77 4 35 -37
c19 -20 61 -68 93 -107 139 -167 427 -499 435 -502 21 -8 6 27 -22 54 -17 16
-79 85 -137 154 -148 176 -269 315 -325 376 -28 31 -44 55 -38 59 11 6 582 26
591 20 11 -7 270 -8 277 -2 3 4 0 14 -8 23 -17 20 -16 255 0 559 6 105 11 308
11 453 l0 262 -79 0 c-46 0 -83 5 -86 11 -4 5 15 38 41 72 141 181 343 429
458 561 91 105 126 152 120 161 -289 404 -489 661 -763 979 -81 93 -150 174
-155 181 -9 12 60 119 221 342 40 56 73 103 73 105 0 1 -152 2 -339 0 l-338
-3 -121 163 c-137 186 -200 261 -213 252 -13 -7 -12 -194 1 -194 6 0 10 33 10
80 0 44 3 80 8 80 9 0 78 -86 172 -215 40 -55 84 -112 98 -128 16 -16 22 -31
16 -36 -5 -5 -88 -11 -184 -15 -374 -12 -720 -25 -820 -32 l-106 -6 -51 68
c-28 38 -97 129 -152 203 -55 73 -99 137 -96 141 2 4 60 10 127 14 67 4 129
11 138 16 19 12 -50 12 -185 1 -59 -5 -105 -5 -111 1 -7 5 -43 52 -80 105 -38
53 -133 177 -211 276 l-143 179 0 184 c0 116 -4 184 -10 184 -6 0 -10 -62 -10
-165 0 -91 -4 -165 -9 -165 -5 0 -16 10 -24 23 -8 13 -47 61 -87 108 -39 46
-79 98 -88 115 -20 38 -124 174 -132 174 -4 0 -14 -17 -24 -37z m117 -110 c42
-60 115 -153 161 -208 78 -92 85 -104 86 -145 1 -57 20 -93 20 -37 0 20 3 37
8 37 4 0 41 -44 82 -97 41 -53 100 -128 130 -167 103 -132 188 -254 183 -260
-4 -3 -89 -6 -190 -6 -121 0 -183 -4 -183 -11 0 -7 66 -10 201 -8 l200 1 150
-198 c130 -172 158 -213 147 -214 -148 -14 -658 -40 -776 -40 -135 0 -164 -3
-168 -15 -4 -9 15 -43 44 -82 27 -38 67 -95 87 -128 21 -32 126 -176 233 -318
107 -142 193 -260 190 -262 -2 -2 -144 -13 -315 -23 -219 -13 -316 -22 -327
-31 -13 -11 -16 -34 -16 -112 0 -54 -4 -100 -9 -103 -4 -3 -23 -1 -42 5 -117
36 -410 51 -445 23 -18 -15 -18 -15 4 -9 81 23 436 -13 480 -48 11 -9 13 -207
10 -1083 -2 -590 -6 -1075 -9 -1079 -13 -12 -182 -26 -193 -15 -7 7 -10 196
-11 560 l0 550 -30 1 c-16 1 -79 4 -140 8 l-110 6 -2 535 c-1 371 -5 536 -12
538 -8 3 -11 -125 -12 -430 -1 -238 -2 -478 -3 -533 l-1 -100 -90 -7 c-49 -4
-93 -3 -98 1 -10 10 -14 1453 -4 1469 6 8 48 12 145 14 l137 1 -137 10 -136 9
-2 292 c0 160 -2 310 -4 333 -4 45 -29 94 -88 165 -21 26 -38 52 -38 58 0 6
11 26 24 43 13 18 60 91 103 162 157 256 217 352 286 460 146 229 157 244 172
238 11 -4 15 2 15 24 0 20 31 76 101 181 56 84 105 152 108 152 4 0 42 -48 84
-107z m-1233 -1048 c0 -14 -44 -89 -104 -177 -36 -54 -66 -101 -66 -105 0 -3
-6 -14 -14 -22 -8 -9 -21 -27 -28 -41 -7 -14 -43 -70 -80 -125 -36 -55 -77
-120 -90 -145 -13 -25 -37 -65 -52 -89 -16 -25 -36 -61 -45 -80 -9 -20 -28
-54 -42 -76 -14 -22 -38 -65 -52 -95 -25 -50 -25 -52 -5 -26 21 26 55 83 125
211 15 28 35 62 43 77 8 15 42 71 75 125 33 53 71 115 83 137 13 22 35 54 48
71 13 18 24 35 24 38 0 4 23 39 51 78 28 39 53 78 57 88 3 9 21 35 39 59 18
24 36 54 39 67 8 33 26 37 100 24 72 -12 158 -60 182 -100 14 -25 13 -29 -15
-70 -16 -24 -72 -114 -123 -199 -51 -85 -154 -247 -228 -359 -144 -217 -147
-226 -86 -243 16 -5 157 -8 314 -6 l285 3 -2 -279 c-1 -166 -6 -283 -11 -288
-6 -6 -72 -14 -149 -19 -176 -11 -1155 -24 -1177 -16 -15 6 -12 14 17 69 19
35 60 103 91 152 31 49 56 95 56 101 0 31 33 22 84 -23 88 -77 209 -129 356
-152 245 -39 261 -40 481 -38 123 2 222 7 219 12 -3 4 -104 7 -226 7 -178 -2
-242 2 -335 18 -63 10 -136 22 -162 26 -111 15 -240 75 -323 150 -55 50 -58
55 -46 75 8 13 23 39 34 59 11 20 24 41 28 46 5 6 14 24 20 39 9 25 9 27 -4
17 -8 -7 -23 -29 -33 -49 -33 -63 -65 -112 -74 -112 -16 0 -57 85 -79 163 -19
69 -21 95 -16 209 13 291 19 324 79 438 80 150 180 232 379 311 108 43 358 87
358 64z m421 -256 c11 -23 21 -74 27 -135 11 -127 7 -543 -5 -555 -5 -5 -144
-12 -309 -16 -258 -5 -301 -4 -311 9 -11 12 8 47 112 204 134 203 365 580 365
594 0 42 83 -28 121 -101z m3016 -16 c15 -21 95 -116 176 -211 l148 -174 -30
-46 c-17 -26 -51 -74 -76 -107 -24 -33 -45 -63 -45 -67 0 -4 -18 -31 -40 -60
-22 -29 -40 -57 -40 -62 0 -4 -15 -29 -34 -55 -18 -25 -35 -50 -37 -56 -2 -5
-54 -85 -114 -177 -61 -92 -139 -212 -175 -268 -35 -55 -68 -100 -72 -100 -4
0 -9 33 -11 73 -3 68 -3 67 -5 -22 l-2 -95 -52 -75 c-118 -173 -182 -261 -190
-261 -4 0 -8 85 -8 188 0 321 -19 755 -34 770 -11 11 -28 12 -87 3 -69 -10
-655 -41 -780 -41 l-55 0 -52 65 c-29 35 -52 68 -52 72 0 5 66 10 147 11 81 2
149 5 152 8 2 2 -68 4 -157 4 -117 0 -164 3 -172 13 -11 13 -86 113 -192 256
-39 51 -91 126 -116 165 -25 39 -63 94 -84 121 -21 28 -38 56 -38 63 0 9 39
12 164 12 90 0 253 7 362 14 110 8 249 18 310 21 l111 6 86 -118 c48 -65 128
-176 179 -248 51 -71 116 -161 146 -200 49 -64 52 -70 36 -82 -10 -7 -30 -13
-46 -13 -15 0 -28 -4 -28 -10 0 -11 28 -13 83 -4 20 4 37 12 37 19 0 6 -51 79
-112 161 -62 83 -140 190 -172 239 -33 50 -86 123 -118 163 -32 40 -58 77 -58
81 0 5 30 11 68 15 61 7 541 25 670 26 l52 0 2 -627 c1 -424 4 -578 9 -473 4
85 7 369 7 630 l1 475 133 5 c73 3 143 7 155 8 15 1 31 -10 50 -35z m593 28
c0 -4 -18 -35 -41 -67 -83 -121 -155 -230 -168 -256 -8 -15 -23 -37 -35 -49
l-20 -22 -34 39 c-182 210 -300 353 -295 358 10 10 593 7 593 -3z m-89 -623
c268 -313 438 -529 638 -811 46 -64 87 -120 92 -123 19 -11 7 -41 -39 -95
-238 -285 -300 -360 -387 -469 -54 -69 -121 -152 -147 -185 l-48 -60 -433 -1
c-237 0 -459 -4 -491 -9 l-59 -8 7 154 c3 85 9 293 13 462 l6 309 81 124 c160
244 271 417 275 428 2 6 15 25 28 42 12 17 23 35 23 39 0 4 14 26 31 49 17 23
75 110 130 194 54 83 103 152 107 152 5 0 83 -87 173 -192z m-1150 -298 c4
-36 10 -256 14 -490 l8 -425 -50 -70 c-27 -39 -54 -70 -60 -70 -7 0 -37 36
-69 80 -32 44 -195 265 -364 490 -350 468 -375 503 -369 509 2 3 128 10 279
16 151 6 327 15 390 20 63 4 138 7 165 6 l50 -1 6 -65z m-860 -57 c34 -49 182
-248 329 -443 347 -463 420 -565 420 -582 0 -8 -13 -27 -30 -43 -16 -15 -27
-32 -24 -37 8 -13 88 -9 108 5 17 12 17 14 0 43 -17 30 -17 30 21 87 21 31 41
57 45 57 13 0 22 -171 18 -340 l-3 -155 -210 -7 c-115 -4 -222 -11 -237 -17
-27 -10 -28 -12 -28 -91 0 -44 -3 -80 -7 -79 -5 0 -51 48 -103 105 -90 99 -95
107 -94 147 7 293 5 345 -12 412 -18 75 -49 145 -63 145 -5 0 -28 30 -52 68
-55 84 -167 195 -297 292 -128 95 -264 175 -285 167 -7 -3 11 -15 38 -29 196
-94 428 -294 542 -465 77 -116 102 -181 110 -293 6 -86 -12 -276 -27 -285 -6
-4 -240 229 -438 437 -52 55 -95 92 -97 85 -3 -6 -4 -28 -4 -47 0 -19 0 -319
0 -666 -1 -588 -2 -632 -18 -646 -30 -27 -235 -135 -278 -147 -22 -6 -43 -7
-47 -3 -16 16 -15 2116 0 2126 5 3 32 -4 61 -14 56 -22 75 -25 66 -11 -3 5
-29 17 -58 26 -80 26 -81 28 -71 142 l9 98 50 8 c53 8 438 33 541 36 l62 1 63
-87z m1142 -675 c-7 -316 -25 -713 -31 -720 -4 -4 -50 -8 -102 -9 l-95 -2 -8
272 -8 272 58 78 c32 42 85 119 118 169 33 50 63 92 66 92 3 0 4 -69 2 -152z
m-3289 50 c3 -50 6 -111 6 -135 l0 -43 -67 0 c-38 0 -112 -3 -165 -7 -57 -3
-98 -2 -97 3 0 5 33 37 72 71 40 34 108 94 152 133 44 38 83 70 86 70 3 0 9
-41 13 -92z m656 -207 c3 -3 3 -96 0 -206 l-5 -200 -45 -7 c-25 -4 -84 -10
-133 -14 -108 -7 -112 -13 -91 -114 9 -46 14 -113 12 -188 l-3 -116 -39 -8
c-22 -5 -94 -9 -160 -11 l-121 -2 -7 235 c-3 129 -11 307 -17 395 -6 88 -11
179 -11 202 l0 42 43 4 c63 6 571 -5 577 -12z m-633 -151 c18 -242 27 -698 14
-714 -8 -10 -68 -15 -238 -20 -126 -4 -286 -11 -358 -16 -71 -5 -173 -10 -225
-12 l-95 -3 -7 80 c-4 44 -12 132 -17 195 l-9 115 102 98 c55 54 180 172 277
262 l176 164 79 4 c44 2 126 3 184 3 l105 -1 12 -155z m-419 141 c-1 -5 -43
-47 -93 -92 -49 -45 -163 -151 -251 -235 -89 -85 -164 -154 -167 -154 -6 0 -7
18 -27 273 -10 118 -10 171 -3 178 6 6 101 14 229 20 121 5 233 11 249 12 60
7 67 7 63 -2z m2696 -566 c-21 -131 -106 -321 -194 -433 -73 -92 -303 -312
-315 -300 -8 8 -9 1232 0 1257 7 22 27 4 261 -230 l255 -254 -7 -40z m636 329
c0 -14 -41 -20 -53 -7 -4 3 0 15 9 25 13 14 20 15 31 7 7 -6 13 -18 13 -25z
m-2058 -634 c5 -250 7 -502 5 -559 l-2 -105 -33 -8 c-88 -23 -59 -168 33 -168
l36 0 -2 65 c-1 36 2 70 7 74 5 5 63 11 129 12 l120 4 6 -70 c4 -38 7 -127 8
-196 l1 -127 -137 -6 c-76 -4 -169 -9 -208 -12 l-70 -5 0 -161 0 -160 -135 1
c-74 1 -138 5 -141 9 -4 4 -12 61 -19 127 -6 66 -18 183 -25 260 -8 77 -15
159 -15 182 l0 42 128 3 127 3 -1 180 c0 99 -4 379 -9 622 l-8 441 34 5 c19 2
63 4 99 3 l65 -1 7 -455z m-227 438 c4 -16 20 -816 20 -1048 l0 -165 -120 0
-120 0 -7 105 c-3 58 -6 238 -7 400 0 162 -3 365 -7 450 -12 259 -15 233 31
243 118 25 204 31 210 15z m503 -2 c2 -2 5 -237 8 -522 2 -286 5 -530 7 -544
l2 -25 -119 -8 c-93 -6 -122 -5 -132 5 -10 10 -14 140 -20 544 -4 293 -4 540
0 549 6 16 18 17 128 11 67 -4 124 -8 126 -10z m-2078 -124 c0 -11 5 -90 11
-177 6 -86 7 -161 2 -165 -8 -8 -434 -31 -442 -24 -2 2 17 23 44 46 26 23 120
108 209 189 88 82 164 148 169 149 4 0 7 -8 7 -18z m5159 -17 c2 -3 -17 -28
-42 -57 -26 -29 -91 -103 -144 -164 -104 -118 -260 -292 -458 -509 -66 -72
-149 -166 -185 -208 -35 -42 -70 -77 -76 -77 -7 0 -26 17 -42 38 l-31 38 11
465 c6 255 13 466 15 469 14 16 936 20 952 5z m199 -11 c15 -4 17 -430 1 -679
-5 -93 -11 -260 -12 -370 l-3 -200 -189 -1 c-105 -1 -299 -4 -431 -8 l-242 -6
-88 97 c-143 158 -132 134 -88 190 21 26 79 93 129 148 353 387 684 757 740
827 11 14 27 16 92 11 43 -2 84 -6 91 -9z m-1980 -104 l103 -110 2 -317 2
-318 -225 -6 c-124 -4 -296 -12 -382 -19 -87 -6 -162 -8 -168 -5 -5 3 -10 33
-10 65 l0 58 63 50 c84 68 242 231 307 317 59 77 113 186 157 312 15 46 33 83
38 83 6 0 57 -49 113 -110z m577 -227 c0 -182 -3 -334 -6 -337 -7 -7 -210 199
-353 356 l-97 106 3 88 3 88 30 9 c25 7 357 26 405 23 13 -1 15 -45 15 -333z
m230 307 c0 -187 -19 -880 -24 -880 -4 0 -47 44 -96 97 l-90 97 4 350 c2 193
5 355 8 359 3 4 48 6 101 5 96 -3 97 -3 97 -28z m-452 -459 l217 -230 -1 -48
c-1 -88 12 -82 -222 -88 -158 -3 -209 -1 -212 8 -7 23 -13 587 -7 587 4 0 105
-103 225 -229z m-2428 200 c4 -8 -266 -300 -286 -309 -4 -2 -10 30 -13 70 -13
178 -14 208 -1 218 6 5 63 14 126 18 163 13 167 13 174 3z m-338 -33 c6 -7 13
-81 16 -165 l5 -152 -135 -143 c-75 -79 -164 -177 -199 -219 l-63 -76 -257 -7
c-142 -3 -261 -3 -266 2 -8 8 -32 721 -24 729 2 2 75 9 162 14 88 6 211 14
274 18 201 14 476 13 487 -1z m357 -363 c3 -187 7 -349 9 -360 2 -19 -5 -20
-145 -23 -82 -1 -148 -1 -148 0 -1 2 -7 100 -14 218 l-14 214 146 153 c80 85
149 150 152 146 4 -4 10 -161 14 -348z m-316 -182 c7 -108 10 -198 8 -200 -7
-7 -381 -4 -385 3 -2 3 16 29 39 57 55 68 310 337 319 337 4 0 12 -88 19 -197z
m3066 19 l90 -92 -2 -88 c-2 -48 -5 -94 -8 -104 -11 -36 15 -26 39 15 49 83
47 83 157 -34 55 -57 99 -109 99 -115 1 -11 -785 -40 -879 -33 l-45 4 -8 90
c-4 50 -6 144 -5 210 l3 120 215 0 c118 0 221 4 228 8 7 5 12 30 12 63 0 31 3
54 8 52 4 -1 47 -45 96 -96z m-1384 17 c0 -31 -5 -51 -12 -53 -27 -9 -198 -15
-198 -8 0 4 39 27 85 51 47 25 90 51 96 58 19 22 29 4 29 -48z m-12 -296 l-3
-216 -45 -3 c-25 -2 -147 -5 -271 -8 l-226 -6 -6 186 c-4 103 -4 190 -1 195 3
5 24 9 47 9 23 0 76 10 117 21 68 19 197 33 338 37 l52 2 -2 -217z m-868 76
c0 -65 -13 -76 -50 -39 -33 33 -22 89 20 103 25 8 30 -2 30 -64z m2410 46 l23
-25 -23 -25 c-13 -14 -27 -25 -32 -25 -4 0 -8 23 -8 50 0 28 4 50 8 50 5 0 19
-11 32 -25z m-3207 -92 c6 -10 30 -454 24 -459 -2 -2 -104 94 -227 214 -168
164 -222 222 -217 235 6 15 28 17 211 17 113 0 207 -3 209 -7z m1663 -573 c0
-168 4 -316 8 -329 8 -24 8 -24 125 -17 64 3 228 9 365 12 l249 7 -7 -109 c-4
-60 -10 -112 -14 -116 -10 -10 -273 -26 -527 -33 -299 -8 -582 -22 -815 -41
-107 -8 -220 -14 -250 -12 l-55 3 -6 58 c-4 33 -8 160 -10 284 l-4 226 208 2
c114 1 209 4 212 7 3 2 0 40 -5 84 -11 84 -16 251 -8 259 5 5 426 23 493 21
l40 -1 1 -305z m-561 118 l0 -157 -195 -3 -195 -3 -3 144 c-1 80 2 149 7 154
10 10 209 25 316 23 l70 -1 0 -157z"></path>
<path d="M3011 7060 c0 -30 4 -62 9 -70 12 -18 12 49 0 95 -6 25 -8 21 -9 -25z"></path>
<path d="M3020 6953 c0 -84 25 -373 33 -373 6 0 7 31 4 83 -4 45 -10 133 -13
195 -4 61 -11 112 -15 112 -5 0 -9 -8 -9 -17z"></path>
<path d="M3572 6703 c-1 -126 2 -204 8 -208 11 -7 12 126 0 300 -6 101 -7 93
-8 -92z"></path>
<path d="M3055 6393 c7 -157 9 -172 21 -160 11 10 -7 317 -18 317 -7 0 -8 -54
-3 -157z"></path>
<path d="M3070 6126 c0 -57 4 -96 10 -96 6 0 10 36 10 89 0 50 -4 93 -10 96
-6 4 -10 -28 -10 -89z"></path>
<path d="M3086 5820 c3 -107 6 -249 7 -315 l2 -120 -128 -7 c-71 -3 -131 -9
-135 -12 -3 -3 209 -6 471 -6 311 0 477 3 477 10 0 6 -115 10 -324 10 -246 0
-327 3 -332 12 -5 7 -12 130 -16 273 -4 143 -12 280 -17 305 -7 32 -9 -13 -5
-150z"></path>
<path d="M4210 5370 c0 -6 72 -10 195 -10 123 0 195 4 195 10 0 6 -72 10 -195
10 -123 0 -195 -4 -195 -10z"></path>
<path d="M3435 4870 c3 -5 13 -10 21 -10 8 0 12 5 9 10 -3 6 -13 10 -21 10 -8
0 -12 -4 -9 -10z"></path>
<path d="M4540 7224 c0 -8 131 -174 205 -259 33 -38 86 -105 117 -147 62 -83
188 -221 195 -214 3 3 -42 58 -99 123 -58 65 -116 136 -130 158 -14 22 -45 63
-70 90 -24 28 -81 96 -127 153 -77 96 -91 111 -91 96z"></path>
<path d="M5030 6573 c-25 -2 -128 -10 -230 -18 -102 -8 -247 -18 -322 -21 -79
-4 -138 -11 -138 -17 0 -11 205 -3 445 19 88 7 190 14 227 14 37 0 69 4 73 9
8 14 -4 16 -55 14z"></path>
<path d="M5150 6205 c0 -43 4 -75 10 -75 6 0 10 32 10 75 0 43 -4 75 -10 75
-6 0 -10 -32 -10 -75z"></path>
<path d="M3820 1269 c-190 -4 -437 -12 -550 -19 -113 -7 -257 -15 -320 -19
-96 -5 -115 -9 -115 -22 0 -9 45 -54 100 -100 115 -96 216 -185 404 -354 74
-66 155 -137 180 -159 25 -21 79 -69 120 -108 40 -38 77 -66 80 -61 4 4 34 53
66 108 83 142 423 665 452 696 43 47 46 47 -417 38z m384 -18 c3 -4 -3 -16
-14 -26 -11 -10 -20 -25 -20 -33 0 -8 -80 -139 -178 -291 -98 -152 -198 -309
-222 -349 -23 -40 -47 -75 -52 -78 -15 -10 -172 117 -363 292 -120 110 -241
217 -383 337 -51 42 -92 82 -92 87 0 5 10 12 23 14 70 15 719 43 1122 49 88 1
163 4 167 5 4 1 9 -2 12 -7z"></path>
</g>
</svg>