<svg xmlns="http://www.w3.org/2000/svg" data-name="Layer 1" viewBox="0 0 128 160" x="0px" y="0px"><title>30 food  solid black</title><circle cx="118" cy="76.3" r="2"/><path d="M124.81,58.15,78.15,23a5.82,5.82,0,0,0-6.44-.09L23.25,57.44A8.7,8.7,0,0,0,20,63.72v2.37c-1,.53-2.22,1.12-3.47,1.73-2.52,1.24-5.12,2.51-6.88,3.6l-.55.33a34.76,34.76,0,0,0-5.55,3.93c-3.25,3-4.33,6.14-3,8.65s4.72,3.55,7.81,4.18a40.48,40.48,0,0,0,10,.38,23.46,23.46,0,0,0,4-.66,14.23,14.23,0,0,1,4.43-.54c1.13.11,1.35.38,1.38.43a3,3,0,0,1,0,.88,5,5,0,0,0,.7,3.19c1.18,1.75,3.35,2.25,4.65,2.55a12.39,12.39,0,0,0,2.82.33c3.76,0,6.77-1.79,9.49-3.4a25.06,25.06,0,0,1,5.22-2.59,6.69,6.69,0,0,1,4.56.18,12.69,12.69,0,0,1,1.79,1c1.51.9,3.39,2,5.95,1.6A15.29,15.29,0,0,0,68.9,89.2l.75-.49c3.27-2.08,8.08-5.16,8.33-10.52h32a2,2,0,1,0,0-4H24V64.3H124c0,.07,0,.15,0,.22V88.13h-5.36a7,7,0,0,0-2.79.66l-9.26,4.62a2.42,2.42,0,0,1-1.7,0l-8.48-4.54a6.66,6.66,0,0,0-2.83-.71H76.77a29,29,0,0,1-5,3.93l-.07,0H93.58a2.86,2.86,0,0,1,.93.23L103,96.88a6,6,0,0,0,2.79.65,5.92,5.92,0,0,0,2.61-.57l9.26-4.62a3.16,3.16,0,0,1,1-.23H124V102H24V92.1s.14-.19,0-.16l-.77.17c-1,.22-2.06.46-3.23.61V102a4,4,0,0,0,4,4H124a4,4,0,0,0,4-4V64.52A9,9,0,0,0,124.81,58.15ZM50.61,53l-3,2a2,2,0,1,1-2.22-3.33l3-2A2,2,0,0,1,50.61,53Zm10,1-3,2a2,2,0,1,1-2.22-3.33l3-2A2,2,0,0,1,60.61,54Zm3-9-3,2a2,2,0,1,1-2.22-3.33l3-2A2,2,0,0,1,63.61,45Zm11-1-3,2a2,2,0,1,1-2.22-3.33l3-2A2,2,0,0,1,74.61,44Zm0-8-3,2a2,2,0,1,1-2.22-3.33l3-2A2,2,0,0,1,74.61,36ZM86.16,53.41a2,2,0,0,1-2.77.55l-3-2a2,2,0,1,1,2.22-3.33l3,2A2,2,0,0,1,86.16,53.41Zm0-12a2,2,0,0,1-2.77.55l-3-2a2,2,0,1,1,2.22-3.33l3,2A2,2,0,0,1,86.16,41.41Zm12,13a2,2,0,0,1-2.77.55l-3-2a2,2,0,1,1,2.22-3.33l3,2A2,2,0,0,1,98.16,54.41Z"/><text x="0" y="143" fill="#000000" font-size="5px" font-weight="bold" font-family="'Helvetica Neue', Helvetica, Arial-Unicode, Arial, Sans-serif">Created by priyanka</text><text x="0" y="148" fill="#000000" font-size="5px" font-weight="bold" font-family="'Helvetica Neue', Helvetica, Arial-Unicode, Arial, Sans-serif">from the Noun Project</text></svg>