<svg id="Layer_1" data-name="Layer 1" xmlns="http://www.w3.org/2000/svg" viewBox="0 0 962.5 563"><defs><style>.cls-1,.cls-2{fill:#fff;}.cls-2{stroke:#000;stroke-miterlimit:10;}</style></defs><title>fish</title><path class="cls-1" d="M892.81,421.73h-24a221.65,221.65,0,0,0-23.6,5.3c-13.7,3.58-27.45,7.09-41.57,8.05-16.07,1.09-32-1.7-47.87-4.28-17.06-2.79-34.09-5.88-51.3-7.36-34.76-3-69.48,3.06-104.25,3-17.49,0-34.82-2.49-52.28-3.46a503,503,0,0,0-50.55-.32c-8.67.39-17.35,1-26,1.77s-17.32,3-25.92,4.86c-16.37,3.45-32.75,3.42-49.37,3.2-17.23-.23-34.4-.42-51.59-1.77s-34.13-3.23-51.24-4.26a317.47,317.47,0,0,0-51.67.75C224.3,429,207.16,432.12,190,435.1c-16,2.79-32,5.72-48.23,6.71A238.42,238.42,0,0,1,93,439.72c-15.48-2.25-30.54-6.45-45.64-10.65-8-2.22-16.17-4.26-24.47-4C15.4,425.27,8,426.27.5,427V559.92H960V437.37C937.19,435.13,915.51,425.08,892.81,421.73Z" transform="translate(1 1.42)"/><path d="M892.81,420.23H875.6c-8.76,0-16.81,1.75-25.34,3.93-15.36,3.93-30.74,8.36-46.64,9.42s-31.79-1.66-47.47-4.23c-14.66-2.41-29.29-5-44.06-6.66a295.12,295.12,0,0,0-47-1.09c-15.75.76-31.45,2.21-47.2,2.93a344.92,344.92,0,0,1-45.8-1.1c-30.53-2.65-60.87-3.54-91.46-1.26-14.72,1.1-28.62,4.88-43.15,7.05-15.67,2.35-31.59,1.93-47.38,1.71s-31.76-.57-47.6-1.84-31.5-3-47.29-4c-30.22-1.93-59.63.67-89.42,5.73-17.43,3-34.81,6.49-52.39,8.44a236.39,236.39,0,0,1-52.66-.07c-17.44-2-34.33-6.42-51.2-11.1-7.48-2.07-15.06-4.16-22.86-4.53-8.73-.41-17.55,1-26.21,1.95A1.54,1.54,0,0,0-1,427V559.92a1.52,1.52,0,0,0,1.5,1.5H920.93c12.48,0,25,.36,37.49,0,.53,0,1.05,0,1.58,0a1.52,1.52,0,0,0,1.5-1.5V437.37a1.54,1.54,0,0,0-1.5-1.5c-22.86-2.45-44.14-12.06-66.79-15.58-1.89-.29-2.7,2.6-.8,2.89,22.93,3.56,44.45,13.21,67.59,15.69l-1.5-1.5V559.92l1.5-1.5H14.93c-4.12,0-8.76-.6-12.85,0a11.2,11.2,0,0,1-1.58,0l1.5,1.5V427l-1.5,1.5c7.44-.78,14.91-1.86,22.39-2,8.24-.15,16.18,1.79,24.07,4,14.47,4,28.93,8.06,43.78,10.37,30.27,4.72,60,2.51,90.07-2.66,31-5.33,61.74-11.19,93.3-10.91,31.16.28,62.06,5.14,93.2,6.15,15.3.5,30.66.87,46,.58,14.95-.28,29.07-2.61,43.64-5.7,15.16-3.21,30.83-3.88,46.29-4.39s31.13-.3,46.66.66,30.92,3,46.45,3.31c15.74.31,31.48-.9,47.16-2s31.45-2.15,47.2-1.75,31.21,2.58,46.67,5.08c16.25,2.63,32.52,6,49,7.17,17,1.24,33.46-1.48,49.93-5.57,12-3,24.4-7.65,36.87-7.65h19.71A1.5,1.5,0,0,0,892.81,420.23Z" transform="translate(1 1.42)"/><path class="cls-1" d="M820.8,453c3.87-11.41,10.27-22,11.69-34.06a12.68,12.68,0,0,0-.59-6.66c-2.32-5.15-9.16-5.2-14.26-3.53-7.3,2.38-14,6.64-21.19,9.26s-15.64,3.42-22.13-.91c-4.29-2.86-7.18-7.57-11-11.14a26.35,26.35,0,0,0-16.44-7.15c-3.08-.17-6.24.22-9.2-.7s-5.76-3.71-5.5-7c.2-2.47,2-4.46,4.06-5.65,5.15-3,11.55-2.05,17.06.1s10.66,5.4,16.35,6.91c19.32,5.14,38.53-10.65,58.41-9.63,3.95.2,8.31,1,11.5-1.55,4.23-3.32,3.58-10.9-.15-14.87s-9.33-5.05-14.57-5.17-10.57.52-15.67-.78c-11-2.83-19.78-14.44-31.11-13.69-2.9.19-5.84,1.22-8.67.51s-5.3-4.38-3.62-6.93a6,6,0,0,1,3-2,60.59,60.59,0,0,1,30.66-3.65c6.06.86,12.15,2.65,18.21,1.73s12.24-5.63,12.54-12.2c.52-11.6-15.84-16.54-17.58-28-1.29-8.5,8.72-16.18,15.77-12.09,3.86,2.24,6.17,6.81,10,9.13,6.19,3.76,14.25.31,19.22-5.16s8-12.63,12.35-18.65a10.46,10.46,0,0,1,3.91-3.64c4.24-1.88,9.06,2.6,9.67,7.49.63,5-1.48,9.79-4,13.84-14.73,23.32-24.35,27.31-25.51,38.42-1,9.3,4.67,16.9,6.5,19.36,10.49,14.12,30.24,14.91,43,11.29,20.94-5.94,31.05-26,33.5-24.2,1.39,1.05-.47,8.58-18,41.17A40.87,40.87,0,0,1,891.83,376c-8.45-2-17.35-6.78-25.29-3.07-6.85,3.2-10.21,11.81-10.56,19.83s1.64,15.93,2.29,23.93c.19,2.32.58,5.15,2.6,6,1.34.56,2.83-.06,4.13-.73,8.92-4.57,16.53-11.57,24.82-17.35s17.88-10.46,27.71-9.45c5.44.56,12.4,2.12,15.13-3A40.41,40.41,0,0,1,914,413.78c-7.66,4-16.65,5.33-23.25,11.12-5.53,4.85-8.73,12.32-14.47,16.9-5.53,4.41-13.24,6-17,12.19-5.37,8.79.38,21.51-4.37,30.7-3.95,7.63-13.31,9.49-21.43,9.49h0C816,494.17,816.58,465.44,820.8,453Z" transform="translate(1 1.42)"/><path d="M822.25,453.37c3.4-9.71,8.5-18.9,10.8-29,1.41-6.16,2.5-14.5-4.72-17.31s-15,1.49-21.26,4.49c-9.12,4.36-20.63,10.42-30.66,5-4.55-2.46-7.35-7-10.88-10.6a29.3,29.3,0,0,0-9.44-6.53,30,30,0,0,0-11-2.21,28.3,28.3,0,0,1-5.33-.33c-3.47-.78-4.35-1.32-4.87-4.9s.16-4.31,3.45-5.85a13.28,13.28,0,0,1,6.36-1.11c10.4.46,18.75,8.41,29.07,9.66,8.11,1,16.18-1.17,23.84-3.62,8.93-2.86,18-6.54,27.46-6.82,6.28-.19,14.66,2,18-5.09,2.4-5.14.34-11.61-3.89-15.11-6.78-5.6-15.81-4-23.9-4.35-9.94-.47-16.57-6.84-24.93-11.26A25.76,25.76,0,0,0,781,345.3a21.56,21.56,0,0,0-5,.18c-1.34.17-5.12,1.16-6.13.31L768.45,340q2.09-.9,4.25-1.59c11.32-3.72,22.12-3,33.67-1.15,7.71,1.26,16.06,1.36,21.77-4.83,11-11.91-4.86-21.62-11.14-30.17-2.25-3.06-3.75-6.9-2.43-10.68,2-5.77,8.9-9.17,14.14-5.5,6.35,4.45,9.06,11.47,18.11,9.89,7.91-1.38,13.24-7.85,17.25-14.29,2.39-3.85,4.45-8,7.21-11.59s7.13-4.09,9.64.06c2,3.22,1.33,7.34.1,10.7-5.29,14.4-19,23.58-26.08,36.76-5.7,10.62-.75,23.39,7.24,31.43,9.86,9.93,25.28,12,38.5,9.29,13.56-2.8,23.6-11.71,32.63-21.63.9-1,2.86-2.32,3.49-3.44-.14.24-.86-.48-.92-.38.06-.12,0,.52,0,.63-1.44,2.29-2,6.31-3.09,8.86-2.79,6.41-6,12.65-9.2,18.85-2.59,5-4.27,10.18-9.85,12.35s-12.34,2.44-18.25,1.54c-8.6-1.31-17.37-6.75-26.28-4.69-7,1.62-11.33,7.57-13.32,14.13-2.83,9.33-.57,19,.55,28.41.57,4.73.66,13.26,7.85,10.92,8.7-2.83,16.36-10.76,23.6-16.06,8.68-6.36,18.55-12.12,29.69-11.21,6,.49,12.58,2.09,16.42-3.71l-2.74-1.16A39.89,39.89,0,0,1,915.83,411c-6.24,4-13.64,5.45-20.17,8.84-5.81,3-9.59,7.68-13.38,12.87-2.47,3.39-5,6.66-8.5,9-2.94,2-6.26,3.35-9.26,5.26-5,3.19-8.12,7.48-9,13.44-1,7,1,14.31-1,21.14C851,493,830,497.72,823.45,486.71c-5.55-9.32-4.42-23.42-1.2-33.35.6-1.84-2.3-2.63-2.89-.8-3.15,9.71-3.85,21.73-.41,31.46,3.74,10.57,12.44,12.9,22.76,10.92,6.42-1.23,12.46-4.58,15.08-10.84,3.07-7.33.72-15.43,1.75-23.06,1.45-10.76,11.21-12.24,18.49-18,6.37-5,9.44-13,15.83-17.95,7.62-5.9,17.82-6.93,25.74-12.41a43.46,43.46,0,0,0,15.51-20.15c.65-1.65-1.85-2.5-2.74-1.16-2.88,4.35-8.86,2.73-13.19,2.3a33.36,33.36,0,0,0-13.91,1.61c-8.73,2.9-16.11,8.5-23.33,14a150,150,0,0,1-12.32,8.83c-2.15,1.32-6.54,4.88-8.58.51-1-2.13-.61-5.55-.93-7.92-1.35-10-3.76-21.59,2-30.8,7.32-11.68,20-5,30.32-2.53a42.27,42.27,0,0,0,26.51-2.24c3.71-1.63,4.84-6,6.65-9.48,2.07-3.94,4.11-7.9,6.09-11.89,2.31-4.67,4.61-9.39,6.46-14.27.72-1.9,3.85-9.33-.72-9.21-2.65.07-5.41,4.47-6.93,6.14-4.71,5.16-9.77,10-15.8,13.59-13.82,8.25-34.48,9.53-47.41-1.27-5.75-4.8-10.48-12.53-10.87-20.11-.31-6,2.46-10.74,6.11-15.3,4.12-5.14,8.46-10.08,12.36-15.4,5.05-6.88,12.36-15.59,11.16-24.77-.66-5.05-5.36-10.78-11-9.12-6.78,2-10.33,12.81-13.88,18.13-3,4.49-6.78,8.71-12.11,10.37-6.57,2-10.41-1.76-14.62-6.2-4.43-4.67-10-6.59-15.81-3a13.27,13.27,0,0,0-6.08,14.77c1.67,5.94,6.71,10,10.88,14.19,2.43,2.44,5,5.1,5.9,8.5,1.59,5.74-2.27,10.82-7.4,13-5.57,2.35-11.71.92-17.43-.06a69.67,69.67,0,0,0-15-1.19,63,63,0,0,0-14,2.2c-2.92.81-8.23,1.82-10,4.77-3.41,5.58,3.71,9.68,8.35,9.38,5-.33,8.91-1,13.66,1,4.23,1.84,8,4.62,11.87,7,7.49,4.65,14.24,5.78,23,5.71,5.11,0,10.75,0,15.11,3.07,4.74,3.36,7.19,12.85.12,15.34-4,1.4-9-.06-13.09.22a63.74,63.74,0,0,0-13.25,2.53c-8.7,2.49-17.14,6.15-26.13,7.57a34.19,34.19,0,0,1-14.06-.46c-5.46-1.44-10.32-4.48-15.53-6.58-6.58-2.66-16.17-4.26-21.59,1.74-4.21,4.66-1.8,11,3.73,13.13,4.51,1.76,9.62.54,14.29,1.61a26.49,26.49,0,0,1,13.5,8.36c5.62,6.14,10.23,11.73,19.11,12.32s17.13-3.63,25-7.4c4.54-2.17,9.54-4.89,14.72-4.91,9.45,0,8.16,9.44,6.44,16-2.46,9.45-7.17,18.13-10.39,27.32C818.72,454.39,821.62,455.18,822.25,453.37Z" transform="translate(1 1.42)"/><path class="cls-1" d="M87,371.82h0c.17-2.88.22-5.88-.85-8.52-1.34-3.33-4.22-5.58-6.58-8.17C71,345.79,69,331.39,71,318.49s7.3-24.86,11.85-37,8.4-25.05,7.1-38a51.83,51.83,0,0,1,7.94,39.38c-1,4.86-2.71,9.68-2.36,14.64s3.67,10.21,8.3,10.22c3.18-8.16,3.29-17.27,3.35-26.12.1-15.28.15-30.93-4.61-45.34-4.64-14.05-13.83-27.05-13.34-42,.45-13.74,9-25.37,16.92-36.2s15.8-23.34,14.59-37c7.7,27.05-10,55.91-5.67,83.81,2.29,14.72,10.47,27.5,15.4,41.45a97.63,97.63,0,0,1-3.77,73.15c-7.43,15.57-19.36,29.86-19.76,47.36-.12,5.26.26,11.82-4,14.35-1.43.84-3.13,1-4.63,1.68-2.87,1.3-4.7,4.31-6.2,7.24-7.57,14.86-9.38,30.25-9.53,46.83C75.64,417,85.77,392.14,87,371.82Z" transform="translate(1 1.42)"/><path d="M88.48,371.82c.25-4.26-.07-8.3-2.54-11.9-2.82-4.11-6.84-7-9.31-11.45-5.7-10.28-5.77-22.92-3.39-34.15,5.09-24,20.22-45.5,18.16-70.86l-2.8.76a51.44,51.44,0,0,1,7.16,41c-1.91,8.16-4,22.78,8,24a1.52,1.52,0,0,0,1.45-1.1c2.9-8,3.3-16.33,3.39-24.75s.16-17.15-.54-25.69a92.33,92.33,0,0,0-5.21-24.93c-2.81-7.5-6.6-14.59-9.25-22.15-2.93-8.36-3.95-16.85-1.37-25.45,2.38-8,7.07-15,11.83-21.7,9.05-12.72,19.13-25.91,18.12-42.39l-2.95.4c5.89,22.13-3.9,44.13-6,66.08a69.23,69.23,0,0,0,3.86,30.86c3.89,10.69,9.57,20.66,13,31.55a96,96,0,0,1-4.7,68.76c-4.66,9.83-11,18.8-15.29,28.79a57.15,57.15,0,0,0-4,12.51c-.9,5-.08,10.33-1.25,15.26-1.05,4.44-3.88,4.59-7.39,6.3a12.43,12.43,0,0,0-4.45,4c-3.13,4.22-5.15,9.69-6.82,14.63-4,11.84-5,24.36-5.19,36.79l2.95-.4c-6.83-21.21,3.06-43.39,4.55-64.7.13-1.93-2.87-1.92-3,0C84,393.45,74.1,415.75,81,437.32a1.51,1.51,0,0,0,2.95-.4c.15-11.89,1.11-23.81,4.81-35.18,1.67-5.14,3.88-12.76,8.25-16.34,3.66-3,8-2.3,10-7.15,1.41-3.34,1.21-7.22,1.3-10.76a48.89,48.89,0,0,1,3.8-17.36c4.26-10.47,10.92-19.73,15.76-29.91a99.28,99.28,0,0,0,7.49-61.16c-4.43-22.76-20.23-41.88-19.58-65.73.67-24.42,12.8-48.15,6.28-72.67-.42-1.6-3.05-1.32-2.95.4,1.11,18.06-11.65,31.56-21,45.59-8.14,12.25-12.88,25.41-9,40.09,2,7.31,5.36,14.11,8.34,21A91.27,91.27,0,0,1,104.72,254a221,221,0,0,1,.91,25.72c-.05,9.34-.08,18.67-3.31,27.56l1.45-1.1c-9.1-.94-6.67-13.58-5.33-19.32a60.35,60.35,0,0,0,1.88-15.94A53.65,53.65,0,0,0,91.2,242.7c-.76-1.13-2.93-.84-2.8.76,2.14,26.36-14.63,48.48-18.74,73.72-1.5,9.22-1.25,19,2.09,27.8A35.34,35.34,0,0,0,78,355.64c1.75,2,3.9,3.75,5.4,6,2.12,3.14,2.29,6.54,2.07,10.2C85.37,373.75,88.37,373.74,88.48,371.82Z" transform="translate(1 1.42)"/><path class="cls-1" d="M85.93,330.47h0c-.42-10.58-.83-21.3,1.32-31.63,1.56-7.48,4.45-14.65,5.36-22.25,0,9.67-4,19.08-3.21,28.71.7,8.58,5.16,16.4,5.84,25,.46,5.81-.92,14.71-5.32,18.66C86,344.66,86.15,336,85.93,330.47Z" transform="translate(1 1.42)"/><path d="M87.43,330.47c-.37-9.17-.77-18.46.61-27.57,1.33-8.8,4.79-17.09,6-25.91l-2.95-.4c-.27,12.67-5.17,24-1.71,36.67,2.91,10.66,8.72,25.21-.55,34.63H91c-3.75-4.73-3.35-11.71-3.55-17.42-.07-1.92-3.07-1.93-3,0,.24,6.67.08,14,4.43,19.54A1.51,1.51,0,0,0,91,350c7.44-7.57,6.55-20,3.81-29.33-2.12-7.24-4.49-14-3.79-21.67s3-14.8,3.12-22.42c0-1.64-2.71-2.1-2.95-.4-1.31,9.43-5,18.3-6.27,27.76-1.15,8.8-.81,17.69-.46,26.52C84.5,332.4,87.5,332.41,87.43,330.47Z" transform="translate(1 1.42)"/><path d="M108.08,328.78c2.91-7.59,7.59-14.31,10.68-21.82A63.29,63.29,0,0,0,123,289.29c1.48-14.26-.7-28.88-2.91-43-1-6.45-2.38-12.92-5.25-18.82-3.5-7.19-8.86-12.9-11.29-20.69a44.07,44.07,0,0,1,9.29-42.62c1.29-1.43-.82-3.56-2.12-2.12a46.83,46.83,0,0,0-12.06,35.15,47.43,47.43,0,0,0,5.4,18.5c3.85,7.18,8.82,13,11,21.05,2.14,7.8,3,16,4,24a145.49,145.49,0,0,1,1.29,23.2,63.36,63.36,0,0,1-5.65,24.66c-3.06,6.52-7,12.55-9.55,19.31-.69,1.8,2.21,2.58,2.89.8Z" transform="translate(1 1.42)"/><path class="cls-1" d="M152.54,30.56a37,37,0,0,0-3.1,8c-1.22,4.87-1.25,10-1.27,15,0,3.51.29,7.67,3.1,9.48a9,9,0,0,0,4.79,1,41.8,41.8,0,0,0,10.68-.73,15,15,0,0,0,9-5.82c2.71-4,2.88-9.29,2.95-14.24l.12-9.12a8.85,8.85,0,0,0-.66-4.31,6.87,6.87,0,0,0-2.87-2.56h0C169.05,23.79,156.54,22.85,152.54,30.56Z" transform="translate(1 1.42)"/><path d="M151.24,29.81c-3.33,6.74-4.43,13.45-4.55,20.93-.07,4.42-.54,10.84,3.82,13.61s13.17,1.58,17.93,0a15.63,15.63,0,0,0,10.2-9.34c2.38-6.32,1.81-14.29,1.66-20.92-.1-4.62-1.81-7.17-6-9-7.51-3.28-18.42-3.08-23,4.67a1.5,1.5,0,0,0,2.59,1.51c3.64-6.13,12.34-6,18.32-3.82a11.86,11.86,0,0,1,2.36,1.07c3.56,2.52,2.79,5.72,2.74,9.23-.06,4.39.24,9-.64,13.36-1,5.11-4,8.7-9,10.36-3.24,1.08-14.29,2.65-16.74-1-2.15-3.17-1.29-9-1.14-12.65a40,40,0,0,1,4.07-16.58C154.68,29.6,152.1,28.07,151.24,29.81Z" transform="translate(1 1.42)"/><path class="cls-1" d="M162.6,125.49c2.06,3.86,6.54,5.36,10.66,5.75a15.65,15.65,0,0,0,5.74-.33c4-1.12,7.13-4.66,8.78-8.72,2.29-5.61,1.62-13.06-3-16.7h0c-4.37-3.48-14.47-5.26-18.75-.74S159.54,119.77,162.6,125.49Z" transform="translate(1 1.42)"/><path d="M161.3,126.25c4.79,7.43,17,9,23.52,3,6.07-5.62,8.17-16.91,2.39-23.47-4.6-5.23-15.28-7.3-21.08-3-6.55,4.84-8.05,16.53-4.83,23.52.81,1.75,3.39.23,2.59-1.51-2.5-5.44-1.26-14.69,3.25-18.92,4-3.75,12.27-2.61,16.37.56,5.35,4.14,4.88,12.38,1.66,17.67-4.38,7.22-16.49,8.11-21.28.68C162.85,123.12,160.25,124.62,161.3,126.25Z" transform="translate(1 1.42)"/><path class="cls-1" d="M235.69,172.48h0a9.82,9.82,0,0,0-2.55,3.34c-1.57,2.89-2.93,6.06-3,9.41s1.58,6.91,4.48,8.13a10.5,10.5,0,0,0,3.42.64,21.47,21.47,0,0,0,6.88-.4,9.64,9.64,0,0,0,5.72-3.89c1.71-2.62,1.79-6,1.82-9.25a12.37,12.37,0,0,0-.29-3.42,7.6,7.6,0,0,0-3.67-4.4C245.29,170.79,238.88,170.12,235.69,172.48Z" transform="translate(1 1.42)"/><path d="M234.94,171.18c-5.22,3.86-8,13.87-4.91,19.66,3.33,6.17,13.59,6.11,18.9,2.65s7-13.5,3.84-18.82c-3.35-5.56-12.57-6.71-17.82-3.49-1.64,1-.14,3.6,1.51,2.59,3.49-2.14,9.93-1.78,12.88,1.34,3.41,3.61,2.08,13.11-1.92,15.79-3.64,2.44-11.27,2.79-14.2-.74-3.28-4-.72-13.45,3.25-16.38C238,172.64,236.49,170,234.94,171.18Z" transform="translate(1 1.42)"/><path class="cls-1" d="M193.25,168.65h0a4.51,4.51,0,0,0,2,3.83c1.63.9,3.7.08,5-1.33s2-3.63,1.14-5.34C199,161.27,193.12,163.89,193.25,168.65Z" transform="translate(1 1.42)"/><path d="M191.75,168.65c.1,3.36,2.71,6.45,6.29,5.54,3.41-.87,6.07-4.84,5-8.33a5.52,5.52,0,0,0-6.58-3.71,6.62,6.62,0,0,0-4.67,6.5,1.5,1.5,0,0,0,3,0c0-2.34,2.83-5.26,4.87-2.78,1.31,1.59.31,3.9-1.25,4.92-1.91,1.25-3.57,0-3.63-2.14C194.7,166.72,191.7,166.71,191.75,168.65Z" transform="translate(1 1.42)"/><path class="cls-1" d="M218.28,127.16h0c2.2.59,3.42,3.69,2.33,5.83C216,142,209.72,124.88,218.28,127.16Z" transform="translate(1 1.42)"/><path d="M217.88,128.61c2.48.66,1.72,4.17.18,5.35-.11.08-.16.09-.49.18.4-.12-.29-.09.13,0-.09,0-.53-.18-.17,0a2.44,2.44,0,0,1-1.06-1,5,5,0,0,1-.78-1.88,2.6,2.6,0,0,1-.13-.91c0-.19,0-.37,0-.56s0-.18,0-.2.07-.29.11-.44-.1.14.1-.21a.7.7,0,0,1,.29-.32,1,1,0,0,1,.56-.16,3.65,3.65,0,0,1,1.25.15c1.87.47,2.67-2.42.8-2.89-2-.52-4.32-.27-5.48,1.71a7.59,7.59,0,0,0,2.93,9.33c2.1,1,4-.3,5.22-2,2-3,1.25-8-2.66-9A1.5,1.5,0,0,0,217.88,128.61Z" transform="translate(1 1.42)"/><path class="cls-1" d="M204.36,96.11h0a3,3,0,0,1,.47-2.19,2.53,2.53,0,0,1,1.37-.62l2.41-.54a2.74,2.74,0,0,1,1.6,0,2.44,2.44,0,0,1,1.23,1.52C213.83,100.75,204.75,104.88,204.36,96.11Z" transform="translate(1 1.42)"/><path d="M205.86,96.11c0-.28-.12-.91.06-1.15s1.5-.4,1.88-.49,1.34-.48,1.79-.29.55.87.64,1.31a3.74,3.74,0,0,1-.79,3.28,2.06,2.06,0,0,1-2.13.76c-1.18-.48-1.4-2.3-1.46-3.42-.11-1.92-3.12-1.93-3,0,.15,2.58,1.06,5.72,3.94,6.39a5.39,5.39,0,0,0,5.66-2.78c1.33-2.3,1.33-6.52-1.15-8.11-1.62-1-4.17-.19-5.87.33-2,.61-2.66,2.19-2.57,4.17S205.95,98,205.86,96.11Z" transform="translate(1 1.42)"/><path class="cls-1" d="M178.6,79.15h0a3.5,3.5,0,0,1,5-2.85C191.13,80.62,178.24,89.07,178.6,79.15Z" transform="translate(1 1.42)"/><path d="M180.1,79.15a2,2,0,0,1,1.73-1.72,2.65,2.65,0,0,1,2.28,1.18,1.83,1.83,0,0,1-.2,2.37c-.11.13-.24.25-.36.38s-.46.38-.2.19a5,5,0,0,1-.89.53c.32-.15-.16.06-.23.08l-.48.12c-.26.05.24,0-.19,0-.1,0-.57-.08-.18,0a3.06,3.06,0,0,1-.44-.12c.36.14-.08,0-.15-.11.28.26-.11-.11-.15-.16s-.11-.13,0,0l-.15-.23a5.63,5.63,0,0,1-.39-2.51c0-1.93-3-1.93-3,0-.05,2.1.42,4.55,2.43,5.64a5.07,5.07,0,0,0,5-.43,6,6,0,0,0,2.9-4.34,5.31,5.31,0,0,0-2.89-4.91,5,5,0,0,0-7.46,4C177,81.08,180,81.08,180.1,79.15Z" transform="translate(1 1.42)"/><path class="cls-1" d="M195.42,56.16h0a4.6,4.6,0,0,1-.47-2.45c0-1.69.57-3.57,2-4.36,1.85-1,4.36.77,4.45,3C201.47,54.82,197.14,59.08,195.42,56.16Z" transform="translate(1 1.42)"/><path d="M196.72,55.41a4.71,4.71,0,0,1,.44-4.29c.92-1.15,2.52-.15,2.68,1.11.12,1-2.31,4.41-3.13,3.18-1.06-1.6-3.66-.1-2.59,1.51,3.24,4.9,10.09-1.79,8.4-6.14-1-2.65-4.39-4.24-6.83-2.39s-3,6.07-1.57,8.54A1.5,1.5,0,0,0,196.72,55.41Z" transform="translate(1 1.42)"/><path class="cls-1" d="M192.77,21h0a6.59,6.59,0,0,1,5-4.9,1.79,1.79,0,0,1,1,.05,2.4,2.4,0,0,1,1,1.41c1,2.47,1.91,5.5.47,7.7C197,30.37,191.36,26.66,192.77,21Z" transform="translate(1 1.42)"/><path d="M194.21,21.37c.31-1.25,1.88-3.9,3.52-3.75,1.05.1,1.42,2.22,1.63,3.1a5,5,0,0,1-.15,3.44c-.66,1.33-2.21,2.58-3.69,1.7s-1.64-3-1.31-4.49c.4-1.88-2.49-2.69-2.89-.8-.65,3.06.07,6.66,3.15,8.12s6.56-.82,7.69-3.8a9.34,9.34,0,0,0-.24-6.11c-.51-1.59-1.13-3.71-3-4.16-3.46-.85-6.9,2.94-7.65,5.95C190.86,22.45,193.75,23.25,194.21,21.37Z" transform="translate(1 1.42)"/><path class="cls-1" d="M170.06,2.42a3.93,3.93,0,0,1,4.1-2.36c2.54.51,3.63,3.71,4.14,6.43a3.57,3.57,0,0,1-.11,2.36A3,3,0,0,1,176.45,10a6.59,6.59,0,0,1-3.55.45h0C169.86,9.83,168.81,5.07,170.06,2.42Z" transform="translate(1 1.42)"/><path d="M171.35,3.18c1.29-2.32,3.39-1.87,4.47.26a11.7,11.7,0,0,1,.92,2.89c.26,1.27.33,1.9-1,2.37-1.84.64-3.39.46-4.21-1.42a5.71,5.71,0,0,1,0-4.46c.74-1.78-2.16-2.56-2.89-.8a8.24,8.24,0,0,0,1.56,8.59c2.25,2.2,7,1.9,9-.59s0-7.65-1.85-9.75c-2.64-2.92-6.75-1.85-8.54,1.38C167.82,3.36,170.41,4.87,171.35,3.18Z" transform="translate(1 1.42)"/><path class="cls-1" d="M171.05,173.79h0c2.23.85,4.2-2,4.68-4.45C178.16,156.8,162.75,170.63,171.05,173.79Z" transform="translate(1 1.42)"/><path d="M170.66,175.24c1.92.73,3.82-.46,4.94-2a10.26,10.26,0,0,0,1.83-5.2c.22-2-.09-4.65-2.36-5.29-1.81-.51-3.67.66-4.95,1.83a9.25,9.25,0,0,0-2.93,4.87c-.51,2.72,1,4.77,3.46,5.75a1.51,1.51,0,0,0,1.85-1,1.54,1.54,0,0,0-1-1.85c.15.06-.24-.12-.33-.16a4.14,4.14,0,0,1-.46-.29c.24.18-.1-.11-.17-.17a1.92,1.92,0,0,1-.16-.17c.23.27,0,0,0-.06s-.22-.49-.09-.13c0-.13-.08-.27-.12-.41-.11-.34,0,0,0-.13s0-.33,0-.49c0-.37-.06.21,0-.16,0-.15.07-.3.11-.45s.11-.34.18-.51c-.12.32.09-.17.13-.25a8.28,8.28,0,0,1,.51-.86,3.34,3.34,0,0,1,.51-.65,9.22,9.22,0,0,1,.7-.71l.37-.32c.21-.18,0,0,0,0l.28-.2a8.62,8.62,0,0,1,.75-.43c.21-.11-.28.05.1,0l.4-.11c-.1,0-.26,0,0,0s0-.06,0,0c.31.26-.09-.18,0,0a.37.37,0,0,0,.13.08c.11,0-.22-.24-.09-.07s-.09-.2,0,0,.16.37.06.08a5,5,0,0,1,.14.49s.05.3,0,.12,0,.17,0,.21a9.2,9.2,0,0,1-.57,3.68c-.36.89-1.27,2.56-2.46,2.11a1.51,1.51,0,0,0-1.85,1A1.53,1.53,0,0,0,170.66,175.24Z" transform="translate(1 1.42)"/><path class="cls-1" d="M190.15,204.51h0a2.28,2.28,0,0,0,.5,1.41,1.94,1.94,0,0,0,.92.47c3.39.9,8.91-3.53,6-7.39C194.44,194.91,189.83,200.74,190.15,204.51Z" transform="translate(1 1.42)"/><path d="M188.65,204.51c.61,7.19,12.93,1.94,11-4.6-.86-3-4.07-4.75-6.88-3.15a8.93,8.93,0,0,0-4.16,7.75c.1,1.92,3.1,1.93,3,0a6.11,6.11,0,0,1,1.74-4.41c1-1.06,2.19-1.41,3.09,0s0,2.88-1.11,3.81c-.5.4-3.6,2-3.72.61C191.49,202.6,188.48,202.59,188.65,204.51Z" transform="translate(1 1.42)"/><path class="cls-1" d="M171.58,223.71c1.48-4.2-4.15-8.74-5.86-3.86C164.3,223.91,170,228.31,171.58,223.71Z" transform="translate(1 1.42)"/><path d="M173,224.11a6.36,6.36,0,0,0-2.61-7.15c-2.48-1.57-5.14-.28-6.09,2.35a6.18,6.18,0,0,0,2.52,7.08c2.55,1.67,5.15.4,6.18-2.28.7-1.8-2.2-2.58-2.89-.8-.4,1-1.12,1-1.92.36a3.13,3.13,0,0,1-1-3.53c.44-1,1.09-1.13,1.93-.42a3.34,3.34,0,0,1,1,3.59C169.55,225.16,172.44,225.95,173,224.11Z" transform="translate(1 1.42)"/><path class="cls-1" d="M192.53,247.66a2.68,2.68,0,0,0,2.05,2,4.22,4.22,0,0,0,2.83-.52h0c2-1,3.14-5.09.23-5.53C195.65,243.3,192,245,192.53,247.66Z" transform="translate(1 1.42)"/><path d="M191.09,248.05c.92,3.2,4.64,3.91,7.27,2.26a5.52,5.52,0,0,0,2.38-5.78c-.72-2.51-3.62-2.83-5.74-2.08-2.47.88-4.33,2.86-3.91,5.6.29,1.9,3.18,1.09,2.89-.8-.2-1.3,3.18-3.06,3.87-1.93.36.61-.36,1.81-.78,2.2-.85.8-2.69,1.11-3.09-.27A1.5,1.5,0,0,0,191.09,248.05Z" transform="translate(1 1.42)"/><path class="cls-1" d="M176.47,280.06h0a3.7,3.7,0,0,0,3,1.13,2.76,2.76,0,0,0,1.66-.34,2.6,2.6,0,0,0,.76-.93,5.7,5.7,0,0,0,.14-5.19C179,268.9,173.82,276.58,176.47,280.06Z" transform="translate(1 1.42)"/><path d="M175.18,280.82a5.21,5.21,0,0,0,4.26,1.88,3.92,3.92,0,0,0,3.91-2.38c1.38-2.87.74-7.21-2.31-8.79-2.24-1.16-4.53.39-5.69,2.31s-1.61,4.93-.16,7c1.11,1.56,3.71.07,2.59-1.51a3.23,3.23,0,0,1-.26-3.07c.25-.71.92-2.07,1.82-2.12s1.68,1.94,1.73,2.81-.12,2.41-1,2.75a3.21,3.21,0,0,1-2.31-.37C176.61,277.79,174,279.28,175.18,280.82Z" transform="translate(1 1.42)"/><path class="cls-1" d="M194.86,314.59h0a5.14,5.14,0,0,0,.44,4.12,1.61,1.61,0,0,0,.62.66,1.75,1.75,0,0,0,.76.12l2.7,0a2.8,2.8,0,0,0,1-.1,2.58,2.58,0,0,0,1.35-1.56,5.7,5.7,0,0,0-.19-5C199.55,309.63,195.83,311.59,194.86,314.59Z" transform="translate(1 1.42)"/><path d="M193.41,314.19c-.85,2.62.07,6.62,3.27,6.8,1.69.1,4,.38,5.29-.87a6.47,6.47,0,0,0,1.67-4.16c.22-2.77-1.46-6.13-4.56-6.25-2.72-.1-4.8,2.1-5.67,4.48-.66,1.82,2.24,2.6,2.89.8a3.45,3.45,0,0,1,2.19-2.24c1.35-.32,2.06,1.2,2.16,2.32a4.57,4.57,0,0,1-.41,2.35c-.42.85-1.37.58-2.21.57-1,0-1.48.21-1.78-.86a3.71,3.71,0,0,1,.05-2.15C196.91,313.15,194,312.36,193.41,314.19Z" transform="translate(1 1.42)"/><path class="cls-1" d="M160.16,357.85a4.8,4.8,0,0,0,2.31,2.73,10,10,0,0,0,3.37,1,.79.79,0,0,0,.55-.05.89.89,0,0,0,.3-.46,14.4,14.4,0,0,0,.93-5.07,3.45,3.45,0,0,0-.29-1.61,3,3,0,0,0-1.64-1.26h0c-1.22-.49-3.64-1.35-4.75-.35S159.82,356.68,160.16,357.85Z" transform="translate(1 1.42)"/><path d="M158.72,358.25A6.66,6.66,0,0,0,162,362c1.26.64,3.4,1.5,4.82,1s1.79-2.68,2-4c.32-1.75.66-4-.36-5.56-1.3-2-5.45-3.22-7.63-2.3-2.49,1.05-2.67,4.83-2.13,7.1.45,1.88,3.35,1.08,2.89-.8-.18-.76-.35-2.76.26-3.39s2.73.13,3.43.54c1.47.85.83,3.83.26,5.18q-.28.43.11.28l-.58-.12c-.38-.12-.76-.18-1.13-.32a3.8,3.8,0,0,1-2.34-2.17C160.94,355.65,158,356.43,158.72,358.25Z" transform="translate(1 1.42)"/><path class="cls-1" d="M192.38,393.38h0a6.5,6.5,0,0,0,8.18.36,7.09,7.09,0,0,0,1.8-8.45C197,375,183.42,385.44,192.38,393.38Z" transform="translate(1 1.42)"/><path d="M191.32,394.44a7.89,7.89,0,0,0,12.61-2.88,9,9,0,0,0-5.28-11.64,8.35,8.35,0,0,0-9.45,3.47c-2.48,3.8-1,8.16,2.13,11,1.42,1.31,3.54-.81,2.12-2.12-1.87-1.73-3.27-4.13-2.09-6.66a5.5,5.5,0,0,1,5.16-3.13c2.85.2,5.16,3.18,5.06,5.95-.15,4.07-4.82,6.77-8.12,3.84C192,391,189.87,393.16,191.32,394.44Z" transform="translate(1 1.42)"/><path class="cls-1" d="M165.77,416.08c-1.26-5.15-11.72-9.78-10.15-1C156.71,421.06,167.68,423.88,165.77,416.08Z" transform="translate(1 1.42)"/><path d="M167.22,415.68a10.46,10.46,0,0,0-7.63-6.89c-4.21-.88-6.13,2.62-5.45,6.39a9.2,9.2,0,0,0,7.8,7.08c4.22.55,6.11-2.79,5.28-6.58-.41-1.89-3.3-1.09-2.89.8.49,2.27-.49,3.29-2.75,2.67a6.11,6.11,0,0,1-4.55-4.8c-.32-2.31.64-3.19,2.82-2.35a7.42,7.42,0,0,1,4.47,4.48A1.5,1.5,0,0,0,167.22,415.68Z" transform="translate(1 1.42)"/><path class="cls-1" d="M101.22,490.6h0c-1,2.35-1.55,5.22-.37,7.48a5.44,5.44,0,0,0,6.72,2.44C118.2,496.3,107.35,476.41,101.22,490.6Z" transform="translate(1 1.42)"/><path d="M99.93,489.84c-1.84,4.26-1.9,10.17,3.21,12.08a7.82,7.82,0,0,0,9.33-3.74c2.41-4.42.63-12.58-4.83-14-3.78-1-6.37,2.62-7.71,5.62-.78,1.75,1.8,3.27,2.59,1.51s2.31-5.06,4.71-4.12c1.86.73,2.87,3.22,3.19,5a6.12,6.12,0,0,1-2,6.08,4.35,4.35,0,0,1-5.08.36c-2.39-1.61-1.84-5.08-.85-7.35C103.27,489.6,100.69,488.07,99.93,489.84Z" transform="translate(1 1.42)"/><path class="cls-1" d="M234.3,470.85a9.87,9.87,0,0,0-4.39.07,3.81,3.81,0,0,0-2.72,3.35h0C227,484.83,243.06,472,234.3,470.85Z" transform="translate(1 1.42)"/><path d="M234.3,469.35c-2.23-.29-4.57-.41-6.47,1a5.17,5.17,0,0,0-2.13,4.48c.09,2.18,1,4.42,3.33,5,3.54.84,8.35-2.51,9.26-5.93.66-2.49-1.31-4.12-3.58-4.46-1.89-.28-2.7,2.61-.8,2.89a6.11,6.11,0,0,1,1.19.28c.32.15.31.19.36.3-.13-.27,0,0,0,.13a1.88,1.88,0,0,1-.21.52,7.36,7.36,0,0,1-3.41,3,4.2,4.2,0,0,1-1.76.42,1,1,0,0,1-1-.56,3.79,3.79,0,0,1-.3-2.45c.63-2.29,3.85-1.78,5.55-1.55C236.21,472.6,236.19,469.6,234.3,469.35Z" transform="translate(1 1.42)"/><path class="cls-1" d="M303.44,525.32a3.19,3.19,0,0,0,1.22-3.72h0c-.84-2.4-5.15-3.75-6.05-.76C297.82,523.44,301.22,526.56,303.44,525.32Z" transform="translate(1 1.42)"/><path d="M304.2,526.61a4.73,4.73,0,0,0,1.07-6.9c-1.37-1.68-4-2.69-6.07-1.72-5.38,2.53,0,11,5,8.62,1.74-.84.22-3.42-1.51-2.59-1.49.72-3.86-2.7-2.11-3.36s4,2.15,2.11,3.36C301.07,525.07,302.58,527.67,304.2,526.61Z" transform="translate(1 1.42)"/><path class="cls-1" d="M420.27,497a48.4,48.4,0,0,0-5.38-5.67,13.1,13.1,0,0,1-3.95-6.75,5.69,5.69,0,0,1,.94-4.48,2.93,2.93,0,0,1,4-.68,5.11,5.11,0,0,1,1.47,3.06,9.65,9.65,0,0,1,.1,4.49C417,488.42,421.68,496.93,420.27,497Z" transform="translate(1 1.42)"/><path d="M421.57,496.24c-2.09-2.75-4.86-4.83-7-7.53-.88-1.13-3.54-5.16-2.09-6.57l3.17-.13a9.88,9.88,0,0,1,.34,1.79c.12,1.1-.12,2.08-.08,3.17a12.68,12.68,0,0,0,1.18,4.27c.43,1.09.9,2.16,1.3,3.26a4.59,4.59,0,0,0,.4,1.13c1,1.15-1.16.84,1.07-.08-1.76.72-1,3.63.8,2.89,2.9-1.19.35-5.47-.41-7.34a11,11,0,0,1-1.14-5.24c.11-2.19-.19-5.13-1.64-6.9-3-3.65-7.62-.3-8.07,3.51-.82,6.79,6,10.63,9.57,15.29C420.13,499.27,422.74,497.78,421.57,496.24Z" transform="translate(1 1.42)"/><path class="cls-1" d="M495.39,520.34c.08,1.7,1.67,3.47,1.67,5.53,0,2.44-1,3.89-2,5.94-1.08,2.34-1.59,7.76-5,5.62-2-1.29-2.63-5-1.3-6.92,1.2-1.73,3.56-2.29,4.84-4.14A10,10,0,0,0,495.39,520.34Z" transform="translate(1 1.42)"/><path d="M493.94,520.74c.27,1.54,1.13,2.83,1.44,4.35.46,2.28-.71,4-1.57,6-.61,1.4-1.6,6.78-3.57,4.2-2.65-3.47,2.38-5.39,4.19-7.47a11.37,11.37,0,0,0,2.47-7.44,1.5,1.5,0,0,0-3,0A8.19,8.19,0,0,1,492,526a35.13,35.13,0,0,1-3,2.17,6.06,6.06,0,0,0-2.39,4.41c-.2,2.86,1.58,6.88,5,6.79,3.11-.08,3.7-3.85,4.55-6.12.79-2.1,2.1-4,2.35-6.27.29-2.69-1.21-4.55-1.65-7.08C496.5,518,493.61,518.85,493.94,520.74Z" transform="translate(1 1.42)"/><path class="cls-1" d="M549.37,457.88h0a1.66,1.66,0,0,0,2.3.3,2.12,2.12,0,0,0,.54-1.35c.14-1.59-1-4.15-2.88-3.65S548.41,456.81,549.37,457.88Z" transform="translate(1 1.42)"/><path d="M548.31,458.94a3.05,3.05,0,0,0,5.31-1.41,5.41,5.41,0,0,0-2.1-5.4,3.09,3.09,0,0,0-4.68,1.8,6,6,0,0,0,1.46,5c1.25,1.48,3.36-.65,2.12-2.12a4.08,4.08,0,0,1-.68-1.68c0-.14-.05-.52,0-.57-.11.07,0,0,0,0,.53.1.82,1.1.89,1.53a1.88,1.88,0,0,1,0,.88c0,.16.15,0,0,0a.68.68,0,0,1-.22-.18C549.13,455.38,547,457.51,548.31,458.94Z" transform="translate(1 1.42)"/><path class="cls-1" d="M595.22,502.62a6.59,6.59,0,0,0-.75,3.24,2.51,2.51,0,0,0,.25,1.27,2.39,2.39,0,0,0,1.53.94,3.21,3.21,0,0,0,2.39,0c1-.55,1.32-2,1.31-3.21h0C599.92,501.66,597.23,499.1,595.22,502.62Z" transform="translate(1 1.42)"/><path d="M593.92,501.87c-1.26,2.41-1.74,6.28,1.34,7.46a5.05,5.05,0,0,0,4,.12,4,4,0,0,0,2.06-2.88,6.66,6.66,0,0,0-1.62-6.21c-2.07-1.88-4.47-.55-5.73,1.51-1,1.65,1.58,3.16,2.59,1.51.4-.66.77-1.32,1.34-.57a3.76,3.76,0,0,1,.58,2.49,2.29,2.29,0,0,1-.34,1.29c-.36.4-1,.17-1.45,0-.71-.21-.71-.37-.67-1.14a5,5,0,0,1,.54-2.11C597.4,501.67,594.81,500.15,593.92,501.87Z" transform="translate(1 1.42)"/><path class="cls-1" d="M730.5,472.78h0a3.4,3.4,0,0,0,.62,2,3,3,0,0,0,2.15.73c1.37.09,3,.06,3.8-1.14a3.48,3.48,0,0,0,.39-2.47C736.39,465.21,729.95,465.66,730.5,472.78Z" transform="translate(1 1.42)"/><path d="M729,472.78c.13,1.67.65,3.28,2.35,3.92a8,8,0,0,0,5,0c3.59-1.27,3.05-5.91,1.39-8.54-1.2-1.89-3.46-3.17-5.67-2.21-2.59,1.12-3.19,4.25-3,6.78.11,1.92,3.12,1.93,3,0-.08-1.28.35-5.44,2.52-3.74a4.84,4.84,0,0,1,1.48,4c-.2,1.08-1.24,1.07-2.15,1.05-1.1,0-1.75,0-1.85-1.29C731.85,470.86,728.85,470.85,729,472.78Z" transform="translate(1 1.42)"/><path class="cls-1" d="M659.46,467.28h0a2.83,2.83,0,0,0,1.67-1.35c1.35-3.17-4.3-3.48-5.75-2.15C652.31,466.61,657.07,468.25,659.46,467.28Z" transform="translate(1 1.42)"/><path d="M659.86,468.72a4.27,4.27,0,0,0,2.87-2.82,3.17,3.17,0,0,0-.79-3c-1.45-1.44-4.09-1.61-6-1-2.14.66-4,3.22-2.57,5.35,1.3,1.9,4.42,2.31,6.45,1.56,1.8-.66,1-3.56-.8-2.89a3.56,3.56,0,0,1-3-.22c-.22-.13-.22.1-.1-.2a1.13,1.13,0,0,1,.83-.7,4.25,4.25,0,0,1,2.79.1c-.07,0,.37.29.24.17s0,.18,0,0c0,.51-.53.8-.78.9a1.55,1.55,0,0,0-1,1.85A1.51,1.51,0,0,0,659.86,468.72Z" transform="translate(1 1.42)"/><path class="cls-1" d="M768.86,537.25h0a4.18,4.18,0,0,0-2.11-4c-2.83-1.61-7.88.18-5.28,4.08C763,539.66,768.36,541.33,768.86,537.25Z" transform="translate(1 1.42)"/><path d="M770.36,537.25c.41-3.38-2.77-6-5.92-6.07-2.56,0-5.32,1.56-5.17,4.4.27,5.27,10,8.43,11,2.06.31-1.89-2.58-2.7-2.89-.8-.21,1.3-.89,1.56-2.14,1.27a4,4,0,0,1-2.93-2.33c-.63-2.19,5.48-2.33,5,1.46C767.13,539.16,770.13,539.15,770.36,537.25Z" transform="translate(1 1.42)"/><path class="cls-1" d="M903.47,491.13c7.19,1,6.73-10.44,0-10.76C896.64,480,897.45,490.27,903.47,491.13Z" transform="translate(1 1.42)"/><path d="M903.47,492.63c8.47.93,8.7-12,1.24-13.61-9.13-2-9.91,12.05-1.64,13.56,1.89.34,2.7-2.55.8-2.89-4.75-.86-5-9.2.42-7.68,4,1.12,4,8.16-.82,7.63C901.56,489.42,901.57,492.42,903.47,492.63Z" transform="translate(1 1.42)"/><path class="cls-1" d="M640.3,99.52c6.19-7.64,10-17.13,15-25.68,12.14-20.59,32-35.78,54-41.41,8.53-2.18,17.41-3,25.58-6.41,4.71-2,9.17-4.79,14.15-5.71s10.87.69,13.19,5.51c3.25,6.75-1.61,16.74,3.66,21.8,2.84,2.73,8.19,3.44,8.41,7.53.25,4.5-6.44,6.19-7,10.65-.51,4,4.05,6.53,5.06,10.38,1.18,4.48-2.73,8.55-6.41,11S640.68,94.88,640.3,99.52Z" transform="translate(1 1.42)"/><path d="M641.36,100.58c5.7-7.3,9.47-15.66,14-23.7a92.76,92.76,0,0,1,15.75-20.8c12.66-12.5,28.21-20.21,45.55-23.73a111.47,111.47,0,0,0,25.26-7.92c4.67-2.15,10.2-4.22,15.19-1.72s5,7.77,4.86,12.52c-.21,6.18-.31,11.74,5.48,15.29,1.1.67,2.36,1.17,3.41,1.93,2.76,2,1.73,4.58-.35,6.61-1.79,1.75-3.85,3.29-4.48,5.84-.59,2.4.37,4.42,1.65,6.39a32.3,32.3,0,0,1,2.48,3.46c1.88,4-.88,9.32-4.9,11.13a26.18,26.18,0,0,1-3.52.6c-6.72.85-13.51,1.26-20.27,1.77-20.92,1.55-41.85,2.84-62.76,4.52-9.45.76-18.93,1.52-28.33,2.77-2.24.3-10.77.39-11.49,3.57-.42,1.88,2.47,2.68,2.89.8-.18.8-.38.37.65.09s1.9-.47,2.86-.66c3.25-.63,6.55-1,9.83-1.38,9.75-1.11,19.55-1.89,29.33-2.64,21.45-1.65,42.93-2.92,64.38-4.63,5.27-.42,11.55-.17,16.65-1.76a14,14,0,0,0,8.06-8.05,8.92,8.92,0,0,0-.8-7.63c-.79-1.39-2.14-2.52-2.83-3.95-1.51-3.14-.41-5.21,1.92-7.4,3.38-3.18,6-7.4,1.69-11.2-2.83-2.49-6.58-2.9-8.06-6.8s-.19-8.74-.47-12.9c-.43-6.37-4.06-11.16-10.56-12.23-8.59-1.41-16.23,4.81-24,7.29-10.33,3.3-21.19,4.11-31.33,8.13A89.33,89.33,0,0,0,676.36,47.4a94,94,0,0,0-19,20.44c-6.72,9.82-10.79,21.22-18.14,30.63C638.06,100,640.17,102.11,641.36,100.58Z" transform="translate(1 1.42)"/><path class="cls-1" d="M665.15,179.42c-2.42,9,3,18.14,8.16,25.74,4.88,7.2,10.1,14.7,17.67,18.3a39,39,0,0,0,10.84,2.93,151.51,151.51,0,0,0,24.57,1.82c4.3,0,8.78-.3,12.54-2.55s6.52-7.06,5.31-11.5c-1-3.51-4.13-7.15-2.23-10.18s7.37-2.27,7.95-5.81c.46-2.85-3-4.39-5.68-4.68C735.66,192.56,670.2,187,665.15,179.42Z" transform="translate(1 1.42)"/><path d="M663.71,179c-2.39,11.13,4.07,20.85,10.16,29.61,5.49,7.88,11.68,15.23,21.26,17.94a101.37,101.37,0,0,0,36.13,2.93c7.29-.77,15.45-5.55,14.73-14-.44-5.12-6.06-9.68.88-12.77,2.34-1,4.64-2.17,4.58-5.13-.12-5.09-6.46-5.55-10.31-5.93-12.65-1.24-25.31-2.53-37.91-4.25-7.81-1.07-15.63-2.24-23.32-3.95-3.55-.79-11-1.6-13.46-4.81-1.14-1.53-3.75,0-2.59,1.51,4.08,5.45,15.21,6.28,21.25,7.4,12.06,2.25,24.26,3.73,36.45,5.08q7.64.85,15.29,1.59c1.75.17,3.51.33,5.26.51.52.06,1.06.07,1.58.16s.83.08,1.38.21q2.57,0,2.25,2.35,1.17,2.11-1.23,2.35c-1.85,1.25-4.07,1.25-5.35,3.39-1.68,2.8-.22,5.72.91,8.39,6.68,15.81-15.08,15.41-24.71,14.88-12.86-.72-25.66-1.76-34.71-11.89-7.79-8.71-18.24-22.48-15.6-34.78C667,177.94,664.11,177.14,663.71,179Z" transform="translate(1 1.42)"/><path class="cls-1" d="M663.64,92.29c18.53-4.94,37.84-8.11,56.72-5,19,3.13,36.89,12.51,56,14.63a33.26,33.26,0,0,0,12.11-.47c4.72-1.24,8.95-4.06,12.78-7.27a73,73,0,0,0,13.27-14.66c2-2.9,4-6.17,7.26-7.19,5.07-1.6,10.19,3.66,11.07,9.27S831.75,92.8,830,98.15s-3.42,11.21-1.79,16.62c2.45,8.12,11.82,14.25,9.81,22.5-1.85,7.59-11.89,9.17-15.44,16-3.32,6.42.37,14.35,4.47,20.22s9,12.33,8,19.6c-.7,5.3-4.88,9.84-9.81,10.65-6.72,1.1-13-4.28-16.51-10.54s-5.14-13.53-8.35-20-8.81-12.38-15.61-12.37c-3.46,9.49-10.76,17-19.12,21.79s-17.76,7.17-27.16,8.58c-43.14,6.51-87.14-5.94-126.66-25.65-5.08-2.53-10.21-5.27-14.14-9.56h0a42.09,42.09,0,0,1-7.58-13c-2.09-5.3-1.46-6.73,2.13-11a99.75,99.75,0,0,1,20.92-18.31C628.6,103.47,646.05,97,663.64,92.29Z" transform="translate(1 1.42)"/><path d="M664,93.73C678.7,89.88,693.76,87,709,87.64c14.77.61,28.46,5.47,42.41,9.9,11.36,3.61,25.5,8.55,37.5,5.35,10.48-2.79,19.28-12.14,25.49-20.58,1.95-2.65,3.79-6.63,6.86-8.12,4.72-2.28,8.73,2.4,9.87,6.41,2.27,8-2.94,16.1-4.49,23.75-1,4.69-.85,9.32,1.22,13.68,2.38,5,7.27,9.18,8.6,14.67,2.63,10.88-14.22,13.25-16.38,23-2.51,11.36,8.12,19.64,12.08,29.05,1.77,4.22,2.25,8.91-.43,12.91a10,10,0,0,1-11.7,4.11c-8.31-2.82-11.69-12.26-14.44-19.68-3.64-9.82-8.72-22-20.83-22.74a1.54,1.54,0,0,0-1.45,1.1c-8,20.57-30,27.67-50.16,30-20,2.3-40.27.62-59.84-3.84a269.79,269.79,0,0,1-58.3-21.1c-8.51-4.16-16.12-8.48-20.8-17.07-2.18-4-5.18-9-2.49-13.33s7-8,10.78-11.31c17.42-15.35,39.39-24.11,61.55-30.08a1.5,1.5,0,0,0-.8-2.89c-21.59,5.82-42.78,14.27-60.21,28.6A89.85,89.85,0,0,0,591.16,131c-2,2.41-4,4.82-3.71,8.13.64,7.84,6.88,16.64,12.92,21.37,8.4,6.58,19.27,10.69,29,14.82A268.21,268.21,0,0,0,662,186.87c22.19,6.17,45.46,9.13,68.45,6.88,22.47-2.19,46.77-9.53,55.71-32.47l-1.45,1.1c15.8.9,16.93,23.32,23.89,33.57,5.39,7.94,16.37,13.53,24.11,5.22,9-9.69.26-21.07-5.33-29.7-4.32-6.68-7.21-15.18-.41-21.24,3.64-3.24,8.53-5.16,11.11-9.5,6.2-10.39-6.95-18.45-8.8-27.81-2.47-12.51,11.89-27.32,1.61-38.74-9.67-10.74-17.51,5.19-23.07,11.47-4.93,5.57-11,11.43-18.21,13.87-7.74,2.62-16.68.71-24.39-1.14-16.36-3.94-31.86-11.13-48.69-13.14-18-2.14-36,1-53.33,5.6A1.5,1.5,0,0,0,664,93.73Z" transform="translate(1 1.42)"/><path class="cls-1" d="M710.73,125.64c6.3-3.47,12.84-7.41,19.91-7.14A5.33,5.33,0,0,1,733,119c2.42,1.33,2.4,5.1,1.45,7.83s-2.53,5.47-2,8.35c.71,4.19,5.49,6.6,6,10.82.53,4.77-4.72,8.45-4.59,13.26.08,2.78,2,5.35,1.53,8.09a5.91,5.91,0,0,1-4,4.36,15.39,15.39,0,0,1-5.94.45c-5.72-.32-11.74-.81-16.48-4.26-4.31-3.14-6.92-8.26-9.84-12.9s-6.72-9.24-11.84-10.25c-.72-.14-1.56-.28-1.9-1a2.6,2.6,0,0,1,.35-2.24h0c2.37-4.71,3.43-9.15,8.35-10.53C700,129.37,705.05,128.7,710.73,125.64Z" transform="translate(1 1.42)"/><path d="M711.49,126.94c3.43-1.9,24.26-13.25,21.91-1.7-1.18,5.77-4.1,9.22-.34,14.62,2.45,3.52,5.09,5.66,2.89,10.29-1,2.09-2.51,4-3.17,6.21a11.2,11.2,0,0,0,.36,6.71c2.17,7.37-4.16,7.87-9.29,7.52-8.73-.6-15-3.08-19.89-10.56-3.18-4.86-5.8-10.39-10.56-14-1.23-.92-5.54-2.25-6.08-3.25-.7-1.31,2.19-6.16,3.22-7.52,2.52-3.32,6.94-3.58,10.7-4.56a51.78,51.78,0,0,0,10.25-3.8c1.73-.87.21-3.46-1.51-2.59a61.64,61.64,0,0,1-12.86,4.33c-2.63.67-5.31,1.19-7.39,3s-3,4.22-4.12,6.55c-.73,1.54-2.33,3.91-1.72,5.72s2.11,1.88,3.66,2.4c4.43,1.47,7.37,4.95,9.85,8.75,3.5,5.36,6.38,11.55,12.11,14.94,6.09,3.6,27.84,8.23,27.42-4.07-.14-4.06-2.42-6.75-.33-10.88,1.25-2.47,3.08-4.77,3.32-7.64a9.27,9.27,0,0,0-1.92-6.15c-.63-.93-1.39-1.76-2.06-2.66-2-2.75-2.08-5.83-.94-9,1.56-4.27,3.2-11.18-2.92-12.58-7.48-1.71-15.94,3.79-22.1,7.2C708.28,125.28,709.79,127.87,711.49,126.94Z" transform="translate(1 1.42)"/><path class="cls-1" d="M600.09,158.42a60.73,60.73,0,0,0,20.69-5.36c3.91-1.79,7.93-4.32,9.53-8.54" transform="translate(1 1.42)"/><path d="M600.09,159.92c10.49-1,26.56-3.91,31.52-14.65.8-1.74-1.78-3.27-2.59-1.51-4.45,9.65-19.43,12.3-28.93,13.16-1.91.17-1.93,3.17,0,3Z" transform="translate(1 1.42)"/><path class="cls-1" d="M622.83,123.69a7.72,7.72,0,0,0,7.3,5.29,3.69,3.69,0,0,0,3.32-1.85,5.29,5.29,0,0,0,.36-2.1q.06-2.15-.07-4.31a8.82,8.82,0,0,0-.7-3.35h0C629.27,109.74,620.33,116.3,622.83,123.69Z" transform="translate(1 1.42)"/><path d="M621.38,124.09c1.61,4.14,6.37,7.9,11,5.91,2.5-1.08,2.92-3.34,3-5.82s.11-5.3-1-7.56c-1.72-3.48-5.58-5.29-9.12-3.25-3.74,2.15-5,6.76-3.82,10.72.55,1.84,3.45,1.06,2.89-.8a6.35,6.35,0,0,1,1.47-6.6c1.71-1.61,3.92-1.59,5.36.35a6.79,6.79,0,0,1,1.13,3.69c.13,1.59.49,3.83,0,5.34-.58,1.75-2.78,1.59-4.16,1.09a6.56,6.56,0,0,1-3.79-3.86C623.58,121.51,620.68,122.28,621.38,124.09Z" transform="translate(1 1.42)"/><path d="M625.61,127.41c2.25-1.07,2.81-4.18,3-6.81a8.69,8.69,0,0,0-.26-3.78,2.65,2.65,0,0,0-2.77-1.89,8.1,8.1,0,0,0-3.13,6.54A7.93,7.93,0,0,0,625.61,127.41Z" transform="translate(1 1.42)"/><path d="M626.37,128.71c3.22-1.89,3.9-6.2,3.85-9.65,0-2.7-2.41-7.44-5.74-5.15-5.09,3.5-4.21,11.4.38,14.8,1.55,1.15,3.05-1.45,1.51-2.59a6.41,6.41,0,0,1-1-8.87c.12-.15.78-1.06,1-1,.89.09.84,3.15.78,4-.14,2-.36,4.76-2.31,5.9A1.5,1.5,0,0,0,626.37,128.71Z" transform="translate(1 1.42)"/><path class="cls-2" d="M475.35,132.66" transform="translate(1 1.42)"/><path class="cls-2" d="M630.68,128.53" transform="translate(1 1.42)"/><path d="M674.73,89.85c2.27-6.23,10.81-9.91,16.21-13.06,5.55-3.25,11.69-5.71,17-9.26,4.28-2.84,7.79-6.6,11.54-10.07,4.07-3.77,9.27-6.2,13-10.25,1.31-1.41-.8-3.54-2.12-2.12-4,4.35-9.81,7.2-14.18,11.33-5,4.72-9.7,8.81-15.93,11.88a174.44,174.44,0,0,0-18.37,10.44c-4.16,2.72-8.34,5.48-10.1,10.32-.66,1.82,2.24,2.6,2.89.8Z" transform="translate(1 1.42)"/><path d="M716.25,86.2c2.84-8.87,14.66-12.38,22.27-15.67,8.76-3.78,12.74-10.47,18-18.08,1.11-1.59-1.49-3.09-2.59-1.51-3.21,4.6-6.22,10.36-10.79,13.73-3.86,2.84-8.68,4.25-13,6.18-6.66,2.95-14.43,7.17-16.8,14.56-.59,1.84,2.31,2.63,2.89.8Z" transform="translate(1 1.42)"/><path d="M685.42,192.18c-.92,8.37,4.29,13.95,12.11,15.64,5.73,1.24,9,4.71,14,7.15a20.45,20.45,0,0,0,12,1.57c1.9-.27,1.09-3.16-.8-2.89a17.61,17.61,0,0,1-12.54-2.91c-2.42-1.57-4.54-3.53-7.27-4.61-3.27-1.29-7.14-1-10.15-3-3.64-2.39-4.89-6.83-4.44-10.93.21-1.92-2.79-1.9-3,0Z" transform="translate(1 1.42)"/><path d="M711.37,194.08c.89,9.53,11,6.7,17.25,10.11,1.7.93,3.21-1.66,1.51-2.59a20.15,20.15,0,0,0-7.41-2.46c-3.66-.43-7.9-.33-8.35-5.06-.18-1.91-3.18-1.92-3,0Z" transform="translate(1 1.42)"/><path class="cls-1" d="M422.68,229.14h0A208.17,208.17,0,0,0,415.07,183c-5.46-18.7-10.09-22.62-7.46-26.46,3.6-5.24,16-3.44,24.63,1.67,6.6,3.93,8.86,8.58,19.87,25.41,12.17,18.61,10,14.86,15.89,23.54,8.75,13,17.7,26.39,21,42,2,9.47,3,21.24,11.22,25.21,5.05,2.44,10.72-.87,20.43-6.25,12.22-6.77,14.06-11.21,25.88-17,8-3.92,12.74-6.13,17.65-4.25,9.18,3.51,11.54,18.46,11.78,19.83,4.42,25.5-12.84,53.06-36.48,58.23-6.23,1.36-13.17,1.57-17.94,6.08s-5.89,12.13-4.88,18.85c3,19.75,20.87,34.91,21,54.91,0,3-.41,6.11-2,8.54a15.66,15.66,0,0,1-6.25,4.91c-10.65,5.44-23.76,7.73-34,1.36-9.84-6.15-14.5-18.69-17-30.64-2.1-10.21-3.82-21.92-11.93-27.69a6.07,6.07,0,0,0-3.67-1.38c-.81,0-3,.57-5.3,5.09-5.43,10.54-6.28,32.34-14.52,45.66-6.88,11.12-18.34,15.4-28.26,19.11a48.12,48.12,0,0,1-21.62,2.9,18.92,18.92,0,0,1-9.19-3.19c-1.63-1.14-5.75-4-6.46-8.21-.85-5,3.64-9,13.92-20.27,6.53-7.14,9.79-10.71,12.51-14.13,6.36-8,16.23-20.76,16.66-37,.07-2.47.32-12.33-4.2-14.7-2.59-1.36-5.33.49-10.4,2.42,0,0-3.85,1.46-18.76,3.86-18.45,3-24.75-5.36-44.31-3.1A66.66,66.66,0,0,0,327.61,342c1.78-23.19,9.41-34.17,15.64-39.88,20-18.3,49.62-4.57,66.86-26.74,5.43-7,8.77-16.41,9.07-17.27A69.76,69.76,0,0,0,422.68,229.14Z" transform="translate(1 1.42)"/><path d="M424.18,229.14a205.7,205.7,0,0,0-7.94-47.49c-2-6.82-5.11-13.22-7.27-20-2.56-8,8.36-7.23,13.47-5.94,14.76,3.73,20.66,16.79,28.37,28.59,5.66,8.66,11.58,17.12,17.35,25.71,5.93,8.82,11.82,17.83,15.78,27.74,3.43,8.58,4,17.71,6.87,26.4,1.78,5.36,5.25,11.2,11.28,12.29,6.59,1.19,13.95-4.07,19.3-7.1,7.56-4.28,13.9-10.21,21.36-14.58,7.15-4.18,18-11.1,25.14-3.53,9.29,9.91,8.44,28.13,4.51,39.85-5.57,16.6-18.85,29.71-36.25,32.91-7.68,1.41-15.44,3-19.15,10.73-3.27,6.78-2.49,14.85-.33,21.83,5.06,16.36,19.59,30.33,19.51,48.16,0,6.56-3.27,10.17-9,12.88a42.09,42.09,0,0,1-16.53,4.27c-11.48.34-20.17-6.27-25.16-16.24-4.29-8.56-5.4-17.92-7.67-27.1-1.61-6.53-4-13.43-9.45-17.8-12.52-10.11-16.53,17.05-18.13,24.13-1.91,8.49-3.83,17.48-8.49,25-5.39,8.66-14.35,13.41-23.58,17-7.21,2.8-14.5,4.88-22.34,4.48-7.06-.35-21.07-5.9-15.54-15.26,4.42-7.48,12-13.74,17.74-20.13a169.9,169.9,0,0,0,11.86-14.45c8.28-11.46,15-26.63,11.45-41.05-1.21-4.94-4.37-8.28-9.63-6.76-3.84,1.11-7.19,2.85-11.11,3.73-8.65,1.95-17.73,3.91-26.62,2.81-7.42-.91-14.51-3.4-22-3.74a64.77,64.77,0,0,0-24.76,4.05l1.9,1.45c1-11.66,3.4-23.94,10.48-33.56,6.35-8.65,15.9-13,26.22-15s21.4-2.09,31.32-6.31c10.51-4.47,17-13.43,21.5-23.64a71.09,71.09,0,0,0,5.56-34.37c-.16-1.91-3.16-1.93-3,0,1.88,23-7.22,51.14-31.83,57.45-10.71,2.75-22,2.53-32.55,6.06a39.76,39.76,0,0,0-20.06,14.63c-7.15,10.06-9.61,22.65-10.63,34.72a1.51,1.51,0,0,0,1.9,1.45c9.51-3.42,19.72-4.94,29.76-3.35,7.25,1.15,14.21,3.47,21.62,3.49,8,0,16.45-1.81,24.24-3.78,4.4-1.11,11-6.11,13.95-1.17,3.89,6.58,1.16,18.5-1.15,24.89-3,8.23-8.1,15.48-13.53,22.26s-11.49,13-17.35,19.38c-3.44,3.74-8.8,8.37-9.52,13.75-.79,5.86,4.6,10.68,9.35,13.08,7.43,3.75,17.21,2.77,25,.71,14.88-3.92,29.94-11.61,36.53-26.2,3.59-7.95,5.28-16.6,7.19-25.06a106.77,106.77,0,0,1,3-11.5,25.36,25.36,0,0,1,2.6-5.74c2.34-3.53,4.79-3.12,7.81-.18,6.78,6.62,7.76,17.27,9.65,26.06C479,398.43,481.74,407,487,413.8c11,14.23,33.65,14.26,47.22,3.17,6-4.93,5.52-13.51,3.94-20.42-1.92-8.36-6.33-15.88-10.46-23.3-4.64-8.33-9.61-17.29-9.89-27.07-.14-5,1-10.56,4.76-14.12,4.22-4,10.44-4.33,15.83-5.4,15.7-3.12,28.19-14.86,34.7-29.2,5.46-12,6.82-26.29,2.29-38.86-1.92-5.31-5.1-11-10.66-13.12-6.9-2.63-14.67,2-20.61,5.15-7.84,4.09-14.23,10.24-21.8,14.75s-19.4,13.42-26.12,3.41c-4.84-7.21-4.69-17.08-7.08-25.19-3-10.22-8.31-19.59-14-28.51-6.06-9.41-12.63-18.48-18.79-27.84-4.73-7.19-9.15-14.65-14.22-21.6a30.87,30.87,0,0,0-10.34-9.48c-5.61-3-28.18-9.28-26.26,4.1.79,5.52,4.23,11.12,6,16.37a184.72,184.72,0,0,1,7.79,33.14c.93,6.43,1.54,12.89,1.9,19.38C421.29,231.06,424.29,231.07,424.18,229.14Z" transform="translate(1 1.42)"/><path class="cls-1" d="M433.59,262.6c3.32-3,9.24-3,11.43,1,1.79,3.3.51,7.59,1.55,11.24.43,1.5,1.25,2.94,1.18,4.51h0c-.26,5.45-14.83,6.79-17.84,3.93C425.56,279.19,429.86,266,433.59,262.6Z" transform="translate(1 1.42)"/><path d="M434.65,263.66c4.17-3.33,9.13-1.53,9.81,3.77.4,3.09.19,5.94,1,9,.72,2.6,1.23,3.8-1.45,5.26a16.11,16.11,0,0,1-6.3,1.56c-1.68.13-4,.29-5.61-.4-2.23-1-2.56-3.07-2.56-5.33,0-4.56,1.81-10.54,5.07-13.83a1.5,1.5,0,0,0-2.12-2.12c-4.47,4.51-7.71,14.31-5.25,20.42,2.25,5.57,10.29,4.8,15,3.53,2.42-.65,5.36-1.83,6.49-4.27a5.5,5.5,0,0,0,.31-3.38c-.47-2.77-1.43-5.18-1.52-8.06-.12-4-.67-8.17-4.7-10.06-3.54-1.66-7.45-.5-10.35,1.81C431,262.74,433.16,264.85,434.65,263.66Z" transform="translate(1 1.42)"/><path class="cls-1" d="M476.59,263.55c-2.85-3.55-8.7-4.49-11.44-.84-2.24,3-1.58,7.41-3.12,10.86-.64,1.42-1.66,2.7-1.8,4.26h0c-.52,5.43,13.7,9.15,17.07,6.81C482.17,281.26,479.79,267.54,476.59,263.55Z" transform="translate(1 1.42)"/><path d="M477.65,262.49c-2.59-2.79-6.58-4.49-10.36-3.13s-4.86,5.19-5.51,8.84c-.53,3-1.8,5.13-2.68,7.92a5.49,5.49,0,0,0-.21,3.28c.74,2.68,3.61,4.35,6,5.39,4.55,2,12.44,4.11,15.37-1.37,3-5.67,1.33-15.57-2.34-20.62-1.12-1.55-3.73-.05-2.59,1.51,2.66,3.67,3.57,9.16,3.25,13.6-.17,2.34-.64,5-3.14,5.84-1.76.57-4.23-.1-5.95-.54a16.84,16.84,0,0,1-5.72-2.42c-3-2.15-1.61-3.71-.41-6.47,1.1-2.54,1-5.27,1.81-7.84,1.73-5.21,6.74-5.8,10.39-1.87C476.84,266,479,263.9,477.65,262.49Z" transform="translate(1 1.42)"/><path d="M424,308.76c14.35,9.63,43.56,16.85,53.42-2.58.87-1.72-1.72-3.24-2.59-1.51-9,17.83-36.36,10.2-49.32,1.51-1.61-1.08-3.11,1.52-1.51,2.59Z" transform="translate(1 1.42)"/><path d="M427.35,300.11a13.35,13.35,0,0,0-4.93,5.8c-1.13,3-.69,6.2-.26,9.28.26,1.9,3.15,1.09,2.89-.8-.67-4.85-.31-8.6,3.81-11.69,1.53-1.15,0-3.75-1.51-2.59Z" transform="translate(1 1.42)"/><path d="M431.89,280.87h0a4.92,4.92,0,0,1,.94-3.9,5.86,5.86,0,0,1,3.28-2.08,2.82,2.82,0,0,1,2,.11,2.69,2.69,0,0,1,1.2,1.67,8.25,8.25,0,0,1,.23,2.14,3.15,3.15,0,0,1-.35,1.82,2.62,2.62,0,0,1-1.81.9C436,281.79,432.33,283,431.89,280.87Z" transform="translate(1 1.42)"/><path d="M433.33,280.47a3.57,3.57,0,0,1,1.73-3.53,3.39,3.39,0,0,1,2.07-.68c.94.22.95,1.8.91,2.55-.05.94-.27,1.1-1.16,1.3l-1.19.26c-.37.08-2.22.53-2.35.09-.56-1.84-3.45-1.06-2.89.8.8,2.67,3.65,2.5,5.89,2a8.54,8.54,0,0,0,3.34-1.06c1.44-1,1.46-2.9,1.32-4.51a4.2,4.2,0,0,0-6.47-3.87,6.69,6.69,0,0,0-4.08,7.41C430.84,283.16,433.73,282.36,433.33,280.47Z" transform="translate(1 1.42)"/><path d="M465.37,276.87a4.13,4.13,0,0,1,1.55-3.06,6.3,6.3,0,0,1,1.9-.91,3.82,3.82,0,0,1,2.43-.21c1.27.44,1.88,2,2.08,3.4a4.41,4.41,0,0,1-.1,2.06,3.19,3.19,0,0,1-1.71,1.78,7.14,7.14,0,0,1-2.38.53h0C466.86,280.66,465.25,279.64,465.37,276.87Z" transform="translate(1 1.42)"/><path d="M466.87,276.87a3.41,3.41,0,0,1,3.41-2.79c1.38.07,2,2.61,1.48,3.72S469.6,279,468.55,279c-1.36-.05-1.69-.83-1.68-2.12a1.5,1.5,0,0,0-3,0c0,2.81,1.55,5,4.49,5.11s6.11-1.17,6.49-4.32c.34-2.75-1.12-6.53-4.33-6.58a6.44,6.44,0,0,0-6.66,5.79C463.68,278.79,466.68,278.77,466.87,276.87Z" transform="translate(1 1.42)"/></svg>