<?xml version="1.0" encoding="utf-8"?>
<!-- Generator: Adobe Illustrator 21.1.0, SVG Export Plug-In . SVG Version: 6.00 Build 0)  -->
<svg version="1.1" id="Layer_1" xmlns="http://www.w3.org/2000/svg" xmlns:xlink="http://www.w3.org/1999/xlink" x="0px" y="0px"
	 viewBox="0 0 960 560" style="enable-background:new 0 0 960 560;" xml:space="preserve">
<style type="text/css">
	.st0{fill:#FF7171;}
	.st1{fill:#52BA00;}
	.st2{fill:#FFF810;}
	.st3{fill:#F9BD00;}
	.st4{fill:#57DFFF;}
	.st5{fill:#2711F7;}
	.st6{fill:#83FF22;}
	.st7{fill:#E00000;}
	.st8{fill:#FF9100;}
	.st9{fill:#CE91F2;}
	.st10{fill:#A6ECF4;}
	.st11{fill:#FFFFFF;}
	.st12{fill:#FFFFFF;stroke:#000000;stroke-miterlimit:10;}
	.st13{fill:#FF4AD4;}
	.st14{fill:#FFFF00;}
</style>
<g>
	<path class="st0" d="M891.1,421.3h-23.9c-7.9,1.2-15.6,3.2-23.5,5.3c-13.6,3.6-27.3,7.1-41.4,8c-16,1.1-31.9-1.7-47.7-4.3
		c-17-2.8-33.9-5.9-51.1-7.4c-34.6-3-69.2,3.1-103.8,3c-17.4,0-34.7-2.5-52.1-3.5c-16.8-0.9-33.6-1.1-50.3-0.3
		c-8.6,0.4-17.3,1-25.9,1.8c-8.7,0.8-17.2,3-25.8,4.9c-16.3,3.4-32.6,3.4-49.2,3.2c-17.2-0.2-34.3-0.4-51.4-1.8
		c-17-1.3-34-3.2-51-4.3c-17.2-1-34.3-1-51.5,0.8c-17.2,1.8-34.3,4.9-51.4,7.8c-15.9,2.8-31.9,5.7-48,6.7c-16.2,1-32.5,0.3-48.6-2.1
		c-15.4-2.3-30.4-6.4-45.4-10.6c-7.9-2.2-16.1-4.3-24.4-4c-7.5,0.2-14.9,1.2-22.3,2v132.7H958V436.9
		C935.3,434.7,913.7,424.7,891.1,421.3z"/>
	<g>
		<path d="M891.1,419.8c-5.9,0-11.8,0-17.7,0c-9.1,0-17.6,2.1-26.5,4.4c-15.3,4-30.7,8.3-46.6,9.1c-15.2,0.8-30.4-1.9-45.4-4.3
			c-14.6-2.4-29.2-5-43.9-6.7c-15.6-1.7-31.1-1.8-46.8-1.1c-30.7,1.5-60.9,4.6-91.6,1.9c-30.7-2.6-61.2-3.7-92-1.3
			c-14.3,1.1-27.9,4.7-42,6.9c-15.3,2.4-30.8,2.1-46.1,1.9c-15.8-0.2-31.6-0.5-47.4-1.7c-15.7-1.2-31.4-2.9-47.1-4
			c-30.4-2.1-60,0.3-90.1,5.4c-17.7,3-35.3,6.6-53.1,8.6c-16.8,1.9-33.7,1.9-50.5,0.1c-18-1.9-35.4-6.4-52.8-11.3
			c-7.5-2.1-15-4.2-22.8-4.5c-8.7-0.4-17.5,1-26.1,1.9c-0.8,0.1-1.5,0.6-1.5,1.5c0,38.8,0,77.5,0,116.3c0,5.5,0,11,0,16.4
			c0,0.8,0.7,1.5,1.5,1.5c8.5,0,17,0,25.5,0c23.2,0,46.3,0,69.5,0c34.3,0,68.5,0,102.8,0c41.8,0,83.6,0,125.5,0
			c45.8,0,91.6,0,137.4,0c46.2,0,92.5,0,138.7,0c43.1,0,86.2,0,129.3,0c36.4,0,72.9,0,109.3,0c26.2,0,52.4,0,78.6,0
			c12.4,0,24.8,0.3,37.2,0c0.5,0,1.1,0,1.6,0c0.8,0,1.5-0.7,1.5-1.5c0-35.7,0-71.5,0-107.2c0-5.1,0-10.1,0-15.2
			c0-0.9-0.7-1.4-1.5-1.5c-22.8-2.4-43.9-12-66.5-15.6c-1.9-0.3-2.7,2.6-0.8,2.9c22.8,3.6,44.3,13.2,67.3,15.7c-0.5-0.5-1-1-1.5-1.5
			c0,35.7,0,71.5,0,107.2c0,5.1,0,10.1,0,15.2c0.5-0.5,1-1,1.5-1.5c-8.5,0-17,0-25.5,0c-23.2,0-46.3,0-69.5,0
			c-34.3,0-68.5,0-102.8,0c-41.8,0-83.6,0-125.5,0c-45.8,0-91.6,0-137.4,0c-46.2,0-92.5,0-138.7,0c-43.1,0-86.2,0-129.3,0
			c-36.4,0-72.9,0-109.3,0c-26.2,0-52.4,0-78.6,0c-8.1,0-16.3,0-24.4,0c-4.1,0-8.7-0.6-12.8,0c-0.5,0.1-1.1,0-1.6,0
			c0.5,0.5,1,1,1.5,1.5c0-38.8,0-77.5,0-116.3c0-5.5,0-11,0-16.4c-0.5,0.5-1,1-1.5,1.5c7.4-0.8,14.8-1.9,22.3-2
			c8.2-0.1,16.1,1.8,24,4c15,4.1,30,8.4,45.4,10.6c29.6,4.3,58.5,2.1,87.9-2.9c31.3-5.4,62.3-11.3,94.2-10.9
			c30.9,0.4,61.6,5.2,92.5,6.2c15.5,0.5,31.1,0.9,46.7,0.5c14.9-0.4,28.9-3.1,43.4-6c14.8-3,30.2-3.6,45.2-4
			c15.2-0.5,30.4-0.2,45.5,0.7c15.4,1,30.8,3,46.3,3.3c15.7,0.3,31.3-0.9,47-2c15-1,30-2.1,45-1.8c16,0.3,31.8,2.4,47.5,5
			c16.5,2.7,33,6.1,49.7,7.3c16.3,1.2,32.1-1.2,47.9-5.1c12.3-3,25.2-8.1,38-8.1c6.7,0,13.5,0,20.2,0
			C893,422.8,893,419.8,891.1,419.8z"/>
	</g>
</g>
<g>
	<path class="st1" d="M819.4,452.5c3.8-11.4,10.2-22,11.6-34c0.3-2.2,0.3-4.6-0.6-6.7c-2.3-5.1-9.1-5.2-14.2-3.5
		c-7.3,2.4-13.9,6.6-21.1,9.2c-7.2,2.6-15.6,3.4-22-0.9c-4.3-2.9-7.1-7.6-10.9-11.1c-4.5-4.3-10.4-6.8-16.4-7.1
		c-3.1-0.2-6.2,0.2-9.2-0.7c-3-0.9-5.7-3.7-5.5-7c0.2-2.5,2-4.5,4-5.6c5.1-3,11.5-2.1,17,0.1c5.5,2.1,10.6,5.4,16.3,6.9
		c19.2,5.1,38.4-10.6,58.2-9.6c3.9,0.2,8.3,1,11.5-1.6c4.2-3.3,3.6-10.9-0.1-14.9c-3.7-4-9.3-5-14.5-5.2c-5.2-0.1-10.5,0.5-15.6-0.8
		c-11-2.8-19.7-14.4-31-13.7c-2.9,0.2-5.8,1.2-8.6,0.5c-2.8-0.7-5.3-4.4-3.6-6.9c0.7-1.1,1.9-1.6,3-2c9.7-3.8,20.3-5.1,30.5-3.6
		c6,0.9,12.1,2.7,18.1,1.7c6-0.9,12.2-5.6,12.5-12.2c0.5-11.6-15.8-16.5-17.5-28c-1.3-8.5,8.7-16.2,15.7-12.1
		c3.8,2.2,6.1,6.8,9.9,9.1c6.2,3.8,14.2,0.3,19.1-5.2c4.9-5.5,7.9-12.6,12.3-18.6c1.1-1.5,2.3-2.9,3.9-3.6c4.2-1.9,9,2.6,9.6,7.5
		c0.6,5-1.5,9.8-4,13.8c-14.7,23.3-24.2,27.3-25.4,38.4c-1,9.3,4.7,16.9,6.5,19.3c10.4,14.1,30.1,14.9,42.8,11.3
		c20.9-5.9,30.9-26,33.4-24.2c1.4,1-0.5,8.6-18,41.1c-8.4,4-18,5.1-27,2.9c-8.4-2-17.3-6.8-25.2-3.1c-6.8,3.2-10.2,11.8-10.5,19.8
		c-0.3,8,1.6,15.9,2.3,23.9c0.2,2.3,0.6,5.1,2.6,6c1.3,0.6,2.8-0.1,4.1-0.7c8.9-4.6,16.5-11.6,24.7-17.3c8.3-5.8,17.8-10.4,27.6-9.4
		c5.4,0.6,12.4,2.1,15.1-3c-3.5,9.3-10.2,17.2-18.6,21.6c-7.6,4-16.6,5.3-23.2,11.1c-5.5,4.8-8.7,12.3-14.4,16.9
		c-5.5,4.4-13.2,6-16.9,12.2c-5.3,8.8,0.4,21.5-4.4,30.7c-3.9,7.6-13.3,9.5-21.3,9.5c0,0,0,0,0,0C814.6,493.7,815.2,465,819.4,452.5
		z"/>
	<g>
		<path d="M820.8,452.9c3.4-9.7,8.5-18.9,10.8-29c1.4-6.2,2.5-14.5-4.7-17.3c-6.8-2.7-14.3,1.2-20.4,4.1c-9.2,4.4-21.1,11-31.3,5.4
			c-7.9-4.4-11.5-13.3-20.1-17c-3.6-1.6-7.3-2.2-11.2-2.3c-3.1-0.1-7.5,0.4-9.7-2.3c-5.4-6.4,4.2-9.9,8.5-9.9
			c10.3,0,18.5,8,28.5,9.5c8.5,1.3,16.9-0.9,24.9-3.4c9.1-2.9,18.3-6.7,28.1-6.8c6.2-0.1,14.2,1.8,17.3-5.3c2.3-5.1,0.2-11.4-4-14.9
			c-7-5.8-16.4-3.8-24.7-4.4c-9.4-0.6-16-7-24-11.2c-2.9-1.5-6-2.8-9.3-3.1c-1.7-0.2-3.3,0-5,0.2c-1.3,0.2-5.1,1.2-6.1,0.3
			c-0.5-1.9-0.9-3.8-1.4-5.7c1.4-0.6,2.8-1.1,4.2-1.6c11.3-3.7,22-3,33.5-1.1c7.5,1.2,15.5,1.4,21.2-4.4c4.3-4.3,5.2-10.5,2.4-15.8
			c-3.1-5.9-9.1-9.5-13-14.8c-2.7-3.7-4.1-8.3-1.6-12.6c3.1-5.2,9.5-7,14.2-2.9c5.7,5,9.1,10.9,17.7,8.9c7.9-1.7,12.9-8.3,16.9-14.8
			c2.2-3.6,4.2-7.5,6.8-10.9c3.3-4.4,8-3.7,10,1.1c1.5,3.6,0.5,7.5-0.9,10.9c-3.8,8.5-10.4,16.3-16.3,23.5
			c-3.2,3.8-6.7,7.5-9.1,11.9c-5.7,10.6-0.8,23.4,7.2,31.4c9.8,9.9,25.2,12,38.3,9.3c13.5-2.8,23.5-11.7,32.5-21.6
			c0.9-1,2.8-2.3,3.4-3.4c0-0.1-0.9-0.4-0.8-0.4c0.1-0.2,0,0.5,0,0.6c-0.4,0.6-0.5,2.2-0.8,2.9c-0.6,1.9-1.4,3.8-2.2,5.6
			c-2.7,6.3-5.8,12.4-9,18.5c-2.7,5.1-4.5,10.8-10.2,13c-5.1,2-11.3,2.4-16.7,1.8c-9-1-17.7-6.7-26.9-5c-7.1,1.3-11.7,7-13.8,13.6
			c-2.8,8.4-1.3,17.3-0.1,25.8c0.7,4.8-0.1,16.6,8.1,14.3c3.8-1.1,7.5-4.1,10.7-6.3c4.4-3.1,8.5-6.5,12.8-9.7
			c8.7-6.4,18.6-12.2,29.7-11.3c6,0.5,12.5,2.1,16.4-3.7c-0.9-0.4-1.8-0.8-2.7-1.2c-3.1,7.8-8.2,14.6-15.3,19.2
			c-6.3,4-13.8,5.5-20.4,9c-6.1,3.3-9.8,8.5-13.9,13.9c-2.4,3.2-4.8,6-8.2,8.2c-3,1.9-6.3,3.3-9.2,5.2c-4.8,3.2-7.6,7.5-8.4,13.2
			c-1,7.3,1.3,15.1-1.5,22.1c-4.4,10.8-24.5,14.5-30.7,3.6C816.5,476.5,817.7,462.7,820.8,452.9c0.6-1.8-2.3-2.6-2.9-0.8
			c-3.1,9.7-3.8,21.7-0.4,31.4c3.7,10.5,12.4,12.9,22.7,10.9c6.1-1.2,12-4.3,14.7-10.2c3.3-7.1,1.3-15,1.9-22.4
			c0.9-11,9.8-12.9,17.4-18.4c6.7-4.7,9.8-12.7,15.8-18c7.6-6.6,18.5-7.5,26.7-13.2c7.2-5,12.3-12.1,15.4-20.1
			c0.7-1.7-1.9-2.5-2.7-1.2c-2.9,4.3-8.8,2.7-13.1,2.3c-4.7-0.5-9.3,0.1-13.9,1.6c-8.9,3-16.4,8.7-23.7,14.4c-4,3.1-8,6.1-12.3,8.8
			c-3,1.8-7.6,3.9-8.3-1.8c-0.3-2.3-0.5-4.6-0.8-6.8c-1.4-10.1-3.6-22,2.9-31c7.7-10.6,20.4-3.4,30.3-1.2c8.5,1.8,17.8,1.1,25.7-2.5
			c3.7-1.7,5-6.7,6.8-10.1c2-3.9,4-7.8,5.9-11.7c2.2-4.6,4.5-9.2,6.3-14c0.7-1.9,3.7-9.3-1-8.9c-2.6,0.2-5.2,4.4-6.7,6.1
			c-4.8,5.3-10.1,10.3-16.3,13.9c-13.7,7.9-34,9-46.6-1.6c-5.7-4.8-10.5-12.5-10.8-20.1c-0.3-5.9,2.3-10.5,5.8-14.9
			c4.2-5.3,8.6-10.3,12.6-15.7c4.9-6.8,11.8-15,11.2-23.9c-0.3-5.1-4.6-11.2-10.4-10.1c-6.8,1.3-10.7,12.5-14,17.6
			c-2.9,4.5-6.6,8.9-11.8,10.8c-6.4,2.3-10.6-1-14.7-5.4c-4.4-4.7-9.7-7.3-15.8-3.9c-5.1,2.9-8.1,8.8-6.7,14.6
			c1.5,6,6.4,10.1,10.6,14.3c2.6,2.6,5.5,5.5,6.4,9.3c1.4,6-3.1,11.2-8.5,13c-5.3,1.8-11,0.4-16.3-0.5c-5-0.9-9.9-1.4-14.9-1.2
			c-4.7,0.2-9.4,0.9-13.9,2.2c-2.9,0.8-8.2,1.8-10,4.8c-3.4,5.6,3.7,9.7,8.3,9.4c5-0.3,8.9-1,13.6,1c4,1.7,7.5,4.3,11.2,6.7
			c7.7,4.8,14.5,6.2,23.5,6.1c4.9,0,10.2,0,14.4,2.7c4.8,3,7.5,10.7,2.3,14.6c-3.9,2.9-10.1,1.1-14.8,1.4c-4.3,0.3-8.6,1.2-12.8,2.4
			c-9.1,2.6-17.9,6.5-27.3,7.8c-5,0.7-9.9,0.5-14.7-1.1c-5.1-1.6-9.6-4.5-14.6-6.4c-6.5-2.5-15.7-3.6-20.8,2.2
			c-4.3,4.9-1.3,11.4,4.5,13.2c4.4,1.4,9.2,0.3,13.6,1.4c5.4,1.3,9.8,4.4,13.4,8.4c5.8,6.3,10.6,12,19.8,12.4
			c8.7,0.3,16.5-3.8,24.1-7.4c4.7-2.2,9.9-5.1,15.3-4.9c8.9,0.4,7.4,9.8,5.8,16c-2.5,9.4-7.1,18.1-10.3,27.3
			C817.3,454,820.2,454.7,820.8,452.9z"/>
	</g>
</g>
<g>
	<path class="st2" d="M88.6,371.5L88.6,371.5c0.2-2.9,0.2-5.9-0.8-8.5c-1.3-3.3-4.2-5.6-6.6-8.2c-8.5-9.3-10.5-23.7-8.6-36.6
		s7.3-24.8,11.8-36.9s8.4-25,7.1-38c7.7,11.1,10.7,25.8,7.9,39.3c-1,4.9-2.7,9.7-2.4,14.6c0.3,5,3.7,10.2,8.3,10.2
		c3.2-8.2,3.3-17.3,3.3-26.1c0.1-15.3,0.1-30.9-4.6-45.3c-4.6-14-13.8-27-13.3-41.9c0.5-13.7,9-25.3,16.8-36.2s15.7-23.3,14.5-37
		c7.7,27-10,55.9-5.6,83.7c2.3,14.7,10.4,27.5,15.3,41.4c8.3,23.5,6.9,50.7-3.8,73.1c-7.4,15.6-19.3,29.8-19.7,47.3
		c-0.1,5.3,0.3,11.8-4,14.3c-1.4,0.8-3.1,1-4.6,1.7c-2.9,1.3-4.7,4.3-6.2,7.2c-7.5,14.8-9.3,30.2-9.5,46.8
		C77.3,416.6,87.4,391.8,88.6,371.5z"/>
	<g>
		<path d="M90.1,371.5c0.3-4.3-0.1-8.3-2.5-11.9c-2.8-4.1-6.8-7-9.3-11.4c-5.7-10.3-5.7-22.9-3.4-34.1c5.1-24,20.1-45.5,18.1-70.8
			c-0.9,0.3-1.9,0.5-2.8,0.8c8.4,12.6,10.3,27.2,6.9,41.8c-1.9,8-3.3,21.9,8.2,23.1c0.7,0.1,1.2-0.5,1.4-1.1
			c2.9-8,3.3-16.3,3.4-24.7c0.1-8.5,0.2-17.1-0.5-25.7c-0.7-8.5-2.2-16.9-5.2-24.9c-2.8-7.5-6.6-14.6-9.2-22.1
			c-2.9-8.4-3.9-16.8-1.4-25.4c2.4-7.9,7-15,11.8-21.7c9-12.7,19-25.9,18-42.3c-1,0.1-2,0.3-2.9,0.4c5.9,22.1-3.9,44.1-6,66
			c-1,10.6,0.2,20.8,3.8,30.8c3.9,10.7,9.5,20.6,12.9,31.5c6.9,22.4,5.4,47.5-4.7,68.7c-4.6,9.8-10.9,18.8-15.2,28.8
			c-1.7,4-3.2,8.2-3.9,12.5c-0.9,5-0.1,10.3-1.2,15.2c-1,4.4-3.9,4.6-7.4,6.3c-1.8,0.9-3.2,2.3-4.4,4c-3.1,4.2-5.1,9.7-6.8,14.6
			c-4,11.8-5,24.3-5.2,36.8c1-0.1,2-0.3,2.9-0.4C78.8,414.9,88.6,392.8,90.1,371.5c0.1-1.9-2.9-1.9-3,0
			c-1.5,21.6-11.3,43.9-4.4,65.4c0.5,1.6,2.9,1.3,2.9-0.4c0.2-11.9,1.1-23.8,4.8-35.1c1.7-5.1,3.9-12.7,8.2-16.3
			c3.6-3,7.9-2.3,10-7.1c1.4-3.3,1.2-7.2,1.3-10.8c0.1-6,1.5-11.8,3.8-17.3c4.2-10.5,10.9-19.7,15.7-29.9
			c8.9-18.9,11.4-40.6,7.5-61.1c-4.4-22.7-20.1-41.9-19.5-65.7c0.7-24.4,12.8-48.1,6.3-72.6c-0.4-1.6-3.1-1.3-2.9,0.4
			c1.1,18-11.6,31.5-20.9,45.5c-8.1,12.2-12.8,25.4-8.9,40c1.9,7.3,5.3,14.1,8.3,21c3.6,8.4,6.1,17.1,7.1,26.2
			c0.9,8.5,1,17.1,0.9,25.7c-0.1,9.3-0.1,18.6-3.3,27.5c0.5-0.4,1-0.7,1.4-1.1c-9.1-0.9-6.6-13.6-5.3-19.3c1.2-5.2,2-10.3,1.9-15.6
			c-0.3-10.2-3.4-20.1-9.1-28.6c-0.8-1.1-2.9-0.8-2.8,0.8c2.1,26.3-14.6,48.4-18.7,73.6c-1.5,9.2-1.2,19,2.1,27.8
			c1.5,3.9,3.5,7.5,6.2,10.7c1.7,2,3.9,3.7,5.4,6c2.1,3.1,2.3,6.5,2.1,10.2C87,373.4,90,373.4,90.1,371.5z"/>
	</g>
</g>
<g>
	<path class="st3" d="M87.6,330.2L87.6,330.2c-0.4-10.6-0.8-21.3,1.3-31.6c1.6-7.5,4.4-14.6,5.3-22.2c0,9.7-4,19.1-3.2,28.7
		c0.7,8.6,5.1,16.4,5.8,25c0.5,5.8-0.9,14.7-5.3,18.6C87.7,344.3,87.8,335.7,87.6,330.2z"/>
	<g>
		<path d="M89.1,330.2c-0.4-9.2-0.8-18.4,0.6-27.5c1.3-8.8,4.8-17.1,6-25.9c-1-0.1-2-0.3-2.9-0.4c-0.3,12.7-5.1,24-1.7,36.6
			c2.9,10.7,8.7,25.2-0.5,34.6c0.7,0,1.4,0,2.1,0C88.9,342.8,89.3,335.8,89.1,330.2c-0.1-1.9-3.1-1.9-3,0c0.2,6.7,0.1,14,4.4,19.5
			c0.5,0.6,1.6,0.5,2.1,0c7.4-7.6,6.5-20,3.8-29.3c-2.1-7.2-4.5-14-3.8-21.6c0.7-7.5,2.9-14.8,3.1-22.4c0-1.6-2.7-2.1-2.9-0.4
			c-1.3,9.4-5,18.3-6.2,27.7c-1.1,8.8-0.8,17.7-0.5,26.5C86.1,332.1,89.1,332.1,89.1,330.2z"/>
	</g>
</g>
<g>
	<g>
		<path d="M109.6,328.5c2.9-7.6,7.6-14.3,10.6-21.8c2.3-5.6,3.6-11.6,4.2-17.7c1.5-14.2-0.7-28.9-2.9-42.9c-1-6.4-2.4-12.9-5.2-18.8
			c-3.5-7.2-8.8-12.9-11.2-20.7c-4.6-14.8-1.1-31.1,9.2-42.6c1.3-1.4-0.8-3.6-2.1-2.1c-8.6,9.6-13.1,22.2-12,35.1
			c0.5,6.4,2.3,12.8,5.4,18.5c3.8,7.2,8.8,13,11,21c2.1,7.8,3,16,4,24c0.9,7.7,1.6,15.4,1.3,23.2c-0.3,8.5-2,16.9-5.6,24.6
			c-3,6.5-6.9,12.5-9.5,19.3C106.1,329.5,109,330.2,109.6,328.5L109.6,328.5z"/>
	</g>
</g>
<g>
	<path class="st4" d="M153.9,30.5c-1.3,2.5-2.4,5.2-3.1,8c-1.2,4.9-1.2,10-1.3,15c0,3.5,0.3,7.7,3.1,9.5c1.4,0.9,3.1,1,4.8,1
		c3.6,0.1,7.2,0.1,10.6-0.7c3.5-0.8,6.9-2.7,9-5.8c2.7-4,2.9-9.3,2.9-14.2c0-3,0.1-6.1,0.1-9.1c0-1.5,0-3-0.7-4.3
		c-0.6-1.2-1.7-1.9-2.9-2.6v0C170.4,23.8,157.9,22.8,153.9,30.5z"/>
	<g>
		<path d="M152.6,29.8c-3.2,6.4-4.3,12.9-4.5,20c-0.1,4.5-0.8,11.3,3.5,14.3c4.2,2.9,12.3,1.8,16.9,0.7c5.2-1.3,9.5-4.6,11.5-9.7
			c2.4-6.3,1.8-14.3,1.7-20.9c-0.1-4.6-1.8-7.2-6.1-9C167.9,21.9,157.2,22.1,152.6,29.8c-1,1.7,1.6,3.2,2.6,1.5
			c3.6-6.1,12.1-6,18.1-3.9c5,1.8,5.3,5.7,5.2,10.3c-0.1,4.4,0.2,9-0.6,13.3c-1.1,5.6-4.6,9.3-10.2,10.7c-4.5,1.2-14.7,2.1-16.2-3.3
			c-1.1-3.9-0.5-8.6-0.3-12.5c0.4-5.3,1.6-9.9,4-14.7C156,29.6,153.5,28,152.6,29.8z"/>
	</g>
</g>
<g>
	<path class="st5" d="M163.9,125.4c2.1,3.9,6.5,5.4,10.6,5.7c1.9,0.2,3.9,0.2,5.7-0.3c4-1.1,7.1-4.7,8.7-8.7
		c2.3-5.6,1.6-13-2.9-16.7l0,0c-4.3-3.5-14.4-5.3-18.7-0.7C163.1,109.2,160.9,119.6,163.9,125.4z"/>
	<g>
		<path d="M162.6,126.1c4.8,7.4,16.9,9,23.4,3c6-5.6,8.1-16.9,2.4-23.5c-4.6-5.2-15.2-7.3-21-3C160.9,107.5,159.4,119.1,162.6,126.1
			c0.8,1.8,3.4,0.2,2.6-1.5c-2.5-5.4-1.3-14.7,3.2-18.9c4-3.7,12.2-2.6,16.3,0.6c5.3,4.1,4.9,12.4,1.7,17.7
			c-4.4,7.2-16.4,8.1-21.2,0.7C164.2,123,161.6,124.5,162.6,126.1z"/>
	</g>
</g>
<g>
	<path class="st6" d="M236.7,172.3C236.7,172.3,236.7,172.3,236.7,172.3c-1.1,0.8-1.9,2.1-2.5,3.3c-1.6,2.9-2.9,6.1-3,9.4
		c0,3.3,1.6,6.9,4.5,8.1c1.1,0.5,2.3,0.6,3.4,0.6c2.3,0.2,4.6,0.2,6.9-0.4s4.4-1.9,5.7-3.9c1.7-2.6,1.8-6,1.8-9.2
		c0-1.1,0-2.3-0.3-3.4c-0.5-1.9-2-3.4-3.7-4.4C246.3,170.6,239.9,170,236.7,172.3z"/>
	<g>
		<path d="M236,171c-5.2,3.9-8,13.9-4.9,19.6c3.3,6.2,13.5,6.1,18.8,2.6c5.3-3.4,7-13.5,3.8-18.8C250.4,169,241.2,167.8,236,171
			c-1.6,1-0.1,3.6,1.5,2.6c3.5-2.1,9.9-1.8,12.8,1.3c3.4,3.6,2.1,13.1-1.9,15.8c-3.6,2.4-11.2,2.8-14.1-0.7
			c-3.3-3.9-0.7-13.4,3.2-16.4C239,172.5,237.5,169.9,236,171z"/>
	</g>
</g>
<g>
	<path class="st6" d="M194.4,168.5L194.4,168.5c0,1.5,0.7,3.1,2,3.8c1.6,0.9,3.7,0.1,5-1.3c1.3-1.4,2-3.6,1.1-5.3
		C200.2,161.1,194.3,163.7,194.4,168.5z"/>
	<g>
		<path d="M192.9,168.5c0.1,3.4,2.7,6.5,6.3,5.5c3.4-0.9,6-4.8,4.9-8.3c-0.9-2.7-3.8-4.5-6.6-3.7C194.7,162.8,193,165.6,192.9,168.5
			c0,1.9,3,1.9,3,0c0-2.3,2.8-5.3,4.8-2.8c1.3,1.6,0.3,3.9-1.2,4.9c-1.9,1.3-3.5,0-3.6-2.1C195.9,166.6,192.9,166.5,192.9,168.5z"/>
	</g>
</g>
<g>
	<path class="st5" d="M219.4,127L219.4,127c2.2,0.6,3.4,3.7,2.3,5.8C217.1,141.8,210.8,124.8,219.4,127z"/>
	<g>
		<path d="M219,128.5c1.2,0.3,1.8,1.9,1.6,3c-0.1,0.8-0.8,1.8-1.4,2.3c-0.1,0.1-0.2,0.1-0.5,0.2c0.4-0.1-0.3-0.1,0.1,0
			c-0.1,0-0.5-0.2-0.2,0c-0.5-0.2-0.8-0.6-1.1-1c-0.4-0.7-0.6-1-0.8-1.9c-0.1-0.5-0.1-0.4-0.1-0.9c0-0.2,0-0.4,0-0.6
			c0-0.3,0-0.2,0-0.2c0-0.1,0.1-0.3,0.1-0.4c0.1-0.2-0.1,0.1,0.1-0.2c0.1-0.2,0.2-0.3,0.3-0.3c0.2-0.1,0.4-0.2,0.6-0.2
			C218.2,128.3,218.5,128.4,219,128.5c1.9,0.5,2.7-2.4,0.8-2.9c-2-0.5-4.3-0.3-5.5,1.7c-0.9,1.6-0.8,3.6-0.2,5.3
			c0.5,1.6,1.5,3.3,3.1,4.1c2.1,1,4-0.3,5.2-2c2-3,1.2-8-2.7-9C217.9,125.1,217.1,128,219,128.5z"/>
	</g>
</g>
<g>
	<path class="st5" d="M205.5,96L205.5,96c0-0.8,0-1.6,0.5-2.2c0.4-0.4,0.9-0.5,1.4-0.6c0.8-0.2,1.6-0.4,2.4-0.5
		c0.5-0.1,1.1-0.2,1.6,0c0.6,0.2,1,0.9,1.2,1.5C214.9,100.6,205.9,104.8,205.5,96z"/>
	<g>
		<path d="M207,96c0-0.3-0.1-0.9,0.1-1.2c0.2-0.3,1.5-0.4,1.9-0.5c0.5-0.1,1.3-0.5,1.8-0.3c0.4,0.2,0.5,0.9,0.6,1.3
			c0.2,1.2,0,2.4-0.8,3.3c-0.6,0.6-1.4,1-2.1,0.8C207.3,99,207.1,97.1,207,96c-0.1-1.9-3.1-1.9-3,0c0.2,2.6,1,5.7,3.9,6.4
			c2.3,0.5,4.5-0.8,5.6-2.8c1.3-2.3,1.3-6.5-1.1-8.1c-1.6-1-4.2-0.2-5.9,0.3c-2,0.6-2.7,2.2-2.6,4.2C204.1,97.9,207.1,98,207,96z"/>
	</g>
</g>
<g>
	<path class="st4" d="M179.9,79.1L179.9,79.1c0.1-2.4,3-4,5-2.8C192.3,80.5,179.5,89,179.9,79.1z"/>
	<g>
		<path d="M181.4,79.1c0-0.9,0.9-1.6,1.7-1.7c0.9-0.1,1.8,0.5,2.3,1.2c0.5,0.7,0.4,1.6-0.2,2.4c-0.1,0.1-0.2,0.3-0.4,0.4
			c0,0-0.5,0.4-0.2,0.2c-0.3,0.2-0.6,0.4-0.9,0.5c0.3-0.1-0.2,0.1-0.2,0.1c-0.2,0-0.3,0.1-0.5,0.1c-0.3,0.1,0.2,0-0.2,0
			c-0.1,0-0.6-0.1-0.2,0c-0.1,0-0.3-0.1-0.4-0.1c0.4,0.1-0.1,0-0.2-0.1c0.3,0.3-0.1-0.1-0.2-0.2c-0.1-0.1-0.1-0.1,0,0
			c-0.1-0.1-0.1-0.2-0.1-0.2C181.4,81,181.3,80,181.4,79.1c0-1.9-3-1.9-3,0c-0.1,2.1,0.4,4.5,2.4,5.6c1.6,0.9,3.5,0.5,5-0.4
			c1.5-1,2.7-2.5,2.9-4.3c0.2-2.1-1.2-3.9-2.9-4.9c-3.1-1.9-7.3,0.4-7.4,4C178.3,81,181.3,81,181.4,79.1z"/>
	</g>
</g>
<g>
	<path class="st4" d="M196.6,56.1L196.6,56.1c-0.4-0.7-0.5-1.6-0.5-2.4c0-1.7,0.6-3.6,2-4.4c1.8-1,4.3,0.8,4.4,3
		C202.6,54.8,198.3,59,196.6,56.1z"/>
	<g>
		<path d="M197.9,55.4c-0.6-1.1-0.3-3.3,0.4-4.3c0.9-1.2,2.5-0.1,2.7,1.1C201.1,53.2,198.7,56.6,197.9,55.4
			c-1.1-1.6-3.7-0.1-2.6,1.5c3.2,4.9,10.1-1.8,8.4-6.1c-1-2.6-4.4-4.2-6.8-2.4c-2.3,1.7-3,6.1-1.6,8.5
			C196.3,58.5,198.9,57,197.9,55.4z"/>
	</g>
</g>
<g>
	<path class="st4" d="M194,21L194,21c0.6-2.5,2.7-4.5,5-4.9c0.3-0.1,0.7-0.1,1,0.1c0.5,0.2,0.8,0.8,1,1.4c1,2.5,1.9,5.5,0.5,7.7
		C198.2,30.3,192.6,26.6,194,21z"/>
	<g>
		<path d="M195.4,21.4c0.3-1.2,1.9-3.9,3.5-3.7c1,0.1,1.4,2.2,1.6,3.1c0.3,1.1,0.4,2.3-0.2,3.4c-0.7,1.3-2.2,2.6-3.7,1.7
			C195.2,24.9,195.1,22.9,195.4,21.4c0.4-1.9-2.5-2.7-2.9-0.8c-0.6,3,0.1,6.7,3.1,8.1c3.1,1.5,6.5-0.8,7.7-3.8
			c0.7-2,0.4-4.2-0.2-6.1c-0.5-1.6-1.1-3.7-3-4.2c-3.5-0.9-6.9,2.9-7.6,5.9C192.1,22.4,194.9,23.2,195.4,21.4z"/>
	</g>
</g>
<g>
	<path class="st4" d="M171.3,2.4c0.7-1.6,2.5-2.7,4.1-2.4c2.5,0.5,3.6,3.7,4.1,6.4c0.1,0.8,0.3,1.7-0.1,2.4c-0.4,0.6-1.1,1-1.7,1.2
		c-1.1,0.4-2.4,0.7-3.5,0.5l0,0C171.1,9.8,170.1,5.1,171.3,2.4z"/>
	<g>
		<path d="M172.6,3.2c1.3-2.3,3.4-1.9,4.4,0.3c0.4,0.9,0.7,1.9,0.9,2.9c0.3,1.3,0.3,1.9-1,2.4c-1.8,0.6-3.4,0.5-4.2-1.4
			c-0.6-1.4-0.6-3,0-4.5c0.7-1.8-2.2-2.6-2.9-0.8c-1.1,2.7-0.6,6.5,1.6,8.6c2.2,2.2,7,1.9,9-0.6c1.9-2.5,0-7.6-1.8-9.7
			c-2.6-2.9-6.7-1.8-8.5,1.4C169.1,3.4,171.7,4.9,172.6,3.2z"/>
	</g>
</g>
<g>
	<path class="st6" d="M172.3,173.6C172.3,173.6,172.3,173.6,172.3,173.6c2.2,0.8,4.2-2,4.7-4.4C179.4,156.6,164.1,170.5,172.3,173.6
		z"/>
	<g>
		<path d="M171.9,175.1c1.9,0.7,3.8-0.5,4.9-2c1.1-1.5,1.6-3.3,1.8-5.2c0.2-2-0.1-4.6-2.3-5.3c-1.8-0.5-3.6,0.6-4.9,1.8
			c-1.4,1.3-2.6,3-3,4.9C168,172,169.5,174.1,171.9,175.1c0.8,0.3,1.6-0.3,1.8-1c0.2-0.9-0.3-1.5-1-1.8c0.2,0.1-0.2-0.1-0.3-0.2
			c-0.2-0.1-0.3-0.2-0.5-0.3c0.2,0.2-0.1-0.1-0.2-0.2c-0.1-0.1-0.1-0.1-0.2-0.2c0.2,0.3,0,0,0-0.1c-0.1-0.1-0.2-0.4-0.1-0.1
			c0-0.1-0.1-0.3-0.1-0.4c-0.1-0.4,0,0.1,0-0.1c0-0.2,0-0.4,0-0.5c0-0.2-0.1,0.2,0-0.2c0-0.1,0.1-0.3,0.1-0.4c0-0.2,0.1-0.3,0.2-0.4
			c-0.1,0.3,0.1-0.2,0.1-0.3c0.2-0.3,0.3-0.6,0.5-0.9c0.1-0.1,0.2-0.3,0.3-0.4c-0.2,0.3,0.2-0.2,0.2-0.2c0.2-0.2,0.5-0.5,0.7-0.7
			c0.1-0.1,0.2-0.2,0.4-0.3c-0.1,0.1,0,0,0.2-0.1c0.3-0.2,0.5-0.3,0.8-0.5c0,0-0.2,0,0.1,0c0.1,0,0.3-0.1,0.4-0.1
			c0.2-0.1-0.3,0.1,0,0c0.3,0,0.2,0.1,0,0c0,0,0.1,0,0.1,0c0.2,0-0.1,0-0.1-0.1c0,0,0.1,0.1,0.1,0.1c0.2,0.1-0.2-0.2-0.1,0
			c0.2,0.3-0.1-0.2,0,0c0.1,0.1,0.2,0.4,0.1,0.1c0,0.1,0.1,0.3,0.1,0.4c0.1,0.4,0-0.1,0,0.4c0,1.2-0.1,2.4-0.5,3.5
			c-0.3,0.9-1.3,2.7-2.5,2.2c-0.8-0.3-1.6,0.3-1.8,1C170.7,174.1,171.2,174.8,171.9,175.1z"/>
	</g>
</g>
<g>
	<path class="st6" d="M191.4,204.3L191.4,204.3c0,0.5,0.2,1.1,0.5,1.4c0.2,0.3,0.6,0.4,0.9,0.5c3.4,0.9,8.9-3.5,6-7.4
		C195.6,194.7,191,200.5,191.4,204.3z"/>
	<g>
		<path d="M189.9,204.3c0.6,7.2,12.9,1.9,11-4.6c-0.9-3-4.1-4.7-6.9-3.1C191.4,198,189.7,201.4,189.9,204.3c0.1,1.9,3.1,1.9,3,0
			c-0.1-1.6,0.6-3.2,1.7-4.4c1-1.1,2.2-1.4,3.1,0c0.9,1.4,0,2.9-1.1,3.8c-0.5,0.4-3.6,2-3.7,0.6
			C192.7,202.4,189.7,202.4,189.9,204.3z"/>
	</g>
</g>
<g>
	<path class="st6" d="M172.9,223.5c1.5-4.2-4.1-8.7-5.8-3.9C165.6,223.7,171.3,228.1,172.9,223.5z"/>
	<g>
		<path d="M174.3,223.9c0.8-2.6-0.3-5.7-2.6-7.1c-2.5-1.6-5.1-0.3-6.1,2.3c-0.9,2.6,0.2,5.6,2.5,7.1
			C170.7,227.8,173.3,226.6,174.3,223.9c0.7-1.8-2.2-2.6-2.9-0.8c-0.4,1-1.1,1-1.9,0.4c-1-0.8-1.5-2.3-1-3.5c0.4-1,1.1-1.1,1.9-0.4
			c1,0.9,1.4,2.3,1,3.6C170.8,224.9,173.7,225.7,174.3,223.9z"/>
	</g>
</g>
<g>
	<path class="st6" d="M193.7,247.4c0.2,1,1.1,1.8,2,2c0.9,0.2,1.9-0.1,2.8-0.5l0,0c2-1,3.1-5.1,0.2-5.5
		C196.8,243.1,193.2,244.8,193.7,247.4z"/>
	<g>
		<path d="M192.3,247.8c0.9,3.2,4.6,3.9,7.2,2.3c1.8-1.1,3-3.7,2.4-5.8c-0.7-2.5-3.6-2.8-5.7-2.1
			C193.7,243.1,191.9,245.1,192.3,247.8c0.3,1.9,3.2,1.1,2.9-0.8c-0.2-1.3,3.2-3.1,3.8-1.9c0.4,0.6-0.4,1.8-0.8,2.2
			c-0.8,0.8-2.7,1.1-3.1-0.3C194.6,245.2,191.8,245.9,192.3,247.8z"/>
	</g>
</g>
<g>
	<path class="st6" d="M177.7,279.8L177.7,279.8c0.7,0.9,1.9,1.1,3,1.1c0.6,0,1.2,0,1.7-0.3c0.3-0.2,0.6-0.6,0.8-0.9
		c0.8-1.6,1-3.6,0.1-5.2C180.3,268.6,175.1,276.3,177.7,279.8z"/>
	<g>
		<path d="M176.4,280.5c1,1.4,2.6,1.8,4.3,1.9c1.8,0,3.1-0.7,3.9-2.4c1.4-2.9,0.7-7.2-2.3-8.8c-2.2-1.2-4.5,0.4-5.7,2.3
			C175.4,275.6,175,278.5,176.4,280.5c1.1,1.6,3.7,0.1,2.6-1.5c-0.7-0.9-0.6-2-0.3-3.1c0.3-0.7,0.9-2.1,1.8-2.1
			c1-0.1,1.7,1.9,1.7,2.8c0,0.8-0.1,2.4-1,2.7c-0.5,0.2-2,0-2.3-0.4C177.9,277.5,175.3,279,176.4,280.5z"/>
	</g>
</g>
<g>
	<path class="st7" d="M196,314.3L196,314.3c-0.4,1.3-0.3,2.9,0.4,4.1c0.2,0.3,0.4,0.5,0.6,0.7c0.2,0.1,0.5,0.1,0.8,0.1
		c0.9,0,1.8,0,2.7,0c0.3,0,0.6,0,0.9-0.1c0.6-0.2,1.1-0.9,1.3-1.6c0.7-1.6,0.7-3.5-0.2-5C200.7,309.3,197,311.3,196,314.3z"/>
	<g>
		<path d="M194.6,313.9c-0.8,2.6,0.1,6.6,3.3,6.8c1.7,0.1,4,0.4,5.3-0.9c1.1-1,1.5-2.7,1.7-4.2c0.2-2.8-1.5-6.1-4.6-6.2
			C197.5,309.3,195.5,311.5,194.6,313.9c-0.7,1.8,2.2,2.6,2.9,0.8c0.3-1,1.1-2,2.2-2.2c1.3-0.3,2,1.2,2.1,2.3
			c0.1,0.8-0.1,1.7-0.4,2.4c-0.4,0.9-1.3,0.6-2.2,0.6c-1,0-1.5,0.2-1.8-0.9c-0.2-0.7-0.2-1.5,0.1-2.2
			C198.1,312.8,195.2,312.1,194.6,313.9z"/>
	</g>
</g>
<g>
	<path class="st7" d="M161.5,357.5c0.4,1.2,1.3,2.1,2.3,2.7c1,0.6,2.2,0.8,3.4,1c0.2,0,0.4,0.1,0.6-0.1c0.2-0.1,0.2-0.3,0.3-0.5
		c0.6-1.6,0.9-3.3,0.9-5.1c0-0.6,0-1.1-0.3-1.6c-0.3-0.6-1-1-1.6-1.3l0,0c-1.2-0.5-3.6-1.3-4.7-0.3
		C161.3,353.3,161.2,356.3,161.5,357.5z"/>
	<g>
		<path d="M160.1,357.9c0.6,1.7,1.7,2.9,3.3,3.8c1.3,0.6,3.4,1.5,4.8,1c1.5-0.5,1.8-2.7,2-4c0.3-1.7,0.7-4-0.4-5.6
			c-1.3-2-5.4-3.2-7.6-2.3C159.7,351.9,159.5,355.6,160.1,357.9c0.5,1.9,3.3,1.1,2.9-0.8c-0.2-0.8-0.3-2.8,0.3-3.4
			c0.6-0.6,2.7,0.1,3.4,0.5c1.5,0.9,0.8,3.8,0.3,5.2c-0.2,0.3-0.2,0.4,0.1,0.3c-0.2,0-0.4-0.1-0.6-0.1c-0.4-0.1-0.8-0.2-1.1-0.3
			c-1-0.4-1.9-1.1-2.3-2.2C162.3,355.3,159.4,356.1,160.1,357.9z"/>
	</g>
</g>
<g>
	<path class="st7" d="M193.6,393L193.6,393c2.3,2,5.8,2.2,8.2,0.4c2.4-1.9,3.2-5.7,1.8-8.4C198.2,374.7,184.7,385.1,193.6,393z"/>
	<g>
		<path d="M192.5,394.1c4.1,3.6,10.5,2.2,12.6-2.9c1.8-4.5-0.6-10-5.3-11.6c-3.5-1.2-7.4,0.4-9.4,3.5
			C187.9,386.8,189.4,391.2,192.5,394.1c1.4,1.3,3.5-0.8,2.1-2.1c-1.9-1.7-3.3-4.1-2.1-6.7c0.9-1.9,3-3.3,5.1-3.1
			c2.8,0.2,5.1,3.2,5,5.9c-0.1,4.1-4.8,6.8-8.1,3.8C193.2,390.7,191.1,392.8,192.5,394.1z"/>
	</g>
</g>
<g>
	<path class="st7" d="M167.1,415.7c-1.3-5.1-11.7-9.8-10.1-1C158.1,420.6,169,423.5,167.1,415.7z"/>
	<g>
		<path d="M168.5,415.3c-0.9-3.3-4.2-6.2-7.6-6.9c-4.2-0.9-6.1,2.6-5.4,6.4c0.7,3.7,4.1,6.6,7.8,7.1
			C167.5,422.4,169.4,419.1,168.5,415.3c-0.4-1.9-3.3-1.1-2.9,0.8c0.5,2.3-0.5,3.3-2.7,2.7c-2.2-0.6-4.2-2.4-4.5-4.8
			c-0.3-2.3,0.6-3.2,2.8-2.3c1.9,0.8,3.9,2.4,4.5,4.5C166.2,417.9,169,417.1,168.5,415.3z"/>
	</g>
</g>
<g>
	<path class="st8" d="M102.8,490.1L102.8,490.1c-1,2.4-1.5,5.2-0.4,7.5c1.2,2.4,4.3,3.4,6.7,2.4
		C119.7,495.8,108.9,475.9,102.8,490.1z"/>
	<g>
		<path d="M101.5,489.4c-1.8,4.2-1.9,10.2,3.2,12.1c3.5,1.3,7.5-0.5,9.3-3.7c2.4-4.4,0.6-12.6-4.8-14
			C105.4,482.8,102.8,486.4,101.5,489.4c-0.8,1.7,1.8,3.3,2.6,1.5c0.7-1.7,2.3-5.1,4.7-4.1c1.9,0.7,2.9,3.2,3.2,5
			c0.4,2.2-0.1,4.6-2,6.1c-1.5,1.1-3.5,1.4-5.1,0.4c-2.4-1.6-1.8-5.1-0.8-7.3C104.9,489.1,102.3,487.6,101.5,489.4z"/>
	</g>
</g>
<g>
	<path class="st8" d="M235.3,470.4c-1.5-0.2-3-0.4-4.4,0.1c-1.4,0.5-2.7,1.8-2.7,3.3v0C228.1,484.4,244.1,471.6,235.3,470.4z"/>
	<g>
		<path d="M235.3,468.9c-2.2-0.3-4.6-0.4-6.5,1c-1.5,1.1-2.2,2.7-2.1,4.5c0.1,2.2,1,4.4,3.3,5c3.5,0.8,8.3-2.5,9.2-5.9
			c0.7-2.5-1.3-4.1-3.6-4.5c-1.9-0.3-2.7,2.6-0.8,2.9c0.4,0.1,1,0.2,1.2,0.3c0.3,0.2,0.3,0.2,0.4,0.3c-0.1-0.3,0,0,0,0.1
			c0,0.1-0.1,0.3-0.2,0.5c-0.7,1.3-2,2.3-3.4,3c-0.6,0.3-1.2,0.4-1.8,0.4c-0.4,0-0.8-0.1-1-0.6c-0.3-0.6-0.5-1.7-0.3-2.4
			c0.6-2.3,3.8-1.8,5.5-1.6C237.2,472.1,237.2,469.1,235.3,468.9z"/>
	</g>
</g>
<g>
	<path class="st8" d="M304.2,524.8c1.2-0.7,1.7-2.4,1.2-3.7l0,0c-0.8-2.4-5.1-3.7-6-0.8C298.6,522.9,302,526,304.2,524.8z"/>
	<g>
		<path d="M304.9,526.1c2.3-1.5,2.8-4.8,1.1-6.9c-1.4-1.7-4-2.7-6-1.7C294.6,520,299.9,528.5,304.9,526.1c1.7-0.8,0.2-3.4-1.5-2.6
			c-1.5,0.7-3.8-2.7-2.1-3.3c1.7-0.6,3.9,2.2,2.1,3.3C301.8,524.6,303.3,527.2,304.9,526.1z"/>
	</g>
</g>
<g>
	<path class="st8" d="M420.5,496.5c-1.5-2.2-3.5-3.8-5.4-5.7s-3.5-4.1-3.9-6.7c-0.3-1.6,0-3.3,0.9-4.5c1-1.2,2.8-1.6,4-0.7
		c0.9,0.7,1.2,1.9,1.5,3.1c0.3,1.5,0.5,3,0.1,4.5S421.9,496.4,420.5,496.5z"/>
	<g>
		<path d="M421.8,495.8c-2.1-2.7-4.8-4.8-6.9-7.5c-0.9-1.1-3.5-5.2-2.1-6.6c1,0,2.1-0.1,3.1-0.1c0.2,0.6,0.3,1.2,0.3,1.8
			c0.1,1.1-0.1,2.1-0.1,3.2c0,1.5,0.6,2.9,1.2,4.3c0.4,1.1,0.9,2.2,1.3,3.3c0.1,0.3,0.2,0.9,0.4,1.1c0.9,1.1-1.2,0.8,1.1-0.1
			c-1.8,0.7-1,3.6,0.8,2.9c2.9-1.2,0.4-5.5-0.4-7.3c-0.8-1.9-1.2-3.2-1.1-5.2c0.1-2.2-0.2-5.1-1.6-6.9c-3-3.7-7.6-0.3-8.1,3.5
			c-0.8,6.8,6,10.6,9.5,15.3C420.4,498.8,423,497.3,421.8,495.8z"/>
	</g>
</g>
<g>
	<path class="st8" d="M495.3,519.8c0.1,1.7,1.7,3.5,1.7,5.5c0,2.4-1,3.9-2,5.9c-1.1,2.3-1.6,7.8-5,5.6c-2-1.3-2.6-5-1.3-6.9
		c1.2-1.7,3.5-2.3,4.8-4.1C494.8,524.1,495.4,522,495.3,519.8z"/>
	<g>
		<path d="M493.9,520.2c0.3,1.5,1.1,2.8,1.4,4.3c0.5,2.3-0.7,4-1.6,6c-0.6,1.4-1.6,6.8-3.5,4.2c-2.6-3.5,2.4-5.4,4.2-7.5
			c1.8-2.1,2.4-4.8,2.5-7.4c0-1.9-3-1.9-3,0c0,2-0.4,4.2-1.9,5.7c-0.8,0.9-2,1.4-3,2.2c-1.4,1.2-2.3,2.5-2.4,4.4
			c-0.2,2.9,1.6,6.9,4.9,6.8c3.1-0.1,3.7-3.8,4.5-6.1c0.8-2.1,2.1-4,2.3-6.3c0.3-2.7-1.2-4.5-1.6-7.1
			C496.4,517.5,493.5,518.3,493.9,520.2z"/>
	</g>
</g>
<g>
	<path class="st8" d="M549.1,457.4L549.1,457.4c0.6,0.7,1.7,0.9,2.3,0.3c0.3-0.3,0.5-0.9,0.5-1.4c0.1-1.6-1-4.1-2.9-3.6
		C547.1,453.3,548.1,456.4,549.1,457.4z"/>
	<g>
		<path d="M548,458.5c1.7,1.9,4.8,1.1,5.3-1.4c0.4-1.9-0.4-4.3-2.1-5.4c-1.8-1.1-4.2-0.2-4.7,1.8C546.1,455.2,546.9,457.2,548,458.5
			c1.2,1.5,3.4-0.7,2.1-2.1c-0.2-0.3-0.6-1.1-0.7-1.7c0-0.1,0-0.5,0-0.6c-0.1,0.1,0,0,0,0c0.5,0.1,0.8,1.1,0.9,1.5
			c0,0.3,0.1,0.6,0,0.9c0,0.2,0.2,0,0,0c-0.1,0-0.2-0.1-0.2-0.2C548.8,454.9,546.7,457.1,548,458.5z"/>
	</g>
</g>
<g>
	<path class="st8" d="M594.7,502.1c-0.5,1-0.7,2.1-0.8,3.2c0,0.4,0,0.9,0.2,1.3c0.3,0.5,0.9,0.8,1.5,0.9c0.8,0.2,1.7,0.4,2.4,0
		c1-0.6,1.3-2,1.3-3.2v0C599.4,501.2,596.7,498.6,594.7,502.1z"/>
	<g>
		<path d="M593.4,501.4c-1.3,2.4-1.7,6.3,1.3,7.5c1.2,0.5,2.7,0.7,4,0.1c1.1-0.6,1.8-1.7,2-2.9c0.4-2.1,0.1-4.7-1.6-6.2
			C597.1,498,594.7,499.3,593.4,501.4c-1,1.7,1.6,3.2,2.6,1.5c0.4-0.7,0.8-1.3,1.3-0.6c0.5,0.7,0.6,1.7,0.6,2.5c0,0.4-0.1,1-0.3,1.3
			c-0.4,0.4-1,0.2-1.4,0c-0.7-0.2-0.7-0.4-0.7-1.1c0-0.7,0.2-1.4,0.5-2.1C596.9,501.2,594.3,499.7,593.4,501.4z"/>
	</g>
</g>
<g>
	<path class="st8" d="M729.5,472.3L729.5,472.3c0.1,0.7,0.2,1.5,0.6,2c0.5,0.6,1.4,0.7,2.1,0.7c1.4,0.1,3,0.1,3.8-1.1
		c0.5-0.7,0.5-1.6,0.4-2.5C735.3,464.8,728.9,465.2,729.5,472.3z"/>
	<g>
		<path d="M728,472.3c0.1,1.7,0.6,3.3,2.3,3.9c1.4,0.5,3.5,0.6,5,0c3.6-1.3,3-5.9,1.4-8.5c-1.2-1.9-3.4-3.2-5.7-2.2
			C728.4,466.7,727.8,469.8,728,472.3c0.1,1.9,3.1,1.9,3,0c-0.1-1.3,0.3-5.4,2.5-3.7c1,0.8,1.7,2.8,1.5,4c-0.2,1.1-1.2,1.1-2.1,1.1
			c-1.1,0-1.7,0-1.8-1.3C730.8,470.4,727.8,470.4,728,472.3z"/>
	</g>
</g>
<g>
	<path class="st8" d="M658.7,466.8L658.7,466.8c0.7-0.3,1.4-0.7,1.7-1.4c1.3-3.2-4.3-3.5-5.7-2.1
		C651.6,466.2,656.3,467.8,658.7,466.8z"/>
	<g>
		<path d="M659.1,468.3c1.3-0.5,2.5-1.3,2.9-2.8c0.3-1.1,0-2.2-0.8-3c-1.4-1.4-4.1-1.6-5.9-1c-2.1,0.7-4,3.2-2.6,5.3
			C654,468.6,657.1,469,659.1,468.3c1.8-0.7,1-3.6-0.8-2.9c-1,0.4-2.1,0.3-3-0.2c-0.2-0.1-0.2,0.1-0.1-0.2c0.2-0.5,0.5-0.6,0.8-0.7
			c0.9-0.3,1.9-0.2,2.8,0.1c0.2,0.1,0.3,0.3,0.3,0.1c0,0.5-0.6,0.8-0.8,0.9c-0.8,0.3-1.3,1-1,1.8
			C657.5,467.9,658.4,468.6,659.1,468.3z"/>
	</g>
</g>
<g>
	<path class="st8" d="M767.7,536.7L767.7,536.7c0.2-1.6-0.8-3.2-2.1-4c-2.8-1.6-7.9,0.2-5.3,4.1
		C761.8,539.1,767.2,540.8,767.7,536.7z"/>
	<g>
		<path d="M769.2,536.7c0.4-3.4-2.8-6-5.9-6.1c-2.6,0-5.3,1.6-5.2,4.4c0.3,5.3,10,8.4,11,2.1c0.3-1.9-2.6-2.7-2.9-0.8
			c-0.2,1.3-0.9,1.6-2.1,1.3c-1.2-0.3-2.6-1.1-2.9-2.3c-0.6-2.2,5.4-2.3,5,1.5C765.9,538.6,768.9,538.6,769.2,536.7z"/>
	</g>
</g>
<g>
	<path class="st8" d="M901.7,490.7c7.2,1,6.7-10.4,0-10.8C894.9,479.6,895.7,489.8,901.7,490.7z"/>
	<g>
		<path d="M901.7,492.2c8.4,0.9,8.7-12,1.2-13.6c-9.1-2-9.9,12-1.6,13.5c1.9,0.3,2.7-2.5,0.8-2.9c-4.7-0.9-5-9.2,0.4-7.7
			c4,1.1,4,8.1-0.8,7.6C899.8,488.9,899.8,491.9,901.7,492.2z"/>
	</g>
</g>
<g>
	<path class="st9" d="M639.6,99.4c6.2-7.6,10-17.1,15-25.7c12.1-20.6,31.8-35.7,53.8-41.4c8.5-2.2,17.3-3,25.5-6.4
		c4.7-2,9.1-4.8,14.1-5.7c5-0.9,10.8,0.7,13.1,5.5c3.2,6.7-1.6,16.7,3.6,21.8c2.8,2.7,8.2,3.4,8.4,7.5c0.2,4.5-6.4,6.2-7,10.6
		c-0.5,4,4,6.5,5,10.4c1.2,4.5-2.7,8.5-6.4,11S640,94.8,639.6,99.4z"/>
	<g>
		<path d="M640.7,100.5c5.5-7.1,9.2-15.1,13.5-22.9c4.4-7.9,9.7-15.2,16.1-21.5c12.3-12.2,27.6-20,44.5-23.5
			c9.2-1.9,17.5-4.2,26-8.1c4.5-2,9.3-3.9,14.1-2.1c5.7,2.1,6,7.7,5.8,12.9c-0.2,5.8-0.4,11.5,5,15c1.2,0.8,2.7,1.3,3.9,2.2
			c2.8,2,1.7,4.6-0.3,6.6c-1.6,1.6-3.6,3-4.3,5.3c-0.7,2.3,0,4.4,1.2,6.4c0.8,1.4,2.1,2.5,2.8,3.9c1.8,3.6-0.1,7-2.8,9.5
			c-2,1.8-2.8,1.9-5.5,2.2c-6.8,0.9-13.7,1.3-20.6,1.8c-20.6,1.5-41.3,2.8-61.9,4.5c-9.6,0.8-19.2,1.5-28.7,2.8
			c-2.2,0.3-10.6,0.4-11.4,3.6c-0.4,1.9,2.5,2.7,2.9,0.8c-0.2,0.8-0.4,0.4,0.7,0.1c1-0.3,1.9-0.5,2.9-0.7c3.3-0.6,6.6-1,9.9-1.4
			c9.6-1.1,19.3-1.9,29-2.6c21.5-1.7,43-2.9,64.4-4.6c5.2-0.4,11.4-0.2,16.4-1.7c3.7-1.2,7.2-5.1,8.2-8.7c0.8-2.7,0.1-5.1-1.3-7.4
			c-0.9-1.4-2.5-2.8-3.1-4.4c-1.1-3.1,0.9-4.9,2.9-6.8c3.4-3.2,5.3-7.4,1.1-10.9c-3.1-2.6-7.2-3.1-8.2-7.6c-1-4.3,0.3-8.9-0.3-13.3
			c-0.8-5.9-4.7-10-10.6-10.9c-8.7-1.3-16.6,5.1-24.5,7.6c-10.1,3.1-20.5,3.9-30.4,7.9c-8.1,3.2-15.7,7.7-22.6,13.2
			c-7.5,6-14,13.1-19.3,21.1c-6.5,9.6-10.5,20.8-17.6,30C637.4,99.9,639.5,102,640.7,100.5z"/>
	</g>
</g>
<g>
	<path class="st9" d="M664.4,179.2c-2.4,9,3,18.1,8.1,25.7c4.9,7.2,10.1,14.7,17.6,18.3c3.4,1.6,7.1,2.4,10.8,2.9
		c8.1,1.3,16.3,1.9,24.5,1.8c4.3,0,8.7-0.3,12.5-2.6c3.7-2.3,6.5-7.1,5.3-11.5c-1-3.5-4.1-7.1-2.2-10.2c1.9-3,7.3-2.3,7.9-5.8
		c0.5-2.9-3-4.4-5.7-4.7C734.6,192.4,669.4,186.8,664.4,179.2z"/>
	<g>
		<path d="M662.9,178.9c-2.4,11.1,4,20.8,10.1,29.6c5.5,7.9,11.6,15.2,21.2,17.9c11.1,3.1,24.6,4.1,36,2.9c7.3-0.8,15.4-5.6,14.7-14
			c-0.4-5.1-6-9.7,0.9-12.8c2.3-1,4.6-2.2,4.6-5.1c-0.1-5.1-6.4-5.5-10.3-5.9c-12.6-1.2-25.2-2.5-37.7-4.2
			c-7.8-1.1-15.6-2.2-23.2-3.9c-3.5-0.8-11-1.6-13.4-4.8c-1.1-1.5-3.7,0-2.6,1.5c4.1,5.4,15.1,6.3,21.2,7.4
			c12,2.2,24.2,3.7,36.3,5.1c5.1,0.6,10.2,1.1,15.2,1.6c1.7,0.2,3.5,0.3,5.2,0.5c0.5,0.1,1.1,0.1,1.6,0.2c0.5,0.1,0.8,0.1,1.4,0.2
			c1.7,0,2.5,0.8,2.2,2.3c0.8,1.4,0.4,2.2-1.2,2.3c-1.8,1.2-4.1,1.2-5.3,3.4c-1.7,2.8-0.2,5.7,0.9,8.4c6.7,15.8-15,15.4-24.6,14.9
			c-12.8-0.7-25.6-1.8-34.6-11.9c-7.8-8.7-18.2-22.5-15.5-34.7C666.2,177.8,663.3,177,662.9,178.9z"/>
	</g>
</g>
<g>
	<path class="st10" d="M662.9,92.2c18.5-4.9,37.7-8.1,56.5-5c18.9,3.1,36.7,12.5,55.8,14.6c4,0.4,8.1,0.6,12.1-0.5
		c4.7-1.2,8.9-4.1,12.7-7.3c5-4.2,9.5-9.1,13.2-14.6c2-2.9,4-6.2,7.2-7.2c5.1-1.6,10.1,3.7,11,9.3c0.9,5.6-1.1,11.2-2.9,16.5
		s-3.4,11.2-1.8,16.6c2.4,8.1,11.8,14.2,9.8,22.5c-1.8,7.6-11.8,9.2-15.4,16c-3.3,6.4,0.4,14.3,4.5,20.2c4.1,5.9,8.9,12.3,8,19.6
		c-0.7,5.3-4.9,9.8-9.8,10.6c-6.7,1.1-13-4.3-16.4-10.5s-5.1-13.5-8.3-19.9c-3.2-6.4-8.8-12.4-15.5-12.4c-3.4,9.5-10.7,17-19,21.8
		c-8.3,4.8-17.7,7.2-27,8.6c-43,6.5-86.8-5.9-126.1-25.6c-5.1-2.5-10.2-5.3-14.1-9.6c0,0,0,0,0,0c-3.3-3.6-5.7-8.3-7.5-13
		c-2.1-5.3-1.5-6.7,2.1-11c6-7.2,13.2-13.2,20.8-18.3C628,103.4,645.4,96.9,662.9,92.2z"/>
	<g>
		<path d="M663.3,93.6c14.6-3.8,29.6-6.7,44.8-6.1c14.7,0.6,28.3,5.5,42.2,9.9c11.3,3.6,25.4,8.5,37.4,5.3
			c10.5-2.8,19.2-12.1,25.4-20.6c1.9-2.6,3.8-6.6,6.8-8.1c4.7-2.3,8.7,2.4,9.8,6.4c2.3,8-2.9,16.1-4.5,23.7
			c-0.9,4.7-0.8,9.3,1.2,13.7c2.4,5,7.2,9.2,8.6,14.7c2.6,10.9-14.2,13.2-16.3,23c-2.5,11.3,8.1,19.6,12,29
			c1.8,4.2,2.2,8.9-0.4,12.9c-2.6,3.9-7.2,5.6-11.6,4.1c-8.3-2.8-11.6-12.3-14.4-19.7c-3.6-9.8-8.7-22-20.7-22.7
			c-0.7,0-1.2,0.5-1.4,1.1c-8,20.5-29.8,27.6-49.9,30c-19.9,2.3-40.1,0.6-59.6-3.8c-20.1-4.6-39.5-12-58.1-21.1
			c-8.5-4.2-16.1-8.5-20.7-17.1c-2.2-4-5.2-9-2.5-13.3c2.6-4.2,7-8,10.7-11.3C619.3,108.4,641.2,99.6,663.3,93.6
			c1.9-0.5,1.1-3.4-0.8-2.9c-21.5,5.8-42.6,14.3-60,28.6c-4.3,3.5-8.3,7.4-11.8,11.6c-2,2.4-4,4.8-3.7,8.1
			c0.6,7.8,6.8,16.6,12.9,21.4c8.4,6.6,19.2,10.7,28.9,14.8c10.6,4.5,21.4,8.4,32.5,11.5c22.1,6.2,45.3,9.1,68.2,6.9
			c22.4-2.2,46.6-9.6,55.5-32.4c-0.5,0.4-1,0.7-1.4,1.1c15.7,0.9,16.9,23.3,23.8,33.5c5.4,7.9,16.3,13.5,24,5.2
			c9-9.7,0.3-21-5.3-29.7c-4.3-6.7-7.2-15.2-0.4-21.2c3.6-3.2,8.5-5.2,11.1-9.5c6.2-10.4-6.9-18.4-8.8-27.8
			c-2.5-12.5,11.8-27.3,1.6-38.7c-9.6-10.7-17.5,5.2-23,11.5c-4.9,5.6-11,11.4-18.1,13.9c-7.7,2.6-16.6,0.7-24.3-1.1
			c-16.3-3.9-31.7-11.1-48.5-13.1c-17.9-2.1-35.8,1-53.1,5.6C660.6,91.2,661.4,94.1,663.3,93.6z"/>
	</g>
</g>
<g>
	<path class="st0" d="M709.8,125.5c6.3-3.5,12.8-7.4,19.8-7.1c0.8,0,1.7,0.1,2.4,0.5c2.4,1.3,2.4,5.1,1.4,7.8c-1,2.7-2.5,5.5-2,8.3
		c0.7,4.2,5.5,6.6,5.9,10.8c0.5,4.8-4.7,8.4-4.6,13.2c0.1,2.8,2,5.3,1.5,8.1c-0.4,2.1-2.1,3.7-4,4.4c-1.9,0.7-3.9,0.6-5.9,0.4
		c-5.7-0.3-11.7-0.8-16.4-4.3c-4.3-3.1-6.9-8.3-9.8-12.9c-2.9-4.6-6.7-9.2-11.8-10.2c-0.7-0.1-1.5-0.3-1.9-1c-0.4-0.7,0-1.5,0.3-2.2
		l0,0c2.4-4.7,3.4-9.1,8.3-10.5C699.1,129.2,704.1,128.6,709.8,125.5z"/>
	<g>
		<path d="M710.5,126.8c3.4-1.9,24.1-13.2,21.8-1.7c-1.2,5.8-4.1,9.2-0.3,14.6c2.4,3.5,5.1,5.7,2.9,10.3c-1,2.1-2.5,4-3.2,6.2
			c-0.7,2.4-0.3,4.4,0.4,6.7c2.2,7.3-4.1,7.9-9.2,7.5c-8.7-0.6-14.9-3.1-19.8-10.5c-3.2-4.9-5.8-10.4-10.5-14
			c-1.4-1.1-5.3-2.2-6-3.4c-0.7-1.4,2.2-6,3.1-7.3c2.5-3.3,6.9-3.6,10.6-4.6C703.9,129.7,707.2,128.5,710.5,126.8
			c1.7-0.9,0.2-3.5-1.5-2.6c-4.1,2.1-8.4,3.2-12.8,4.3c-2.6,0.7-5.3,1.2-7.4,3c-2,1.8-3,4.2-4.1,6.5c-0.7,1.5-2.3,3.9-1.7,5.7
			c0.6,1.8,2.1,1.9,3.7,2.4c4.4,1.5,7.3,4.9,9.8,8.7c3.5,5.4,6.4,11.5,12.1,14.9c6.1,3.6,27.7,8.2,27.3-4.1
			c-0.1-4.1-2.4-6.7-0.3-10.9c1.2-2.5,3.1-4.8,3.3-7.6c0.2-2.3-0.6-4.3-1.9-6.1c-0.6-0.9-1.4-1.8-2.1-2.7c-2-2.8-2.1-5.8-0.9-9
			c1.5-4.3,3.2-11.2-2.9-12.6c-7.5-1.7-15.9,3.8-22,7.2C707.3,125.2,708.8,127.8,710.5,126.8z"/>
	</g>
</g>
<g>
	<g>
		<path d="M599.6,159.8c10.5-1,26.5-3.9,31.4-14.6c0.8-1.7-1.8-3.3-2.6-1.5c-4.4,9.6-19.3,12.3-28.8,13.1
			C597.7,156.9,597.7,159.9,599.6,159.8L599.6,159.8z"/>
	</g>
</g>
<g>
	<path class="st11" d="M622.2,123.6c1.1,3.2,4.1,5.4,7.3,5.3c1.3-0.1,2.7-0.6,3.3-1.8c0.3-0.6,0.3-1.4,0.4-2.1c0-1.4,0-2.9-0.1-4.3
		c-0.1-1.2-0.2-2.3-0.7-3.4l0,0C628.6,109.6,619.7,116.2,622.2,123.6z"/>
	<g>
		<path d="M620.8,124c1.6,4.1,6.3,7.9,11,5.9c2.5-1.1,2.9-3.3,2.9-5.8c0-2.4,0.1-5.3-1-7.5c-1.7-3.5-5.6-5.3-9.1-3.2
			C620.9,115.4,619.6,120,620.8,124c0.6,1.8,3.4,1.1,2.9-0.8c-0.7-2.3-0.4-4.9,1.5-6.6c1.7-1.6,3.9-1.6,5.3,0.4
			c0.8,1.1,1,2.3,1.1,3.7c0.1,1.6,0.5,3.8,0,5.3c-0.6,1.7-2.8,1.6-4.1,1.1c-1.8-0.6-3.1-2.1-3.8-3.9
			C623,121.4,620.1,122.2,620.8,124z"/>
	</g>
</g>
<g>
	<path d="M625,127.3c2.2-1.1,2.8-4.2,3-6.8c0.1-1.3,0.2-2.6-0.3-3.8c-0.4-1.2-1.6-2.2-2.8-1.9c-0.2,0.1-3.3,2.4-3.1,6.5
		C622,125.1,624.7,127.1,625,127.3z"/>
	<g>
		<path d="M625.8,128.6c3.2-1.9,3.9-6.2,3.8-9.6c0-2.7-2.4-7.4-5.7-5.1c-5.1,3.5-4.2,11.4,0.4,14.8c1.6,1.2,3-1.5,1.5-2.6
			c-2.6-1.9-3.1-6.1-1-8.9c0.1-0.2,0.8-1.1,1-1c0.9,0.1,0.8,3.1,0.8,4c-0.1,2-0.4,4.8-2.3,5.9C622.6,127,624.1,129.6,625.8,128.6z"
			/>
	</g>
</g>
<path class="st12" d="M475.4,132.5"/>
<path class="st12" d="M630.1,128.4"/>
<g>
	<g>
		<path d="M673.9,89.8c2.3-6.2,10.8-9.9,16.1-13.1c5.5-3.2,11.6-5.7,17-9.2c4.3-2.8,7.8-6.6,11.5-10.1c4-3.8,9.2-6.2,13-10.2
			c1.3-1.4-0.8-3.5-2.1-2.1c-4,4.3-9.8,7.2-14.1,11.3c-5,4.7-9.7,8.8-15.9,11.9c-6.3,3.1-12.4,6.6-18.3,10.4
			c-4.1,2.7-8.3,5.5-10.1,10.3C670.4,90.8,673.3,91.6,673.9,89.8L673.9,89.8z"/>
	</g>
</g>
<g>
	<g>
		<path d="M715.3,86.1c2.8-8.8,14.6-12.4,22.2-15.7c8.7-3.8,12.7-10.5,18-18.1c1.1-1.6-1.5-3.1-2.6-1.5c-3.2,4.6-6.2,10.3-10.7,13.7
			c-3.8,2.8-8.6,4.2-13,6.2c-6.6,2.9-14.4,7.2-16.7,14.5C711.8,87.2,714.7,87.9,715.3,86.1L715.3,86.1z"/>
	</g>
</g>
<g>
	<g>
		<path d="M684.6,192c-0.9,8.3,4.3,13.9,12.1,15.6c5.7,1.2,8.9,4.7,14,7.1c3.8,1.8,7.8,2.2,12,1.6c1.9-0.3,1.1-3.2-0.8-2.9
			c-4.6,0.7-8.6-0.4-12.5-2.9c-2.4-1.6-4.5-3.5-7.2-4.6c-3.3-1.3-7.1-1-10.1-3c-3.6-2.4-4.9-6.8-4.4-10.9
			C687.8,190.1,684.8,190.1,684.6,192L684.6,192z"/>
	</g>
</g>
<g>
	<g>
		<path d="M710.4,193.9c0.3,3,1.6,5.6,4.5,6.9c1.5,0.7,3.1,0.8,4.8,0.9c2.9,0.3,5.3,0.8,7.9,2.2c1.7,0.9,3.2-1.7,1.5-2.6
			c-2.3-1.3-4.7-2.1-7.4-2.5c-3.6-0.4-7.9-0.3-8.3-5C713.2,192,710.2,192,710.4,193.9L710.4,193.9z"/>
	</g>
</g>
<g>
	<path class="st13" d="M422.9,228.9L422.9,228.9c-0.3-6.1-1.5-25.1-7.6-46.1c-5.4-18.7-10.1-22.6-7.4-26.4c3.6-5.2,16-3.4,24.5,1.7
		c6.6,3.9,8.8,8.6,19.8,25.4c12.1,18.6,10,14.8,15.8,23.5c8.7,12.9,17.6,26.4,20.9,42c2,9.5,3,21.2,11.2,25.2
		c5,2.4,10.7-0.9,20.3-6.2c12.2-6.8,14-11.2,25.8-17c8-3.9,12.7-6.1,17.6-4.3c9.1,3.5,11.5,18.4,11.7,19.8
		c4.4,25.5-12.8,53-36.3,58.2c-6.2,1.4-13.1,1.6-17.9,6.1c-4.7,4.5-5.9,12.1-4.9,18.8c2.9,19.7,20.8,34.9,20.9,54.9
		c0,3-0.4,6.1-2,8.5c-1.5,2.3-3.9,3.7-6.2,4.9c-10.6,5.4-23.7,7.7-33.8,1.4c-9.8-6.1-14.4-18.7-16.9-30.6
		c-2.1-10.2-3.8-21.9-11.9-27.7c-1.1-0.8-2.3-1.4-3.7-1.4c-0.8,0-3,0.6-5.3,5.1c-5.4,10.5-6.3,32.3-14.5,45.6
		c-6.9,11.1-18.3,15.4-28.1,19.1c-2.5,0.9-11.3,4.1-21.5,2.9c-3.4-0.4-6.3-1.2-9.2-3.2c-1.6-1.1-5.7-4-6.4-8.2
		c-0.8-5,3.6-9,13.9-20.3c6.5-7.1,9.7-10.7,12.5-14.1c6.3-8,16.2-20.7,16.6-36.9c0.1-2.5,0.3-12.3-4.2-14.7
		c-2.6-1.4-5.3,0.5-10.4,2.4c0,0-3.8,1.5-18.7,3.9c-18.4,3-24.6-5.4-44.1-3.1c-6.7,0.8-12.1,2.5-15.3,3.7
		c1.8-23.2,9.4-34.1,15.6-39.8c19.9-18.3,49.4-4.6,66.6-26.7c5.4-7,8.7-16.4,9-17.3C423.7,245.7,423.4,234.9,422.9,228.9z"/>
	<g>
		<path d="M424.4,228.9c-0.9-16-3.3-32-7.9-47.4c-2-6.8-5.1-13.2-7.2-19.9c-2.6-8,8.3-7.2,13.4-5.9c14.7,3.7,20.6,16.8,28.3,28.6
			c5.5,8.4,11.2,16.6,16.8,25c6.1,9,12.1,18.3,16.2,28.4c3.3,8.4,4,17.2,6.6,25.7c1.7,5.4,4.9,11.5,11,12.8c6.7,1.5,14.3-4,19.7-7
			c7.3-4.1,13.5-9.9,20.6-14.2c6.9-4.2,18.1-11.4,25.3-4.3c9.4,9.3,8.8,27.5,5.3,38.9c-5.1,16.7-18.3,30.8-35.8,34.1
			c-7.4,1.4-15,2.6-19.2,9.6c-3.9,6.7-3.3,15.2-1.2,22.4c4.7,16.4,18.7,29.8,19.6,47.4c0.3,6.7-2.2,11-8.2,14
			c-5.3,2.6-11.2,4.4-17.2,4.6c-11.1,0.4-19.7-6-24.7-15.6c-4.3-8.3-5.6-17.3-7.6-26.3c-1.7-7.2-4.2-15.3-10.5-19.8
			c-11.9-8.4-15.6,17.3-17.1,24c-1.9,8.5-3.8,17.5-8.3,25.1c-5.1,8.6-13.6,13.5-22.5,17.1c-7.8,3.1-15.7,5.5-24.3,4.9
			c-7.3-0.5-20.2-6.5-14.5-15.6c4.6-7.3,11.7-13.4,17.4-19.7c4.3-4.8,8.5-9.7,12.2-15c8.1-11.3,14.5-26.3,11-40.5
			c-1.3-5.3-4.7-8.4-10.1-6.6c-3.6,1.2-6.8,2.7-10.5,3.6c-8.9,2-18.2,4-27.4,2.7c-7.1-1-13.9-3.3-21.1-3.6c-8.4-0.4-16.8,1.2-24.7,4
			c0.6,0.5,1.3,1,1.9,1.4c1-11.6,3.4-23.9,10.4-33.5c6.3-8.6,15.8-13,26.1-15c10.4-2,21.3-2.1,31.2-6.3c10.5-4.5,17-13.4,21.4-23.6
			C423.6,252.4,425.4,240.6,424.4,228.9c-0.2-1.9-3.2-1.9-3,0c1.9,22.9-7.1,51.1-31.7,57.4c-10.7,2.7-21.9,2.5-32.4,6.1
			c-8.1,2.7-15,7.7-20,14.6c-7.1,10.1-9.6,22.6-10.6,34.7c-0.1,0.9,1,1.8,1.9,1.4c9.5-3.4,19.6-4.9,29.6-3.3
			c7.2,1.1,14.2,3.5,21.5,3.5c7.9,0,16.1-1.8,23.8-3.7c4.5-1.1,11.3-6.2,14.2-1.2c3.8,6.3,1.2,17.9-0.9,24.1
			c-2.9,8.5-8.1,16-13.7,23c-5.2,6.5-11.1,12.6-16.7,18.8c-3.6,3.9-9.3,8.8-10,14.3c-0.8,5.8,4.6,10.7,9.3,13.1
			c7.6,3.9,17.7,2.7,25.7,0.5c15.2-4.3,29.8-12.1,36.2-27.3c3.3-7.8,4.9-16.2,6.8-24.4c0.9-3.8,1.7-7.7,3.1-11.4
			c0.8-2.1,1.6-4.3,3.1-6.1c2.6-3.1,5.6-1,8,1.7c6.1,6.9,6.9,17.2,8.8,25.8c1.9,8.5,4.8,17.3,10.5,24.1c5.3,6.3,12.8,9.8,21,10
			c8.3,0.1,18.8-2.6,25.2-8.1c6-5.1,5.3-14,3.6-21c-2-8.3-6.5-15.8-10.6-23.2c-4.6-8.3-9.5-17.4-9.5-27.1c0-5.7,1.7-11.7,6.8-14.9
			c4.3-2.7,9.6-3,14.4-4c15.3-3.2,27.5-15,33.8-29c5.4-12.1,6.8-26.2,2.3-38.8c-1.9-5.4-5.2-11.1-10.8-13.2
			c-6.8-2.5-14.5,2.2-20.3,5.2c-8.1,4.2-14.6,10.6-22.5,15.2c-7.4,4.3-18.7,12.7-25.2,2.9c-5-7.4-4.7-17.7-7.3-26
			c-3-9.9-8.2-19-13.7-27.6c-6-9.4-12.6-18.5-18.7-27.8c-4.8-7.3-9.2-14.9-14.4-21.9c-2.8-3.8-5.9-6.9-10-9.1
			c-5.7-3-28.1-9.2-26.2,4.1c0.8,5.5,4.2,11.1,6,16.4c3.7,10.7,6.1,21.9,7.8,33.1c0.9,6.4,1.5,12.9,1.9,19.4
			C421.5,230.8,424.5,230.8,424.4,228.9z"/>
	</g>
</g>
<g>
	<path class="st14" d="M433.8,262.3c3.3-3,9.2-3,11.4,1c1.8,3.3,0.5,7.6,1.5,11.2c0.4,1.5,1.2,2.9,1.2,4.5v0
		c-0.3,5.4-14.8,6.8-17.8,3.9C425.8,278.9,430.1,265.8,433.8,262.3z"/>
	<g>
		<path d="M434.8,263.4c4.2-3.3,9.1-1.5,9.8,3.8c0.4,3.1,0.2,5.9,1,9c0.7,2.6,1.2,3.8-1.4,5.3c-1.8,1-4.2,1.4-6.3,1.6
			c-1.7,0.1-4,0.3-5.6-0.4c-2.2-1-2.5-3.1-2.5-5.3C429.8,272.7,431.6,266.7,434.8,263.4c1.4-1.4-0.8-3.5-2.1-2.1
			c-4.5,4.5-7.7,14.3-5.2,20.4c2.2,5.6,10.2,4.8,15,3.5c2.4-0.7,5.3-1.8,6.5-4.3c0.5-1.1,0.5-2.2,0.3-3.4c-0.5-2.8-1.4-5.2-1.5-8
			c-0.1-4-0.7-8.2-4.7-10.1c-3.5-1.7-7.4-0.5-10.3,1.8C431.2,262.5,433.4,264.6,434.8,263.4z"/>
	</g>
</g>
<g>
	<path class="st14" d="M476.6,263.3c-2.8-3.5-8.7-4.5-11.4-0.8c-2.2,3-1.6,7.4-3.1,10.8c-0.6,1.4-1.6,2.7-1.8,4.3l0,0
		c-0.5,5.4,13.6,9.1,17,6.8C482.2,281,479.8,267.3,476.6,263.3z"/>
	<g>
		<path d="M477.7,262.2c-2.6-2.8-6.6-4.5-10.3-3.1c-3.9,1.4-4.9,5.2-5.5,8.8c-0.5,2.9-1.6,5-2.6,7.7c-0.4,1.1-0.6,2.1-0.3,3.2
			c0.6,2.8,3.5,4.5,5.9,5.6c4.7,2.1,12.7,4.2,15.6-1.7c2.7-5.7,1.1-15.2-2.5-20.3c-1.1-1.5-3.7-0.1-2.6,1.5
			c2.6,3.7,3.6,9.2,3.2,13.6c-0.1,2-0.5,4.7-2.6,5.7c-1.7,0.8-4.7,0-6.4-0.4c-2.1-0.5-4.4-1.3-6-2.7c-2.6-2.2-1.2-3.7-0.1-6.2
			c1.1-2.6,1-5.2,1.8-7.8c1.7-5.2,6.7-5.8,10.3-1.9C476.9,265.8,479,263.6,477.7,262.2z"/>
	</g>
</g>
<g>
	<g>
		<path d="M424.2,308.5c14.3,9.6,43.4,16.8,53.2-2.6c0.9-1.7-1.7-3.2-2.6-1.5c-9,17.8-36.2,10.2-49.1,1.5
			C424.1,304.8,422.6,307.4,424.2,308.5L424.2,308.5z"/>
	</g>
</g>
<g>
	<g>
		<path d="M427.6,299.8c-2.2,1.7-4.2,3.5-5.1,6.2c-0.9,2.9-0.5,5.9-0.1,8.9c0.3,1.9,3.2,1.1,2.9-0.8c-0.7-4.8-0.3-8.6,3.8-11.7
			C430.6,301.3,429.1,298.7,427.6,299.8L427.6,299.8z"/>
	</g>
</g>
<g>
	<path d="M432.1,280.6L432.1,280.6c-0.3-1.4,0.1-2.8,0.9-3.9c0.8-1.1,2-1.8,3.3-2.1c0.7-0.2,1.4-0.2,2,0.1c0.6,0.3,1,1,1.2,1.7
		s0.2,1.4,0.2,2.1c0,0.6,0,1.3-0.3,1.8c-0.4,0.6-1.1,0.8-1.8,0.9C436.2,281.5,432.5,282.7,432.1,280.6z"/>
	<g>
		<path d="M433.5,280.2c-0.3-1.4,0.6-2.8,1.7-3.5c0.5-0.3,1.4-0.8,2.1-0.7c0.9,0.2,0.9,1.8,0.9,2.5c-0.1,0.9-0.3,1.1-1.2,1.3
			c-0.4,0.1-0.8,0.2-1.2,0.3C435.5,280.2,433.7,280.6,433.5,280.2c-0.6-1.8-3.5-1.1-2.9,0.8c0.8,2.7,3.6,2.5,5.9,2
			c1.1-0.2,2.4-0.4,3.3-1.1c1.4-1,1.5-2.9,1.3-4.5c-0.1-1.5-0.6-3.1-2-3.9c-1.4-0.9-3.1-0.6-4.5,0c-2.9,1.2-4.7,4.3-4.1,7.4
			C431,282.9,433.9,282.1,433.5,280.2z"/>
	</g>
</g>
<g>
	<path d="M465.4,276.6c0.1-1.2,0.6-2.4,1.5-3.1c0.6-0.4,1.2-0.7,1.9-0.9c0.8-0.3,1.6-0.5,2.4-0.2c1.3,0.4,1.9,2,2.1,3.4
		c0.1,0.7,0.1,1.4-0.1,2.1c-0.3,0.8-1,1.4-1.7,1.8c-0.7,0.3-1.6,0.5-2.4,0.5h0C466.9,280.4,465.3,279.4,465.4,276.6z"/>
	<g>
		<path d="M466.9,276.6c0.1-1.5,1.8-2.9,3.4-2.8c1.4,0.1,2,2.6,1.5,3.7c-0.5,1-2.2,1.2-3.2,1.2C467.2,278.7,466.9,277.9,466.9,276.6
			c0-1.9-3-1.9-3,0c0,2.8,1.5,5,4.5,5.1c2.8,0.1,6.1-1.2,6.5-4.3c0.3-2.7-1.1-6.5-4.3-6.6c-3.5,0-6.3,2.4-6.6,5.8
			C463.7,278.5,466.7,278.5,466.9,276.6z"/>
	</g>
</g>
</svg>
