<?xml version="1.0" encoding="utf-8"?>
<!-- Generator: Adobe Illustrator 21.1.0, SVG Export Plug-In . SVG Version: 6.00 Build 0)  -->
<svg version="1.1" id="Layer_1" xmlns="http://www.w3.org/2000/svg" xmlns:xlink="http://www.w3.org/1999/xlink" x="0px" y="0px"
	 viewBox="0 0 960 560" style="enable-background:new 0 0 960 560;" xml:space="preserve">
<style type="text/css">
	.st0{fill:#FFB715;}
	.st1{fill:#37AD00;}
	.st2{fill:#FFFF22;}
	.st3{fill:#8FEAFF;}
	.st4{fill:#FF6CBD;}
	.st5{fill:#A3FF78;}
</style>
<g>
	<path class="st0" d="M605.4,181.1c29.4,60.6,30.1,134.4,1.9,195.5c-9.2,20-21.5,38.8-37.4,54.1c-20.9,20-47.6,33.7-66.1,56
		c-16.9,20.5-25.7,47.1-44.5,65.9c5.4-5.4,5.6-35.8,7.7-44.3c3-12.2,5.1-24.5,8.3-36.6c7.2-27.6,15.3-38.9,30-71.4
		c28.1-62.3,22.3-73.5,45.6-104c13.8-18.1,17.8-16.7,28.7-33.2C599,234.1,604.2,203.3,605.4,181.1z"/>
	<g>
		<path d="M604.1,181.9c24.9,51.8,29.1,112.8,12,167.7c-8.6,27.6-22.5,54.3-42.4,75.3c-18.9,19.9-43.7,33-63.1,52.4
			c-21.8,21.7-30.8,52.5-52.2,74.3c0.7,0.7,1.4,1.4,2.1,2.1c2.5-2.8,3.2-6.8,3.9-10.4c1.1-5.6,1.6-11.3,2.1-17
			c1.3-14.1,4.2-27.5,7.3-41.4c3.3-15.1,7.7-29.8,14-44c6.5-14.6,13.9-28.8,20.4-43.4c6.1-13.7,11.7-27.5,16.6-41.6
			c3.3-9.3,6.2-18.7,9.7-27.9c3.3-8.4,7.4-16.3,12.5-23.8c7.1-10.4,15.7-18.9,24.2-28c23.6-25,33.7-61.7,35.7-95.3
			c0.1-1.9-2.9-1.9-3,0c-1.9,32-11.3,66.2-32.7,90.8c-7.8,9-16.5,16.7-23.6,26.3c-5.4,7.3-10.1,15.1-13.7,23.5
			c-8.7,20-14.4,41.3-22.8,61.5c-11.6,27.7-27.5,54-35.8,83c-2.8,9.8-4.8,19.9-7,29.8c-1.4,6.6-3.1,13-3.9,19.8
			c-0.7,6.5-1.1,12.9-1.9,19.4c-0.6,4.8-0.8,12.5-4.2,16.4c-1.3,1.4,0.8,3.5,2.1,2.1c20-20.4,28.7-48.6,47.8-69.6
			c19-21,44.7-34.2,64.7-54.1c40.5-40.2,58.4-101.2,56.5-157.2c-1.1-32-8.8-63.5-22.6-92.4C605.9,178.6,603.3,180.2,604.1,181.9z"/>
	</g>
</g>
<g>
	<path class="st0" d="M449.5,418.9L449.5,418.9c-11.6-17.7-29.8-29.8-44.3-45.3c-16.7-17.9-28.4-40.4-33.4-64.3
		c-2.3-10.9-3.2-22-6.7-32.5c-7.8-23.3-27.4-40.8-48.3-53.8c-6.7-4.2-13.8-8.1-19.4-13.7c-5.6-5.6-9.8-13.2-9.2-21.2
		c0.1-0.7,0.2-1.5,0.6-2.1c1.3-1.6,3.9-0.7,5.6,0.5c9.2,6.2,17.1,14,26.1,20.4c8.6,6.1,18,10.8,27,16.3
		c31.8,19.4,57.6,48.4,73.2,82.2c5.3,11.5,9.6,23.8,18.2,33.2c9.5,10.4,23.7,16.5,30.4,28.8c6.8,12.6,3.8,28,1.6,42.1
		c-2.6,17.1,1.1,40.2-5.3,56C460.7,449.3,459.1,433.5,449.5,418.9z"/>
	<g>
		<path d="M450.8,418.1c-11-16.8-27.7-28.5-41.7-42.6c-15.7-15.8-27.3-35.5-33.5-56.9c-3.2-10.9-4.2-22.3-6.7-33.4
			c-2.2-9.8-5.9-19-11.5-27.3c-10.8-16.1-26.4-28-42.7-38.1c-9.7-6-20.8-12.7-24.2-24.5c-0.7-2.4-2.2-10.7,3.1-7.6
			c2.4,1.4,4.6,3.2,6.7,4.9c4.6,3.6,9,7.4,13.5,11c9,7.1,19,12.6,28.9,18.3c9.3,5.4,18.1,11.5,26.3,18.4
			c16,13.4,29.8,29.4,40.6,47.3c5.3,8.8,9.6,18,13.7,27.4c4,9.1,8.4,18.2,15.4,25.4c7.1,7.4,16.3,12.4,23.4,19.8
			c9.5,9.9,10.6,22.7,9.1,35.8c-1.3,11.3-3,22.1-3.1,33.6c-0.1,11.8,0.2,24.1-4.1,35.4c1,0,1.9,0,2.9,0
			C462.3,449,459.9,432.4,450.8,418.1c-1-1.6-3.6-0.1-2.6,1.5c9,14.1,11.3,30.4,16,46.2c0.4,1.5,2.4,1.3,2.9,0
			c3.8-9.9,4-20.7,4.2-31.2c0.1-11.2,0.8-22,2.4-33.1c1.5-10.5,2.6-21.6-1.5-31.7c-3.3-8.3-9.9-14.1-16.8-19.5
			c-9.4-7.3-17.7-14.1-23.5-24.8c-5.2-9.6-8.9-20-14-29.6c-9.9-18.9-23.2-36.2-38.8-50.8c-7.7-7.2-15.9-13.7-24.7-19.5
			c-10.3-6.8-21.4-12.1-31.6-19.1c-9.7-6.6-17.9-16.1-28.2-21.8c-8.5-4.7-8.6,5.7-7,11.4c2.8,9.5,10.3,16.3,18.3,21.7
			c9.8,6.6,20,12.3,29,20c8.3,7,15.8,15,21.5,24.2c6.6,10.8,9.5,22.5,11.6,34.9c4.2,25.3,12.5,48.5,28.5,68.9
			c15.4,19.6,37.9,32.8,51.6,53.8C449.2,421.2,451.8,419.7,450.8,418.1z"/>
	</g>
</g>
<g>
	<path class="st1" d="M465.2,363.2c-1.1,62.2-1.5,125.7-11,184.6c-0.3,1.9-0.6,4.1-0.2,6c0.6,2.7,2.3,3.1,3.7,3.1
		c2.7,0,5.9-0.4,7.6-5c0.8-2.3,1.1-5.1,1.4-7.9c1.9-19.1,3.8-38.1,5.8-57.2c1.6-15.5,3.1-30.9,4.2-46.6c4.5-65.7,0.2-132.7,2.3-199
		c0.5-17.1,1.6-34.5,5-50.1c0.6-2.8,1.3-5.7,1.4-8.8c0.1-3.1-0.6-6.6-2-7.5c0,0,0,0,0,0c-4.9-3.2-13.1,77-14,87.4
		C466.7,295.6,465.8,329.4,465.2,363.2z"/>
	<g>
		<path d="M463.7,363.2c-0.6,32.1-0.9,64.3-2.5,96.4c-0.8,15.8-1.8,31.7-3.3,47.5c-0.7,7.5-1.6,14.9-2.5,22.4
			c-0.5,4.2-1.1,8.3-1.8,12.5c-0.5,3.3-1.6,7-1.3,10.4c0.7,8.9,11.5,7,14.3,0.3c2.3-5.6,2-12.7,2.6-18.5c0.9-8.5,1.7-17.1,2.6-25.6
			c3.2-31.8,6.6-63.7,7.8-95.7c1.2-32.8,0.7-65.7,0.4-98.6c-0.3-32.5-1-65.3,1.8-97.7c0.7-7.8,1.7-15.6,3.2-23.3
			c1.1-5.3,3.4-12.2,0.8-17.5c-1.6-3.2-3.9-3-5.4-0.1c-2.2,4.3-2.7,9.9-3.6,14.5c-1.4,7.7-2.5,15.4-3.5,23.2
			C466.8,263.2,464.6,313,463.7,363.2c0,1.9,3,1.9,3,0c0.8-42.9,2.1-85.7,7-128.3c1.7-14.9,3.5-29.9,6.2-44.7c0.5-2.6,1-5.2,1.6-7.8
			c0.4-1.7,1.4-3.6,1.5-5.3c0-0.2,0.4-1,0.5-1c-0.3,0-0.6,0-0.9,0c0.7,1,1,2.2,1.1,3.4c0.4,2,0.2,4-0.1,6.1
			c-1,6.6-2.7,13.1-3.6,19.8c-3.8,28.7-3.2,58.2-3.2,87.1c0.1,29.6,0.7,59.2,0.4,88.9c-0.3,29.4-1.7,58.7-4.5,88
			c-1.4,15-3,30-4.5,45c-0.7,7.2-1.5,14.5-2.2,21.7c-0.5,4.9,0.2,20-7.3,19.3c-5.6-0.5-2.7-9.2-2.1-12.6c0.5-3.2,0.9-6.4,1.4-9.6
			c1.1-8,2-16.1,2.8-24.2c1.6-15.8,2.6-31.6,3.4-47.4c1.6-32.7,2-65.5,2.6-98.3C466.7,361.2,463.7,361.2,463.7,363.2z"/>
	</g>
</g>
<g>
	<path class="st2" d="M534.7,111.6C534.7,111.6,534.7,111.6,534.7,111.6c9.5-5.9,19.1-11.8,27.2-19.6c7-6.8,13.3-15.3,22.7-17.9
		c4.9-1.4,10.1-1,15.1-0.2c7.2,1.1,14.5,3.1,20.1,7.7c6,5,9.3,12.4,12.5,19.6c4.7,10.8,9.5,21.6,14.2,32.4
		c3.3,7.5,6.7,15.8,4.5,23.7c-1.2,4.6-4.3,8.5-7.7,11.9c-17.3,17.1-43.8,20.6-68.1,19.8c0,0-51.2,1.6-64.4-15.7
		c-1.1-1.5-1.6-3.1-1.6-3.1c-0.9-2.8-0.2-5.2,0.1-6.3c1.2-5.3-1.8-11-3.8-14.9c-3.8-7.4-8.3-8.3-7.9-12c0.4-3.5,4.9-5.5,7-6.8
		C514.5,124,524.6,117.8,534.7,111.6z"/>
	<g>
		<path d="M535.4,112.9c6.7-3,13.3-8.3,19.1-12.7c5.5-4.2,10.2-9.1,15.1-14c5.8-5.9,12-11,20.7-11.5c7.6-0.4,16.6,1.4,23.5,4.8
			c7.5,3.8,11.8,10.7,15.2,18.1c3.7,8,7.1,16.1,10.6,24.1c3.5,8,8.1,16.2,9.8,24.8c2.1,10.1-2.5,17.7-10,24.1
			c-18.9,16.1-44,16.8-67.6,16.8c-17,0-36.7-0.7-52-8.9c-5.9-3.1-10.3-7.2-9.2-14.3c1.1-6.9-2.2-14.1-6.2-19.6
			c-1.8-2.5-5.4-4.8-4.8-7.9c0.7-3.6,6-5.6,9-7.4C517.5,123.9,526.5,118.4,535.4,112.9c1.6-1,0.1-3.6-1.5-2.6
			c-9,5.5-18,11-26.9,16.6c-3.9,2.4-11.7,5.5-11.1,11.2c0.2,1.8,1.3,3,2.4,4.3c3.1,3.5,5.6,6.9,7.5,11.2c1.8,4.2,1.9,7.7,1.4,12.2
			c-0.3,3.1,0.4,5.9,2.2,8.4c5.7,7.9,17.2,11,26.2,13c10.1,2.2,20.5,3.1,30.8,3.3c24,0.6,50.2,0.3,70.6-14.2
			c5.6-4,11.3-9.1,14.2-15.6c3.5-8,1.1-16.5-2-24.2c-3.7-9.1-7.9-18-11.8-27c-3.6-8.1-6.6-17-12.1-24.1c-5.2-6.7-12.5-10.3-20.7-12
			c-8.5-1.9-17.6-2.8-25.5,1.4c-7.6,4-12.9,11.1-19,16.9c-4.2,4-8.8,7.4-13.5,10.7c-4,2.7-8.3,6.1-12.7,8.1
			C532.2,111.1,533.7,113.7,535.4,112.9z"/>
	</g>
</g>
<g>
	<path class="st3" d="M516.1,138c12.6-3,20.9-8.9,34.9-19.1c8.2-5.9,29.1-23,35.9-26.9c1.1-0.6,3-1.6,5.5-1.8c2-0.1,4,0.4,6,1.1
		c4.5,1.4,9.1,3.2,12.3,6.8c1.9,2.2,3.1,4.8,4.3,7.5c3.7,8.4,7.5,16.8,11.2,25.1c2.3,5.1,4.6,10.6,3.7,16.1
		c-1.2,7.5-7.9,12.8-14.7,16.2c-14.4,7.4-30.9,9.9-47.1,9.6c-2.8,0-8.4-0.3-14.9-0.9c-6-0.5-10.1-1.1-16.5-2
		c-3.3-0.5-7.8-1.4-16.7-3.2c-4.5-0.9-8.5-1.8-10.2-5c-0.7-1.3-0.6-2.2-0.9-3.8c-1.1-7.9-5.9-10.1-5.2-13.4
		C504.4,140.4,512.4,138.9,516.1,138z"/>
	<g>
		<path d="M516.5,139.5c17.3-4.3,31.5-16.2,45.3-26.9c6.8-5.2,13.5-10.6,20.4-15.6c2.4-1.7,5-3.8,7.8-4.7c5.5-1.7,14.4,2,18.4,5.8
			c4.6,4.3,6.6,11.7,9.1,17.3c3,6.7,6.3,13.3,8.9,20.1c2.5,6.7,2.9,13.2-2,18.9c-4.2,4.8-10.2,7.8-16,10.1
			c-21.4,8.7-45.3,7.5-67.8,4.4c-4.4-0.6-8.7-1.4-13-2.2c-6.1-1.2-16.1-1.2-17.3-8.7c-0.3-2-0.8-3.9-1.6-5.7c-0.8-1.7-2.3-3.3-2.9-5
			C503.9,141.4,512.3,140.4,516.5,139.5c1.9-0.4,1.1-3.3-0.8-2.9c-5.4,1.2-16.3,3.6-12.7,11.3c0.8,1.8,2.2,3.3,3,5.2
			c1.3,2.9,1,6.1,2.3,8.9c2,4.2,7.1,5.1,11.3,6c23.8,5,49,8.7,73.1,4.1c11.7-2.2,25.7-6.5,33.9-15.7c9.3-10.5,2.5-22.8-2.4-33.7
			c-3.1-7-5.9-14.3-9.4-21.1c-2.9-5.5-7.2-8.6-13-10.8c-4.7-1.8-9.2-3-14-1c-3.5,1.5-6.6,4.1-9.7,6.4c-9,6.6-17.6,13.8-26.6,20.4
			c-11.1,8.2-22.2,16.5-35.8,19.9C513.8,137,514.6,139.9,516.5,139.5z"/>
	</g>
</g>
<g>
	<path class="st4" d="M542.5,201.2L542.5,201.2c8.5,7.2,17.2,14.4,26.6,19.9c8.3,4.8,17.6,8.6,23.5,16.3c3.1,4,4.8,8.7,6.2,13.2
		c2,6.5,3.4,13.4,1.9,19.3c-1.6,6.3-6.2,10.7-10.7,14.9c-6.8,6.4-13.5,12.7-20.3,19.1c-4.7,4.4-10,9.1-17.2,8.8
		c-4.2-0.2-8.5-2-12.6-4.3c-20.7-11.8-34.1-34.3-43.3-55.9c0,0-21.9-44.7-13.3-59.9c0.7-1.3,1.8-2.1,1.8-2.1c1.9-1.3,4.1-1.2,5-1.2
		c4.7,0,8.1-3.8,10.4-6.4c4.4-4.9,3.3-9,6.4-9.4c3-0.4,6.4,3.2,8.3,4.8C524.4,186,533.5,193.6,542.5,201.2z"/>
	<g>
		<path d="M541.4,202.3c9.4,9.7,21.9,17.4,33.6,23.8c5.6,3.1,11.4,6.3,15.6,11.2c5.4,6.4,8.3,15.9,9.1,24.1
			c0.8,8.4-2.6,14.5-8.5,20.3c-5.9,5.8-12.1,11.4-18.2,17.1c-5.3,5-11.1,11.8-18.9,12.4c-8,0.6-16.1-5.2-22.1-9.9
			c-17-13.5-26.4-32.9-35.3-52.2c-6.6-14.3-14-31.2-13.9-47.2c0-2.1,0.2-4.2,0.8-6.2c1.3-4.1,4-4.4,7.9-5c4.8-0.7,8.8-4.6,11.4-8.4
			c2-2.8,2.9-8.5,7.8-5.8c3.4,1.9,6.5,5.4,9.5,7.9C527.4,190.4,534.4,196.4,541.4,202.3c1.5,1.2,3.6-0.9,2.1-2.1
			c-7.5-6.3-15-12.7-22.6-19c-3.3-2.8-9-9.7-14.1-9c-1.7,0.3-2.7,1.3-3.5,2.8c-1.8,3.3-3,6.4-5.8,9.1c-3.1,3.1-5.7,3.3-9.7,4
			c-2,0.3-3.7,1.2-5,2.8c-5.3,6.4-2.8,17.8-1.2,25.1c2.2,9.8,5.8,19.3,9.7,28.5c8.8,20.7,18.8,42,36.2,57
			c10.3,8.9,24.4,17.7,37.2,8.7c6.7-4.7,12.4-11.1,18.4-16.7c5.8-5.4,12.8-10.7,16.8-17.7c4.2-7.4,3.1-15.9,0.9-23.7
			c-2.2-7.9-5.5-15.2-11.8-20.6c-6.2-5.3-13.8-8.4-20.7-12.6c-8.6-5.2-17.8-11.5-24.8-18.7C542.2,198.8,540.1,200.9,541.4,202.3z"/>
	</g>
</g>
<g>
	<path class="st5" d="M513.8,190.2c7.5,10.5,15.5,16.5,29.3,26.8c8,6,30.1,20.9,36,26.1c0.9,0.8,2.5,2.3,3.7,4.5
		c0.9,1.8,1.3,3.6,1.6,5.5c0.7,4.3,1.1,8.7-0.5,12.2c-1,2.1-2.6,3.7-4.3,5.3c-5.2,5-10.4,10-15.6,15c-3.2,3-6.6,6.2-11.4,6.5
		c-6.5,0.5-13.4-4.4-18.9-9.6c-11.7-11.1-20.3-25.1-26.6-39.4c-1.1-2.4-3.1-7.4-5.3-13.3c-2-5.3-3.2-9.1-5-14.9c-1-3-2-7.1-4.2-15.3
		c-1.1-4.1-2-7.8-0.1-10c0.7-0.9,1.5-1,2.7-1.5c5.9-2.6,5.8-7.2,8.6-7.3C507.2,180.5,511.7,187.2,513.8,190.2z"/>
	<g>
		<path d="M512.6,191c9.8,13.5,23.9,23.2,37.4,32.7c6.5,4.6,13,9.1,19.5,13.8c6.7,4.8,12.6,8.6,13.7,17.4c0.4,2.8,0.7,5.9-0.2,8.6
			c-1,3.1-3.6,5.2-5.8,7.3c-4.5,4.3-9,8.6-13.5,12.9c-4.7,4.5-9.4,8.2-16.3,6.1c-5.9-1.9-10.8-6.5-15.1-10.8
			c-15.1-15.4-24.3-35.3-31.2-55.5c-3-9-6.3-18.4-7.9-27.8c-1-5.6,5.6-7.6,8.6-11.6c2-2.6,3.9-1.4,6,0.7
			C509.6,186.7,511.1,188.9,512.6,191c1.1,1.6,3.7,0.1,2.6-1.5c-2.8-3.9-9.3-14.4-14.7-8.5c-1.7,1.8-2.6,3.7-4.8,5
			c-1.6,1-3.3,1.2-4.5,2.8c-3.1,3.9-0.2,10.6,0.9,14.7c5.7,21.8,13.2,43.9,26,62.7c6.7,9.8,15.5,21.3,26.8,25.9
			c11.9,4.9,19.5-4.7,27.4-12.3c4-3.9,9.4-7.7,12.4-12.5c2.8-4.7,2.1-10.8,1.1-15.9c-1.6-7.7-8.3-11.8-14.2-16.1
			c-8.6-6.3-17.5-12.3-26.1-18.6c-11-8-22-16.1-30.1-27.2C514,187.9,511.4,189.4,512.6,191z"/>
	</g>
</g>
<g>
	<path class="st5" d="M457.9,232.9L457.9,232.9c-6.4,9.1-12.8,18.4-17.4,28.3c-4,8.7-6.9,18.3-14.1,24.9c-3.7,3.4-8.2,5.6-12.6,7.4
		c-6.3,2.6-13,4.6-19,3.6c-6.4-1-11.3-5.2-15.8-9.3c-6.9-6.2-13.9-12.3-20.8-18.5c-4.8-4.3-9.9-9.1-10.3-16.3
		c-0.2-4.2,1.2-8.7,3.2-12.9c9.9-21.6,31.1-37.1,51.8-48.1l0,0c31.2-19.1,54.5-23.8,58.1-18.6c0.4,0.6,0.7,1.6,2.5,4.7
		c1.2,2.1,2.3,3.8,3,4.9c0.7,1.3,1.9,3.2,3.9,4.9c0.4,0.4,1.3,1.1,2.5,1.8c4.4,2.7,7.5,1.9,9,4.6c0.3,0.5,0.4,0.9,0.4,1
		c0.6,2.9-2.6,6.7-4,8.7C471.4,213.6,464.6,223.2,457.9,232.9z"/>
	<g>
		<path d="M457.1,231.6c-1.5,0.7-2.8,3.8-3.7,5.1c-2.1,3.1-4.2,6.1-6.2,9.3c-3.8,6-7.1,12.1-9.9,18.6c-2.2,5.1-4.3,10.3-7.4,15
			c-4.5,6.6-11,10.3-18.3,13.1c-7.1,2.7-14.9,4.6-22.1,1.1c-6.7-3.3-12.3-9.5-17.8-14.4c-5.3-4.7-10.7-9.1-15.7-14.1
			c-5.8-5.7-8.1-12.1-5.6-20.1c7.7-24.6,31.9-40.1,53-52.1c11.3-6.5,22.6-12.8,35-17c3.8-1.3,7.6-2.4,11.6-3
			c2.4-0.4,6.3-1.1,8.6,0.2c1.2,0.7,1.5,1.7,2.1,2.8c1.3,2.5,2.9,4.9,4.4,7.3c2.6,4.1,5.7,7.1,10.3,8.8c1.1,0.4,3.4,0.7,4.2,1.5
			c2.5,2.5,0.1,5.2-1.3,7.3c-1.9,2.8-3.9,5.5-5.8,8.3c-5.3,7.5-10.5,15.1-15.8,22.6c-1.1,1.6,1.5,3.1,2.6,1.5
			c5.3-7.5,10.5-15,15.8-22.6c2.7-3.9,9.6-10.6,8.7-15.9c-0.8-4.9-7.4-5.1-10.8-7.2c-5.3-3.4-7.2-9.8-10.5-14.7
			c-3-4.5-9.5-3.5-14.1-2.6c-12.2,2.1-24,7.7-34.9,13.5c-24.2,12.9-50.7,28.1-63.2,53.9c-2.7,5.6-5.1,12.1-3.5,18.4
			c1.5,5.9,5.9,10.2,10.3,14.1c6.7,6,13.4,11.9,20.1,17.8c4.8,4.3,9.9,8.9,16.5,10.2c7.6,1.5,15.5-1.2,22.4-4.2
			c7-3,12.8-7.2,17-13.7c4.4-6.8,6.8-14.6,10.4-21.8c2.2-4.4,4.8-8.6,7.4-12.7c1.2-1.8,2.4-3.6,3.6-5.4c0.7-1.1,3-5.8,4.2-6.4
			C460.4,233.4,458.9,230.8,457.1,231.6z"/>
	</g>
</g>
<g>
	<path class="st4" d="M466.2,203.4c-9.8,8.4-15.1,17-24,31.6c-5.2,8.5-18.1,31.9-22.7,38.2c-0.7,1-2.1,2.7-4.2,4.1
		c-1.7,1.1-3.5,1.6-5.3,2c-4.2,1-8.6,1.9-12.2,0.6c-2.2-0.8-3.9-2.3-5.6-3.8c-5.4-4.7-10.9-9.5-16.3-14.2c-3.3-2.9-6.8-6-7.5-10.8
		c-1-6.4,3.1-13.8,7.8-19.7c10-12.7,23.2-22.5,36.9-30.1c2.3-1.3,7.1-3.8,12.8-6.5c5.1-2.4,8.8-4,14.4-6.3c2.9-1.2,6.9-2.7,14.9-5.5
		c4-1.4,7.6-2.7,10-1c0.9,0.7,1.1,1.4,1.8,2.5c3.1,5.6,7.7,5.1,8.1,7.9C475.4,195.9,469.1,201,466.2,203.4z"/>
	<g>
		<path d="M465.2,202.3c-12.6,11-20.9,26-29.2,40.4c-3.9,6.7-7.7,13.5-11.7,20.1c-3.8,6.3-6.9,13-14.7,15c-4,1-8.6,2-12.6,0
			c-2.5-1.3-4.6-3.6-6.7-5.4c-4.8-4.2-9.7-8.3-14.4-12.6c-4.7-4.3-7.3-9-5.4-15.5c1.8-6,6.1-11.3,10.1-15.9
			c13.8-15.6,32.1-26.2,51-34.7c4.3-1.9,8.6-3.8,13-5.5c4.7-1.8,10-4.5,15-5.3c5.3-0.8,5.4,2.2,8,4.9c1.2,1.2,2.8,1.8,4,3
			C475.6,194.9,468.1,199.8,465.2,202.3c-1.5,1.3,0.7,3.4,2.1,2.1c4-3.4,13.4-10.5,6.5-15.6c-2.5-1.8-4.1-3-6-5.7
			c-1-1.4-1.5-2.4-3.1-3.1c-4.6-1.9-10.7,1.7-15,3.2c-20.8,7.5-41.7,17-58.9,31.2c-9.1,7.5-19.8,17.5-23.3,29.1
			c-3.6,12.1,6.7,18.8,14.7,25.8c4.5,3.9,9.2,9.6,14.8,11.8c5.1,2,12.5,0.5,17.3-1.8c6.4-3,9.9-10.8,13.3-16.6
			c11.7-19.8,21.9-43,39.5-58.4C468.8,203.2,466.6,201.1,465.2,202.3z"/>
	</g>
</g>
<g>
	<path class="st4" d="M505.8,96.1C505.8,96.1,505.8,96.1,505.8,96.1c1.2-11.1,2.4-22.3,5.7-32.9c2.8-9.2,7.3-18.5,6-28.1
		c-0.7-5-2.9-9.6-5.3-13.8c-3.5-6.1-7.7-11.9-13.4-15.1c-6.1-3.4-13.2-3.3-20-3.2c-10.3,0.2-20.6,0.4-30.8,0.6
		c-7.2,0.1-15,0.5-20.4,5.8c-3.2,3.1-5.2,7.4-6.6,11.9c-7.2,22.9-0.4,48.4,9.1,70.2c0,0,17.3,47.2,35.8,52.1c1.6,0.4,3,0.2,3,0.2
		c2.5-0.4,4.2-2,4.9-2.7c3.8-3.3,9.3-2.9,13.2-2.7c7.2,0.4,9.6,4.1,12.4,2.2c2.7-1.8,2.6-6.7,2.9-9.2
		C503.4,119.6,504.6,107.8,505.8,96.1z"/>
	<g>
		<path d="M507.3,96.1c0-8.8,2-18.6,4.1-27.1c2.2-8.8,6.3-17.2,7.5-26.3c0.9-7.4-1.2-14.2-4.7-20.7c-3.5-6.3-7.8-12.9-14.1-16.7
			c-6.8-4-14.8-3.9-22.4-3.8c-9.6,0.2-19.3,0.4-28.9,0.5c-6.5,0.1-13.5,0.3-19.2,3.8c-5.7,3.5-8.6,9.7-10.5,15.8
			c-7.9,26.1,1.9,52.7,12,76.8c3.8,9,8,17.9,13.2,26.2c4.6,7.4,10.5,16.1,18.9,19.6c2.2,0.9,4.4,1.3,6.7,0.8
			c3.6-0.9,5.7-4.1,9.4-4.9c4.2-0.9,9.2-0.4,13.2,1c1.9,0.6,3.9,1.9,5.9,1.5c5.1-1,5-8.2,5.4-12.1
			C504.8,118.9,506.1,107.5,507.3,96.1c0.2-1.9-2.8-1.9-3,0c-0.9,8.2-1.7,16.3-2.6,24.5c-0.4,3.9-0.9,7.8-1.3,11.7
			c-0.3,3.2-0.5,7.5-4.6,6.9c-2.1-0.3-4.2-1.6-6.4-2c-2.6-0.5-5.3-0.6-7.9-0.4c-2.4,0.2-4.8,0.6-6.9,1.8c-2.9,1.6-4.8,4.4-8.6,3.5
			c-8.1-1.7-14.3-11.2-18.4-17.6c-4.8-7.5-8.8-15.4-12.4-23.6C427,82,419,62,419.2,41c0.1-8,1.3-16.2,4.6-23.5
			c3.5-7.9,9.8-11.4,18.2-12.1c7.7-0.7,15.5-0.4,23.2-0.6c7.8-0.1,15.8-0.9,23.6,0c18.5,2.2,30.5,25.3,26.3,42.3
			c-2.1,8.6-5.7,16.7-7.5,25.5c-1.5,7.4-3.3,15.8-3.2,23.4C504.4,98,507.4,98,507.3,96.1z"/>
	</g>
</g>
<g>
	<path class="st5" d="M490.2,123.8c-1.9-12.8,0-22.7,3.4-39.6c2-9.8,8.5-35.8,9.3-43.6c0.1-1.3,0.3-3.4-0.5-5.8
		c-0.6-1.9-1.7-3.5-2.9-5.1c-2.7-3.6-5.7-7.1-9.6-8.6c-2.4-0.9-4.9-0.9-7.4-0.9c-8-0.1-16-0.2-24-0.3c-4.9-0.1-10.1,0-14.2,3
		c-5.6,4.1-7.5,12.4-8,19.9c-1,16.1,2.6,32.3,8.4,47c1,2.5,3.1,7.6,5.8,13.3c2.5,5.3,4.3,8.8,7.3,14.3c1.5,2.8,3.8,6.6,8.3,14
		c2.3,3.8,4.3,7.1,7.5,7.4c1.2,0.1,2-0.3,3.3-0.7c6.7-2.1,10.1,1.3,12.5-0.5C492.3,135.5,490.8,127.5,490.2,123.8z"/>
	<g>
		<path d="M491.7,123.4c-3.1-21.8,4.7-44.6,9.4-65.8c1.6-7.2,5.3-17.4,2.2-24.6c-1.7-4-5.3-8.1-8.6-10.7c-4.8-3.8-10.4-3.5-16.2-3.6
			c-7.7-0.1-15.5-0.5-23.3-0.2c-5.2,0.2-10.3,1.3-14,5.3c-7.9,8.4-7.1,23.5-6.1,34c2.3,23.3,12.5,45.9,24.3,65.9
			c2.9,4.9,5.6,11.6,10.1,15.2c4.4,3.5,9.6-0.1,14.7,0.6c3.1,0.4,5.7,0.9,7.4-2.3C493.7,133.1,492.3,127.6,491.7,123.4
			c-0.3-1.9-3.2-1.1-2.9,0.8c0.5,3.4,2.7,11.8-2.1,12.5c-1.2,0.2-2.9-0.5-4.2-0.6c-2.2-0.1-4,0.4-6.1,0.7c-4.7,0.6-5.8-0.8-8.3-4.6
			c-1.3-2.1-2.5-4.2-3.8-6.3c-1.7-2.9-3.5-5.8-5.1-8.8c-10.4-19.3-19.7-40-21.3-62.1c-0.7-10.1-1.4-27.4,9.9-32.1
			c5.6-2.4,12.7-1.3,18.7-1.3c6.3,0.1,12.7-0.3,19,0.3c6.4,0.6,11.4,5.7,14.4,11.1c2.3,4.1,1.5,8.4,0.7,12.7
			c-1.4,7.6-3.2,15.1-4.9,22.6c-4.2,18.2-9.5,37.2-6.8,56C489,126.1,491.9,125.3,491.7,123.4z"/>
	</g>
</g>
<g>
	<path class="st2" d="M431.3,117.4L431.3,117.4c-9.4-5.9-19-12-27.1-19.3c-7.1-6.4-13.5-14.1-22.7-17.4c-4.7-1.7-9.7-2-14.5-2
		c-6.8,0-13.7,0.8-18.9,3.9c-5.5,3.4-8.3,9-10.9,14.5c-4,8.3-7.9,16.6-11.9,24.8c-2.8,5.8-5.6,12.1-3.1,18.9c1.4,3.9,4.5,7.5,8,10.6
		c17.5,16.1,43.1,22.1,66.3,24.4c0,0,49.1,7.5,60.9-5.1c1-1.1,1.4-2.3,1.4-2.3c0.7-2.2-0.1-4.3-0.4-5.1c-1.4-4.5,1.1-8.8,2.9-11.7
		c3.3-5.6,7.5-5.8,6.9-8.9c-0.6-2.9-5-5.1-7.1-6.4C451.3,130,441.3,123.7,431.3,117.4z"/>
	<g>
		<path d="M432,116.1c-7.5-3.7-14.9-9.4-21.5-14.6c-6.2-4.9-11.5-10.9-17.7-15.9c-11.3-9-28.9-11.5-42.4-5.8
			c-6,2.5-9.9,7.5-12.8,13.2c-4.4,8.4-8.2,17.1-12.3,25.6c-3.1,6.4-6.8,13.5-5.1,20.9c1.7,7.2,8,12.7,13.6,17.1
			c19.2,14.8,43.3,18.5,66.7,21.4c8.9,1.1,17.9,1.7,26.8,1.7c8.8-0.1,19.1-0.4,27-4.8c3.8-2.1,6.7-5.3,6-9.9c-0.4-2.6-1.1-5-0.3-7.7
			c0.7-2.4,2.5-5.3,4.1-7.2c1.5-1.8,4.4-3.1,5.3-5.4c2-5.2-5.9-8.7-9.2-10.8C450.9,128,441.5,122.1,432,116.1
			c-1.6-1-3.1,1.6-1.5,2.6c6.7,4.2,13.3,8.4,20,12.6c3.3,2.1,6.6,4.2,10,6.3c1,0.6,2,1.2,3,1.8c2,0.9,2.9,2.5,2.8,4.9
			c-0.5,0.4-0.9,0.8-1.4,1.2c-3.4,3.8-6.8,7.2-8,12.5c-0.5,2.4,0.1,4.2,0.4,6.5c0.6,3.9-0.8,5.7-4,7.5c-7.2,4.1-16.7,4.4-24.8,4.5
			c-7.9,0.1-15.7-0.3-23.6-1.2c-19.1-2-38.6-4.5-56.1-13.1c-12.4-6.1-30.1-17.2-24.9-33.3c2.5-7.6,6.8-14.9,10.3-22.1
			c3.2-6.7,5.9-14.9,11.3-20.2c6.4-6.4,16.6-6.8,25.1-6.3c9.9,0.5,17.2,4.6,24.3,11.1c10.9,10,22.2,20.6,35.5,27.3
			C432.2,119.6,433.8,117,432,116.1z"/>
	</g>
</g>
<g>
	<path class="st3" d="M450.5,141.3c-12.3-4-20.5-9.8-34.4-19.8c-8.1-5.8-29.1-22.3-35.8-26.3c-1.1-0.6-3-1.7-5.4-2.1
		c-2-0.4-3.8-0.1-5.7,0.1c-4.2,0.6-8.6,1.5-11.4,4.1c-1.7,1.5-2.7,3.6-3.7,5.6c-3.1,6.4-6.3,12.8-9.4,19.2
		c-1.9,3.9-3.9,8.1-2.7,12.7c1.5,6.3,8.3,11.4,14.9,15c14.2,7.8,30.1,11.8,45.6,13.5c2.7,0.3,8,0.8,14.3,1.1
		c5.7,0.3,9.6,0.3,15.7,0.3c3.1,0,7.4-0.2,15.8-0.6c4.3-0.2,8-0.4,9.5-2.8c0.6-0.9,0.5-1.7,0.6-3c0.6-6.3,5.1-7.6,4.3-10.3
		C461.8,144.6,454.1,142.4,450.5,141.3z"/>
	<g>
		<path d="M450.9,139.8c-20.5-6.8-37.6-22.3-54.6-35.1c-6.1-4.5-13.3-11.7-21-13.2c-4.4-0.8-10.5,0.4-14.5,2.1
			c-5.9,2.5-7.9,8.2-10.5,13.6c-4.5,9.2-14,21.7-7.9,32.1c5.8,9.7,18.8,14.8,28.8,18.4c21.8,7.9,46,9.2,69,8.2
			c5-0.2,12.4,0.8,16.8-2c1.3-0.8,2.1-1.8,2.6-3.2c0.3-0.8,0.3-2.9,0.5-3.5c0.4-1.8,1.3-3.2,2.3-4.7c1.6-2.5,2.8-4.3,0.6-7
			C460.3,142.3,454.8,141.1,450.9,139.8c-1.8-0.6-2.6,2.3-0.8,2.9c2.7,0.9,10,2.3,11,5.3c0.6,1.8-3.3,6.4-3.9,8.5
			c-0.8,2.5-0.7,4.7-3.6,5.6c-2.6,0.9-6.3,0.6-9,0.7c-3.7,0.2-7.4,0.4-11.1,0.4c-19.8,0.2-40.1-1.1-59.1-7.4
			c-9.9-3.3-23.9-8.4-29.6-17.9c-3.8-6.4-0.1-12.6,2.8-18.6c2.8-5.7,5.2-11.8,8.4-17.2c3.3-5.7,10.3-8.1,16.8-7.7
			c4,0.2,7.3,2.5,10.5,4.7c6.4,4.4,12.6,9.2,18.8,13.9c14.9,11.3,30,23.8,47.9,29.8C451.9,143.3,452.7,140.4,450.9,139.8z"/>
	</g>
</g>
<g>
	<g>
		<path d="M470.7,520.3c12.4-11.5,19.7-26.8,26.4-42c7.2-16.4,14.9-32.4,24.3-47.8c9.7-15.9,20.7-31.1,32.8-45.2
			c11.9-13.8,26.3-25.7,35.8-41.3c10.4-17,15.6-36.5,20.7-55.6c0.5-1.9-2.4-2.7-2.9-0.8c-4.6,17.3-9.2,34.8-17.8,50.6
			c-9,16.4-23.4,28.5-35.6,42.4c-23.3,26.5-42.3,56.5-56.6,88.8c-7.7,17.4-15,35.6-29.2,48.8C467.2,519.5,469.3,521.6,470.7,520.3
			L470.7,520.3z"/>
	</g>
</g>
<g>
	<g>
		<path d="M465.7,399.3c-4.7-7-9.5-14.1-15.7-19.9c-6.6-6.1-14.9-10.1-20.8-16.9c-6.3-7.1-9.5-16.3-12.4-25.1
			c-3.2-9.6-6.4-19.2-9.6-28.8c-0.6-1.8-3.5-1-2.9,0.8c3.3,9.9,6.5,19.7,9.8,29.6c2.7,8,5.6,16.1,10.7,22.9
			c4.9,6.6,11.7,10.8,18.2,15.6c8.4,6.3,14.3,14.7,20.1,23.3C464.2,402.5,466.8,401,465.7,399.3L465.7,399.3z"/>
	</g>
</g>
<g>
	<path class="st2" d="M480.7,137.7C480.7,137.7,480.7,137.7,480.7,137.7c1.7-0.8,3.5-1.4,5.4-1.6c2.7-0.2,5.3,0.7,7.7,1.9
		c7.1,3.7,12.7,10.4,14.8,18.1c2.1,7.8,0.5,16.4-4.5,22.8c-3.7,4.7-8.9,8-14.4,10.6c-2.8,1.3-5.9,2.5-9,2.3
		c-2.6-0.2-5.1-1.4-7.3-2.8c-9.4-6-15-17.2-14.9-28.3C458.5,148.1,470.1,142.2,480.7,137.7z"/>
	<g>
		<path d="M481.4,139c13.7-5.9,26.1,11.4,26.5,23.5c0.2,6.9-2.6,13.6-7.6,18.4c-4.6,4.4-12.8,9.7-19.4,9.3
			c-12.9-0.8-21.2-18.2-21-29.5C460.2,148.7,471.9,143.1,481.4,139c1.8-0.8,0.2-3.4-1.5-2.6c-9.3,4.1-20.4,9.5-22.6,20.5
			c-2.2,11.1,3.5,23.8,11.9,30.9c4.2,3.5,9.2,6.2,14.7,5.3c5.9-1,12-4.7,16.6-8.4c9.7-8,13-21.6,7.9-33.1
			c-4.7-10.7-16.7-20.3-28.5-15.1C478.1,137.1,479.7,139.7,481.4,139z"/>
	</g>
</g>
</svg>
