<svg id="Layer_1" data-name="Layer 1" xmlns="http://www.w3.org/2000/svg" viewBox="0 0 367.01 557.96"><defs><style>.cls-1{fill:#fff;}</style></defs><title>flower</title><path class="cls-1" d="M597.84,182.52c29.44,60.72,30.17,134.63,1.94,195.93-9.24,20.06-21.5,38.9-37.43,54.2-20.91,20.07-47.75,33.75-66.2,56.1-17,20.54-25.8,47.23-44.64,66.07,5.38-5.38,5.59-35.86,7.68-44.35,3-12.22,5.1-24.59,8.27-36.67,7.26-27.7,15.32-39,30-71.53,28.18-62.41,22.4-73.61,45.73-104.21C557.07,279.86,561,281.3,572,264.76,591.4,235.58,596.6,204.7,597.84,182.52Z" transform="translate(-278.5 -2.51)"/><path d="M596.54,183.27c24.94,52,29.16,113,12,168-8.68,27.89-22.77,54.89-43.1,76.07-19.07,19.86-43.89,32.93-63.26,52.45-21.5,21.67-30.46,52.21-51.78,73.92l2.12,2.12c2.48-2.78,3.24-6.86,3.91-10.4,1.06-5.63,1.6-11.35,2.13-17,1.32-14.14,4.25-27.58,7.28-41.47a221.87,221.87,0,0,1,14-44.07c6.56-14.6,13.94-28.82,20.45-43.45,6.08-13.68,11.69-27.57,16.68-41.69,3.28-9.29,6.18-18.73,9.75-27.91A118.61,118.61,0,0,1,539.28,306c7.09-10.43,15.71-18.91,24.29-28,23.67-25.09,33.79-61.85,35.77-95.5.11-1.93-2.89-1.92-3,0-1.89,32.06-11.3,66.32-32.75,91-7.8,9-16.54,16.71-23.64,26.38a122.2,122.2,0,0,0-13.73,23.51c-8.74,20.08-14.43,41.41-22.88,61.64-11.6,27.77-27.56,54.1-35.9,83.14-2.83,9.85-4.84,19.89-7,29.91-1.42,6.61-3.15,13.08-3.86,19.81-.68,6.47-1.13,13-1.91,19.44-.59,4.82-.8,12.55-4.23,16.4-1.28,1.43.76,3.51,2.12,2.12,19.64-20,28.38-47.62,46.76-68.56,18.89-21.52,45-34.82,65.29-54.79,40.78-40.08,58.95-101.19,57.21-157.31a232.89,232.89,0,0,0-22.69-93.45C598.3,180,595.71,181.54,596.54,183.27Z" transform="translate(-278.5 -2.51)"/><path class="cls-1" d="M441.53,420.74h0c-11.62-17.73-29.86-29.89-44.35-45.35a135.28,135.28,0,0,1-33.52-64.48c-2.27-10.88-3.2-22.08-6.73-32.61-7.81-23.36-27.47-40.84-48.35-53.9-6.75-4.22-13.79-8.16-19.44-13.77s-9.84-13.27-9.22-21.21a3.85,3.85,0,0,1,.62-2.08c1.26-1.65,3.88-.66,5.6.5,9.18,6.19,17.15,14,26.18,20.42,8.61,6.1,18.09,10.84,27.1,16.33a190.31,190.31,0,0,1,73.34,82.32c5.31,11.53,9.64,23.87,18.21,33.23,9.52,10.38,23.77,16.5,30.46,28.9,6.81,12.64,3.82,28,1.64,42.22-2.64,17.18,1.08,40.25-5.34,56.12C452.81,451.19,451.18,435.45,441.53,420.74Z" transform="translate(-278.5 -2.51)"/><path d="M442.83,420c-11-16.84-27.76-28.58-41.76-42.72a134.4,134.4,0,0,1-33.54-57c-3.17-11-4.26-22.32-6.73-33.44a79.64,79.64,0,0,0-11.55-27.34c-10.83-16.14-26.46-28.07-42.82-38.17-9.74-6-20.82-12.77-24.21-24.5-.71-2.45-2.17-10.78,3.15-7.67a62.27,62.27,0,0,1,6.73,4.94c4.59,3.6,9,7.43,13.56,11,9.05,7.15,19.06,12.59,29,18.39a188.35,188.35,0,0,1,67.07,65.82,241.27,241.27,0,0,1,13.78,27.46c4,9.11,8.39,18.24,15.4,25.47s16.35,12.4,23.47,19.81c9.55,9.94,10.62,22.76,9.13,35.87-1.29,11.33-3,22.18-3.08,33.63-.13,11.86.16,24.17-4.13,35.43h2.89c-4.76-16-7.22-32.64-16.35-47-1-1.62-3.63-.12-2.59,1.51,9,14.13,11.36,30.51,16,46.28a1.51,1.51,0,0,0,2.89,0c3.79-9.94,4.05-20.76,4.19-31.28a252.39,252.39,0,0,1,2.42-33.14c1.51-10.5,2.58-21.68-1.51-31.77-3.35-8.27-10-14.16-16.84-19.52-9.43-7.34-17.76-14.15-23.6-24.83-5.25-9.61-8.93-20-14-29.7a192,192,0,0,0-63.57-70.4C336,220.32,324.78,215,314.6,208c-9.71-6.64-18-16.12-28.27-21.81-8.56-4.72-8.66,5.74-7,11.38,2.81,9.54,10.37,16.36,18.36,21.73,9.83,6.61,20,12.36,29.1,20a103,103,0,0,1,21.55,24.24c6.65,10.78,9.53,22.56,11.6,34.93,4.24,25.34,12.54,48.63,28.56,69,15.44,19.66,38,32.92,51.74,53.93C441.29,423.1,443.89,421.6,442.83,420Z" transform="translate(-278.5 -2.51)"/><path class="cls-1" d="M457.31,364.93c-1.1,62.34-1.47,125.92-11,185a16.69,16.69,0,0,0-.22,6c.6,2.71,2.33,3.09,3.75,3.09,2.74,0,5.89-.4,7.57-5a34.4,34.4,0,0,0,1.42-7.95l5.79-57.3c1.56-15.49,3.13-31,4.2-46.67,4.5-65.87.17-133,2.29-199.43.55-17.16,1.57-34.6,5-50.18a46.92,46.92,0,0,0,1.44-8.77c.1-3.11-.61-6.6-2-7.54h0c-4.9-3.25-13.18,77.16-14,87.59C458.78,297.19,457.9,331.11,457.31,364.93Z" transform="translate(-278.5 -2.51)"/><path d="M455.81,364.93c-.57,32.2-.93,64.42-2.48,96.6-.76,15.87-1.81,31.74-3.35,47.56q-1.09,11.22-2.53,22.41-.81,6.26-1.76,12.51c-.51,3.34-1.58,7-1.32,10.45.67,8.92,11.56,7,14.31.32,2.31-5.57,2-12.68,2.62-18.59l2.59-25.69c3.29-32.57,6.77-65.09,7.87-97.83,1.1-32.92.58-65.87.32-98.8-.26-31.91-.91-64.12,1.84-95.94a198.58,198.58,0,0,1,3.26-23.3c1.1-5.3,3.44-12.27.81-17.52-1.76-3.51-4.18-2.81-5.58.3-2.07,4.6-2.7,10.12-3.57,15-1.37,7.78-2.46,15.6-3.49,23.43-6.52,49.51-8.66,99.13-9.55,149,0,1.93,3,1.93,3,0,.76-42.63,2.11-85.21,6.93-127.59,1.71-15,3.49-30,6.15-44.91.48-2.68,1-5.36,1.6-8,.43-1.84,1.52-4,1.68-5.88a2.9,2.9,0,0,1,.54-1.05c-1.35,1.56-1.84-4-.05,2.06a15.3,15.3,0,0,1,.23,5.79c-.65,7-2.76,14-3.71,21-3.83,28.59-3.29,57.92-3.22,86.7.07,30,.67,60,.4,90-.27,29.49-1.71,58.86-4.54,88.21-1.45,15-3,30.07-4.53,45.1l-2,19.76c-.49,4.88.38,22-7.56,21.29-5.49-.5-2.8-8.42-2.29-11.76q.81-5.25,1.52-10.52,1.57-11.62,2.74-23.29c1.62-16.12,2.73-32.28,3.53-48.46,1.63-32.81,2-65.67,2.57-98.52C458.84,363,455.84,363,455.81,364.93Z" transform="translate(-278.5 -2.51)"/><path class="cls-1" d="M526.93,112.86h0c9.55-5.88,19.18-11.83,27.24-19.64,7-6.82,13.32-15.34,22.74-18,4.88-1.37,10.09-1,15.11-.19,7.19,1.11,14.54,3.09,20.16,7.77,6,5,9.35,12.44,12.48,19.61l14.21,32.49c3.3,7.55,6.67,15.85,4.53,23.78-1.25,4.62-4.27,8.54-7.67,11.89-17.38,17.12-43.89,20.66-68.29,19.83,0,0-51.27,1.65-64.56-15.74a11.17,11.17,0,0,1-1.62-3.1,11.47,11.47,0,0,1,.07-6.27c1.18-5.28-1.8-11-3.83-14.89-3.84-7.38-8.32-8.31-7.91-12,.39-3.54,4.9-5.53,7-6.85C506.68,125.26,516.82,119.08,526.93,112.86Z" transform="translate(-278.5 -2.51)"/><path d="M527.69,114.15c6.7-3,13.36-8.29,19.19-12.74,5.52-4.23,10.25-9.11,15.1-14.06,5.83-6,12.06-11,20.74-11.48a49.25,49.25,0,0,1,23.51,4.85c7.5,3.8,11.79,10.76,15.22,18.15,3.71,8,7.09,16.11,10.61,24.17s8.09,16.26,9.87,24.89c2.08,10.1-2.55,17.77-10,24.16-18.93,16.14-44.12,16.82-67.7,16.87-17,0-36.8-.73-52.13-8.88-5.87-3.12-10.37-7.18-9.27-14.37,1.06-6.9-2.21-14.13-6.23-19.63-1.84-2.52-5.46-4.77-4.81-7.94.74-3.59,6.05-5.57,9-7.38,9-5.56,18-11.06,27-16.59,1.64-1,.14-3.61-1.51-2.59-9,5.53-18,11-27,16.59-3.87,2.4-11.74,5.46-11.09,11.24a8,8,0,0,0,2.44,4.32A41.48,41.48,0,0,1,498.07,155c1.85,4.22,1.89,7.72,1.4,12.19a11.71,11.71,0,0,0,2.24,8.43c5.71,7.92,17.24,11.07,26.24,13a167.86,167.86,0,0,0,30.9,3.32c24.07.6,50.29.34,70.71-14.2,5.66-4,11.35-9.13,14.2-15.61,3.52-8,1.12-16.57-2-24.28-3.74-9.11-7.87-18.08-11.82-27.11-3.57-8.16-6.64-17.07-12.15-24.17-5.2-6.7-12.56-10.27-20.72-12.07-8.48-1.87-17.62-2.81-25.57,1.38-7.6,4-12.89,11.13-19,16.93a106.38,106.38,0,0,1-13.57,10.7c-4,2.71-8.31,6.1-12.72,8.1C524.42,112.36,525.94,114.94,527.69,114.15Z" transform="translate(-278.5 -2.51)"/><path class="cls-1" d="M508.28,139.3c12.68-3,20.9-8.94,35-19.15,8.17-5.93,29.16-23,36-26.92a12.9,12.9,0,0,1,5.56-1.8,16.17,16.17,0,0,1,6,1.06c4.52,1.44,9.17,3.22,12.29,6.78a28.76,28.76,0,0,1,4.27,7.48l11.2,25.18c2.28,5.12,4.61,10.6,3.72,16.13-1.21,7.5-7.94,12.81-14.7,16.27-14.41,7.4-30.95,9.91-47.15,9.65-2.78,0-8.37-.28-15-.86-6-.53-10.09-1.11-16.51-2-3.32-.47-7.78-1.37-16.71-3.18-4.5-.91-8.51-1.77-10.25-5a9.65,9.65,0,0,1-.87-3.76c-1.11-7.92-5.86-10.16-5.24-13.42C496.6,141.71,504.59,140.17,508.28,139.3Z" transform="translate(-278.5 -2.51)"/><path d="M508.67,140.75c17.32-4.28,31.59-16.26,45.42-27,6.77-5.26,13.49-10.61,20.46-15.61,2.41-1.73,5-3.82,7.85-4.73,5.95-1.87,15.67,2.47,19.56,6.92s5.72,11,8,16.17c3,6.8,6.42,13.55,9,20.52,2.45,6.57,2.65,13-2.17,18.59-3.52,4-8.4,6.74-13.22,8.94-22.08,10.07-47.26,8.87-70.73,5.61-4.13-.57-8.22-1.27-12.31-2.08-6.17-1.22-16.78-1.28-18-8.9-.71-4.36-3-6.88-4.47-10.77-2.1-5.64,6.41-6.7,10.57-7.67,1.88-.43,1.08-3.33-.8-2.89-5.27,1.22-16.49,3.63-12.77,11.37.86,1.8,2.2,3.34,3,5.17,1.33,2.92,1,6.32,2.43,9.13,2.08,4.09,7.16,5,11.22,5.84,23.83,5,49,8.74,73.22,4.12,11.69-2.23,25.78-6.51,34-15.75,9.13-10.3,2.79-22.13-2-32.86-5.35-12-8.76-27.29-22.1-32.52-4.86-1.9-9.74-3.42-14.76-1.27-3.35,1.43-6.35,3.9-9.26,6-9.05,6.67-17.74,13.81-26.75,20.52-11.17,8.33-22.51,16.81-36.24,20.2C506,138.32,506.8,141.21,508.67,140.75Z" transform="translate(-278.5 -2.51)"/><path class="cls-1" d="M534.75,202.66h0c8.55,7.2,17.19,14.46,26.7,19.95,8.29,4.79,17.65,8.59,23.56,16.33a41.27,41.27,0,0,1,6.23,13.25c2,6.55,3.37,13.42,1.89,19.32-1.59,6.3-6.21,10.76-10.7,15L562.1,305.61c-4.72,4.44-10,9.1-17.24,8.83-4.2-.16-8.57-2-12.61-4.32-20.71-11.79-34.21-34.39-43.36-56,0,0-21.95-44.76-13.35-60a7,7,0,0,1,1.83-2.06,8.45,8.45,0,0,1,5.05-1.21c4.71,0,8.09-3.82,10.39-6.4,4.37-4.88,3.32-9,6.46-9.41s6.4,3.18,8.31,4.76C516.67,187.38,525.7,195,534.75,202.66Z" transform="translate(-278.5 -2.51)"/><path d="M533.69,203.72c9.41,9.69,21.91,17.46,33.69,23.85,5.63,3.06,11.42,6.27,15.61,11.24,5.37,6.37,8.29,16,9.1,24.18.83,8.43-2.65,14.55-8.48,20.3s-12.14,11.45-18.21,17.16c-5.32,5-11.09,11.87-18.9,12.46-8,.61-16.18-5.21-22.15-9.95-17.07-13.54-26.5-33-35.41-52.27-6.61-14.35-14.07-31.23-13.89-47.3a21.17,21.17,0,0,1,.82-6.2c1.3-4.07,4-4.37,7.93-5,4.78-.73,8.79-4.66,11.47-8.47,2-2.84,2.86-8.57,7.81-5.79,3.4,1.91,6.52,5.46,9.49,8q10.57,8.88,21.12,17.8c1.47,1.24,3.6-.88,2.12-2.12q-11.32-9.53-22.63-19.07c-3.33-2.79-9.06-9.77-14.1-9a4.65,4.65,0,0,0-3.47,2.79c-1.8,3.29-3,6.41-5.79,9.11-3.15,3.06-5.71,3.34-9.75,4a8,8,0,0,0-5,2.77c-5.32,6.43-2.84,17.84-1.19,25.12A170.07,170.07,0,0,0,483.59,246c8.85,20.79,18.84,42.09,36.25,57.14,10.28,8.88,24.4,17.76,37.24,8.73,6.71-4.73,12.47-11.17,18.43-16.77,5.77-5.43,12.82-10.73,16.82-17.72,4.22-7.38,3.1-15.91.89-23.76s-5.51-15.22-11.87-20.61-13.8-8.42-20.72-12.6c-8.58-5.18-17.81-11.57-24.82-18.78C534.47,200.21,532.35,202.33,533.69,203.72Z" transform="translate(-278.5 -2.51)"/><path class="cls-1" d="M506.05,191.64c7.49,10.54,15.57,16.55,29.41,26.84,8,6,30.18,21,36,26.13a16.22,16.22,0,0,1,3.68,4.52,16.89,16.89,0,0,1,1.56,5.48c.67,4.27,1.11,8.72-.49,12.19a18,18,0,0,1-4.28,5.28l-15.67,15c-3.19,3-6.64,6.21-11.43,6.56-6.49.47-13.46-4.38-19-9.61-11.73-11.17-20.39-25.2-26.7-39.5-1.08-2.45-3.14-7.42-5.32-13.32-2-5.35-3.17-9.1-5-14.94-1-3-2-7.12-4.17-15.35-1.08-4.14-2-7.84-.13-10a6.21,6.21,0,0,1,2.66-1.53c5.9-2.59,5.79-7.23,8.65-7.35C499.43,181.87,503.88,188.58,506.05,191.64Z" transform="translate(-278.5 -2.51)"/><path d="M504.76,192.4c9.82,13.56,23.91,23.2,37.43,32.76,6.51,4.6,13.06,9.14,19.51,13.82,6.67,4.84,12.64,8.61,13.78,17.45.36,2.79.72,5.89-.17,8.64-1,3.07-3.58,5.18-5.82,7.33q-6.76,6.48-13.54,12.94c-4.75,4.52-9.43,8.26-16.32,6.07-5.93-1.88-10.87-6.52-15.12-10.87-15.12-15.47-24.38-35.37-31.26-55.62-3-9-6.28-18.46-7.93-27.81-1-5.66,5.64-7.66,8.67-11.59,2-2.61,4-1.41,6,.71a49.88,49.88,0,0,1,4.76,6.18c1.1,1.57,3.71.07,2.59-1.51-2.78-3.93-9.27-14.45-14.74-8.55-1.66,1.79-2.57,3.72-4.79,5-1.62,1-3.35,1.24-4.56,2.76-3.1,3.9-.16,10.63.9,14.7,5.72,21.87,13.22,44,26,62.81,6.69,9.83,15.53,21.31,26.87,26,12,4.93,19.54-4.75,27.43-12.3,4-3.86,9.45-7.7,12.4-12.55,2.85-4.68,2.15-10.81,1.07-15.94-1.62-7.69-8.32-11.78-14.26-16.11-8.66-6.3-17.55-12.29-26.2-18.6-11-8-22.09-16.12-30.14-27.24C506.23,189.34,503.62,190.83,504.76,192.4Z" transform="translate(-278.5 -2.51)"/><path class="cls-1" d="M450,234.41h0c-6.4,9.17-12.85,18.43-17.46,28.39-4,8.69-7,18.35-14.14,24.93a41.27,41.27,0,0,1-12.64,7.4c-6.35,2.58-13.06,4.56-19.07,3.62-6.42-1-11.27-5.22-15.88-9.31l-20.88-18.52c-4.85-4.3-10-9.16-10.35-16.37-.22-4.2,1.24-8.71,3.17-12.95,9.88-21.69,31.17-37.17,51.88-48.22h0c31.31-19.17,54.64-23.81,58.27-18.6.43.61.73,1.58,2.53,4.67,1.23,2.12,2.32,3.8,3,4.86a17,17,0,0,0,6.35,6.68c4.44,2.66,7.51,1.95,9.06,4.58a4,4,0,0,1,.45,1c.65,2.95-2.59,6.66-4,8.7C463.55,215,456.73,224.7,450,234.41Z" transform="translate(-278.5 -2.51)"/><path d="M449.2,233.11c-1.47.66-2.84,3.84-3.73,5.13-2.12,3.07-4.21,6.15-6.21,9.3a133.61,133.61,0,0,0-9.91,18.66c-2.21,5.11-4.27,10.37-7.41,15-4.49,6.61-11.06,10.37-18.36,13.16-7.75,3-15.87,4.7-23.48.39-6.38-3.62-11.77-9.48-17.22-14.32-5-4.45-10.26-8.74-15-13.45-5.9-5.82-8.14-12.07-5.59-20.15,7.76-24.62,32-40.15,53.1-52.18,11.57-6.59,23-13.1,35.76-17.25,4.71-1.53,14.64-5.44,19.56-2.51,1.15.69,1.45,1.67,2.07,2.84,1.34,2.52,2.87,4.9,4.39,7.31a20.49,20.49,0,0,0,10.31,8.84c1.05.41,3.39.72,4.19,1.51,2.52,2.52.11,5.26-1.33,7.32-1.93,2.77-3.88,5.52-5.81,8.28q-7.89,11.33-15.82,22.64c-1.11,1.59,1.49,3.09,2.59,1.51q7.91-11.32,15.82-22.64c2.67-3.84,9.62-10.64,8.7-15.94-.87-5-7.94-5.2-11.34-7.61-4.89-3.48-6.77-9.61-10-14.41-3-4.53-9.63-3.45-14.26-2.63-11.72,2.08-23,7.3-33.5,12.79-24.71,13-52,28.54-64.66,54.69-2.63,5.45-4.93,11.62-3.68,17.74,1.22,6,5.55,10.41,9.92,14.34,6.84,6.16,13.76,12.22,20.65,18.33,4.84,4.29,10,8.88,16.5,10.19,7.65,1.53,15.54-1.22,22.49-4.23s12.81-7.25,17-13.71c4.39-6.8,6.8-14.65,10.45-21.83a142.13,142.13,0,0,1,7.46-12.76c1.18-1.83,2.39-3.63,3.62-5.43.72-1.05,3.05-5.83,4.24-6.36C452.47,234.91,450.95,232.32,449.2,233.11Z" transform="translate(-278.5 -2.51)"/><path class="cls-1" d="M458.34,204.83c-9.82,8.41-15.08,17-24.09,31.71-5.23,8.55-18.15,31.94-22.78,38.24a16.22,16.22,0,0,1-4.17,4.07,16.89,16.89,0,0,1-5.32,2c-4.19,1-8.58,1.89-12.19.61a18,18,0,0,1-5.64-3.78l-16.33-14.26c-3.32-2.9-6.79-6.06-7.56-10.8-1.05-6.42,3.15-13.8,7.86-19.74,10.07-12.69,23.26-22.58,36.94-30.14,2.35-1.3,7.1-3.8,12.79-6.5,5.15-2.45,8.78-4,14.42-6.35,2.91-1.22,6.91-2.66,14.91-5.54,4-1.45,7.63-2.71,10-1a6.21,6.21,0,0,1,1.77,2.52c3.11,5.64,7.72,5.11,8.09,7.95C467.48,197.35,461.19,202.39,458.34,204.83Z" transform="translate(-278.5 -2.51)"/><path d="M457.28,203.77c-12.65,11-21,26.08-29.29,40.45-3.89,6.73-7.73,13.5-11.72,20.17-3.79,6.36-7,13-14.69,15.06-4,1.05-8.64,2-12.6,0-2.52-1.26-4.64-3.59-6.74-5.43-4.82-4.21-9.74-8.33-14.47-12.65s-7.3-9-5.4-15.5c1.77-6,6.07-11.31,10.15-15.93,13.87-15.67,32.17-26.28,51.08-34.74,4.31-1.93,8.65-3.8,13.07-5.47,4.73-1.79,10-4.52,15-5.3,5.34-.83,5.38,2.16,8,5,1.16,1.24,2.82,1.85,4,3,4,3.89-3.43,8.83-6.38,11.34-1.47,1.25.66,3.37,2.12,2.12,4-3.42,13.41-10.56,6.56-15.59a22.82,22.82,0,0,1-6-5.7c-1-1.36-1.46-2.42-3.12-3.09-4.58-1.87-10.73,1.67-15,3.21-20.88,7.54-41.76,17-59,31.23-9.09,7.47-19.85,17.52-23.36,29.18-3.64,12.11,6.67,18.86,14.7,25.88,4.49,3.92,9.17,9.61,14.86,11.8,5.14,2,12.55.5,17.38-1.79,6.41-3,9.92-10.84,13.35-16.64,11.76-19.89,22-43.08,39.63-58.48C460.86,204.62,458.73,202.51,457.28,203.77Z" transform="translate(-278.5 -2.51)"/><path class="cls-1" d="M498,97.27h0c1.19-11.13,2.4-22.36,5.67-32.94,2.85-9.22,7.32-18.49,6-28.15-.69-5-2.9-9.58-5.34-13.82-3.49-6.08-7.73-11.94-13.48-15.11-6.14-3.39-13.25-3.33-20.08-3.2l-30.91.58c-7.18.13-15,.52-20.49,5.77-3.2,3.06-5.22,7.44-6.63,11.91-7.26,22.92-.43,48.5,9.09,70.35,0,0,17.31,47.32,35.92,52.18a8.51,8.51,0,0,0,3,.19,9.56,9.56,0,0,0,4.94-2.67c3.76-3.27,9.37-2.93,13.19-2.7,7.24.43,9.61,4.11,12.41,2.2s2.61-6.75,2.88-9.22C495.56,120.85,496.77,109.06,498,97.27Z" transform="translate(-278.5 -2.51)"/><path d="M499.53,97.27c0-8.86,2-18.62,4.15-27.2,2.17-8.85,6.36-17.22,7.49-26.31C512.1,36.3,510,29.52,506.46,23s-7.83-12.9-14.17-16.69c-6.78-4-14.82-3.92-22.45-3.78q-14.49.26-29,.54c-6.52.13-13.53.26-19.28,3.76S413,16.55,411.08,22.75c-7.9,26.19,1.9,52.84,12,76.92a182.29,182.29,0,0,0,13.23,26.22c4.63,7.42,10.55,16.14,18.94,19.64a10.61,10.61,0,0,0,6.72.76c3.58-.89,5.72-4.09,9.4-4.92a25.68,25.68,0,0,1,13.2,1c1.87.64,3.89,1.88,5.95,1.47,5.12-1,5-8.21,5.37-12.16,1.17-11.46,2.45-22.91,3.68-34.36.2-1.92-2.8-1.9-3,0-.87,8.18-1.73,16.37-2.61,24.55-.42,3.9-.87,7.8-1.26,11.7-.32,3.2-.46,7.52-4.63,7-2.12-.29-4.21-1.63-6.38-2a33.73,33.73,0,0,0-7.91-.42,16.35,16.35,0,0,0-6.92,1.78c-2.91,1.61-4.85,4.36-8.64,3.55-8.08-1.73-14.31-11.23-18.42-17.6a169,169,0,0,1-12.4-23.61C419,83.19,411,63.11,411.25,42.08c.09-8,1.3-16.25,4.57-23.58,3.52-7.91,9.87-11.39,18.26-12.13,7.68-.68,15.51-.43,23.21-.58s15.85-.88,23.61,0C499.43,8,511.46,31.21,507.29,48.27c-2.11,8.64-5.73,16.77-7.5,25.53-1.51,7.44-3.28,15.87-3.25,23.48A1.5,1.5,0,0,0,499.53,97.27Z" transform="translate(-278.5 -2.51)"/><path class="cls-1" d="M482.37,125.08c-1.95-12.82,0-22.73,3.38-39.69,2-9.86,8.47-35.9,9.28-43.69a14.7,14.7,0,0,0-.46-5.81,16.44,16.44,0,0,0-2.9-5.08C489,27.24,486,23.68,482,22.23a22,22,0,0,0-7.46-.95l-24-.27c-4.88-.06-10.08,0-14.21,3-5.6,4.08-7.55,12.38-8,20-1,16.17,2.65,32.33,8.4,47.1,1,2.53,3.09,7.57,5.81,13.38,2.46,5.27,4.35,8.82,7.27,14.35,1.51,2.86,3.77,6.59,8.27,14.07,2.27,3.77,4.33,7.11,7.5,7.43a7.48,7.48,0,0,0,3.31-.7c6.73-2.13,10.15,1.34,12.55-.52C484.44,136.75,482.94,128.8,482.37,125.08Z" transform="translate(-278.5 -2.51)"/><path d="M483.82,124.68c-3.12-22.06,4.86-45.16,9.58-66.55,1.6-7.22,5.24-17.21,1.93-24.38a29.59,29.59,0,0,0-9.76-11.36c-5.39-3.49-12.27-2.62-18.39-2.69-6.52-.07-13.07-.37-19.58-.19-5.26.15-10.49,1.17-14.24,5.16C425.75,32.74,426.16,46.8,427,57c2,24,12.41,47.3,24.55,67.86,2.85,4.83,5.51,11.33,9.83,15,4.53,3.85,9.77.09,15,.83,3,.43,5.75.93,7.43-2.29,2.07-4,.64-9.53,0-13.71-.3-1.9-3.19-1.09-2.89.8.53,3.38,2.71,11.82-2.14,12.58-1.25.2-2.87-.54-4.18-.63-2.68-.18-4.71.86-7.29,1.12-5.67.56-8.81-7.87-11.29-12-1.69-2.81-3.37-5.63-4.93-8.51-10.81-20-20.37-41.67-21.36-64.75-.42-9.77-.42-25.95,11-29.81,4.78-1.62,10.43-1,15.38-.9,6.41.07,12.83.06,19.23.22,7.22.18,12.08,4,15.91,9.95,2.78,4.35,2.51,8.29,1.66,13-1.35,7.49-3.13,14.9-4.83,22.31-4.27,18.65-9.87,38.13-7.15,57.38C481.2,127.38,484.09,126.57,483.82,124.68Z" transform="translate(-278.5 -2.51)"/><path class="cls-1" d="M423.31,118.68h0c-9.46-6-19-12-27.13-19.34-7.09-6.42-13.57-14.15-22.73-17.44a41.59,41.59,0,0,0-14.49-2c-6.84,0-13.77.78-18.92,3.93-5.5,3.36-8.31,9.06-10.94,14.55l-11.92,24.88c-2.77,5.78-5.57,12.17-3.09,18.91,1.44,3.93,4.54,7.5,8,10.65,17.55,16.1,43.14,22.17,66.48,24.42,0,0,49.22,7.51,61-5.13a6.8,6.8,0,0,0,1.39-2.34,8.34,8.34,0,0,0-.4-5.14c-1.4-4.46,1.15-8.78,2.89-11.72,3.3-5.57,7.54-5.8,7-8.89s-5-5.12-7.07-6.44C443.37,131.26,433.33,125,423.31,118.68Z" transform="translate(-278.5 -2.51)"/><path d="M424.07,117.39c-7.52-3.75-15-9.42-21.52-14.62C396.31,97.82,391,91.82,384.8,86.85c-11.31-9-28.93-11.48-42.45-5.82-6.06,2.54-9.9,7.49-12.85,13.19-4.36,8.41-8.24,17.1-12.33,25.65-3.09,6.46-6.83,13.52-5.07,20.91s8,12.76,13.66,17.11c19.28,14.83,43.41,18.56,66.86,21.42A206.9,206.9,0,0,0,419.51,181c8.86-.08,19.12-.4,27.09-4.76,3.79-2.07,6.73-5.27,6-9.88-.43-2.63-1.07-5-.29-7.71a21.8,21.8,0,0,1,4.1-7.19c1.55-1.8,4.39-3.08,5.28-5.36,2-5.2-5.94-8.76-9.23-10.82l-28.38-17.86c-1.64-1-3.15,1.56-1.51,2.59l20,12.6c3.34,2.1,6.65,4.25,10,6.32,1,.62,2,1.18,3,1.85a4.57,4.57,0,0,1,2.76,4.87q-.68.63-1.42,1.2c-3.42,3.84-6.84,7.23-8,12.55-.52,2.43.08,4.19.43,6.56.59,3.94-.82,5.69-4,7.52-7.19,4.15-16.77,4.39-24.83,4.52A198.79,198.79,0,0,1,397,176.8c-19.18-2-38.71-4.55-56.2-13.16-12.41-6.11-30.19-17.28-24.93-33.42,2.48-7.63,6.82-14.94,10.29-22.17,3.19-6.67,6-14.89,11.3-20.21,6.42-6.38,16.6-6.77,25.13-6.36,9.88.47,17.22,4.61,24.37,11.17,10.89,10,22.23,20.64,35.62,27.32C424.28,120.84,425.8,118.25,424.07,117.39Z" transform="translate(-278.5 -2.51)"/><path class="cls-1" d="M442.58,142.56c-12.3-4-20.49-9.83-34.51-19.86-8.14-5.83-29.15-22.33-35.86-26.34a16.41,16.41,0,0,0-5.42-2.14,17,17,0,0,0-5.68.15c-4.25.63-8.62,1.53-11.42,4.07A17.61,17.61,0,0,0,346,104l-9.42,19.26c-1.91,3.91-3.86,8.12-2.72,12.75,1.55,6.28,8.28,11.43,14.94,15.08C363,158.92,379,163,394.47,164.68c2.66.3,8,.78,14.28,1.09,5.69.29,9.61.3,15.72.33,3.15,0,7.39-.19,15.85-.6,4.27-.21,8.06-.42,9.56-2.84a6.09,6.09,0,0,0,.64-3c.65-6.34,5.09-7.61,4.32-10.35C453.89,145.93,446.15,143.71,442.58,142.56Z" transform="translate(-278.5 -2.51)"/><path d="M443,141.11c-20.33-6.75-37.27-22-54.18-34.74-6-4.48-12.6-10.94-19.89-13.17-4.89-1.5-11.22-.33-15.9,1.54-5.54,2.22-7.55,7-10,12-3.09,6.33-6.57,12.59-9.25,19.11-2.05,5-2.38,10,.48,14.79,5.83,9.67,18.76,14.84,28.88,18.48,21.46,7.73,45.28,9.19,67.91,8.27,5.29-.22,12.12.58,17.08-1.57s3.36-7.23,5.87-11.18c1.74-2.73,3.67-4.71,1.19-7.75-2.74-3.36-8.24-4.58-12.16-5.83-1.84-.59-2.63,2.31-.8,2.89,2.7.86,10.05,2.28,11,5.33.47,1.47-1.1,2.7-1.85,3.84a16.87,16.87,0,0,0-2,4.63c-.93,3.08-.92,5.14-4.74,5.83a60.54,60.54,0,0,1-7.87.54c-3.69.18-7.39.38-11.09.42-20.18.23-40.84-1.15-60-7.73-9.79-3.35-24.72-8.8-29.47-19-3-6.31,1.16-12.66,3.89-18.24,2.65-5.41,5-11.19,8-16.39,3.33-5.69,10.3-8.12,16.82-7.76,4.35.24,7.75,2.76,11.15,5.15,6.3,4.42,12.4,9.12,18.54,13.76,14.82,11.22,29.78,23.63,47.64,29.56C444,144.62,444.8,141.72,443,141.11Z" transform="translate(-278.5 -2.51)"/><path d="M462.82,522.4c12.39-11.57,19.73-26.84,26.48-42.13,7.26-16.43,15-32.51,24.31-47.87a340.38,340.38,0,0,1,32.9-45.29c11.87-13.79,26.34-25.72,35.92-41.34,10.45-17,15.66-36.61,20.71-55.74a1.5,1.5,0,0,0-2.89-.8c-4.57,17.3-9.21,34.89-17.88,50.67-9,16.46-23.45,28.53-35.7,42.47a348.62,348.62,0,0,0-56.69,89c-7.74,17.45-15,35.64-29.28,48.94-1.41,1.32.71,3.44,2.12,2.12Z" transform="translate(-278.5 -2.51)"/><path d="M457.82,401.18c-4.7-7-9.48-14.17-15.72-19.94-6.59-6.09-14.92-10.12-20.89-16.9-6.27-7.12-9.48-16.3-12.45-25.14-3.23-9.61-6.39-19.23-9.58-28.85-.61-1.82-3.5-1-2.89.8,3.28,9.87,6.52,19.76,9.84,29.62,2.69,8,5.64,16.09,10.72,22.91,4.92,6.6,11.76,10.79,18.24,15.65,8.42,6.32,14.36,14.72,20.16,23.37,1.07,1.6,3.67.1,2.59-1.51Z" transform="translate(-278.5 -2.51)"/><path class="cls-1" d="M472.79,139h0a17,17,0,0,1,5.41-1.59,14.69,14.69,0,0,1,7.68,1.95,29.22,29.22,0,0,1,14.8,18.14,26.68,26.68,0,0,1-4.46,22.84c-3.68,4.76-9,8-14.41,10.59-2.83,1.32-5.88,2.5-9,2.28a16,16,0,0,1-7.35-2.79c-9.41-6-15-17.25-15-28.33C450.57,149.43,462.26,143.53,472.79,139Z" transform="translate(-278.5 -2.51)"/><path d="M473.55,140.25c13.5-5.87,26.08,11.1,26.5,23.16a24.94,24.94,0,0,1-7,18.28c-4.33,4.46-12.24,9.57-18.63,10-7.07.45-13.59-6.24-17.12-11.69A32.37,32.37,0,0,1,452,162c.32-12,11.92-17.58,21.54-21.79,1.76-.77.24-3.36-1.51-2.59-9.35,4.1-20.41,9.5-22.63,20.53-2.28,11.35,3.75,24.41,12.54,31.47,4.12,3.31,9,5.72,14.37,4.75,6.05-1.09,12.42-5,17-8.95a28.18,28.18,0,0,0,7.29-32.65c-4.75-10.71-16.73-20.3-28.58-15.15C470.27,138.42,471.8,141,473.55,140.25Z" transform="translate(-278.5 -2.51)"/></svg>