<?xml version="1.0" encoding="utf-8"?>
<!-- Generator: Adobe Illustrator 21.1.0, SVG Export Plug-In . SVG Version: 6.00 Build 0)  -->
<svg version="1.1" id="Layer_1" xmlns="http://www.w3.org/2000/svg" xmlns:xlink="http://www.w3.org/1999/xlink" x="0px" y="0px"
	 viewBox="0 0 960 560" style="enable-background:new 0 0 960 560;" xml:space="preserve">
<style type="text/css">
	.st0{fill:#FFDE1F;}
	.st1{fill:#FFA4F4;}
	.st2{fill:#5A9342;}
	.st3{fill:#A7C44B;}
	.st4{fill:#FFFFFF;}
	.st5{fill:#D6ECED;}
	.st6{fill:#D453F4;}
	.st7{fill:#FFFFFF;stroke:#000000;stroke-miterlimit:10;}
</style>
<g>
	<path class="st0" d="M411.4,272.5c8.6-3.8,21.6-9.5,38.7-8.4c12.9,0.8,22.5,5.1,28.3,7.8c7.8,3.6,15.1,7,22,14.5
		c10,10.9,12.8,23.7,15.5,36.2c1.1,4.9,2.7,12.5,2.5,22.8c-0.1,7.6-0.3,19.9-6.5,32.6c-5.9,12.2-14.9,19.5-20.7,30.4
		c-0.4,0.7-1.4,2.7-3.3,4.8c-1.9,2.2-4.3,4.4-9.5,7.2c-5.4,3-9.9,4.7-14,6.2c-4.6,1.7-8,2.7-13,4.1c-6,1.7-9,2.6-12,3.1
		c-2.6,0.4-7.4,1-13.6,0.7c-3.1-0.2-7.3-0.5-12.5-2.1c-3.9-1.2-6.7-2.6-8.9-3.8c-6-3.1-10.1-6.4-11.5-7.6c0,0-5-3.7-9.1-9.5
		c-11.3-15.9-19.9-34.1-22.5-53.6c-3.9-28.9,7-55.4,29.2-73C396.9,280,404,275.8,411.4,272.5z"/>
	<g>
		<path d="M412.1,273.8c15.5-6.8,31.7-10.5,48.6-6.6c15.1,3.5,32.3,11.4,41.7,24c9.2,12.4,12.9,30.2,14.2,45.4
			c1.5,17.7-1.2,35.3-11.6,50c-4.8,6.8-10.5,13-14.7,20.3c-4.1,7.1-9.8,11.1-17.2,14.6c-8.1,3.8-16.7,6.3-25.3,8.8
			c-6.4,1.8-12.6,3-19.3,2.9c-34.8-0.6-55.5-33.3-63.4-63.7c-4.9-18.9-4-39.1,4.7-56.8C378.7,294.9,394.2,281.9,412.1,273.8
			c1.8-0.8,0.2-3.4-1.5-2.6c-33.7,15.2-55.3,47.8-51,85.2c2.3,20,10.9,39,22.4,55.3c8.1,11.4,21.4,20.5,35,23.3
			c16.1,3.4,31.8-1.2,46.9-6.6c7.8-2.8,16-6,22.4-11.5c6-5.2,9.4-13.4,14.3-19.7c5.7-7.3,11.2-14.4,14.6-23.1
			c3.3-8.5,4.4-17.5,4.6-26.5c0.4-16.3-2.7-34.8-9.8-49.5c-8.3-17.3-25.8-27-43.4-32.4c-19.3-6-38-2.4-56,5.6
			C408.9,272,410.4,274.6,412.1,273.8z"/>
	</g>
</g>
<g>
	<path class="st1" d="M502.8,243.7c1.6-1.6,3.8-2.3,6-2.7c2.6-0.4,5.7,0.1,6.9,2.5c-1.5,0.7-3.5-0.4-4.6,0.8
		c-0.4,0.4-0.5,0.9-0.7,1.4c-1.2,3.8-2.5,7.6-3.7,11.3c-0.1,0.3-0.2,0.5-0.4,0.7c-0.6,0.6-1.6-0.2-2.1-0.8c-3.2-3.7-8-5.6-12.8-6
		c-4.8-0.4-9.6,0.5-14.3,1.4c2.9-3.1,6.3-5.6,10-7.4c1.1-0.5,2.2-1,3.3-0.9c1.4,0.1,2.6,0.8,3.7,1.5l0,0c2,1.3,4.3,3.3,6.5,4
		C500.6,247.3,501.2,245.3,502.8,243.7z"/>
	<g>
		<path d="M503.9,244.8c2.6-2.1,8.2-3.9,10.5-0.5c0.3-0.7,0.6-1.5,0.9-2.2c-3.2,0.7-4.9-0.2-6.4,3.2c-1,2.2-1.4,7.8-3.1,9.4
			c-1.2,1.2-0.1,0.9-1.6,0c-0.7-0.4-1.3-1.1-2-1.6c-7.5-5.4-17.1-3.9-25.7-2.3c0.5,0.8,1,1.7,1.5,2.5c3-3,8-8.1,12.5-7.5
			c3.6,0.4,6.3,3.7,9.6,5.1c1,0.4,1.8-0.6,1.9-1.4C502,247.7,502.6,246.1,503.9,244.8c1.3-1.5-0.9-3.6-2.1-2.1
			c-1.8,2.1-2.5,4.1-2.7,6.9c0.6-0.5,1.3-1,1.9-1.4c-4.2-1.7-7.8-6.7-12.8-5.3c-4.6,1.3-9,5.1-12.3,8.5c-1.1,1.1,0,2.8,1.5,2.5
			c5.6-1,11.5-2.2,17.1-0.8c2.8,0.7,5.4,2,7.6,3.9c0.9,0.8,1.6,2.1,2.9,2.4c1.7,0.4,2.4-0.5,3.1-1.9c1.2-2.2,1.5-5.2,2.5-7.6
			c0.8-1.9,1.4-3.8,3.3-4.6c0.1-0.1,2.3-0.3,2.2-0.3c0.9-0.2,1.4-1.4,0.9-2.2c-3.6-5.2-10.9-3.6-15.3-0.1
			C500.3,243.9,502.4,246,503.9,244.8z"/>
	</g>
</g>
<g>
	<path class="st1" d="M464.3,227.3c1.6,2.1,3,4.4,4,6.9c-5-1.2-10.5,0.8-13.7,4.9c-0.5-1.8-1-3.7-2.4-4.8c-0.8-0.6-1.7-1-2.7-1.3
		c-3.2-1-6.4-2-9.8-1.8c-3.3,0.2-6.7,1.9-8.3,4.9c-0.5-1.7,0-3.5,1.1-4.9s2.5-2.3,4.1-3l0,0c2.6-1.3,5.6-1.9,8.5-1.6
		c2,0.2,4,1.1,6.1,1C456.1,227.5,459.9,221.8,464.3,227.3z"/>
	<g>
		<path d="M463,228c1.6,2.2,2.9,4.4,4,6.9c0.6-0.7,1.1-1.5,1.7-2.2c-5.9-1-11.2,0.8-15.1,5.3c0.8,0.2,1.7,0.4,2.5,0.7
			c-1.8-6.2-6.4-7.9-12.6-8.8c-5.3-0.7-10.3,0.8-13.3,5.5c0.9,0.1,1.8,0.2,2.7,0.4c-0.6-4.3,4.1-6.5,7.4-7.3
			c3.3-0.8,6.1,0.3,9.3,0.6c4.5,0.5,9.9-4.6,13.6-0.7c1.3,1.4,3.4-0.7,2.1-2.1c-2.3-2.4-4.5-3.3-7.8-2.3c-2.2,0.7-4.1,2.2-6.4,2.3
			c-2.6,0.1-5.2-1.2-7.8-1.1c-6.4,0.1-14.4,4.1-13.3,11.5c0.2,1.4,2.1,1.3,2.7,0.4c4.2-6.6,18.2-5.2,20.4,2.6c0.3,1,1.7,1.5,2.5,0.7
			c3.2-3.7,7.3-5.4,12.2-4.6c1.4,0.2,2.2-1,1.7-2.2c-1.1-2.5-2.4-4.8-4-6.9C464.4,225,461.8,226.5,463,228z"/>
	</g>
</g>
<g>
	<path class="st1" d="M386.4,228.9L386.4,228.9c2.2-1.1,4.9-1.4,7-0.1c2,1.3,3.1,3.7,3.7,6.1c-1.6,0-3.3,0-4.9,0.6
		c-1.6,0.5-3,1.6-3.7,3.2c-0.3,0.9-0.7,2.2-1.6,2.2c-0.4,0-0.7-0.2-1.1-0.5c-3.8-2.6-8.9-3-13-1.1c-1.3,0.6-2.5,1.4-3.8,1.9
		c-1.6,0.6-3.5,0.8-5.2,0.4c0.5-1.6,1.2-3.1,1.9-4.5c0.6-1,1.2-2,2-2.7c1.5-1.3,3.5-1.7,5.4-1.8c2.2,0,5.3,1.7,7.3,1
		C382.7,232.8,384.4,230,386.4,228.9z"/>
	<g>
		<path d="M387.2,230.2c4.8-2.5,7.4,1.3,8.5,5.1c0.5-0.6,1-1.3,1.4-1.9c-2.8,0.1-5.9,0.2-8.1,2.2c-0.1,0.1-1.7,2.3-1.7,2.3
			c-0.2,0.4-0.4,0.8-0.6,1.2c-0.8-0.6-1.7-1-2.7-1.4c-2.3-0.9-4.7-1.2-7.1-1c-4.7,0.5-8.1,4-12.9,3.4c0.5,0.6,1,1.3,1.4,1.9
			c1.5-4.2,4-8.2,9-7.7c1.7,0.2,3.4,1.1,5.2,1C382.9,235,384.6,231.9,387.2,230.2c1.6-1.1,0.1-3.7-1.5-2.6c-3,2-4,4.6-8.2,4.3
			c-2.1-0.2-3.7-1-6-0.6c-5.2,0.9-7.4,5.3-9,9.9c-0.4,1,0.6,1.8,1.4,1.9c3.1,0.4,5.1-0.2,7.8-1.5c5.5-2.6,8-1.7,13.4,0.1
			c1.3,0.4,2,1,3.3,0.1c0.5-0.4,0.6-0.9,1-1.4c0.5-1.2,1.3-2.3,2.3-3.1c1.7-0.6,3.5-0.9,5.3-0.8c1,0,1.7-0.9,1.4-1.9
			c-1.7-6.1-6.5-10.2-12.9-6.9C384,228.5,385.5,231.1,387.2,230.2z"/>
	</g>
</g>
<g>
	<path class="st1" d="M400.3,202.5L400.3,202.5c2.9-1.1,6.3-0.2,8.3,2.2c1.6-2.6,4.9-3.9,7.8-3c2.8,0.9,4.9,4,4.7,7.1
		c-1.5,0-2.8-1-4.3-1.1c-2.4-0.2-4.4,2.1-5.6,4.3c-1.1,2-1.9,4.1-2.5,6.3c-2-1.6-1.1-5.1-2.7-7.1c-0.5-0.6-1.2-1-1.9-1.3
		c-1.5-0.6-3.1-0.9-4.6-0.7c-1.1,0.1-3.2,1.2-3.9-0.2C394.4,206.6,398.6,203.1,400.3,202.5z"/>
	<g>
		<path d="M400.7,203.9c2.6-1,5,0,6.9,1.8c0.7,0.7,1.8,0.5,2.4-0.3c3.6-4.8,9.4-1.9,9.6,3.4c0.6-0.5,1.3-1,1.9-1.4
			c-3.1-0.6-5.6-2-8.4,0.1c-3.2,2.4-4.7,6.8-5.8,10.5c0.8-0.2,1.7-0.4,2.5-0.7c-2.7-3.2-0.7-6.9-5.2-8.8c-1.9-0.8-3.5-0.5-5.4-0.7
			c-3.5-0.5,0.1-3,2-3.9c1.7-0.8,0.2-3.4-1.5-2.6c-2.6,1.3-7.6,5.5-5,8.8c1.9,2.4,5.3,0.1,7.6,0.9c4.3,1.4,3,5.8,5.4,8.6
			c0.8,0.9,2.2,0.3,2.5-0.7c0.7-2.4,1.4-5.1,3.1-7.1c2.3-2.6,4.5-2,7.4-1.4c0.9,0.2,1.9-0.4,1.9-1.4c-0.3-8.6-10-11.8-15.2-4.9
			c0.8-0.1,1.6-0.2,2.4-0.3c-2.6-2.5-6.2-4-9.8-2.6C398.1,201.7,398.9,204.6,400.7,203.9z"/>
	</g>
</g>
<g>
	<path class="st1" d="M472.5,191.9L472.5,191.9c2.3-0.2,4,2.4,6.3,2.6c-0.1-2.5,1.8-5,4.2-5.4c0.8-0.1,1.7-0.1,2.5,0.2
		c0.9,0.3,1.6,0.9,2.3,1.5c2.2,1.8,4.4,3.6,6.6,5.4c-2.3-1.6-5.5-1.9-7.9-0.6c-2.5,1.3-4.2,4.1-4.3,6.9c0-1-4.1-3.1-4.9-3.5
		c-1.9-1-3.9-1.6-6-2c-1-0.2-4.2-0.1-4.1-1.7C467.2,194,471.4,192,472.5,191.9z"/>
	<g>
		<path d="M472.5,193.4c1.7-0.2,4.1,2.1,5.9,2.5c1,0.2,1.8-0.5,1.9-1.4c0.6-8.2,7.5-1.7,9-0.5c1.3,1.1,2.6,2.2,4,3.2
			c0.6-0.8,1.2-1.6,1.8-2.4c-6.7-3.9-13.6,0.3-14.5,7.7c1-0.1,2-0.3,2.9-0.4c-1.1-2.6-4.6-4-7-5c-1.9-0.8-4.1-0.9-6-1.6
			c-1.3-0.5-1.4,0.4-0.8-0.8c0.4-0.7,2.4-1.2,3.1-1.4c1.9-0.4,1.1-3.3-0.8-2.9c-2.3,0.5-8.3,3.2-6,6.5c1.1,1.6,3.7,1.4,5.3,1.7
			c1.6,0.3,8.3,2.1,9.2,4.3c0.7,1.6,2.7,1.3,2.9-0.4c0.7-5.2,5.5-7.7,10-5.1c1.4,0.8,3.2-1.2,1.8-2.4c-3.2-2.6-7.7-8.2-12.5-7.6
			c-3.6,0.5-5.4,3.6-5.7,6.9c0.6-0.5,1.3-1,1.9-1.4c-2.3-0.6-4.2-2.8-6.7-2.6C470.6,190.5,470.6,193.5,472.5,193.4z"/>
	</g>
</g>
<g>
	<path class="st1" d="M435.6,183L435.6,183c-1.3,0.1-2.9,0.5-3.4,1.8c2.3,0,4.6,0.6,6.8,1.5c3.4,1.5,6.3,4.1,10,4.8
		c-0.2-2.8,1.8-5.3,4.1-6.6c2.4-1.3,5.1-1.6,7.7-1.9c-0.2,0-2-1.8-2.4-2c-0.9-0.5-2-0.9-3-1.1c-2.1-0.4-4.4-0.1-6.3,1
		c-1.7,1-2.9,3.2-5,3.4C441.3,184,438.5,182.7,435.6,183z"/>
	<g>
		<path d="M435.6,181.5c-2.1,0.2-3.5,0.9-4.7,2.6c-0.7,1,0.2,2.2,1.3,2.3c6.2,0.4,10.5,4.7,16.3,6.2c1,0.3,1.8-0.5,1.9-1.4
			c0.3-5.4,6.1-6.5,10.3-7c1.4-0.2,2.1-1.9,0.8-2.8c-3.3-2.1-5.5-4-9.8-3.3c-1.9,0.3-3.1,1.3-4.7,2.2
			C443,182.3,439.8,181.5,435.6,181.5c-1.9,0-1.9,3,0,3c3.9,0,7.9,2,11.4-0.3c2.3-1.5,3.6-3.4,6.8-3.4c2.6,0.1,4.2,1.8,6.2,3
			c0.3-0.9,0.5-1.9,0.8-2.8c-6.2,0.8-12.9,2.8-13.3,10c0.6-0.5,1.3-1,1.9-1.4c-6.2-1.6-10.4-5.9-17.1-6.3c0.4,0.8,0.9,1.5,1.3,2.3
			c0.6-0.7,1.3-1.1,2.1-1.1C437.5,184.3,437.5,181.3,435.6,181.5z"/>
	</g>
</g>
<g>
	<path class="st1" d="M400.1,181.2L400.1,181.2c0.3-0.1,0.7-0.3,0.9-0.6c0.2-0.3,0.2-0.7,0.2-1.1c-0.1-2.1-0.4-4.4-1.9-5.8
		c-2.1-1.8-5.4-0.7-7.3,1.3c-1.9,2-2.9,4.7-4.5,7c-2-3.6-7-4.6-10.5-2.5c-3.5,2.1-5.2,6.4-5,10.6c2.5-2.6,6.2-3.7,9.7-3.9
		c3-0.1,6.6,1.4,9.4,0c1.4-0.7,2.4-2,3.7-2.8C396.4,182.4,398.3,181.9,400.1,181.2z"/>
	<g>
		<path d="M400.5,182.7c3.8-1.6,2.2-8.3-0.5-10.3c-6.3-4.8-11.3,4.7-13.8,8.8c0.9,0,1.7,0,2.6,0c-2.5-3.7-7-5.3-11.3-3.7
			c-5,2-7,7.5-7,12.5c0,1.4,1.6,1.9,2.6,1.1c2.6-2.4,5.9-3.5,9.4-3.4c2.4,0,4.8,0.9,7.2,0.4c1.4-0.2,2.3-0.8,3.5-1.6
			C395.7,184.8,397.6,183.7,400.5,182.7c1.8-0.7,1-3.6-0.8-2.9c-2.2,0.8-4.3,1.5-6.3,2.7c-1.6,0.9-3.5,2.4-5.3,2.8
			c-0.8,0.2-3.7-0.5-4.8-0.5c-4.6-0.3-8.9,1.2-12.3,4.3c0.9,0.4,1.7,0.7,2.6,1.1c0-3.2,0.8-6.5,3.4-8.6c2.9-2.3,7.1-2,9.3,1.2
			c0.6,0.9,2,1,2.6,0c0.9-1.4,1.6-2.9,2.5-4.3c0.6-0.8,1.1-1.6,1.7-2.4c4.9-1.1,7.1,0.1,6.7,3.8
			C397.9,180.5,398.7,183.4,400.5,182.7z"/>
	</g>
</g>
<g>
	<path class="st2" d="M341.2,432.5c-0.7-8.7-2.2-18.7-9.5-23c-4.5-2.7-10-2.3-15.1-2.7c-11.9-1-23.4-7.2-31.3-16.7
		c-3-3.7-5.7-8.9-3.6-13.3c0.9-2,2.7-3.5,4.4-4.8c7-5.6,14.6-13.1,28.5-30c8.5-10.3,13.9-16.9,16.3-27.5
		c3.2-13.9,0.8-33.7-11.9-43.7c-7-5.4-14.7-6-21.5-6.5c-5-0.4-19.1-1.4-29.2,6.5c-9.8,7.7-10.7,20-13.4,31.6
		c-7.2,30.7-29.2,66.2-43.5,65.3c-22.3-1.5-33.1-92.5-60.7-96.5c-1.5-0.2-7-1.2-13.7-0.7c-9.2,0.8-18.3,2.1-27.3,4
		c-8.4,1.8-17.7,4.7-21.9,12.6c-3.7,6.9-2.4,15.7-5.4,23c-3.4,8.6-13,13.9-21.7,12c-7.2-1.6-13-7.4-20.1-9.6
		c-12.7-4-26.5,5-32.9,17.1l-1.4-3c-2.1,10.5-6.1,11.3-6.1,11.3c5.9,52.6,4.9,82.9,2.7,101.2c-0.4,3.7-1.6,12.5-2.4,25
		c-1.9,29.4,1.6,28-0.5,49.7c-1,10.8,0.7,21.7,0.5,32.6c0,2-0.1,6.1,2.5,8.8c3.6,3.7,10.1,2.2,14,1.6c10.4-1.7,21,1.2,31.5,1
		c15.6-0.2,38.6-0.2,68.5,0h90.5c-2.6-12.8-8.8-49.6,9.1-66.9c5-4.8,15-11.7,20.5-14.9c8.3-4.6,16.6-9.2,24.9-13.8
		c5.3-2.9,10.6-5.9,16.5-6.9c6.9-1.2,13.8,0.3,20.8,0.8c10.3,0.8,20.7-0.5,30.5-3.8c3.6-1.2,7.4-2.9,9.6-6.3
		C341.8,442,341.6,437,341.2,432.5z"/>
	<g>
		<path d="M342.7,432.5c-0.9-10.7-3.2-23.8-15.6-26.3c-7-1.4-13.9-0.8-20.8-3.2c-7.4-2.6-14.4-7.3-19.4-13.4
			c-3.2-3.8-6.3-9.3-2.7-14c1.5-1.9,3.7-3.2,5.5-4.8c3.6-3.1,7.1-6.5,10.3-10c9.4-10,19.4-20.8,26.6-32.5
			c11.2-18.1,10-49.9-10.5-61.3c-9-5-22-5.6-32.1-4.2c-11.7,1.6-21.2,7.9-25.6,19c-2.5,6.4-3.4,13.3-5,20c-1.6,6.8-3.8,13.5-6.4,20
			c-5.2,12.7-12,25.7-21.5,35.8c-4.7,5-12,11.4-18.8,6.4c-5.2-3.9-8.4-10.8-11.1-16.5c-7.9-16.7-13.1-34.6-20.9-51.4
			c-5.5-11.8-12.5-25.2-26.6-27c-13.9-1.7-30,1.2-43.5,4.9c-5.3,1.4-10.6,3.6-14.6,7.5c-4.4,4.3-5.8,10-6.6,16
			c-1.1,8.2-2.3,16.1-10.1,20.7c-7.6,4.6-14.9,2-22-2.2c-5.5-3.2-11-6.3-17.6-6.2c-5.7,0.1-11.2,2.3-15.8,5.6
			c-4.9,3.5-8.7,8-11.6,13.2c0.9,0,1.7,0,2.6,0c-0.5-1-0.9-2-1.4-3c-0.5-1.2-2.5-0.8-2.7,0.4c-0.6,2.7-1.7,9.4-5.1,10.2
			c-0.6,0.1-1.2,0.8-1.1,1.4C2.5,370,5.3,403,2,435.4c-1.7,16.2-3.8,32.3-3.4,48.7c0.1,5.2,0.7,10.5,0.7,15.7
			c0.1,8.5-1.2,16.9-1,25.4c0.2,5.8,0.7,11.5,0.8,17.3c0.1,3.7-0.5,7.8,1.2,11.2c3.3,6.8,11.1,5.4,17.2,4.5
			c11.3-1.7,22.9,1.2,34.3,1C59.9,559,68,559,76,559c23.4,0,46.8,0.1,70.2,0.1c20.5,0,40.9,0,61.4,0c1,0,1.6-1,1.4-1.9
			c-4.2-20.6-7.6-49.8,9.1-65.8c11.1-10.6,25.6-17.4,38.9-24.8c8.6-4.8,17-10.3,27.2-10.4c9.4-0.1,18.4,2,27.9,1.2
			c7.9-0.7,17-2.1,23.9-6.3C342.7,446.9,343.3,439.7,342.7,432.5c-0.1-1.9-3.1-1.9-3,0c0.3,4.1,0.8,8.9-1.6,12.6
			c-2.9,4.4-9.1,5.9-13.9,7.1c-9.1,2.4-18.4,2.9-27.7,1.9c-8.8-0.9-16.9-1.8-25.3,1.6c-8,3.3-15.5,8.1-23.1,12.4
			c-12,6.7-26,13.4-34.9,24.2c-7.2,8.8-9.6,20.6-10.2,31.7c-0.6,11.4,0.8,22.9,3.1,34c0.5-0.6,1-1.3,1.4-1.9
			c-36.5,0-72.9,0.1-109.4-0.1c-17.1-0.1-34.3,0.4-51.4,0.1c-10.5-0.2-20.6-2.4-31.1-0.8c-5.4,0.8-11.8,1.4-13.4-5.3
			c-1.1-4.7-0.3-10.4-0.5-15.3c-0.8-15.4,0.8-30.6,0-45.9c-0.8-16.2,0.7-32.4,2.6-48.5c4.2-33.9,1.2-68.7-2.5-102.5
			c-0.4,0.5-0.7,1-1.1,1.4c4.7-1.2,6.3-8.5,7.2-12.3c-0.9,0.1-1.8,0.2-2.7,0.4c0.5,1,0.9,2,1.4,3c0.5,1,2.1,0.9,2.6,0
			c7.6-13.8,22.7-21.9,37.3-13.6c5.2,2.9,10.2,6.6,16.3,7.1c5,0.4,10-1.1,14-4.1c4.6-3.4,7.3-8.2,8.5-13.8c1.5-7.2,0.9-15.3,6-21.2
			c4.4-5,11.3-7.1,17.6-8.5c8.1-1.8,16.3-3.1,24.6-3.9c8.5-0.8,18.4-1.6,25.2,4.5c5.5,4.9,9.2,11.8,12.4,18.4
			c7.8,16,13,33.1,20.1,49.4c3.6,8.3,10.1,25.3,21.7,24.5c7.9-0.5,14.4-8.2,18.9-13.9c7.7-9.8,13.5-20.9,18.2-32.4
			c2.5-6.3,4.7-12.7,6.3-19.3c1.6-6.4,2.4-13.1,4.7-19.4c5.2-14.1,18.5-19.1,32.6-18.6c13.7,0.4,26.3,3.7,32.8,16.8
			c5.4,11,5.9,25.2,1.7,36.7c-2.6,7.2-7.4,13.2-12.1,19c-4.7,5.7-9.4,11.4-14.3,16.9c-3.4,3.7-6.8,7.4-10.5,10.8
			c-3.1,2.9-7.5,5.5-9.9,9c-6.5,9.6,6.3,21,13.4,25.7c5.3,3.6,11.4,6.1,17.7,7.2c7.1,1.3,15.9-0.4,21.3,5.3c4.8,5,5.5,13,6,19.5
			C339.9,434.4,342.9,434.4,342.7,432.5z"/>
	</g>
</g>
<g>
	<path class="st3" d="M246.7,291.6c-2-10.9-3.4-24.1,4.7-31.5c4.4-4,10.5-5.1,15.6-8.2c9.5-5.7,14.5-17.7,24.5-22.2
		c7.9-3.5,17.6-1.6,25.1-6c11.8-6.8,12.4-24.7,22.1-34.3c7.7-7.7,20.9-9.8,25.2-19.9c1.1-2.6,1.7-5.9,4.1-7.3
		c1.6-0.9,3.5-0.9,5.3-0.8c17.7,0.9,35.5,0.2,53.1-2.3c8.4-1.2,17.4-3.1,22.8-9.8c4.3-5.3,5.5-12.7,5-19.6
		c-1.1-13.2-7.9-25.2-16.7-34.8c-8.8-9.5-19.6-16.9-30.2-24.1c-17.6-12-35.2-23.9-52.8-35.9c-9.9-6.7-19.9-13.5-31-17.6
		c-8.5-3.2-17.6-4.7-26.6-5.6c-39.3-4-79.7,3.3-115.4,20.9c-1.2,0.6-2.4,1.2-3.4,2.1c-3.6,3.3-2.9,9.7,0.2,13.5
		c3.1,3.8,7.8,5.8,12.3,7.6c12,4.8,24,9.6,35.9,14.4c5,2,11.1,7.5,7.6,11.8c-1.9,2.4-5.5,2-8.4,1.2c-24-6.5-43.8-26.8-68.5-28.3
		c-11.7-0.7-23.3,2.9-34.5,6.6c-17.6,5.7-35.1,11.4-52.7,17c-5.2,1.7-10.6,3.5-14.1,7.8c-3.5,4.3-3.8,11.8,0.8,14.8l-0.3-2.1
		c4.2,7.4-2.2,16.9-9.6,20.8s-16.3,4.9-22.9,10.1c-10,7.8-11.6,24.8-3.3,34.5c6.2,7.2,15.8,9.7,24.3,13.4
		c16.5,7.1,30.7,19.6,47.9,24.8c12.2,3.7,27.6,5.1,32.7,17.2c3.4,8.1,0.4,18.2,4.8,25.7c2.7,4.5,7.5,7.1,11.5,10.5
		c11.6,10,14.9,26.6,18.7,41.7s10,31.6,23.8,37.7c2.6,1.1,5.5,2,7.1,4.4c1.1,1.6,1.3,3.6,1.5,5.6c1.9,17.6,3.8,35.4,1.6,53
		c-1,7.6-2.7,15.1-4.3,22.5c-9.6,44.6-14.5,90.3-14.8,135.9l-2,1.5c9,0.5,18,0.9,27.1,1.2c0.8,0,1.7,0,2.4-0.5
		c0.8-0.6,1-1.8,1.1-2.9c2.4-28.1-1.4-56.8,3.8-84.5c2.6-14.2,7.6-27.7,12.2-41.3c17.5-51.8,30.5-106.5,26-161.1"/>
	<g>
		<path d="M248.2,291.2c-1.3-7-2.5-14.7-0.6-21.7c2.6-9.3,10.4-11.3,18-15.1c12.5-6.2,17.3-21.9,31.7-24.8c7.1-1.5,14.8-1,21.1-5.2
			c4.3-2.9,7.2-7.3,9.4-11.9c2.6-5.4,4.5-11.2,7.6-16.3c3.6-6.1,8.9-9.5,14.9-12.8c4.9-2.7,10-5.5,13.2-10.2c1.6-2.3,2-5.1,3.4-7.5
			c2.6-4.3,10.8-2.5,15.1-2.4c17.1,0.4,35.4,0,52.1-4c13.3-3.2,21.5-12.3,21.6-26.3c0.1-14.4-7.3-28-16.7-38.4
			c-11-12.1-25.1-20.9-38.5-30c-15.6-10.6-31.2-21.2-46.9-31.8c-14-9.5-28-17.6-44.8-20.7c-15.8-2.9-32.3-3.4-48.3-2.2
			c-16.3,1.2-32.5,4.2-48.2,9c-7.5,2.3-14.8,5-22,8.1c-4.9,2.1-12.9,4.2-15.3,9.6c-6.2,13.5,12.5,19.8,21.4,23.4
			c8.4,3.4,16.8,6.7,25.2,10.1c3.4,1.4,9.7,3.2,11.1,7.1c0.2,0.4,0.5,0.8,0.7,1.2c-1.3,1.4-2.6,2.7-3.8,4.1
			c-0.8,0.3-2.7-0.4-3.5-0.5c-2-0.5-4-1.2-5.9-1.9c-14.2-5.2-26.5-14.2-40.3-20.3c-13.9-6.2-27.6-7.6-42.4-4
			C120,59.8,102.8,66.4,85.6,72c-7.7,2.5-16,4.4-23.4,7.9c-4.9,2.3-9.2,6-10.2,11.6c-0.8,4.3,0.5,8.3,3.9,11
			c1.2,0.9,2.4-0.6,2.2-1.7c-0.1-0.7-0.2-1.4-0.3-2.1c-0.9,0.4-1.8,0.8-2.7,1.2c5.5,11.2-8.4,18.9-16.8,21.8
			c-7.1,2.5-14.6,4.9-19.3,11.1c-8.4,11-6.6,27.6,4.2,36.2c7,5.6,16.1,7.8,24,11.6c8.9,4.3,17.2,9.8,25.8,14.7
			c7.8,4.4,15.8,7.9,24.5,10.2c7.6,2,16.4,3.5,22.4,9c7.5,6.9,5,16.9,6.9,25.8c1.9,8.8,9,12.1,15,17.8
			c13.5,12.8,14.4,33.1,19.9,49.7c2.4,7.2,5.5,14.2,10.4,20.1c2.2,2.7,4.8,5.1,7.8,6.9c1.6,1,3.2,1.7,4.9,2.5c4,1.8,6,3.6,6.6,8.2
			c3.1,23.1,3.6,45.8-1.3,68.6c-5.1,24-9.4,48.2-12.1,72.6c-1.4,12.5-2.4,25-3.1,37.5c-0.4,6.4-0.6,12.9-0.8,19.3
			c-0.1,2.9-0.1,5.8-0.2,8.7c0,2.9,0.8,3.4-1.3,5.1c-1.2,0.9-0.8,2.7,0.8,2.8c5.5,0.3,11,0.5,16.4,0.8c2.9,0.1,5.8,0.3,8.7,0.3
			c1.6,0,3.5,0.4,4.9-0.5c2.1-1.3,2-4,2.2-6.2c0.5-5.8,0.6-11.6,0.7-17.3c0.3-22.9-1.2-46,3.7-68.6c4.6-21.4,13.2-41.9,19.4-62.9
			c6.2-20.9,11.4-42.1,14.8-63.6c3.8-24.1,5.2-48.4,3.3-72.7c-0.1-1.9-3.1-1.9-3,0c3.3,42.1-3.5,84.1-14.8,124.6
			c-5.6,20-12.8,39.4-18.8,59.3c-6,19.9-7.5,40-7.5,60.7c0,11.6,0.2,23.2-0.3,34.7c-0.1,2.7,0.7,8.3-2.5,9.6
			c-1.9,0.7-5.7-0.2-7.7-0.3c-6.4-0.3-12.9-0.5-19.3-0.9c0.3,0.9,0.5,1.9,0.8,2.8c2.3-1.7,2.7-1.8,2.8-4.8
			c0.1-5.8,0.2-11.6,0.4-17.4c0.4-11.6,1.1-23.1,2.1-34.7c2-23.2,5.3-46.4,9.7-69.3c2.2-11.3,5.1-22.5,6.7-33.9
			c1.5-10.9,1.4-21.8,0.7-32.8c-0.4-5.9-1-11.8-1.6-17.7c-0.4-3.4-0.3-7.7-2.4-10.6c-2.2-3.1-6.1-3.9-9.3-5.6
			c-4.4-2.3-7.9-5.9-10.8-9.9c-10.4-14.8-10.9-33.8-17.5-50.2c-3.1-7.7-7.4-14.5-13.9-19.7c-4.1-3.2-8.7-6-10.5-11.1
			c-1.8-4.8-1.3-10-1.8-15c-1.7-17.1-16.1-21.1-30.4-24.8C78.6,197.4,63.4,184,45,176.2c-9.7-4.1-21.7-7.2-26.3-17.8
			c-4-9.1-1.7-21.1,6.3-27.4c8-6.2,19.1-6.2,26.9-12.8c5.8-4.9,9.5-12.6,5.9-19.9c-0.8-1.7-3-0.4-2.7,1.2c0.1,0.7,0.2,1.4,0.3,2.1
			c0.7-0.6,1.5-1.1,2.2-1.7c-3.4-2.6-3.3-7.7-1.3-11.2c2.2-3.9,6.6-5.9,10.6-7.4c7.9-3,16.2-5.3,24.2-7.9
			c16.2-5.2,32.4-11.6,49-15.3c16.6-3.7,31.2,0.1,46,7.9c12.1,6.3,23.8,14,37,18.1c3.9,1.2,9.5,2.6,12.4-1.3c2.5-3.4,0.5-7.4-2.2-10
			c-4.8-4.5-12-6.3-18-8.6c-8.1-3.2-16.2-6.4-24.3-9.7c-3.5-1.4-7.3-2.9-10.1-5.6c-3.8-3.7-5.4-10-0.8-13.6c2.8-2.2,7-3.6,10.2-5
			c4.2-1.9,8.5-3.6,12.8-5.2c15.1-5.5,30.9-9.3,46.9-11.3c15.8-1.9,31.9-2.1,47.7-0.4c17.7,1.9,32.9,7.7,47.7,17.4
			c14.4,9.4,28.6,19.3,42.8,29c14.1,9.6,29.1,18.6,41.8,30c11.8,10.6,22.1,25.1,22.7,41.5c0.3,8.5-2.3,16.9-9.9,21.4
			c-6.9,4.1-15.6,4.8-23.3,5.7c-8.8,1-17.7,1.6-26.6,1.8c-4.3,0.1-8.5,0.1-12.8-0.1c-3.4-0.1-7.3-0.9-10.7-0.1
			c-5.4,1.2-5.6,6.9-8.1,11c-3.4,5.5-10,8.2-15.4,11.3c-10.4,6-14.4,14.5-19.1,25.1c-2.4,5.4-5.2,11.4-10.5,14.7
			c-6.7,4.1-14.9,3-22.2,5.1c-12.6,3.7-17.3,17-28,23.4c-5.5,3.4-12.3,4.5-16.9,9.3c-3.5,3.7-5.1,8.8-5.6,13.8
			c-0.6,6.1,0.3,12.2,1.4,18.2C245.6,293.9,248.5,293.1,248.2,291.2L248.2,291.2z"/>
	</g>
</g>
<g>
	<path class="st4" d="M205.1,337.7c-0.4-3.3-2-16.7-11-26.9c-3.9-4.4-5.4-4-8.6-8.6c-1.3-1.9-4.3-6.8-5.4-13.6
		c-1.2-7.3,0.4-12.9,3-21.7c2.5-8.5,3.1-6.5,5.4-14.6c3.4-11.7,2.7-18,7.7-21.7c1.1-0.8,2.9-1.8,4.4-4.1c1.6-2.3,2.2-4.8,2.5-7.2
		c1-9-4.1-12.2-4-21.2c0-1.3,0.2-9.4,6-16c3.2-3.6,6.8-5.4,9-6.2c-1,9.7-0.3,17.4,0.5,22.8c1.5,10.1,3.8,12.7,5.5,25.4
		c1.1,7.8,0.4,8.4,1.6,16.4c1.4,9.2,2.5,10,4.4,19.4c0.7,3.8,2.5,13.5,2.7,25.9c0.1,4.5,0.2,10.6-0.9,18.5c-0.9,6.8-2.2,12-2.8,14.1
		c-1.9,7.1-2.9,7.6-6,17.1c-1.3,4-3,9.3-4.5,16c-1.5,7-2.2,12.9-2.5,17.1c-2.4-4.6-5.4-11.6-6.5-20.7
		C205,342.5,205.6,342.5,205.1,337.7z"/>
	<g>
		<path d="M206.6,337.7c-1.2-9.9-4.4-19.7-10.9-27.4c-3.5-4.2-7.9-6.9-10.6-11.8c-3.7-6.9-4.6-14.5-3-22.1c1.3-6.1,3.2-12,5.7-17.7
			c2.5-5.6,3.5-11.8,4.9-17.7c0.5-2.3,1-4.8,2.2-6.8c1.3-2.2,3.6-3.2,5.4-5c3.8-3.9,5-9.7,4.3-14.9c-0.8-6.1-4.3-11.3-3.9-17.7
			c0.6-8.6,5.8-16.2,13.8-19.4c-0.6-0.5-1.3-1-1.9-1.4c-1.2,12.7,0.5,24.3,3.7,36.5c3.2,12.2,2.6,24.8,5.8,37
			c6.3,24.2,8.5,51.4-0.6,75.2c-5.4,14.2-9.6,28.6-10.8,43.8c0.9-0.3,1.9-0.5,2.8-0.8c-2.3-4.6-4.2-9.3-5.3-14.3
			C206.9,347.9,207.1,342.9,206.6,337.7c-0.2-1.9-3.2-1.9-3,0c0.5,5.5,0.4,10.8,1.6,16.2c1.2,5.3,3.1,10.3,5.6,15
			c0.7,1.4,2.7,0.6,2.8-0.8c1.2-14.2,4.9-28,10-41.3c4.4-11.4,6.5-23.6,6.7-35.8c0.2-12.3-0.9-24.8-3.8-36.8
			c-1.5-6.3-3.2-12.3-3.9-18.8c-0.6-5.5-0.8-11-1.8-16.5c-1.1-6.2-3.2-12.1-4.4-18.3c-1.6-8.3-1.7-16.8-0.9-25.2
			c0.1-0.9-1-1.8-1.9-1.4c-9.7,3.9-16,13.2-16.1,23.7c-0.1,6.9,4.3,12.8,4.1,19.6c-0.1,5.2-2.5,8.5-6.3,11.6
			c-1.5,1.2-2.7,2.5-3.6,4.2c-2.6,5-2.9,11.3-4.3,16.7c-1.4,5.4-4,10.2-5.6,15.4c-3.9,12.8-5.7,25.6,2.3,37.4c1.7,2.4,3.7,4.1,5.8,6
			c3.3,2.9,6,6.5,8,10.3c3,5.7,4.7,12.1,5.5,18.4C203.8,339.6,206.8,339.6,206.6,337.7z"/>
	</g>
</g>
<g>
	<path class="st4" d="M234.6,202.6c0-1.1,0.1-8.5,1.5-18.1c1.8-13,3.9-15.8,6-17.1c2.9-1.8,4.7-0.2,10-1.6c6.1-1.6,10-5.3,11.5-6.7
		c4.8-4.6,4.2-7.6,11-25.4c4.1-10.9,5.1-11.8,5-15.5c-0.2-5.6-2.5-6.7-4.6-16.7c-1-4.8-1.7-8.6-1.2-13.5c0.5-4.4,1.6-6.1,3.8-12.7
		c1.1-3.4,2.7-8.6,4-15.1c-0.4,30.9,2.7,43.4,6,48.6c0.6,0.9,2.3,3.5,3,7.2c1.3,7-1.7,14.2-2.5,16c-1.4,3.2-2.1,3.7-2.5,6.2
		c-0.5,3.6,0.6,5.9,1.5,9.3c0,0,1.8,6.8,1,14.5c-0.6,5.8-2.4,6.2-4.8,14.5c-1.7,5.8-1.2,6.5-2.8,15.3c-1.3,7.1-2.6,14.3-5.7,20.8
		c-3,6.3-7.5,11.7-13.1,15.6l0,0c-3.2,2.3-17.9,12.5-24.7,7.4C234.2,233.8,234.3,223.4,234.6,202.6z"/>
	<g>
		<path d="M236.1,202.6c0.1-6.2,0.7-12.5,1.6-18.7c0.6-4.2,1-11.4,4.4-14.6c1.8-1.7,4.1-1.3,6.4-1.4c3.1-0.2,6.1-1.1,8.9-2.5
			c3.5-1.7,6.9-4.3,9.3-7.4c2-2.6,3-5.7,4.1-8.7c2.3-6.7,4.6-13.3,7.2-19.9c1.3-3.2,3.1-6.6,3.2-10.1c0.2-4.2-1.6-7.8-2.9-11.6
			c-2.6-7.9-4.3-16.7-1.7-24.8c2.4-7.4,4.9-14.6,6.5-22.3c-1-0.1-2-0.3-2.9-0.4c-0.1,14.3-0.7,30.2,3.8,44c1.8,5.4,5.4,9.4,5.5,15.4
			c0.1,4.2-1.2,8.5-2.9,12.4c-1.5,3.3-2.9,5.8-2.5,9.6c0.3,2.9,1.5,5.6,2,8.5c0.9,5.1,1.3,10.9-0.3,15.9c-2.1,6.3-4.7,12-5.6,18.7
			c-1.5,10.4-3.1,21.7-8.5,30.9c-4.1,6.8-10.1,11.7-16.9,15.6c-5,2.9-16.4,8.7-18.1-0.2C234.9,221.9,235.9,211.8,236.1,202.6
			c0-1.9-3-1.9-3,0c-0.1,9.3-0.9,18.9,0.4,28.1c0.6,4.4,2.1,7.5,7,8c6.9,0.8,14.3-3.8,19.9-7.5c7.2-4.8,13-11.2,16.4-19.3
			c4-9.4,5-19.6,6.7-29.5c1.3-7.7,5.8-14.3,6.2-22.1c0.2-4.1-0.1-8.4-1.1-12.5c-0.4-1.7-1.1-3.4-1.4-5.1c-0.8-4,0.7-6.4,2.1-9.8
			c3.3-7.6,4.4-16.2,0.2-23.6c-8-14.3-6.7-33.3-6.5-49.1c0-1.7-2.6-2.1-2.9-0.4c-2.6,12.2-9.5,24.3-7.5,37
			c0.9,6.3,3.2,11.8,4.9,17.8c1.1,4,0.3,7-1.2,10.7c-2.7,6.7-5.2,13.4-7.5,20.2c-1.2,3.5-2.1,7.5-4.4,10.5c-3.7,4.9-10,8.4-16,8.9
			c-3.4,0.3-6.5,0-8.9,2.8c-3.2,3.7-3.8,9.9-4.5,14.5c-1,6.7-1.7,13.6-1.8,20.4C233,204.5,236,204.5,236.1,202.6z"/>
	</g>
</g>
<g>
	<path class="st4" d="M305,129.6c0.5-6.2,1.6-12.2,5.5-17.6c1.9-2.7,4.2-5.8,7-5.7c4.4,0.2,6.9,8.3,12.2,8.6c0.5,0,1.5,0.2,2.5,0.8
		c1.5,0.9,1.9,3,1.7,4.7c-0.4,3.7-2.9,6.8-4.5,10.2c-3.1,6.2-3.4,13.8-0.9,20.3c1.2,3.1,3,6.3,2.1,9.5c-1.5,5.3-9.3,6.3-11.3,11.4
		c-0.9,2.3-0.4,4.9-0.5,7.4c-0.1,7-4.6,13.3-10.3,17.2l0,0c-2.2,0.7-5.8,1.9-10.1,3.5c-5.9,2.2-7.9,3.1-8.7,2.2
		c-1.2-1.3,1.1-4.7,3.6-11.7c1.7-4.7,1.8-6.2,3.3-11.8c4.7-17,8-16.6,9.3-25.8C307.3,143.6,303.9,143.6,305,129.6z"/>
	<g>
		<path d="M306.5,129.6c0.5-5.4,1.5-10.6,4.3-15.3c1.4-2.3,2.8-4.3,5.3-5.5c2.9-1.3,3.9,0.4,5.7,2.4c1.6,1.8,3.2,3.7,5.5,4.7
			c3,1.2,5.3,3.2,4.3,7.1c-0.6,2.5-2.5,4.7-3.6,7c-3.2,6.8-3.6,14.4-1.1,21.5c0.9,2.6,3,5.8,2.1,8.7c-0.6,1.9-2.3,3.2-3.8,4.3
			c-2.2,1.5-4.6,2.8-6.2,4.9c-1.7,2.3-1.8,4.9-1.8,7.7c0.1,5.6-1.5,10.3-5.3,14.5c-2.9,3.1-5.7,4.1-9.6,5.5
			c-0.7,0.3-10.7,4.6-11.3,4c-0.7-0.9,2.5-6.7,2.8-7.6c1.4-3.6,2.4-7.3,3.4-11.1c1.7-6.9,4.1-13.3,7.1-19.7
			c2.1-4.3,3.3-8.8,3.3-13.6C307.8,142.5,306.1,136.3,306.5,129.6c0.1-1.9-2.9-1.9-3,0c-0.3,4.1-0.3,8.1,0.3,12.1
			c0.5,3.4,1.2,6.5,0.8,9.9c-0.6,6-3.8,10.9-6,16.5c-3.8,9.5-5.7,19.5-9.5,29c-1.7,4.1-1.4,7.9,3.9,6.4c4.6-1.3,9.1-3.4,13.7-4.9
			c3.6-1.2,6.2-3.4,8.6-6.4c2.6-3.3,4.5-7.2,4.9-11.4c0.3-2.9-0.7-6.4,0.8-9.1c1.2-2.2,3.8-3.4,5.8-4.7c2.2-1.6,4.4-3.3,5.2-6.1
			c1.4-5.1-2.6-10.1-3.4-15c-1.2-7,1.2-12.7,4.4-18.8c1.7-3.2,3.5-7.3,1.7-10.7c-0.8-1.5-1.9-2.3-3.5-2.8c-2.9-0.9-4.4-1.5-6.5-3.8
			c-2.1-2.3-4.3-5.3-7.8-5.1c-4,0.3-6.8,4.8-8.7,7.9c-3.1,5.1-4.2,11-4.7,16.9C303.4,131.6,306.4,131.5,306.5,129.6z"/>
	</g>
</g>
<g>
	<path class="st4" d="M142.1,229c-0.4-3.2-1.3-10.6,2.2-18.2c2.4-5.4,5.9-8.2,4.8-12c-0.7-2.5-2.7-2.9-2.9-5.5
		c-0.2-2.3,1.1-5.1,3.5-6.5c1.9-1.1,4.6-1.3,6.3,0.1c1.8,1.5,2.7,3.8,3,6.2c0.7,5.8-1.9,11.3-4,16.7c-4.5,11.7-5.1,23-7,35.1
		C143.7,238.3,142.5,232.3,142.1,229z"/>
	<g>
		<path d="M143.6,229c-1-8.6,0.8-15.4,5-22.9c1.2-2,2.4-4.1,2.1-6.6c-0.2-1.5-1.1-2.4-1.7-3.7c-1-1.2-1.4-2.7-1.2-4.5
			c1.1-3.3,2.9-4.1,5.6-2.3c2.4-0.2,3.7,0.9,3.9,3.1c0.3,1.5,0.4,2.9,0.2,4.4c-0.2,2.7-1.1,5.4-2.1,8c-1.5,4.2-3.3,8.3-4.4,12.7
			c-2.3,8.9-3.1,18.2-4.5,27.3c0.9-0.1,1.8-0.2,2.7-0.4C146.4,239.5,144.3,234.5,143.6,229c-0.2-1.9-3.2-1.9-3,0
			c0.8,6,2.9,11.5,6.1,16.7c0.6,1,2.5,1,2.7-0.4c2.1-13.2,3.5-25.8,8.3-38.4c2.3-6,6.4-21.1-4-22.5c-3.3-0.4-6.6,1.6-8.2,4.4
			c-2.2,4.2,0,5.9,1.6,9.4c1.5,3.3-1.2,6.2-2.6,8.8c-1.5,2.7-2.7,5.5-3.4,8.5c-1,4.4-1,8.9-0.5,13.4
			C140.8,230.9,143.8,230.9,143.6,229z"/>
	</g>
</g>
<g>
	<path class="st4" d="M108.1,136.9c0.2-4.1,0.5-10.8,3.5-11.9c3-1.1,7.1,4,8.5,5.7c5,6.1,6.7,13.1,7.9,20.6
		c1.7,11.1,0.7,13.9,1.6,24.4c1.6,18.8,6.4,28.7,4.5,29.5c-2.3,1-10.5-13.5-13.5-19.1c-5.8-11.1-8-19.3-8.5-21.2
		c-0.6-2.4-1.2-6.1-2.5-13.5C108.2,143.3,108,140.3,108.1,136.9z"/>
	<g>
		<path d="M109.6,136.9c0.1-2.4-0.1-5.6,0.9-7.8c2-4.7,5.9-0.4,8,2.1c4.7,5.6,6.7,12.6,7.8,19.7c2,12.9,1.2,26,3.6,39
			c0.8,4.2,1.6,8.4,2.8,12.5c0.2,0.6,0.1,1.2,0.2,1.8c0.2,0.6,0.6-0.8,0.8-0.5c-0.2-0.3-0.7-0.4-0.8-0.8c-0.8-1.8-3-3.8-4.1-5.5
			c-6-9.2-11.2-19.2-14.4-29.8c-1.2-3.9-1.9-7.8-2.6-11.8C110.8,149.6,109.4,143.2,109.6,136.9c0.1-1.9-2.9-1.9-3,0
			c-0.2,6.8,1.3,13.7,2.5,20.4c0.8,4.8,1.8,9.4,3.4,14c2.5,7.2,5.8,14,9.6,20.5c2.5,4.4,5.3,10.7,9.5,13.9c1.9,1.4,4,1.2,4.4-1.3
			c0.7-4.1-2-10-2.8-14c-3.4-16.9-0.4-35.6-6.8-51.8c-1.9-4.9-7.2-14.8-13.4-15.2c-6.3-0.4-6.1,9.4-6.3,13.5
			C106.5,138.8,109.5,138.8,109.6,136.9z"/>
	</g>
</g>
<g>
	<path class="st4" d="M162.7,253.1c0,0-1.7-11.2,0.8-21.5c0.1-0.5,0.6-2.4,1.3-4.8c1.1-3.7,2-6.3,2.3-7.1c2.2-6.4,0.4-9.4,2-19.7
		c1.2-7.4,2.4-7.7,2-11.9c-0.5-5.7-2.8-6.4-2.7-11.3c0.2-6.1,3.9-6.7,3.6-12.2c-0.3-5.2-3.7-7-2.4-10.6c0.7-1.9,2.1-2.9,4.5-4.7
		c2.1-1.6,4.3-3.1,6.5-2.6c0.9,0.2,1.8,0.8,3.8,3.6c3.6,4.9,5.3,7.3,5.8,10.9c0.3,2.5-0.2,4.3-1.1,7.8c-1.8,6.6-4.3,11.2-4.7,11.9
		c-5.3,9.9-0.5,18.6-3.8,36.2c-2.3,12.5-5.5,12-9,26.9c-2.7,11.2-3.1,20.7-3,26.9C166.5,266.9,163.9,260.9,162.7,253.1z"/>
	<g>
		<path d="M164.1,252.7c-1.1-7.4-0.6-15.2,1.3-22.4c1.9-7.2,4.3-13.2,4.4-20.7c0.1-4.6,0.5-9.1,1.6-13.6c0.6-2.5,1.4-4.8,1.2-7.4
			c-0.2-3.2-1.6-5.7-2.4-8.7c-1.2-4.8,1.6-7.6,2.8-11.8c0.8-2.7,0.3-5.6-0.7-8.2c-1-2.7-2.3-4.2-0.4-7c1.7-2.5,6.9-5.8,9.6-3.7
			c2.7,2.1,5.9,7.5,6.8,10.8c1.2,4.7-1.2,10.5-2.9,14.9c-2.3,5.7-5,10.3-5.3,16.6c-0.4,9.1,0.5,17.8-1.4,26.8
			c-1.6,7.6-5.7,14.3-7.8,21.8c-2.8,10-4,20.5-4,30.9c0.9-0.3,1.9-0.5,2.8-0.8C167,264.6,165.2,258.8,164.1,252.7
			c-0.3-1.9-3.2-1.1-2.9,0.8c1.1,6.4,3.1,12.4,6.1,18.2c0.7,1.3,2.8,0.7,2.8-0.8c0-11.1,1.3-22.4,4.7-33c2.6-7.9,6.4-14.7,7.6-23.1
			c1.3-9-0.5-18.3,1.1-27.2c1.5-8,6.9-14.6,8-22.9c0.4-3.3-0.3-6.3-1.9-9.2c-1.6-2.9-4.3-7.7-7.3-9.5c-4.9-2.9-13.7,3.6-14.6,8.7
			c-0.6,3.5,2.4,6.5,2.6,10c0.2,4.4-3.5,7.7-3.6,12.2c-0.1,3.6,1.9,6.6,2.5,10c0.7,3.9-0.7,7.3-1.5,11.1c-1,5.2-0.9,10.2-1.2,15.4
			c-0.2,4.5-2.1,8.7-3.4,13c-2.6,8.9-3.5,18-2.2,27.1C161.5,255.4,164.4,254.6,164.1,252.7z"/>
	</g>
</g>
<g>
	<g>
		<path d="M155.5,74.6c4.1,1.3,8.3,2.5,12.4,4c4.1,1.4,7,3.4,10.5,5.9c5.4,3.8,11.5,4.1,17.7,6c7.4,2.2,10.5,9.3,17,12.8
			c5.3,2.8,11.3,3.3,17.1,4.3c7.7,1.3,13.5,3.6,17.7,10.6c1.6,2.8,2.3,5.2-0.2,7.9c-0.9,1-2.1,1.6-3.1,2.5c-2.3,2.1-4,4.8-5.4,7.5
			c-3.5,6.6-6.1,13.6-9.6,20.2c-3.5,6.6-7.3,16.7-15,19.4c-1.8,0.6-1,3.5,0.8,2.9c6.6-2.4,9.9-8.3,13.1-14.2
			c4.6-8.3,8.4-16.9,12.5-25.4c1.9-4,4.3-7.2,7.7-10c1.8-1.5,3.9-3.1,4.1-5.6c0.6-5.4-5.8-12.3-10-14.9c-6.1-3.7-13.5-3.8-20.2-5.2
			c-4.3-0.9-8.4-2.2-11.8-5.2c-2.8-2.5-5-5.7-8.1-7.8c-7-4.6-15.9-3.4-22.8-8.3c-3.2-2.2-6-4.4-9.7-5.7c-4.6-1.7-9.3-3-13.9-4.5
			C154.4,71.1,153.6,74,155.5,74.6L155.5,74.6z"/>
	</g>
</g>
<g>
	<path class="st5" d="M530.8,6.2c-6.5,1.4-13.3,3.4-17.9,8.1c-9.1,9.1-6.6,25.4,2.2,34.8c8.8,9.4,22,13.4,34.7,15.9
		c13.2,2.6,26.7,4,40.2,4.1c12.4,0.1,25-0.8,37.2,1.6c12.6,2.5,24.3,8.5,36.9,11c8.6,1.7,17.5,1.7,26.3,1.7c22,0,44.1,0.1,66.1,0.1
		c6.3,0,12.7,0,18.7-1.7c5.8-1.7,11-4.9,16.7-7c7.6-2.8,16-3.6,24.1-2.2c6.5,1.2,12.9,3.7,19.6,3.5c6.2-0.2,11.9-2.9,17.7-5.1
		c13.6-5.2,28.2-8.2,42.8-8.6c17.9-0.6,36.9,2.3,52.7-6c2.7-1.4,5.4-3.3,7-5.9c1.9-3.1,2-6.8,2.2-10.4c0.4-10.8,0.8-21.6,1.2-32.4
		c0.1-1.7,0.1-3.5-0.9-4.9c-1.5-2.1-4.5-2.4-7.2-2.4l0,0C836.6-0.1,722.3-0.1,608,0.3C582.8,0.4,555.5,1.2,530.8,6.2z"/>
	<g>
		<path d="M530.4,4.7c-11.7,2.6-23,8.1-24.6,21.2c-1.5,12.1,5.2,23.2,14.9,29.9c12.1,8.3,27.7,10.9,42,12.8
			c16.9,2.3,33.7,1.3,50.6,2c9.2,0.4,18,2.2,26.7,5.2c8.1,2.7,16.2,5.9,24.6,7.4c16.6,3,34.2,1.6,51,1.6c9.1,0,18.1,0,27.2,0
			c8.6,0,17.3,0.6,25.9-0.5c8.1-1,14.7-4.7,22-7.7c8.8-3.6,18.2-4.3,27.4-2.2c7,1.5,13.8,3.8,21,2.6c7.9-1.4,15.3-5.4,23-7.7
			c16.4-5,32.9-5.7,49.9-5.6c13.5,0.1,30.3,0.2,41.4-8.9c4.7-3.9,5.5-9.2,5.8-15c0.4-8.9,0.6-17.8,1-26.7c0.2-4.7,1.6-11.3-3.7-13.7
			c-2.1-0.9-4.4-0.8-6.6-0.9c-4.7,0-9.3,0-14,0c-18.3-0.1-36.6-0.1-54.8-0.2c-36.9-0.1-73.8-0.1-110.7-0.1c-36.9,0-73.8,0-110.7,0.1
			c-35.1,0.1-70.6-1.2-105.5,2.5C546.3,2,538.3,3.2,530.4,4.7c-1.9,0.4-1.1,3.3,0.8,2.9C562.7,1.4,595,1.8,627,1.7
			c33.9-0.1,67.8-0.2,101.7-0.2c67.1-0.1,134.2,0,201.4,0.2c7.4,0,14.9-0.4,22.3,0.1c6.4,0.5,5.1,7.9,5,12.4
			c-0.2,4.1-0.3,8.2-0.5,12.4c-0.3,7.1,1.3,18.1-3.3,24c-4.6,5.9-13.8,8.1-20.8,9.2c-14.8,2.4-30,0.1-44.9,1.5
			c-15.2,1.4-28.6,6.3-42.9,11.2c-8.4,2.9-15.7,1.6-24.1-0.4c-6.3-1.5-12.7-2.2-19.2-1.3c-7.4,1-13.7,4.1-20.5,7
			c-8.3,3.7-16.7,4.1-25.7,4.1c-16.5,0-33.1,0-49.6-0.1c-16.2,0-32.8,1.1-48.6-3.4c-14.8-4.3-28.4-10.1-44.1-10.8
			C597.4,67,581.7,68,565.9,66c-14.5-1.7-30.7-4.1-43.1-12.4c-11.2-7.5-19.7-24-10.6-36.4c4.4-6,11.9-8.1,18.9-9.7
			C533,7.2,532.2,4.3,530.4,4.7z"/>
	</g>
</g>
<g>
	<path class="st5" d="M801.2,89c-10,0.5-20.2,2.1-29,7.3c-8.8,5.2-16,14.4-17.1,25.2c-0.2,2.5-0.1,5.2,1.5,7
		c1.6,1.8,4.1,2.1,6.3,2.3c14.4,1.3,28.8,2.6,43.2,3.9c10.1,0.9,20.5,1.9,29.4,7c10.5,6,21.3,17.8,32.2,12.6c-1,8-10.9,9.4-18.3,9
		c-24.4-1.5-49.8-0.6-71.6,11.4c-14.8,8.1-27.1,21-42.4,28.2c-11,5.2-23.1,7.1-34.8,10.2c-12.7,3.4-25.1,8.2-36.9,14.3
		c-5.4,2.8-10.7,6-14.4,11.1s-5.1,12.5-2,18c3.4,6.1,10.8,7.8,17.4,8.3c39.2,2.8,76.7-17,115.8-20.8c34.5-3.4,69.1,5.9,103.7,4.6
		c20.6-0.8,41.3-5.3,61.6-1.4c3.4,0.7,7.3,1.4,9.8-1.1c2-2,2.3-5.4,2.3-8.4l0,0c0.6-22,1-44,1.2-66c0.2-13.1,3.5-33.3-3.5-45.1
		c-7.2-12.2-24.7-11.8-36.3-14.6c-18.8-4.6-37.3-10.5-56-15.2C842.9,91.7,822.1,88,801.2,89z"/>
	<g>
		<path d="M801.2,87.5c-15.5,0.9-31.7,4.8-41.3,18c-3.9,5.3-7.3,12.8-6.3,19.5c1.1,7.8,8.9,7.4,15.2,7.9c10.5,0.9,20.9,1.9,31.4,2.8
			c9.6,0.9,19.6,1.3,28.7,4.7c12.7,4.7,24.7,21.5,39.5,15.3c-0.7-0.6-1.5-1.1-2.2-1.7c-1.2,6.6-8.3,7.8-14,7.9
			c-6.9,0.1-13.9-0.6-20.8-0.6c-14,0.1-28.2,1.7-41.5,6.4c-13.2,4.7-24.1,12.9-35.2,21.2c-5.9,4.4-11.9,8.7-18.5,12
			c-7.2,3.6-15,5.7-22.7,7.5c-14.6,3.5-28.7,7.4-42.3,13.7c-10.5,4.9-23.7,10.9-26.4,23.4c-6.2,29,41.8,20.9,56.6,18
			c30.4-5.9,59.5-17.9,90.8-18.7c32.8-0.8,65.2,7.1,98,4.9c16.3-1.1,32.8-3.9,49.1-2.1c5.1,0.6,12.7,3.6,17.2-0.3
			c3.7-3.2,3.1-9.3,3.2-13.7c0.4-16.7,0.7-33.3,1-50c0.2-13.1,1.7-26.4,1-39.5c-0.5-10.1-3.1-20.4-12.2-26c-9.1-5.6-20.4-5.5-30.5-8
			c-31.2-7.6-61.7-18.8-93.8-22.1C817,87.4,809.1,87.2,801.2,87.5c-1.9,0.1-1.9,3.1,0,3c31-1.3,61,7.3,90.6,15.6
			c12.6,3.5,25,7.1,37.9,9.3c11.5,1.9,23.2,5.1,26.9,17.5c3.3,10.8,1.7,22.7,1.1,33.8c-0.7,15-0.5,30-0.8,45
			c-0.1,7.3-0.3,14.7-0.5,22c-0.1,3.7,0.8,10.7-3.8,12.4c-3.1,1.1-7.7-0.6-10.7-1c-15.4-2.2-30.8-0.1-46.2,1.2
			c-30.4,2.6-60.1-3.2-90.4-4.3c-13.9-0.5-27.6,0.3-41.2,3c-14.2,2.7-28,6.9-41.9,10.5c-13.4,3.5-79.7,21.5-74.9-8.4
			c2.3-14.2,20.8-20.7,32.3-25.4c13.2-5.4,27-8.2,40.7-11.9c14.6-4,26.4-11.2,38.5-20.3c12.9-9.7,25.6-17.9,41.6-21.7
			c14.9-3.6,30.3-3.8,45.5-3c8.3,0.4,21.2,0.7,23.2-9.9c0.3-1.4-1-2.2-2.2-1.7c-12.4,5.3-25-10.6-35.6-14.9
			c-13.3-5.4-28.8-5.2-42.9-6.4c-7.8-0.7-15.7-1.3-23.6-2.1c-3.7-0.4-7.4-0.7-8.2-5.2c-0.4-2,0.1-4.2,0.6-6.2
			c0.8-3.6,2.4-6.9,4.4-10c8.9-13.1,24.7-16.9,39.6-17.7C803.1,90.4,803.1,87.4,801.2,87.5z"/>
	</g>
</g>
<g>
	<path class="st5" d="M911,272.1L911,272.1c-10.3,2.4-19.9,7.5-30.2,9.7c-19.1,4-38.6-2.5-58-5.2c-19.3-2.7-41.9,0-53.5,16.7
		c7.3-2.2,14.8-4,22.5-3.9c12.5,0.1,24.5,4.9,36.1,9.7c-4.7,3.9-10.6,5.5-16.4,6.5c-29.7,5.5-63.7,1.3-86.3,22.6
		c18.4,3.4,37.1-2.4,55.6-4.6c43.8-5,88.9,10.2,131.7-1.2c15.5-4.1,32-11.7,46.8-5.4c-1.3-0.6,0.8-21.9,0.6-24.4
		c-0.5-8.2,0.1-8.7-5.7-13.5C943.3,270,923.9,269.1,911,272.1z"/>
	<g>
		<path d="M910.6,270.6c-14,3.3-26.3,10.5-40.9,10.9c-15.7,0.4-31-4.2-46.4-6.4c-19.9-2.7-42.6,0-55.2,17.4
			c-0.8,1.1,0.5,2.6,1.7,2.2c10.3-3,20.6-4.9,31.4-3c9.2,1.7,17.8,5.2,26.4,8.8c-0.1-0.9-0.2-1.8-0.4-2.7c-8.1,6.2-19.2,7.2-29,8.3
			c-9.3,1-18.7,1.7-28,2.8c-16.8,2.2-33.2,6.6-46.1,18.2c-0.8,0.7-0.4,2.3,0.7,2.5c14.9,2.5,29.6-0.3,44.4-2.8
			c15.8-2.6,31.5-3.2,47.5-2.3c30.2,1.7,60.9,7.1,90.9,0.6c16.7-3.6,34.3-13.4,51.4-6.7c1.4,0.6,2.5-1.5,1.5-2.5
			c-0.7-0.7,0.1-6.6,0.2-7.8c0.2-3.5,0.4-7,0.7-10.5c0.3-4.9,1.1-11.4-1.9-15.7C949.5,267.8,925.5,267.4,910.6,270.6
			c-1.9,0.4-1.1,3.3,0.8,2.9c9.3-2,19.4-2.1,28.6,0.3c7.4,1.9,17.6,6.3,18.3,14.9c0.4,5.5-0.2,10.8-0.5,16.3
			c-0.2,2.9-1.9,10.7,0.5,13c0.5-0.8,1-1.7,1.5-2.5c-13.3-5.2-27.1-0.8-40.1,3.2c-15.1,4.6-30.2,6.6-46,6.5
			c-31-0.2-61.9-6.7-92.9-3.1c-18.4,2.1-36.6,7.7-55.2,4.6c0.2,0.8,0.4,1.7,0.7,2.5c14.2-12.9,33-16.3,51.5-18.2
			c8.8-0.9,17.7-1.5,26.4-2.7c8.6-1.2,17.5-2.5,24.5-7.9c1.1-0.8,0.9-2.2-0.4-2.7c-9.4-3.9-19-7.8-29.2-9.2
			c-10.3-1.4-20.3,0.5-30.1,3.4c0.6,0.7,1.1,1.5,1.7,2.2c14.9-20.7,42.9-18,64.9-13.8c13,2.5,26.3,5.3,39.7,3.9
			c12.7-1.4,23.8-7.8,36.1-10.6C913.2,273.1,912.4,270.2,910.6,270.6z"/>
	</g>
</g>
<g>
	<path class="st6" d="M389,533.8c-0.3-5.6-0.1-5.9-0.5-9.3c-0.4-3.3-0.8-5.2-1.7-9.5c-2.9-13.9-2.1-14.5-4.3-22
		c-0.8-2.7-2-5.3-2.1-8.1c-0.4-8.1,3.5-10.1,2-14.8c-0.5-1.7-4.5-4.9-12.4-11.3c-0.8-0.6-2.7-2.2-5-4.7c-1.1-1.2-1.7-2-3-3.6
		c-9.2-11.7-9.5-11.2-10-12.9c-0.3-0.9-0.7-2.7-2-3.1c-0.9-0.3-1.8,0.4-2,0.5c-2.5,1.9-0.6,6.2-3,8.3c-1,0.9-2.5,1.1-3.5,0.8
		c-1.6-0.4-2.7-1.9-3.1-3.1c-2.1-6.9-3.8-14-4.9-21.2c-0.1-0.9-0.3-1.7-0.7-2.5c-1.7-3.1-7.4-3.2-7.5-6.8c-0.1-2.1,2-3.5,4-4.1
		c1.9-0.6,4.1-1,5.3-2.6c1.1-1.5,1-3.5,0.8-5.4c-0.2-1.9-0.5-3.8,0.3-5.5c0.8-1.7,3.1-2.7,4.4-1.4c0.7,0.7,0.9,1.7,1,2.4
		c0.2,2.1,0.8,5.1,2.4,9.1c-0.1-2.6,0.2-6.1,2.2-8.7c0.4-0.6,1.4-1.9,2.3-1.7c0.7,0.2,1,1.1,1.5,2.6c2,6.2,1.9,5.8,2,6.2
		c1,3.8,1.5,5.7,1.5,6.2c0,0.9,0,1.8,0.5,2.1c0.7,0.4,1.8-0.7,3-1.6c1.3-0.9,3.4-1.9,6.5-2.1c1.5,3.8,1.2,6.2,0.5,7.8
		c-1.2,2.6-3.9,3.9-3.5,5.7c0.2,0.9,1.1,1.3,1.5,1.5c3.6,1.9,6.2,5.3,9.5,7.8c8.3,6.2,7.7,6.7,10,7.2c2.4,0.6,3-0.1,8.5,0.5
		c2.3,0.2,4.4,0.5,6.5,1c4.6,1.2,7.7,3.6,13,7.8c3.9,3,3.7,3.4,8,6.7c3.6,2.8,4,2.8,8,5.7c6.7,4.9,10.1,7.4,12,10.9
		c0.8,1.5,1.6,4.3,3,9.8c1.6,6.3,1.6,8.3,1.5,9.8c-0.3,2.6-0.8,2.4-2,7.2c-0.6,2.5-1.4,5.7-1.5,9.8c-0.1,1.8-0.1,4.4,0.5,7.8
		c0.7,3.7,1.7,5.1,3,10.4c0.3,1.1,0.5,2.1,1,3.6c0.6,1.7,0.8,2.1,1,3.1c0.2,0.9,0.3,2.3,0,4.1c-0.3,0.7-1.2,3.1-2.5,3.1
		c-0.8,0-1.4-0.8-2-1.6c-1.1-1.4-2.7-3.2-5-5.2c-1.3,2.9-1.5,5.3-1.5,6.7c0,1.9,0.4,3.3,1,5.7c0.7,2.8,1.2,3.6,2,6.2
		c0.5,1.5,1.1,3.8,1.5,6.7c0.4,1.3,0.2,1.8,0,2.1c-0.4,0.4-0.8,0-3,0c-1.2,0-1.8,0-2,0c-0.5,0.1-0.7,0.1-1,0c-0.6-0.3-0.9-1.1-1-1.6
		c-1.3-5.4-1-9.3-1-9.3c0.4-4.4-1.7-5.9-4.5-13.5c-1.4-3.9-3.1-9.6-4-17.1c-0.8,6-1.4,13.4-1,21.7c0.3,7.3,1.3,13.8,2.5,19.1
		c-2.8,0.6-7.5,1.2-10-1.6c-1.7-1.9-1.5-4.6-1.5-7.2c0,0,0.1-5.1-2.5-19.7c-0.8-4.5-2.6-10.8-7.5-18.1c-0.5,6.7-0.7,14.2-0.5,22.3
		c0.2,8.9,1,17,2,24.3c-3.9-0.3-5.9-0.2-7,0c-0.3,0.1-1.3,0.3-2.5,0c-0.6-0.1-1.2-0.4-1.5-0.5c-0.1-0.8-0.3-2.1-0.5-3.6
		c-0.4-3.5-0.4-5.9-0.5-7.8C389.8,540.5,389.4,541,389,533.8z"/>
	<g>
		<path d="M390.5,533.8c-0.7-12.6-2.7-25.3-5.6-37.7c-0.9-3.7-2.7-7.4-3-11.2c-0.3-4,1.4-7.1,2.2-10.9c0.9-4.7-1.9-7.2-5.2-10
			c-6.6-5.6-12.5-10.6-17.9-17.4c-2.3-2.9-5.5-5.8-7.3-9.1c-0.8-1.5-0.8-3.2-2.4-4.2c-1.8-1-3.9-0.2-5.1,1.4c-0.6,0.9-0.8,1.8-1,2.8
			c-0.1,0.7,0,1.6-0.3,2.3c0,0.3-0.1,0.6-0.1,1c-3.4,1.6-5.2,0.8-5.3-2.2c-1.6-5.2-2.8-10.6-3.8-15.9c-0.6-3.4-0.7-6.6-3.7-8.7
			c-0.9-0.6-3.4-1.3-3.9-2.2c-2.4-3.9,4.1-4.6,5.6-5.5c3.2-1.8,3.6-4.7,3.4-8.2c0-0.6-0.5-2.4-0.2-2.8c1-0.2,2-0.4,3-0.7
			c0,0.3,0.1,0.6,0.1,0.9c1,1.2,1.6,6,2.2,7.6c0.6,1.5,3,1.4,2.9-0.4c0-1.8,0-3.7,0.6-5.5c1.8-4.7,2.1-2.7,3-0.2
			c0.5,1.4,1,2.8,1.4,4.2c0.8,2.8,0.9,6.4,2.2,9c0.2,0.4,0.8,0.8,1.3,0.7c1.3-0.1,1.4-0.2,2.6-0.9c2.4-1.4,3.9-2.4,6.9-2.7
			c-0.5-0.4-1-0.7-1.4-1.1c0.7,1.9,1.4,4.2,0.8,6.3c-0.6,1.7-2.2,2.7-3,4.2c-0.9,1.6-1.1,2.8,0.1,4.3c1.9,2.3,5.3,4,7.6,6.1
			c2.8,2.5,5.9,4.7,8.8,7.1c2.1,1.7,3.5,3,6.3,3.3c7,0.8,13.7,0.2,19.9,4.3c5.5,3.6,10.1,8.4,15.4,12.3c5.4,4,11.7,7.4,16.2,12.4
			c4.1,4.5,5.6,12.9,6.2,18.6c0.5,4.8-2,9.4-2.8,14.1c-1.2,6.8-0.6,13.2,1.5,19.7c1.1,3.5,2.3,7.1,3.2,10.6c0.4,1.6,1,6.1-1.8,5.1
			c-1.3-0.5-4-4.3-5-5.2c-0.9-0.8-2.1-0.4-2.5,0.7c-2.5,6.4-1,11.8,1.1,18c0.5,1.6,1,3.3,1.4,4.9c0.2,1.1,0.4,2.1,0.6,3.2
			c0.9,0.4,0.8,0.4-0.2,0.2c-4.3,2-4.6-3.5-4.8-6.2c-0.3-4-0.2-7-1.9-10.9c-3.4-7.4-5.6-14.8-6.6-22.9c-0.2-1.9-2.7-1.9-3,0
			c-1.8,13.8-1.3,27.7,1.6,41.3c0.3-0.6,0.7-1.2,1-1.8c-4.7,0.9-9.5,0-9.6-5.8c0-0.7,0-1.5,0-2.2c-0.1-2.8-0.4-5.5-0.8-8.3
			c-1.4-10.8-3.5-20.4-9.4-29.7c-0.8-1.3-2.7-0.7-2.8,0.8c-1.1,15.6-0.6,31.1,1.5,46.6c0.5-0.5,1-1,1.5-1.5c-2.5-0.2-4.9,0.1-7.3,0
			c-3.1-0.1-2.6-1.7-2.8-4.3c-0.1-1.3-0.2-2.7-0.3-4C391.4,543.1,390.8,538.5,390.5,533.8c-0.1-1.9-3.1-1.9-3,0
			c0.5,7,0.8,14.2,1.7,21.1c0.3,2.3,0.3,3.3,2.5,4c2.9,1,7.2,0,10.3,0.2c0.7,0,1.6-0.7,1.5-1.5c-2.1-15.5-2.6-31-1.5-46.6
			c-0.9,0.3-1.9,0.5-2.8,0.8c6.8,10.6,9.1,23,9.7,35.5c0.2,3.2-0.5,6.8,1.8,9.5c2.8,3.4,7.8,3,11.7,2.2c0.8-0.2,1.2-1.1,1-1.8
			c-2.8-13.4-3.3-27-1.4-40.5c-1,0-2,0-3,0c1.1,8.6,3.4,16.5,7,24.4c1.3,2.8,1.4,4.9,1.5,7.8c0,2.5,0,7.6,1.8,9.6
			c1.5,1.7,4.9,1.6,6.9,1.3c1.6-0.2,2.3-0.7,2.5-2.3c0.5-3.2-1.6-8-2.6-11c-1.8-5.3-2.8-9.9-0.7-15.3c-0.8,0.2-1.7,0.4-2.5,0.7
			c2.9,2.6,7.7,10.9,11.2,4.7c2.9-5.1-1-13.2-2.6-18.2c-2.5-7.8-2.5-15.3-0.4-23.2c1.4-5.2,2.2-8.4,1.1-13.8
			c-1.2-5.7-2.3-12.4-6.4-16.8c-4.8-5.2-11.2-8.7-16.9-12.9c-5.9-4.4-11-10.1-17.6-13.6c-6.1-3.2-12.4-2.5-18.9-3.4
			c-2.1-0.3-3.2-1.4-4.8-2.7c-3.4-2.8-6.9-5.4-10.2-8.4c-0.7-0.6-4.9-3.2-5.2-3.9c-0.8-2,1.8-3.5,2.6-5.2c1.3-2.9,0.7-6-0.3-8.9
			c-0.2-0.6-0.8-1.2-1.4-1.1c-2.2,0.3-4.4,0.6-6.4,1.7c-2.5,1.4-1.5,1.9-2.4-0.1c-1.2-2.7-1.6-6.2-2.6-9.1c-0.8-2.4-1.6-7.2-5.2-5.7
			c-3.9,1.7-4.6,8-4.5,11.5c1-0.1,2-0.3,2.9-0.4c-1.3-3.4-2.1-17.1-8.9-12.3c-2.9,2-2,5.1-2.1,8.1c-0.3,7.5-5.7,4.9-9,9.1
			c-1.4,1.8-1.5,4-0.1,5.8c0.7,1,1.9,1.5,2.9,2.1c3,1.8,4,3.1,4.6,6.6c1,5.4,2.1,10.7,3.6,16c0.8,3,1.6,6.7,5.1,7.7
			c2.2,0.6,4.8-0.4,5.9-2.3c0.8-1.3,0.3-2.9,0.9-4.1c0.4-0.3,0.8-0.6,1.2-0.9c0.9-1.3,1.3-1.3,1.4-0.1c0.1,0.1,0.1,0.5,0.2,0.6
			c2.5,2.5,4.7,6.2,7,9c2.9,3.7,5.7,7.4,9.2,10.6c3.4,3,7.1,5.7,10.6,8.7c2.4,2.1,4.1,3.3,3.5,6.8c-0.7,3.6-2.2,6.6-2.2,10.4
			c0.1,4.5,2.1,8.6,3.1,12.9c0.7,2.8,1,5.7,1.5,8.6c1.6,9.5,3.4,18.6,4,28.3C387.6,535.7,390.6,535.7,390.5,533.8z"/>
	</g>
</g>
<path class="st7" d="M223.1,307.7"/>
<g>
	<path class="st6" d="M471.5,525.5c-0.5-3.3-1-6.6-1.5-9.8c-0.7-2.5-1.6-6.2-2.3-10.8c-0.7-4.2-0.8-6.8-1.2-14.5
		c-1.1-19.8-1.3-19.8-1-22.3c0.6-5.6,1.7-7.7,1.5-13.5c-0.1-3.5-0.6-4.8-1.5-10.4c-0.2-1.4-1.9-11.3-2.5-22.3c-0.4-6.8,0-6.9-0.5-14
		c-0.4-5-0.5-4.5-1.4-13.2c-1.1-11.1-1.6-16.7-1.6-17.3c-0.1-3.7,0.1-7.5-1-7.8c-0.6-0.2-1.2,1-3.5,3.1c-2.3,2.2-3.5,3.2-5,3.1
		c-1.7-0.2-3.4-1.9-3.5-3.6c-0.1-1.6,1.3-2.7,3.5-4.7c3.4-2.9,4.6-2.4,5.5-4.1c1.4-2.6,0.2-6.3-0.5-8.3c-0.1-0.3-0.8-2.4-1.5-5.2
		c-0.3-1.2-0.5-2.3,0-3.1c0.5-0.8,1.5-1,1.9-1.1c2.2-0.5,4.3,1.1,5.6,2.2c0.8,0.6,1.9,1.6,3,3.1c0.4-0.8,0.8-1.9,0.5-3.1
		c-0.4-1.7-2-2.1-3-3.6c-0.7-1.1-1.3-2.9-0.5-6.2c1.7,0.7,4.1,2.1,5.5,4.7c1.3,2.4,0.6,3.6,2,6.2c1.3,2.5,2.8,2.8,6,5.7
		c1.3,1.2,2.7,2.9,5.5,6.2c2.3,2.8,5.4,6.6,9,11.4c-0.7,0.6-1.9,1.5-3.5,2.1c-1.5,0.5-2.9,0.5-4,0.5c-2.3,0-3.1-0.4-5,0
		c-0.9,0.2-1.7,0.4-2,1c-0.6,1.3,1.1,3.4,1.4,3.9c2.3,3,5.7,12.5,12.5,31.5c7.7,21.6,2.7,26,9.9,32.8c4,3.7,7.1,4,15.2,11
		c0,0,5.4,4.7,9.8,10c8.6,10.3,13.7,24.8,14.5,45.7c0.6,16.4-0.4,33.4,5.4,48.7c-3.3,0.1-6.7,0.2-10,0.3c-2-8.6-4-17.3-6.1-25.9
		c-0.4-1.6-1-3.5-2.5-4c-0.6,9.5-1,19.1-1.2,28.7c-1.2,2.1-4.5,1.4-5.9-0.6c-1.3-2-1.3-4.6-1.3-7c-0.1-17.1-5.7-34.2-15.6-47.9
		c-1.7-2.4-3.6-4.6-5.8-6.5c0,20-0.1,40.1-0.1,60.1c0,0.7,0,1.5-0.5,1.9c-0.5,0.4-1.1,0.5-1.8,0.5c-2.3,0-4.7-0.1-7-0.1
		c0.4-18.4-0.3-36.9-1.9-55.2c-0.2-1.7-0.5-3.7-2-4.5c-0.3,1.7-0.7,4.3-1,7.5c-1.1,10.1-0.5,14.6-1,30.1c0,0-0.1,3.8-3.5,18.1
		c-0.2,0.7-0.7,2.9-2.5,4.2c-0.5,0.3-1.4,1.1-2.2,0.7c-1.1-0.5-1.1-3.2-0.8-7.5c0.3-4.7,0.5-7.1,1-10.4
		C472.1,538.4,472.5,532.8,471.5,525.5z"/>
	<g>
		<path d="M472.9,525.1c-1.4-9.1-3.8-18.1-4.5-27.3c-0.6-7.8-1-15.7-1.4-23.6c-0.1-2.1-0.2-4.1-0.1-6.2c0.4-4.2,1.5-8.3,1.5-12.6
			c0-3.1-0.6-6.1-1.1-9.2c-2.6-14.5-2.2-29-3.9-43.5c-0.9-7.5-1.6-14.9-2.2-22.4c-0.3-3,1.2-11.1-2.3-12.1c-2.9-0.8-3.9,4.5-6.2,4.7
			c-0.6-0.4-1.3-0.7-1.9-1.1c-2.2-0.5-2.5-1.1-0.9-2c0.7-1.3,3.1-2.4,4.2-3.1c0.8-0.6,1.7-0.9,2.3-1.7c2.1-2.7,1.1-6.5,0.3-9.5
			c-0.4-1.5-1.5-3.4-1.5-5c0.2-6.3,6.6,0.2,7.8,1.7c0.8,1,2.2,0.3,2.5-0.7c0.7-1.8,0.9-3.6-0.2-5.3c-1.9-3.2-3.7-3.1-2.8-7.6
			c-0.7,0.3-1.5,0.6-2.2,0.9c4.3,2,4.8,4.9,6.3,8.9c1.1,3,3.3,4.4,5.6,6.3c6,5,10.8,12.2,15.5,18.4c0.1-0.6,0.2-1.2,0.2-1.8
			c-4.1,3.3-8.2,0.8-12.4,2.4c-2,0.7-2.9,1.9-2.4,4c0.3,1.7,1.7,3,2.5,4.4c1.1,1.9,1.9,4,2.7,6c5.9,14.7,11.6,29.8,13.8,45.6
			c0.5,3.6,1.2,6.9,3.5,9.8c3.5,4.3,8.8,6.5,13.1,9.7c12.7,9.7,21.6,22.5,25.1,38.2c5.1,22.6-0.2,46.4,7.8,68.5
			c0.5-0.6,1-1.3,1.4-1.9c-3.3,0.1-6.7,0.2-10,0.3c0.5,0.4,1,0.7,1.4,1.1c-1.5-6.5-3-13-4.6-19.4c-0.9-3.8-1-9.1-4.7-11.3
			c-1-0.6-2.2,0.2-2.3,1.3c-0.3,4.5-0.5,8.9-0.7,13.4c-0.1,2.2-0.2,4.5-0.3,6.7c0,1,0.4,6.2-0.2,6.7c-4.3,3.4-4.2-4.4-4.2-5.7
			c-0.1-2.3-0.1-4.6-0.3-6.8c-0.3-3.3-0.8-6.5-1.4-9.7c-2.9-13.8-9.3-29.3-20.1-38.9c-1-0.8-2.6-0.3-2.6,1.1c0,11.6,0,23.3-0.1,34.9
			c0,5.5,0,11,0,16.5c0,1.5,0.9,7.4,0,8.7c-1.1,1.7-5.9,0.8-7.8,0.8c0.5,0.5,1,1,1.5,1.5c0.2-11.5,0.1-23-0.5-34.5
			c-0.3-5.6-0.6-11.2-1.1-16.7c-0.3-3.3,0-7.1-2.8-9.5c-0.8-0.7-2.3-0.5-2.5,0.7c-1.2,7.5-1.7,15-1.8,22.6
			c-0.1,5.9,0.3,11.9-0.6,17.7c-0.5,3.2-1.2,6.4-1.8,9.6c-0.4,2-0.5,5.4-1.8,7.1c-2.6,3.4-2.2-1.6-2.1-3.5c0.6-9.1,2.2-17.7,1-26.9
			c-0.2-1.9-3.2-1.9-3,0c0.7,5.9,0.7,11.5-0.1,17.3c-0.6,4.7-1.8,10.5-0.9,15.2c0.4,2.4,1.7,4.1,4.3,3c4.2-1.7,4.7-7.8,5.5-11.5
			c3.6-16.5,1.6-33.2,4.2-49.9c-0.8,0.2-1.7,0.4-2.5,0.7c3,2.6,2.2,11.5,2.5,15.2c0.3,4.9,0.6,9.9,0.8,14.8
			c0.3,9.5,0.4,19.1,0.2,28.6c0,0.8,0.7,1.5,1.5,1.5c3.3,0,8.7,1.5,10.5-2c1-1.9,0.3-5.5,0.3-7.6c0-3.6,0-7.1,0-10.7
			c0-14.5,0-29.1,0.1-43.6c-0.9,0.4-1.7,0.7-2.6,1.1c8,7,13.3,17.7,16.7,27.7c1.5,4.6,2.7,9.3,3.4,14.1c0.8,5.2,0.2,10.7,1.2,15.9
			c0.7,3.6,6.3,9.2,9.5,4.3c1.7-2.7,0.7-9.4,0.8-12.5c0.2-5.7,0.5-11.5,0.9-17.2c-0.8,0.4-1.5,0.9-2.3,1.3c3.2,2,3.6,10.8,4.4,14.2
			c1.2,4.9,2.3,9.9,3.5,14.8c0.1,0.6,0.8,1.1,1.4,1.1c3.3-0.1,6.7-0.2,10-0.3c0.9,0,1.8-0.9,1.4-1.9c-7.1-19.6-3.7-40.4-6.4-60.6
			c-2.1-15.1-7.7-28.5-18.4-39.4c-4.3-4.4-9-8.5-14.3-11.8c-4-2.5-8.1-4.9-9.6-9.6c-1.5-4.6-1.4-9.7-2.5-14.4
			c-2-9.1-5.5-17.8-8.7-26.6c-2-5.4-3.7-11.2-6.6-16.2c-1.6-2.8-2.7-4.3,1.8-4.2c3.9,0.1,6.9-0.4,10-3c0.5-0.4,0.6-1.3,0.2-1.8
			c-4.9-6.5-9.8-13.8-16-19c-1.1-0.9-2.6-1.7-3.5-2.9c-1.5-1.9-1.5-4-2.3-6.1c-1.2-3.2-3.7-5.3-6.7-6.7c-0.8-0.4-2-0.1-2.2,0.9
			c-0.4,2-0.7,4.1,0,6c0.9,2.5,4.2,3.6,3,6.9c0.8-0.2,1.7-0.4,2.5-0.7c-2.3-2.9-12.3-10.2-13.4-2.2c-0.4,2.9,1.5,6.1,2.2,8.9
			c2.1,7.7-3.9,7.4-7.6,12.3c-3.1,4.2,1.1,10.2,6.1,7.8c1.8-0.9,3.4-2.7,4.8-4.1c-0.2,0.2,1.3-1.5,1.5-1.5c-1.4,0-0.7,3.9-0.7,4.4
			c0,2.4,0.3,4.7,0.5,7.1c0.7,7.7,1.6,15.4,2.4,23.1c0.8,9,0.6,18,1.6,27.1c0.8,7.2,2.8,14.5,3.1,21.7c0.2,5.4-1.6,10.7-1.6,16.1
			c0,7.9,0.9,16,1.4,23.9c0.6,10.6,3.2,20.9,4.8,31.4C470.3,527.8,473.2,527,472.9,525.1z"/>
	</g>
</g>
</svg>
