<svg id="Layer_1" data-name="Layer 1" xmlns="http://www.w3.org/2000/svg" viewBox="0 0 963.24 563.5"><defs><style>.cls-1,.cls-2{fill:#fff;}.cls-2{stroke:#000;stroke-miterlimit:10;}</style></defs><title>giraffe</title><path class="cls-1" d="M411.39,272.68c8.62-3.8,21.63-9.48,38.72-8.4,12.94.81,22.45,5.12,28.34,7.85,7.75,3.59,15.1,7,22,14.5,10,10.93,12.79,23.7,15.49,36.25a95.6,95.6,0,0,1,2.5,22.78c-.12,7.64-.3,19.92-6.5,32.62-5.94,12.19-14.87,19.54-20.73,30.37a27.22,27.22,0,0,1-3.27,4.85c-1.9,2.25-4.33,4.35-9.49,7.24a90.68,90.68,0,0,1-14,6.21c-4.57,1.69-8,2.68-13,4.14a104,104,0,0,1-12,3.11,62,62,0,0,1-13.57.66,50,50,0,0,1-12.5-2.08,50.75,50.75,0,0,1-8.91-3.77,63.5,63.5,0,0,1-11.54-7.64,47.07,47.07,0,0,1-9.09-9.49C372.59,396,364,377.75,361.34,358.22c-3.87-28.92,7-55.46,29.2-73A96.57,96.57,0,0,1,411.39,272.68Z" transform="translate(1.64 1.53)"/><path d="M412.15,274c15.54-6.84,31.67-10.54,48.59-6.64,15.11,3.48,32.32,11.42,41.73,24.06,9.21,12.36,12.92,30.26,14.18,45.43,1.47,17.67-1.23,35.34-11.61,50.06-4.83,6.85-10.53,13-14.72,20.32s-9.85,11.13-17.25,14.64c-8.06,3.82-16.7,6.3-25.25,8.76a64.38,64.38,0,0,1-19.26,2.87c-34.77-.62-55.47-33.29-63.42-63.75-4.93-18.9-4-39.17,4.7-56.84s24.38-30.8,42.31-38.9c1.76-.79.23-3.38-1.51-2.59-33.68,15.21-55.31,47.79-51,85.26,2.31,20,10.86,39,22.42,55.31,8.07,11.38,21.37,20.48,35,23.33,16.1,3.36,31.83-1.16,46.92-6.59,7.79-2.8,16.05-6,22.38-11.52,6-5.23,9.39-13.44,14.27-19.7,5.68-7.27,11.19-14.44,14.59-23.11,3.32-8.47,4.43-17.48,4.63-26.52.37-16.31-2.73-34.77-9.81-49.56-8.27-17.27-25.75-27-43.44-32.47-19.3-6-38-2.38-56,5.57C408.87,272.16,410.39,274.75,412.15,274Z" transform="translate(1.64 1.53)"/><path class="cls-1" d="M502.82,243.87a11.11,11.11,0,0,1,6-2.68c2.57-.4,5.73.08,6.86,2.5-1.46.69-3.51-.36-4.64.82a3.43,3.43,0,0,0-.68,1.36l-3.72,11.33a1.6,1.6,0,0,1-.37.7c-.63.59-1.56-.18-2.12-.84-3.17-3.75-8-5.58-12.84-6s-9.6.51-14.33,1.4a34.3,34.3,0,0,1,10-7.42,7,7,0,0,1,3.34-.93,7.93,7.93,0,0,1,3.73,1.55h0c2,1.27,4.33,3.35,6.55,4A7.65,7.65,0,0,1,502.82,243.87Z" transform="translate(1.64 1.53)"/><path d="M503.88,244.93c2.58-2.08,8.18-3.92,10.55-.49l.9-2.2c-3.25.7-4.9-.21-6.37,3.23-1,2.24-1.38,7.78-3.1,9.44-1.21,1.17-.1.91-1.59,0-.7-.42-1.31-1.13-2-1.61-7.55-5.38-17.14-3.86-25.65-2.27l1.46,2.51c3-3,8-8.06,12.48-7.5,3.55.44,6.3,3.73,9.64,5.08,1,.39,1.84-.58,1.9-1.45a6.38,6.38,0,0,1,1.77-4.75c1.26-1.45-.85-3.58-2.12-2.12a10.54,10.54,0,0,0-2.65,6.88l1.9-1.45c-4.23-1.72-7.75-6.69-12.78-5.3-4.64,1.28-9,5.13-12.26,8.49a1.51,1.51,0,0,0,1.46,2.51c5.6-1,11.46-2.17,17.11-.82a17,17,0,0,1,7.6,3.93c.88.8,1.64,2.12,2.9,2.41,1.68.39,2.36-.53,3.09-1.86,1.24-2.24,1.52-5.17,2.48-7.56.77-1.92,1.44-3.84,3.3-4.61.13-.06,2.34-.32,2.21-.3a1.51,1.51,0,0,0,.9-2.2c-3.6-5.23-10.94-3.6-15.26-.12C500.26,244,502.39,246.13,503.88,244.93Z" transform="translate(1.64 1.53)"/><path class="cls-1" d="M464.26,227.42a27.71,27.71,0,0,1,4,7,13.66,13.66,0,0,0-13.67,4.94c-.47-1.78-1-3.67-2.42-4.81a8.12,8.12,0,0,0-2.65-1.27c-3.17-1-6.44-2-9.76-1.78s-6.72,1.86-8.3,4.9a5.66,5.66,0,0,1,1.08-4.93,10.82,10.82,0,0,1,4.07-3.05h0a16.1,16.1,0,0,1,8.47-1.59c2,.2,4,1.1,6.06,1C456.14,227.69,459.92,221.9,464.26,227.42Z" transform="translate(1.64 1.53)"/><path d="M463,228.17a33.92,33.92,0,0,1,4,7l1.69-2.2a15.62,15.62,0,0,0-15.13,5.33l2.51.66c-1.78-6.25-6.37-7.92-12.58-8.78-5.34-.75-10.31.83-13.29,5.46l2.74.36c-.65-4.3,4.14-6.53,7.39-7.32s6.12.26,9.33.58c4.5.46,9.95-4.65,13.59-.73,1.32,1.42,3.44-.71,2.12-2.12-2.25-2.42-4.53-3.34-7.78-2.3-2.17.69-4.06,2.17-6.42,2.27-2.6.12-5.15-1.15-7.8-1.11-6.45.11-14.44,4.11-13.33,11.53.21,1.37,2.11,1.33,2.74.36,4.25-6.59,18.17-5.16,20.39,2.61a1.51,1.51,0,0,0,2.51.66,12.59,12.59,0,0,1,12.21-4.56,1.52,1.52,0,0,0,1.69-2.2,33.92,33.92,0,0,0-4-7C464.42,225.13,461.81,226.62,463,228.17Z" transform="translate(1.64 1.53)"/><path class="cls-1" d="M386.44,229h0a7.22,7.22,0,0,1,7-.14c2,1.27,3.07,3.75,3.65,6.14a16.17,16.17,0,0,0-4.89.55,5.71,5.71,0,0,0-3.65,3.18c-.35.91-.66,2.17-1.6,2.17a2,2,0,0,1-1.06-.47,13.27,13.27,0,0,0-13-1.08c-1.28.6-2.47,1.42-3.78,1.92a9,9,0,0,1-5.18.38,24.46,24.46,0,0,1,1.95-4.49,9.76,9.76,0,0,1,2-2.69,8.49,8.49,0,0,1,5.42-1.78c2.19,0,5.31,1.67,7.29,1S384.36,230.12,386.44,229Z" transform="translate(1.64 1.53)"/><path d="M387.2,230.33c4.82-2.5,7.38,1.29,8.47,5.1l1.45-1.9c-2.83.06-5.9.19-8.13,2.18-.07.06-1.72,2.31-1.7,2.3a5.27,5.27,0,0,1-.61,1.16,12.78,12.78,0,0,0-2.69-1.41,14.89,14.89,0,0,0-7.1-1c-4.66.47-8.07,4-12.93,3.41l1.45,1.9c1.49-4.17,4-8.21,9-7.69,1.73.18,3.43,1.07,5.2,1,3.37-.18,5-3.32,7.62-5,1.6-1.06.1-3.66-1.51-2.59-3,2-4,4.59-8.2,4.27-2.12-.16-3.75-1-6-.62-5.25.86-7.37,5.32-9,9.89-.36,1,.56,1.79,1.45,1.9a12.56,12.56,0,0,0,7.84-1.51c5.46-2.65,8-1.74,13.36.08,1.32.45,2,1,3.34.11.53-.37.62-.92,1-1.38a7.43,7.43,0,0,1,2.33-3.12,13.78,13.78,0,0,1,5.28-.84,1.52,1.52,0,0,0,1.45-1.9c-1.73-6.06-6.53-10.19-12.88-6.89C384,228.63,385.49,231.22,387.2,230.33Z" transform="translate(1.64 1.53)"/><path class="cls-1" d="M400.26,202.6h0a7.56,7.56,0,0,1,8.32,2.23,6.82,6.82,0,0,1,7.77-3A7.19,7.19,0,0,1,421,209c-1.49,0-2.83-1-4.32-1.14-2.43-.15-4.35,2.1-5.55,4.29a28.19,28.19,0,0,0-2.51,6.32c-2-1.62-1.06-5.12-2.66-7.11A4.87,4.87,0,0,0,404,210a9.76,9.76,0,0,0-4.62-.75c-1.11.09-3.18,1.17-3.86-.22C394.43,206.69,398.6,203.23,400.26,202.6Z" transform="translate(1.64 1.53)"/><path d="M400.66,204c2.58-1,5,0,6.86,1.85a1.53,1.53,0,0,0,2.36-.3c3.58-4.78,9.44-1.89,9.64,3.38l1.9-1.45c-3.11-.63-5.61-2-8.44.06-3.24,2.36-4.7,6.79-5.79,10.46l2.51-.66c-2.7-3.17-.75-6.86-5.25-8.84-1.9-.84-3.5-.48-5.42-.75-3.48-.48.12-3,2-3.89s.22-3.44-1.51-2.59c-2.57,1.26-7.56,5.5-5,8.76,1.87,2.38,5.27.08,7.65.86,4.28,1.4,3,5.79,5.42,8.57a1.51,1.51,0,0,0,2.51-.66c.7-2.37,1.44-5.15,3.13-7.06,2.34-2.65,4.46-2,7.41-1.36a1.52,1.52,0,0,0,1.9-1.45c-.33-8.62-10-11.84-15.23-4.89l2.36-.3c-2.55-2.55-6.22-4-9.78-2.62C398.08,201.84,398.85,204.74,400.66,204Z" transform="translate(1.64 1.53)"/><path class="cls-1" d="M472.52,192h0c2.28-.2,4,2.39,6.28,2.57a5.38,5.38,0,0,1,4.17-5.44,4.58,4.58,0,0,1,2.46.22,8.79,8.79,0,0,1,2.32,1.52l6.62,5.42a7.75,7.75,0,0,0-7.94-.56,8.3,8.3,0,0,0-4.3,6.94c0-1-4.14-3.09-4.91-3.48a21.1,21.1,0,0,0-6-2c-1-.17-4.25-.1-4.09-1.75C467.24,194.17,471.43,192.08,472.52,192Z" transform="translate(1.64 1.53)"/><path d="M472.52,193.49c1.72-.15,4.09,2.08,5.88,2.52a1.52,1.52,0,0,0,1.9-1.45c.63-8.18,7.5-1.73,9-.48l4,3.25,1.82-2.36c-6.72-3.87-13.57.31-14.5,7.68l2.95-.4c-1.06-2.6-4.61-4-7-5-1.91-.81-4.12-.86-6-1.61-1.34-.55-1.38.35-.78-.77.4-.74,2.41-1.24,3.13-1.4,1.88-.43,1.08-3.33-.8-2.89-2.33.54-8.27,3.23-6,6.49,1.11,1.59,3.66,1.43,5.33,1.75s8.33,2.13,9.2,4.27a1.51,1.51,0,0,0,2.95-.4c.67-5.24,5.51-7.67,10-5.09,1.42.82,3.17-1.25,1.82-2.36-3.24-2.65-7.74-8.25-12.45-7.59-3.58.5-5.42,3.63-5.67,6.94l1.9-1.45c-2.29-.56-4.18-2.85-6.68-2.63C470.61,190.65,470.59,193.66,472.52,193.49Z" transform="translate(1.64 1.53)"/><path class="cls-1" d="M435.56,183.1h0c-1.34.12-2.88.55-3.38,1.84a17.17,17.17,0,0,1,6.78,1.51c3.37,1.52,6.33,4.13,10,4.77-.16-2.76,1.76-5.29,4.11-6.6s5.08-1.64,7.73-1.95c-.23,0-2-1.75-2.36-2a9.53,9.53,0,0,0-3-1.1,9.35,9.35,0,0,0-6.33,1c-1.74,1-2.87,3.23-5,3.37C441.31,184.14,438.48,182.83,435.56,183.1Z" transform="translate(1.64 1.53)"/><path d="M435.56,181.6a5.63,5.63,0,0,0-4.67,2.59,1.51,1.51,0,0,0,1.3,2.26c6.25.41,10.49,4.74,16.33,6.23a1.52,1.52,0,0,0,1.9-1.45c.34-5.44,6.08-6.52,10.34-7a1.51,1.51,0,0,0,.76-2.8c-3.26-2.1-5.46-4-9.77-3.29-1.9.33-3.09,1.25-4.73,2.16-4,2.21-7.18,1.36-11.45,1.35a1.5,1.5,0,0,0,0,3c3.92,0,7.9,2,11.45-.3,2.28-1.48,3.6-3.44,6.76-3.36,2.64.06,4.24,1.75,6.23,3l.76-2.8c-6.24.77-12.89,2.77-13.34,10l1.9-1.45c-6.21-1.58-10.44-5.89-17.13-6.33l1.3,2.26a2.83,2.83,0,0,1,2.08-1.1C437.46,184.42,437.48,181.42,435.56,181.6Z" transform="translate(1.64 1.53)"/><path class="cls-1" d="M400.07,181.34h0a1.78,1.78,0,0,0,.9-.62,2,2,0,0,0,.18-1.14c-.09-2.1-.35-4.45-1.92-5.8-2.09-1.8-5.4-.75-7.3,1.26s-2.91,4.72-4.47,7c-2-3.6-7-4.57-10.5-2.52s-5.25,6.45-5,10.58a14.16,14.16,0,0,1,9.72-3.88c3-.11,6.62,1.42,9.37,0,1.37-.72,2.37-2,3.73-2.8A44.27,44.27,0,0,1,400.07,181.34Z" transform="translate(1.64 1.53)"/><path d="M400.47,182.79c3.85-1.56,2.21-8.27-.48-10.3-6.35-4.8-11.27,4.69-13.82,8.82h2.59a9.33,9.33,0,0,0-11.29-3.66c-5,2-7,7.48-7,12.48a1.52,1.52,0,0,0,2.56,1.06,13.46,13.46,0,0,1,9.42-3.42c2.4,0,4.75.86,7.16.44a8.79,8.79,0,0,0,3.47-1.58,34.55,34.55,0,0,1,7.39-3.84c1.8-.66,1-3.56-.8-2.89a41.09,41.09,0,0,0-6.28,2.67c-1.64.93-3.46,2.4-5.33,2.77-.84.17-3.7-.46-4.85-.54a16.42,16.42,0,0,0-12.31,4.26l2.56,1.06c0-3.16.76-6.52,3.38-8.56a6.32,6.32,0,0,1,9.33,1.25,1.52,1.52,0,0,0,2.59,0c.88-1.42,1.63-2.94,2.52-4.35L393,176.1q7.36-1.71,6.67,3.8C397.91,180.61,398.68,183.51,400.47,182.79Z" transform="translate(1.64 1.53)"/><path class="cls-1" d="M341.22,432.74c-.69-8.7-2.24-18.76-9.47-23.06-4.49-2.67-10-2.29-15.11-2.73a46.22,46.22,0,0,1-31.27-16.68c-3-3.7-5.65-8.91-3.61-13.31a14.23,14.23,0,0,1,4.41-4.82c7-5.59,14.62-13.15,28.5-30,8.47-10.31,13.93-17,16.33-27.51,3.16-13.91.81-33.76-11.95-43.7-7-5.45-14.7-6-21.51-6.53-5-.37-19.12-1.42-29.16,6.53-9.78,7.74-10.67,20-13.38,31.65-7.17,30.71-29.24,66.27-43.5,65.3-22.26-1.52-33.12-92.56-60.71-96.54a56.34,56.34,0,0,0-13.66-.65,224.35,224.35,0,0,0-27.27,4c-8.44,1.77-17.69,4.71-21.92,12.58-3.72,6.92-2.44,15.71-5.36,23-3.43,8.58-13,13.88-21.71,12-7.22-1.6-13-7.38-20.07-9.58-12.69-4-26.5,5-32.89,17.15l-1.39-3C4.41,337.18.39,338,.39,338c5.87,52.62,4.93,82.94,2.71,101.22-.45,3.71-1.63,12.52-2.44,25-1.89,29.4,1.59,28-.5,49.71-1,10.82.69,21.75.5,32.62,0,2-.12,6.14,2.5,8.8,3.6,3.66,10.06,2.22,14,1.55,10.36-1.75,21,1.18,31.49,1,15.64-.21,38.58-.16,68.47,0h90.46c-2.63-12.82-8.76-49.59,9.07-66.94,5-4.85,15-11.75,20.54-14.86L262,462.31c5.26-2.93,10.64-5.91,16.51-7,6.85-1.22,13.84.27,20.78.81a76.45,76.45,0,0,0,30.5-3.84c3.64-1.24,7.42-2.93,9.57-6.26C341.83,442.28,341.58,437.31,341.22,432.74Z" transform="translate(1.64 1.53)"/><path d="M342.72,432.74c-.9-10.73-3.23-23.77-15.59-26.34-7-1.45-13.93-.8-20.77-3.21A44.7,44.7,0,0,1,287,389.81c-3.18-3.84-6.32-9.34-2.67-14,1.47-1.86,3.73-3.24,5.53-4.78a132.26,132.26,0,0,0,10.34-10c9.44-10,19.36-20.78,26.63-32.52,11.23-18.13,10.05-50-10.54-61.32-9-5-22-5.57-32.06-4.18-11.67,1.61-21.2,7.93-25.62,19.06-2.55,6.41-3.45,13.31-5,20a135,135,0,0,1-6.44,20c-5.19,12.75-12,25.73-21.46,35.84-4.67,5-12,11.44-18.78,6.39-5.23-3.91-8.38-10.78-11.08-16.51-7.9-16.76-13.1-34.65-20.93-51.45-5.5-11.79-12.47-25.24-26.63-27-13.94-1.71-30,1.19-43.49,4.87-5.27,1.44-10.63,3.6-14.59,7.49-4.39,4.32-5.8,10.06-6.6,16C82.44,306,81.23,313.87,73.5,318.5s-14.89,2-22-2.18c-5.52-3.23-11-6.34-17.59-6.17a28.85,28.85,0,0,0-15.75,5.61A39.26,39.26,0,0,0,6.6,329H9.19L7.8,326a1.51,1.51,0,0,0-2.74.36C4.47,329,3.36,335.7,0,336.56A1.51,1.51,0,0,0-1.11,338C2.45,370.22,5.33,403.27,2,435.65.33,451.86-1.79,468-1.37,484.37c.13,5.24.66,10.46.72,15.7.1,8.49-1.2,16.88-1,25.37.16,5.77.67,11.52.77,17.29.06,3.67-.46,7.76,1.21,11.18,3.3,6.77,11.09,5.36,17.19,4.46,11.33-1.67,22.92,1.17,34.31,1.05,8.05-.09,16.1-.1,24.16-.1,23.39,0,46.79.14,70.18.14h61.37a1.52,1.52,0,0,0,1.45-1.9c-4.19-20.58-7.65-49.8,9.1-65.87,11.09-10.64,25.6-17.46,38.88-24.85,8.57-4.78,17-10.34,27.18-10.45,9.36-.1,18.43,2.05,27.85,1.21,7.89-.71,17-2.15,23.89-6.31s7.33-11.28,6.8-18.55c-.14-1.91-3.14-1.93-3,0,.3,4.13.76,8.93-1.63,12.58-2.89,4.41-9.12,5.89-13.91,7.15a77.69,77.69,0,0,1-27.69,1.94c-8.81-.9-16.94-1.77-25.35,1.64-8,3.26-15.55,8.14-23.11,12.36-12,6.67-26,13.39-34.86,24.21-7.23,8.81-9.61,20.58-10.15,31.69-.56,11.41.85,22.89,3.12,34.06l1.45-1.9c-36.45,0-72.9.05-109.35-.09-17.13-.07-34.31.39-51.43.08-10.48-.19-20.58-2.43-31.06-.8-5.44.85-11.75,1.44-13.36-5.34C1.24,545.6,2.1,539.9,1.85,535c-.79-15.38.77-30.6,0-46-.85-16.19.66-32.46,2.62-48.51,4.15-34,1.2-68.71-2.55-102.56l-1.1,1.45c4.68-1.19,6.32-8.54,7.17-12.33l-2.74.36,1.39,3a1.51,1.51,0,0,0,2.59,0c7.6-13.79,22.68-21.87,37.35-13.63,5.16,2.9,10.21,6.57,16.29,7.1a20.76,20.76,0,0,0,14-4.11,22.4,22.4,0,0,0,8.49-13.8c1.52-7.16.87-15.34,6-21.2,4.41-5,11.25-7.11,17.56-8.53a205,205,0,0,1,24.55-3.88c8.46-.85,18.4-1.59,25.19,4.46,5.51,4.91,9.18,11.82,12.38,18.37,7.83,16,13,33.15,20.11,49.47,3.63,8.35,10.12,25.33,21.74,24.53,7.86-.54,14.44-8.25,18.92-13.94,7.68-9.76,13.55-21,18.2-32.44a136.5,136.5,0,0,0,6.26-19.27c1.55-6.44,2.38-13.14,4.69-19.38,5.21-14.12,18.46-19.09,32.59-18.66,13.65.42,26.34,3.66,32.83,16.85,5.42,11,5.89,25.21,1.72,36.69-2.6,7.16-7.39,13.18-12.15,19s-9.4,11.41-14.34,16.91c-3.36,3.74-6.83,7.4-10.52,10.83-3.11,2.89-7.47,5.46-9.85,9-6.49,9.64,6.33,21,13.41,25.73a46.89,46.89,0,0,0,17.72,7.24c7.12,1.28,15.86-.42,21.34,5.31,4.77,5,5.46,13.06,6,19.56C339.88,434.65,342.88,434.67,342.72,432.74Z" transform="translate(1.64 1.53)"/><path class="cls-1" d="M246.74,291.83c-2-11-3.38-24.15,4.71-31.51,4.39-4,10.54-5.12,15.6-8.16,9.46-5.69,14.5-17.72,24.54-22.21,7.94-3.55,17.57-1.65,25.11-6,11.76-6.83,12.35-24.7,22.08-34.36,7.75-7.69,20.85-9.76,25.17-19.94,1.12-2.64,1.7-5.87,4.09-7.33,1.55-.95,3.47-.86,5.27-.77a277.67,277.67,0,0,0,53.11-2.27c8.37-1.17,17.4-3.13,22.85-9.81,4.31-5.29,5.52-12.68,5-19.59-1.07-13.17-7.9-25.26-16.72-34.8s-19.58-16.88-30.24-24.13L354.46,35c-9.87-6.71-19.86-13.49-31-17.61-8.55-3.17-17.58-4.7-26.61-5.62A212.72,212.72,0,0,0,181.5,32.69a13.67,13.67,0,0,0-3.39,2.12c-3.57,3.34-2.86,9.7.22,13.54s7.77,5.78,12.26,7.58L226.53,70.3c5,2,11.06,7.49,7.62,11.76-1.93,2.4-5.53,2-8.45,1.24-24-6.49-43.83-26.78-68.55-28.3-11.73-.72-23.25,2.95-34.47,6.57L70,78.62c-5.15,1.67-10.6,3.53-14.06,7.81s-3.75,11.81.83,14.76l-.31-2.07c4.22,7.45-2.19,16.92-9.65,20.77S30.53,124.78,23.88,130c-10,7.83-11.59,24.8-3.26,34.48,6.17,7.17,15.76,9.71,24.31,13.41,16.51,7.14,30.74,19.64,47.93,24.8,12.2,3.66,27.65,5.13,32.7,17.21,3.38,8.08.35,18.19,4.79,25.71,2.68,4.55,7.53,7.12,11.47,10.53,11.55,10,14.91,26.59,18.66,41.7s10,31.62,23.83,37.74c2.58,1.14,5.53,2,7.12,4.41a12.45,12.45,0,0,1,1.52,5.6c1.9,17.62,3.8,35.46,1.56,53-1,7.6-2.7,15.06-4.31,22.54a669.69,669.69,0,0,0-14.83,136l-2,1.54q13.53.71,27.07,1.16a3.64,3.64,0,0,0,2.39-.48,4,4,0,0,0,1.09-2.91c2.37-28.15-1.37-56.84,3.82-84.58,2.65-14.16,7.57-27.74,12.16-41.36,17.46-51.84,30.48-106.53,26-161.24" transform="translate(1.64 1.53)"/><path d="M248.19,291.43c-1.27-7-2.49-14.7-.56-21.7,2.39-8.7,9.47-11.16,16.9-14.58,12.77-5.89,17.93-21.94,32.08-25.24,7-1.62,14.47-1,20.85-4.68,4.49-2.59,7.57-6.92,9.91-11.44,2.76-5.35,4.63-11.11,7.56-16.38,3.55-6.4,8.71-10.13,15-13.62,4.82-2.68,10-5.36,13.3-9.9,1.67-2.26,2.3-4.66,3.45-7.17,2.44-5.31,9.59-3.48,14.52-3.36,17,.42,34.85-.14,51.59-3.64,13.59-2.85,22.7-11.43,23.05-25.82S449,105.75,439.65,95.21c-10.8-12.19-24.89-21-38.24-30.06q-23.47-16-46.94-31.91c-13.93-9.46-27.87-17.86-44.61-21.08-15.81-3-32.3-3.54-48.34-2.46a214.33,214.33,0,0,0-70.27,16.87c-5.14,2.2-13.58,4.38-16.12,9.94-6,13.12,11.68,19.52,20.45,23l26.05,10.42c3.68,1.47,7.76,2.79,10.4,5.95l1.46,2.41-3.84,4.09a7.69,7.69,0,0,1-2.9-.39,45.9,45.9,0,0,1-5.82-1.78c-14.47-5.14-27-14.37-41-20.59-13.56-6-27-7.58-41.51-4.22C120.54,59.56,103,66.35,85.59,72c-7.72,2.5-16,4.44-23.35,7.93-4.89,2.32-9.16,6-10.18,11.58a10.77,10.77,0,0,0,3.94,11c1.18.91,2.37-.59,2.2-1.69l-.31-2.07-2.74,1.16c5.45,11.21-8.35,18.89-16.78,21.82-7.13,2.47-14.56,4.88-19.33,11.11-8.38,11-6.61,27.57,4.17,36.18,7,5.61,16.05,7.77,24,11.58,8.94,4.27,17.17,9.85,25.76,14.75a99.31,99.31,0,0,0,24.48,10.18c7.59,2,16.42,3.48,22.4,9,7.54,6.91,5,16.87,6.94,25.85s9,12.11,15,17.86c13.49,12.78,14.41,33.07,19.95,49.74,2.38,7.16,5.53,14.23,10.38,20.09a33.27,33.27,0,0,0,7.78,6.94,37.06,37.06,0,0,0,4.91,2.47c4,1.78,6,3.62,6.58,8.16,3.05,23.08,3.6,45.8-1.28,68.64-5.13,24-9.41,48.19-12.15,72.63q-2.09,18.71-3.14,37.52-.53,9.64-.79,19.3-.12,4.34-.17,8.69c0,2.88.83,3.43-1.34,5.07a1.51,1.51,0,0,0,.76,2.8q8.21.43,16.43.77c2.9.12,5.8.27,8.7.33,1.59,0,3.46.39,4.9-.54,2.08-1.35,2-4,2.17-6.2.46-5.77.62-11.56.7-17.34.31-22.9-1.17-46,3.66-68.6,4.59-21.44,13.2-41.93,19.45-62.92a486.44,486.44,0,0,0,14.77-63.63,314.11,314.11,0,0,0,3.29-72.78c-.15-1.91-3.15-1.93-3,0,3.26,42.14-3.55,84.14-14.81,124.68-5.56,20-12.84,39.45-18.81,59.34s-7.53,40-7.55,60.73c0,11.58.23,23.18-.35,34.75-.14,2.72.68,8.34-2.49,9.58-1.88.73-5.75-.2-7.74-.28q-9.67-.38-19.33-.88l.76,2.8c2.29-1.74,2.72-1.76,2.79-4.77.13-5.79.18-11.59.38-17.38q.61-17.37,2.12-34.7a664.71,664.71,0,0,1,9.74-69.34c2.2-11.29,5.13-22.48,6.69-33.88a161.44,161.44,0,0,0,.67-32.77c-.4-5.91-1-11.8-1.62-17.69-.36-3.41-.26-7.66-2.38-10.58s-6.08-3.86-9.26-5.55a31.51,31.51,0,0,1-10.76-9.91c-10.41-14.81-10.93-33.78-17.5-50.19-3.07-7.67-7.39-14.52-13.92-19.68-4.06-3.21-8.66-6-10.53-11.14-1.76-4.78-1.3-10-1.78-15-1.67-17.07-16.06-21.08-30.45-24.82C78.6,197.5,63.41,184.14,45,176.28c-9.68-4.13-21.68-7.22-26.3-17.78-4-9.14-1.74-21.13,6.26-27.4s19.1-6.25,26.87-12.82c5.84-4.93,9.48-12.63,5.93-19.92-.81-1.66-3-.38-2.74,1.16l.31,2.07,2.2-1.69c-3.42-2.64-3.26-7.76-1.29-11.22,2.21-3.89,6.61-5.92,10.63-7.42C74.8,78.3,83,76,91.09,73.37,107.55,68,124.1,61.48,141,57.91c16.3-3.44,30.62.52,45.07,8.07,12.15,6.34,23.77,14,37,18.12,3.88,1.2,9.46,2.64,12.37-1.28,2.72-3.66.21-7.85-2.73-10.44-5-4.36-12.36-6.16-18.37-8.56-8-3.2-16.06-6.32-24-9.61-3.53-1.46-7.25-3-10-5.82-3.84-4-4.55-10.72.71-13.79,6.84-4,14.66-6.83,22.09-9.54a212.41,212.41,0,0,1,47.8-11.38,207.87,207.87,0,0,1,47.72-.17c17.7,2,32.76,8.09,47.59,17.83,14.44,9.49,28.62,19.4,42.92,29.12C403.24,70,418.22,79,430.8,90.53c11.72,10.74,21.72,25.3,22,41.74.17,8.87-3.07,17.13-11.24,21.37-7.21,3.74-16.06,4.36-24,5.21q-13.23,1.42-26.56,1.56-5.91.06-11.83-.12c-3.22-.1-7.18-.95-10.35,0-5.14,1.6-5.28,7.93-8,11.7-3.75,5.14-10,7.68-15.35,10.81-10.52,6.17-14.22,15.32-19.06,26-2.62,5.78-5.79,11.59-11.76,14.42-6.88,3.26-14.86,2.13-22,4.66-11.83,4.22-16.5,17.34-27.05,23.32-5.4,3.06-11.82,4.31-16.22,9-3.53,3.75-5.08,8.79-5.56,13.82-.58,6.09.35,12.21,1.43,18.19.34,1.9,3.23,1.09,2.89-.8Z" transform="translate(1.64 1.53)"/><path class="cls-1" d="M205.08,337.89c-.39-3.34-2-16.71-11-26.93-3.88-4.39-5.4-4-8.58-8.63a34.19,34.19,0,0,1-5.42-13.64c-1.17-7.28.42-12.95,3-21.75,2.49-8.51,3.07-6.51,5.38-14.57,3.36-11.74,2.72-18,7.68-21.73a14,14,0,0,0,6.93-11.34c1-9-4.08-12.23-4-21.23a25.81,25.81,0,0,1,6-16.05,22.79,22.79,0,0,1,9-6.21,89.92,89.92,0,0,0,.5,22.78c1.54,10.09,3.8,12.74,5.5,25.37,1.06,7.84.4,8.37,1.64,16.36,1.43,9.2,2.54,10,4.36,19.37a153.14,153.14,0,0,1,2.7,25.91,114.88,114.88,0,0,1-.87,18.5,107.92,107.92,0,0,1-2.83,14.11c-1.93,7.07-2.89,7.61-6,17.09a151.54,151.54,0,0,0-4.5,16.05,127.21,127.21,0,0,0-2.5,17.09,60.17,60.17,0,0,1-6.5-20.71C205,342.68,205.64,342.73,205.08,337.89Z" transform="translate(1.64 1.53)"/><path d="M206.58,337.89c-1.17-9.89-4.39-19.67-10.91-27.37-3.54-4.18-7.93-6.87-10.61-11.82a31.89,31.89,0,0,1-3-22.15,93,93,0,0,1,5.72-17.7c2.46-5.65,3.53-11.76,4.85-17.74a22.16,22.16,0,0,1,2.2-6.79c1.33-2.19,3.6-3.22,5.36-5,3.81-3.86,5-9.68,4.31-14.94-.82-6.14-4.32-11.28-3.86-17.7a22.54,22.54,0,0,1,13.83-19.44l-1.9-1.45c-1.16,12.7.46,24.31,3.68,36.53s2.62,24.83,5.77,37c6.28,24.2,8.46,51.44-.62,75.25-5.43,14.23-9.58,28.62-10.83,43.86l2.8-.76a61.27,61.27,0,0,1-5.29-14.34c-1.18-5.18-1-10.24-1.5-15.45-.19-1.9-3.19-1.92-3,0,.55,5.5.36,10.79,1.6,16.25a64.49,64.49,0,0,0,5.6,15.06c.73,1.43,2.68.61,2.8-.76a146.75,146.75,0,0,1,10-41.28,102.21,102.21,0,0,0,6.71-35.79,151,151,0,0,0-3.81-36.8c-1.49-6.26-3.21-12.32-3.89-18.76-.59-5.53-.79-11-1.75-16.53-1.08-6.18-3.18-12.11-4.35-18.26a90.59,90.59,0,0,1-.93-25.21,1.51,1.51,0,0,0-1.9-1.45,25.72,25.72,0,0,0-16.09,23.71c-.06,6.9,4.25,12.77,4.11,19.61-.11,5.19-2.49,8.54-6.3,11.66a12.83,12.83,0,0,0-3.56,4.24c-2.56,5-2.9,11.26-4.34,16.66s-4,10.18-5.6,15.46c-3.95,12.84-5.73,25.63,2.32,37.38a31.57,31.57,0,0,0,5.85,6,35.64,35.64,0,0,1,8,10.33,52.52,52.52,0,0,1,5.49,18.45C203.8,339.78,206.8,339.8,206.58,337.89Z" transform="translate(1.64 1.53)"/><path class="cls-1" d="M234.56,202.73a153.2,153.2,0,0,1,1.5-18.12c1.83-13,3.88-15.76,6-17.09,2.93-1.83,4.68-.18,10-1.55a26.25,26.25,0,0,0,11.5-6.73c4.81-4.57,4.24-7.61,11-25.37,4.15-10.9,5.14-11.78,5-15.54-.21-5.63-2.54-6.67-4.59-16.67-1-4.81-1.73-8.6-1.2-13.49.48-4.39,1.59-6.11,3.76-12.73a143.69,143.69,0,0,0,4-15.12c-.36,30.88,2.7,43.39,6,48.68a19.57,19.57,0,0,1,3,7.25c1.28,7-1.73,14.22-2.5,16.05-1.36,3.24-2.13,3.75-2.5,6.21-.54,3.59.6,5.9,1.5,9.32a45.48,45.48,0,0,1,1,14.5c-.61,5.82-2.37,6.24-4.8,14.54-1.7,5.82-1.19,6.48-2.8,15.32-1.3,7.1-2.63,14.3-5.69,20.79a40.31,40.31,0,0,1-13.06,15.63h0c-3.17,2.26-17.89,12.47-24.67,7.45C234.17,234,234.26,223.52,234.56,202.73Z" transform="translate(1.64 1.53)"/><path d="M236.06,202.73a145.15,145.15,0,0,1,1.58-18.67c.62-4.24,1-11.39,4.37-14.61,1.77-1.69,4.11-1.27,6.35-1.42a23.43,23.43,0,0,0,8.92-2.46,27.41,27.41,0,0,0,9.27-7.44c2-2.57,3-5.66,4.06-8.69,2.29-6.67,4.59-13.31,7.19-19.87,1.28-3.23,3.05-6.56,3.23-10.1.21-4.18-1.62-7.77-2.9-11.63-2.63-7.9-4.3-16.74-1.69-24.82,2.4-7.43,4.88-14.65,6.54-22.31l-2.95-.4c-.14,14.31-.72,30.22,3.82,44,1.76,5.36,5.39,9.45,5.49,15.39a30.09,30.09,0,0,1-2.88,12.4c-1.46,3.32-2.86,5.84-2.48,9.62.29,2.92,1.52,5.65,2,8.53.92,5.08,1.31,10.89-.31,15.87-2.06,6.33-4.65,12-5.61,18.68-1.49,10.41-3.05,21.73-8.54,30.89-4.08,6.82-10.13,11.75-16.93,15.64-5,2.87-16.43,8.71-18.07-.19-1.68-9.15-.64-19.23-.51-28.46a1.5,1.5,0,0,0-3,0c-.13,9.26-.86,18.92.45,28.13.62,4.38,2.13,7.48,7,8,6.94.77,14.34-3.83,19.85-7.51a43.91,43.91,0,0,0,16.43-19.26c4-9.36,5-19.61,6.67-29.55,1.31-7.67,5.79-14.31,6.24-22.11A44.6,44.6,0,0,0,288.62,148c-.4-1.73-1.07-3.4-1.42-5.14-.78-4,.67-6.39,2.14-9.78,3.27-7.6,4.39-16.16.23-23.63-8-14.28-6.67-33.34-6.52-49.11,0-1.66-2.58-2.08-2.95-.4-2.65,12.23-9.47,24.3-7.54,37,.95,6.27,3.23,11.79,4.91,17.8,1.11,4,.27,7-1.2,10.66-2.66,6.71-5.23,13.43-7.54,20.26-1.19,3.52-2.14,7.46-4.4,10.48a23.16,23.16,0,0,1-16,8.87c-3.45.27-6.49,0-8.94,2.81-3.21,3.74-3.82,9.86-4.53,14.48a149.62,149.62,0,0,0-1.83,20.4C233,204.66,236,204.66,236.06,202.73Z" transform="translate(1.64 1.53)"/><path class="cls-1" d="M305,129.72c.48-6.16,1.61-12.16,5.5-17.61,1.93-2.71,4.17-5.84,7-5.7,4.43.22,6.9,8.27,12.23,8.65a5.47,5.47,0,0,1,2.52.8c1.47.92,1.88,3,1.68,4.73-.43,3.74-2.87,6.85-4.52,10.2a26,26,0,0,0-.94,20.36c1.18,3.09,3,6.33,2.1,9.52-1.5,5.35-9.27,6.26-11.29,11.42-.9,2.3-.41,4.89-.46,7.37-.12,7-4.64,13.28-10.25,17.17h0c-2.23.73-5.75,1.91-10.06,3.5-5.9,2.19-7.86,3.15-8.72,2.25-1.19-1.25,1.11-4.68,3.64-11.7,1.71-4.75,1.77-6.25,3.32-11.84,4.73-17,8-16.58,9.25-25.83S303.94,143.72,305,129.72Z" transform="translate(1.64 1.53)"/><path d="M306.53,129.72c.48-5.42,1.48-10.62,4.3-15.35,1.39-2.33,2.83-4.34,5.3-5.49,2.85-1.34,3.94.45,5.75,2.45,1.61,1.77,3.22,3.74,5.49,4.66,3,1.22,5.31,3.24,4.34,7.08-.62,2.48-2.48,4.69-3.58,7A27.94,27.94,0,0,0,327,151.56c.93,2.62,3,5.81,2.1,8.72-.56,1.92-2.27,3.18-3.82,4.26-2.17,1.52-4.61,2.78-6.23,4.94-1.74,2.33-1.85,4.92-1.8,7.73A19.86,19.86,0,0,1,312,191.7c-2.89,3.15-5.72,4.09-9.59,5.45-.75.26-10.75,4.64-11.25,4-.71-.87,2.47-6.75,2.82-7.63a92.6,92.6,0,0,0,3.4-11.09,106.05,106.05,0,0,1,7.12-19.69,31.35,31.35,0,0,0,3.33-13.58c0-6.59-1.75-12.74-1.3-19.46.13-1.93-2.87-1.92-3,0a53.76,53.76,0,0,0,.33,12.13c.54,3.37,1.17,6.51.81,10-.63,6.05-3.76,10.94-6,16.47-3.8,9.49-5.67,19.52-9.5,29-1.66,4.12-1.44,7.94,3.92,6.43,4.62-1.31,9.1-3.38,13.65-4.91a18.24,18.24,0,0,0,8.56-6.43A21.76,21.76,0,0,0,320.26,181c.28-2.94-.69-6.36.82-9.08,1.22-2.2,3.78-3.37,5.77-4.75,2.24-1.55,4.42-3.32,5.19-6.06,1.44-5.11-2.56-10.07-3.37-15-1.17-7,1.21-12.72,4.39-18.8,1.65-3.16,3.54-7.26,1.7-10.74a5.49,5.49,0,0,0-3.54-2.78c-2.88-.89-4.39-1.48-6.49-3.76s-4.3-5.33-7.8-5.06c-4,.31-6.84,4.8-8.7,7.87-3.12,5.14-4.18,11-4.71,16.86C303.36,131.64,306.36,131.63,306.53,129.72Z" transform="translate(1.64 1.53)"/><path class="cls-1" d="M142.1,229.14c-.38-3.2-1.25-10.63,2.18-18.18,2.44-5.38,5.9-8.25,4.75-12-.75-2.47-2.72-2.87-2.93-5.54a7,7,0,0,1,3.54-6.47c1.93-1.05,4.57-1.31,6.33.11a9.29,9.29,0,0,1,3,6.2c.69,5.76-1.91,11.31-4,16.69-4.51,11.66-5.07,23-7,35.13A37.2,37.2,0,0,1,142.1,229.14Z" transform="translate(1.64 1.53)"/><path d="M143.6,229.14c-1-8.58.75-15.42,5-22.89,1.17-2,2.35-4.15,2.06-6.59-.19-1.52-1.05-2.38-1.66-3.71a5.74,5.74,0,0,1-1.2-4.53q1.59-4.95,5.58-2.32,3.65-.29,3.87,3.15a15.09,15.09,0,0,1,.24,4.44,30.64,30.64,0,0,1-2.07,8c-1.54,4.24-3.27,8.34-4.41,12.73-2.33,8.94-3.1,18.19-4.54,27.29l2.74-.36a38.3,38.3,0,0,1-5.64-15.17c-.25-1.89-3.25-1.91-3,0a41.64,41.64,0,0,0,6.05,16.69c.61,1,2.53,1,2.74-.36,2.08-13.16,3.5-25.86,8.32-38.38,2.3-6,6.36-21.07-4-22.46a8.38,8.38,0,0,0-8.16,4.44c-2.22,4.17,0,5.86,1.59,9.38,1.45,3.25-1.15,6.17-2.64,8.81a32.48,32.48,0,0,0-3.44,8.47,38.67,38.67,0,0,0-.48,13.42C140.82,231,143.82,231.06,143.6,229.14Z" transform="translate(1.64 1.53)"/><path class="cls-1" d="M108.12,137c.19-4.13.5-10.85,3.5-11.91s7.13,4,8.5,5.7c5,6.11,6.7,13.07,7.85,20.61,1.7,11.14.71,13.93,1.6,24.39,1.6,18.79,6.41,28.72,4.54,29.57-2.29,1-10.51-13.49-13.49-19.16a98.76,98.76,0,0,1-8.5-21.23c-.62-2.45-1.25-6.12-2.5-13.46C108.24,143.39,108,140.42,108.12,137Z" transform="translate(1.64 1.53)"/><path d="M109.62,137c.12-2.43-.06-5.57.91-7.83,2-4.69,5.92-.45,8,2.08,4.71,5.65,6.7,12.6,7.83,19.74,2,13,1.16,26.06,3.63,39,.79,4.17,1.62,8.45,2.78,12.53.16.56.06,1.22.22,1.76s.6-.77.82-.47c-.2-.28-.7-.42-.83-.75-.76-1.83-3-3.82-4.1-5.55-6-9.24-11.21-19.25-14.45-29.78a94.9,94.9,0,0,1-2.57-11.79c-1.08-6.25-2.51-12.58-2.28-19,.07-1.93-2.93-1.93-3,0-.25,6.84,1.33,13.73,2.5,20.43a88.32,88.32,0,0,0,3.4,14A124.36,124.36,0,0,0,122.08,192c2.51,4.43,5.33,10.73,9.53,13.89,1.92,1.45,4,1.25,4.41-1.35.68-4.15-2-10-2.84-14-3.4-16.95-.42-35.58-6.8-51.87-1.9-4.86-7.21-14.76-13.44-15.19s-6.13,9.45-6.32,13.5C106.53,138.9,109.53,138.89,109.62,137Z" transform="translate(1.64 1.53)"/><path class="cls-1" d="M162.67,253.26s-1.71-11.21.85-21.52c.12-.49.61-2.4,1.31-4.82,1.08-3.72,2-6.28,2.26-7.09,2.16-6.44.36-9.38,2-19.68,1.17-7.39,2.39-7.69,2-11.92-.5-5.71-2.82-6.45-2.7-11.3.15-6.1,3.87-6.69,3.59-12.22-.27-5.21-3.69-7-2.4-10.64.66-1.86,2.12-2.92,4.5-4.66,2.13-1.55,4.27-3.12,6.5-2.59.94.22,1.76.79,3.81,3.58,3.56,4.87,5.35,7.3,5.79,10.87.31,2.5-.15,4.31-1.1,7.82a55.8,55.8,0,0,1-4.69,11.9c-5.34,9.87-.55,18.65-3.81,36.26-2.32,12.53-5.47,12-9,26.93a112.58,112.58,0,0,0-3,26.93A56,56,0,0,1,162.67,253.26Z" transform="translate(1.64 1.53)"/><path d="M164.12,252.86a57,57,0,0,1,1.29-22.41c1.88-7.16,4.26-13.22,4.39-20.67a63.33,63.33,0,0,1,1.6-13.61c.6-2.51,1.37-4.83,1.24-7.45-.16-3.21-1.58-5.67-2.35-8.69-1.23-4.78,1.59-7.62,2.8-11.82a12.74,12.74,0,0,0-.68-8.18c-1-2.67-2.27-4.18-.35-7,1.69-2.47,6.85-5.81,9.59-3.72s5.94,7.49,6.79,10.79c1.21,4.74-1.15,10.5-2.9,14.87-2.27,5.69-5,10.28-5.31,16.59-.4,9.07.51,17.8-1.39,26.81-1.61,7.63-5.68,14.33-7.78,21.81a112.88,112.88,0,0,0-4,30.88l2.8-.76a58.73,58.73,0,0,1-5.77-17.47c-.32-1.9-3.21-1.09-2.89.8a61.29,61.29,0,0,0,6.07,18.19,1.51,1.51,0,0,0,2.8-.76,105.25,105.25,0,0,1,4.75-33c2.6-8,6.39-14.72,7.64-23.16,1.34-9-.5-18.32,1.14-27.22,1.47-8,6.89-14.59,8-22.88a14.66,14.66,0,0,0-1.85-9.24c-1.63-2.95-4.28-7.7-7.31-9.52-4.87-2.93-13.72,3.61-14.55,8.66-.58,3.54,2.42,6.52,2.6,10,.22,4.4-3.51,7.71-3.59,12.22-.06,3.64,1.88,6.56,2.49,10.05.68,3.92-.74,7.26-1.46,11.07-1,5.16-.91,10.24-1.2,15.44-.25,4.53-2.1,8.72-3.35,13a63.65,63.65,0,0,0-2.16,27.14C161.5,255.56,164.4,254.75,164.12,252.86Z" transform="translate(1.64 1.53)"/><path class="cls-1" d="M155.88,73.19l10.92,3.48a35.61,35.61,0,0,1,7.35,3c2.66,1.57,4.91,3.81,7.61,5.31,6.28,3.48,14.3,2.58,20.25,6.63,3.42,2.33,5.75,6.06,9,8.62,9.78,7.67,25.46,3.34,34.34,12.11a31.25,31.25,0,0,1,5.36,8.07,6.52,6.52,0,0,1,.75,1.94c.45,2.8-2.5,4.72-4.68,6.44-5.05,4-7.43,10.53-10.07,16.53-3,6.91-6.7,13.5-10.35,20.08-2.75,4.95-6,10.32-11.32,11.85" transform="translate(1.64 1.53)"/><path d="M155.48,74.63c4.14,1.32,8.33,2.54,12.43,4s7,3.45,10.51,5.94c5.45,3.84,11.48,4.13,17.67,6,7.4,2.23,10.49,9.31,17,12.78,5.28,2.79,11.29,3.3,17.08,4.3,7.65,1.32,13.53,3.64,17.67,10.64,1.64,2.77,2.33,5.16-.18,7.89-.88,1-2.13,1.62-3.08,2.51a28.18,28.18,0,0,0-5.41,7.52c-3.46,6.59-6.09,13.59-9.6,20.17s-7.31,16.69-15,19.41c-1.81.64-1,3.54.8,2.89,6.61-2.36,9.9-8.35,13.13-14.18,4.62-8.31,8.37-16.9,12.54-25.42a29,29,0,0,1,7.71-10c1.79-1.5,3.87-3.09,4.14-5.6.59-5.37-5.83-12.36-10-14.92-6.07-3.68-13.46-3.8-20.23-5.19-4.33-.88-8.44-2.25-11.8-5.23-2.82-2.5-5-5.73-8.13-7.84-7-4.63-15.91-3.44-22.83-8.33-3.19-2.25-6-4.36-9.73-5.73-4.57-1.69-9.3-3-13.94-4.49-1.84-.59-2.63,2.31-.8,2.89Z" transform="translate(1.64 1.53)"/><path class="cls-1" d="M530.76,6.2c-6.53,1.38-13.25,3.42-17.93,8.13-9.1,9.15-6.61,25.38,2.22,34.8S537,62.55,549.78,65A219.43,219.43,0,0,0,590,69.13c12.43.11,25-.82,37.18,1.59,12.62,2.5,24.32,8.49,36.95,11,8.63,1.69,17.49,1.71,26.28,1.72l66.11.08c6.28,0,12.67,0,18.7-1.74,5.81-1.67,11-4.88,16.7-7a46.36,46.36,0,0,1,24.07-2.17c6.54,1.16,12.92,3.74,19.56,3.48,6.16-.24,11.91-2.89,17.65-5.09A131,131,0,0,1,896,62.37c17.87-.55,36.95,2.33,52.71-6a17.17,17.17,0,0,0,7-5.92c1.85-3.08,2-6.83,2.16-10.41L959,7.64c.06-1.7.09-3.53-.88-4.93C956.62.56,953.56.34,950.94.33h0Q779.48-.3,608,.27C582.77.35,555.54,1.17,530.76,6.2Z" transform="translate(1.64 1.53)"/><path d="M530.36,4.75c-11.71,2.57-23,8.12-24.56,21.25C504.33,38.08,511,49.2,520.7,55.88c12.11,8.34,27.71,10.88,42,12.8,16.91,2.27,33.65,1.29,50.61,2A96,96,0,0,1,640,75.86c8.13,2.72,16.15,5.89,24.62,7.44,16.61,3,34.23,1.62,51,1.64l27.22,0c8.57,0,17.35.55,25.87-.47,8.06-1,14.65-4.69,22-7.68a46,46,0,0,1,27.44-2.23c7,1.55,13.77,3.83,21,2.59,7.93-1.36,15.3-5.37,23-7.72,16.42-5,32.87-5.73,49.89-5.56,13.49.14,30.34.19,41.41-8.88,4.73-3.88,5.54-9.19,5.8-15,.39-8.89.65-17.78,1-26.67.17-4.67,1.63-11.31-3.7-13.66-2.06-.91-4.43-.84-6.62-.87-4.65,0-9.3,0-14,0q-27.41-.09-54.83-.15Q825.83-1.5,770.5-1.5t-110.65.12c-35.08.08-70.57-1.21-105.51,2.51-8,.86-16,2-24,3.61-1.89.38-1.09,3.27.8,2.89C562.69,1.39,595,1.8,627,1.71q50.84-.15,101.68-.19Q829.32,1.43,930,1.76c7.37,0,14.92-.44,22.27.1,6.44.48,5.12,7.93,5,12.45l-.45,12.38c-.26,7.11,1.32,18.13-3.28,24s-13.84,8.06-20.84,9.17c-14.83,2.36-30,.09-44.91,1.5-15.17,1.43-28.59,6.29-42.87,11.17-8.44,2.88-15.66,1.59-24.1-.44a51.76,51.76,0,0,0-19.15-1.29c-7.41,1-13.71,4.06-20.45,7.05C772.85,81.57,764.47,82,755.5,82l-49.58-.06c-16.18,0-32.84,1.08-48.57-3.44-14.83-4.26-28.41-10.13-44.06-10.8-15.84-.68-31.54.31-47.35-1.6-14.47-1.75-30.71-4.09-43.1-12.37-11.17-7.46-19.69-24.06-10.57-36.4,4.43-6,11.92-8.15,18.88-9.68C533,7.23,532.25,4.34,530.36,4.75Z" transform="translate(1.64 1.53)"/><path class="cls-1" d="M801.16,89.06c-10,.49-20.23,2.15-29,7.35s-16,14.46-17.12,25.25c-.25,2.47-.09,5.23,1.49,7s4.05,2.1,6.32,2.3L806,134.87c10.08.91,20.46,1.91,29.4,7,10.53,6,21.3,17.85,32.16,12.57-1,8-10.93,9.4-18.33,9-24.36-1.46-49.81-.59-71.56,11.37-14.8,8.14-27.14,21.06-42.38,28.2-11,5.18-23.11,7.08-34.8,10.18a177.62,177.62,0,0,0-36.87,14.35c-5.35,2.8-10.75,6-14.38,11.13s-5.07,12.53-2,18c3.41,6.11,10.81,7.82,17.39,8.29,39.16,2.83,76.66-17,115.75-20.83,34.51-3.36,69.11,5.9,103.74,4.56,20.58-.8,41.32-5.33,61.58-1.37,3.35.66,7.27,1.38,9.78-1.11,2-2,2.26-5.38,2.34-8.39h0q.83-33,1.22-66c.16-13.13,3.54-33.28-3.54-45.18-7.24-12.16-24.66-11.8-36.28-14.64-18.79-4.58-37.28-10.49-56-15.17C842.87,91.8,822.1,88,801.16,89.06Z" transform="translate(1.64 1.53)"/><path d="M801.16,87.56c-15.54.86-31.67,4.79-41.34,18-3.85,5.26-7.25,12.81-6.3,19.51,1.12,7.83,8.94,7.37,15.19,7.93l31.4,2.83c9.62.87,19.6,1.27,28.74,4.66,12.66,4.69,24.69,21.53,39.47,15.26l-2.2-1.69c-1.22,6.55-8.31,7.84-14,7.92-6.94.1-13.89-.64-20.85-.59-14,.12-28.23,1.66-41.5,6.37-13.51,4.79-24.55,13.29-35.93,21.74A118.9,118.9,0,0,1,736.05,201c-7.46,3.7-15.54,5.82-23.6,7.75-14.56,3.49-28.68,7.54-42.28,13.9-10.54,4.92-23.47,11-25.77,23.78-5.12,28.34,42,20.17,56.75,17.28,30.72-6,60.06-18.1,91.71-18.71,32.81-.63,65.18,7.2,98,4.88,16.31-1.16,32.76-3.9,49.12-1.88,4.95.61,12.33,3.54,16.56-.65,3.52-3.5,2.79-9.8,2.9-14.3q.6-24.74.95-49.49c.18-13,1.64-26.17,1-39.13-.51-10.07-3.05-20.43-12.2-26s-20.39-5.55-30.49-8c-31.23-7.59-61.67-18.84-93.83-22.1a165.91,165.91,0,0,0-23.7-.71c-1.92.08-1.93,3.08,0,3,31.35-1.31,61.65,7.49,91.51,15.92,12.25,3.46,24.44,6.88,37,9,11.52,1.95,23.14,5.05,26.95,17.53,3.3,10.82,1.67,22.71,1.12,33.8-.72,14.59-.5,29.27-.79,43.88q-.21,10.67-.46,21.35c-.07,3,.39,7.05-.52,10-2.15,7-9.1,3.89-14.05,3.19-14.73-2.08-29.55-.23-44.26,1.08-30.44,2.7-60.08-2.68-90.4-4.1a182.33,182.33,0,0,0-43.17,2.88c-13.87,2.67-27.43,6.68-41.07,10.32-13.4,3.57-80.64,21.89-75.72-8.2,2.28-14,20-20.37,31.47-25.1,13.5-5.59,27.49-8.45,41.53-12.24,14.61-3.94,26.48-11.29,38.48-20.31,12.9-9.7,25.64-17.94,41.56-21.75,14.86-3.57,30.31-3.8,45.5-3,8.34.41,21.2.75,23.18-9.88a1.52,1.52,0,0,0-2.2-1.69c-12.41,5.26-25-10.64-35.59-15-13.26-5.4-28.83-5.17-42.88-6.44-7.85-.71-15.71-1.32-23.55-2.12-3.67-.38-7.39-.7-8.24-5.2a15.24,15.24,0,0,1,.57-6.18,30.38,30.38,0,0,1,4.44-10c8.88-13.14,24.69-16.92,39.62-17.75C803.08,90.45,803.1,87.45,801.16,87.56Z" transform="translate(1.64 1.53)"/><path class="cls-1" d="M911,272.27h0c-10.27,2.37-19.86,7.52-30.17,9.68-19.13,4-38.62-2.5-58-5.18s-41.87,0-53.46,16.76c7.33-2.19,14.84-4,22.45-3.92,12.48.06,24.45,4.92,36.11,9.71-4.65,3.87-10.58,5.47-16.39,6.55-29.68,5.54-63.67,1.34-86.34,22.57,18.41,3.36,37.06-2.42,55.64-4.56,43.8-5,88.94,10.17,131.69-1.24,15.53-4.15,32-11.71,46.83-5.39-1.31-.56.79-21.88.64-24.42-.5-8.18.12-8.71-5.66-13.52C943.3,270.15,923.94,269.27,911,272.27Z" transform="translate(1.64 1.53)"/><path d="M910.56,270.82c-14,3.29-26.28,10.51-40.92,10.89-15.72.4-31-4.25-46.41-6.38-19.9-2.75-42.6,0-55.16,17.44-.78,1.09.51,2.55,1.69,2.2,10.32-3,20.64-4.91,31.36-3,9.16,1.66,17.83,5.24,26.4,8.76l-.36-2.74c-8.1,6.24-19.15,7.17-29,8.27-9.31,1-18.67,1.65-28,2.85-16.83,2.16-33.25,6.56-46.07,18.24a1.51,1.51,0,0,0,.66,2.51c14.93,2.48,29.62-.32,44.35-2.79a213.26,213.26,0,0,1,47.49-2.29c30.2,1.7,60.92,7.05,90.92.57,16.68-3.61,34.27-13.37,51.39-6.68,1.44.56,2.47-1.52,1.46-2.51-.73-.71.12-6.6.18-7.84.18-3.5.43-7,.66-10.49.32-4.93,1.12-11.44-1.86-15.69-9.93-14.16-33.85-14.62-48.84-11.35-1.89.41-1.09,3.3.8,2.89A62.07,62.07,0,0,1,940,274c7.44,1.94,17.65,6.26,18.29,14.94.41,5.46-.17,10.85-.51,16.3-.18,2.88-1.9,10.7.52,13l1.46-2.51c-13.32-5.2-27.06-.76-40.08,3.2a152.85,152.85,0,0,1-46,6.48c-31-.22-61.88-6.67-92.85-3.11-18.37,2.11-36.64,7.7-55.24,4.61l.66,2.51c14.17-12.91,33-16.32,51.47-18.21,8.81-.9,17.66-1.53,26.44-2.73,8.58-1.18,17.48-2.52,24.52-7.94a1.53,1.53,0,0,0-.36-2.74c-9.45-3.88-19-7.81-29.23-9.22s-20.26.53-30.13,3.43l1.69,2.2c14.89-20.69,42.93-18,64.88-13.83,13,2.47,26.35,5.34,39.68,3.88,12.68-1.39,23.85-7.72,36.14-10.62C913.24,273.27,912.44,270.38,910.56,270.82Z" transform="translate(1.64 1.53)"/><path class="cls-1" d="M389,534.15c-.35-5.6-.13-5.91-.5-9.32a88.31,88.31,0,0,0-1.7-9.48c-2.89-13.95-2.08-14.47-4.33-22-.8-2.68-2-5.3-2.1-8.11-.39-8.09,3.49-10.15,2-14.86-.51-1.68-4.48-4.89-12.41-11.29a44.55,44.55,0,0,1-5-4.66c-1.1-1.19-1.72-2-3-3.62-9.24-11.74-9.47-11.22-10-12.95-.26-.86-.74-2.74-2-3.11a2.5,2.5,0,0,0-2,.52c-2.52,1.86-.57,6.19-3,8.29a4,4,0,0,1-3.53.78,4.76,4.76,0,0,1-3.05-3.14,161.78,161.78,0,0,1-4.91-21.25,7.68,7.68,0,0,0-.7-2.5c-1.71-3.11-7.38-3.19-7.49-6.77-.07-2.08,2-3.48,4-4.08s4.12-1,5.33-2.64c1.09-1.49,1-3.55.8-5.41s-.51-3.84.27-5.53,3.15-2.7,4.44-1.39a4.05,4.05,0,0,1,1,2.44,32,32,0,0,0,2.42,9.11c-.14-2.62.16-6.08,2.17-8.71.42-.56,1.43-1.87,2.35-1.66.7.16,1,1.13,1.48,2.6,2,6.19,1.91,5.85,2,6.21,1,3.79,1.48,5.69,1.5,6.21,0,.9,0,1.79.5,2.07.69.39,1.82-.74,3-1.55a12.41,12.41,0,0,1,6.5-2.07c1.53,3.84,1.18,6.25.5,7.77-1.17,2.64-3.92,4-3.5,5.7a2.67,2.67,0,0,0,1.48,1.54c3.58,1.94,6.23,5.34,9.51,7.78,8.3,6.16,7.7,6.72,10,7.25s3-.07,8.5.52a42.52,42.52,0,0,1,6.5,1c4.62,1.23,7.66,3.57,13,7.77,3.85,3,3.73,3.42,8,6.73,3.58,2.77,4,2.78,8,5.7,6.72,4.94,10.08,7.41,12,10.87.83,1.51,1.56,4.29,3,9.84,1.64,6.32,1.64,8.34,1.5,9.84-.25,2.61-.82,2.4-2,7.25a45.79,45.79,0,0,0-1.5,9.84,33.69,33.69,0,0,0,.5,7.77c.7,3.69,1.65,5.07,3,10.36.28,1.09.51,2.09,1,3.62a31.3,31.3,0,0,1,1,3.11,10.73,10.73,0,0,1,0,4.14c-.27.75-1.17,3.07-2.5,3.11-.81,0-1.41-.8-2-1.55a37.39,37.39,0,0,0-5-5.18,15.86,15.86,0,0,0-1.5,6.73,21.91,21.91,0,0,0,1,5.7c.72,2.8,1.21,3.59,2,6.21a48.52,48.52,0,0,1,1.5,6.73c.4,1.27.25,1.82,0,2.07s-.81,0-3,0c-1.17,0-1.76,0-2,0a2,2,0,0,1-1,0c-.64-.26-.89-1.12-1-1.55a31.79,31.79,0,0,1-1-9.32c.38-4.45-1.69-5.87-4.5-13.46a73,73,0,0,1-4-17.09A117.15,117.15,0,0,0,422,558c-2.76.6-7.53,1.19-10-1.55-1.73-1.93-1.54-4.62-1.5-7.25,0,0,.07-5.12-2.5-19.68a47.43,47.43,0,0,0-7.5-18.12c-.49,6.75-.72,14.21-.5,22.27A223.65,223.65,0,0,0,402,558a29.13,29.13,0,0,0-7,0,6.37,6.37,0,0,1-2.5,0,6.2,6.2,0,0,1-1.5-.52c-.14-.84-.33-2.1-.5-3.62-.4-3.48-.43-5.87-.5-7.77C389.81,540.81,389.45,541.35,389,534.15Z" transform="translate(1.64 1.53)"/><path d="M390.5,534.15a217.66,217.66,0,0,0-5.62-37.68c-1-4-2.9-7.93-3-12.08-.11-3.82,1.68-6.84,2.23-10.47.72-4.75-2.41-7.15-5.74-10-6-5.05-11.55-9.54-16.43-15.69-2.61-3.3-6.33-6.67-8.32-10.41-.7-1.32-.71-2.92-2-3.89a3.84,3.84,0,0,0-5.38,1,6.69,6.69,0,0,0-1,2.74,19.33,19.33,0,0,1-.31,2.52l-.14,1q-4.46,2.32-5-1c-1.17-1.76-1.53-5.26-2-7.3q-1.1-4.41-1.95-8.88c-.64-3.36-.58-7-3.44-9.32-1-.81-3.79-1.45-4.35-2.5-2.17-4.11,3.85-4.52,5.57-5.49,3.23-1.81,3.62-4.73,3.39-8.17,0-.61-.49-2.4-.24-2.83l3-.67q.06.47.14.94c1,1.25,1.6,6,2.22,7.59s3,1.41,2.95-.4a14.64,14.64,0,0,1,.63-5.46c1.77-4.69,2.06-2.68,3-.24.51,1.37,1,2.81,1.37,4.21.82,2.79.91,6.43,2.25,9a1.47,1.47,0,0,0,1.3.74,4.37,4.37,0,0,0,2.61-.91c2.42-1.37,3.9-2.38,6.89-2.72l-1.45-1.1c.68,2,1.44,4.19.77,6.26-.56,1.73-2.19,2.73-3,4.23s-1.1,2.85.1,4.35c1.86,2.32,5.35,4.05,7.62,6.11,2.79,2.54,5.9,4.68,8.81,7.08,2.05,1.69,3.55,3,6.27,3.29,7,.77,13.68.21,19.93,4.29,5.54,3.61,10.13,8.37,15.42,12.3s11.68,7.39,16.25,12.4c4.08,4.47,5.58,12.87,6.21,18.65.53,4.81-2,9.43-2.79,14.13a40.12,40.12,0,0,0,1.52,19.72c1.12,3.46,2.31,7.08,3.17,10.61.4,1.65,1,6.07-1.76,5.1-1.3-.45-4-4.3-5-5.18a1.52,1.52,0,0,0-2.51.66c-2.54,6.4-1,11.77,1.06,18.06a49.44,49.44,0,0,1,1.35,4.92q.34,1.59.59,3.19,1.36.55-.21.24c-4.35,2-4.62-3.51-4.8-6.24-.27-4.05-.17-7-1.92-10.88A77.49,77.49,0,0,1,422,517.06a1.5,1.5,0,0,0-3,0,122.11,122.11,0,0,0,1.55,41.31l1-1.85a18.54,18.54,0,0,1-4.09.45c-3.08-.09-5.22-3.43-5.53-6.23-.08-.72,0-1.48,0-2.21a81.7,81.7,0,0,0-.8-8.26c-1.41-10.78-3.45-20.4-9.39-29.67a1.51,1.51,0,0,0-2.8.76,231.25,231.25,0,0,0,1.5,46.61l1.5-1.5c-2.47-.17-4.91.13-7.34,0-3.14-.12-2.58-1.65-2.83-4.33-.12-1.34-.2-2.69-.26-4-.2-4.69-.75-9.31-1.07-14-.13-1.92-3.13-1.93-3,0,.47,7,.77,14.17,1.68,21.11.29,2.25.27,3.3,2.49,4,2.94,1,7.24,0,10.33.18a1.5,1.5,0,0,0,1.5-1.5,231.25,231.25,0,0,1-1.5-46.61l-2.8.76c6.78,10.6,9.1,23.05,9.73,35.5.17,3.25-.46,6.85,1.76,9.55,2.82,3.44,7.78,3,11.69,2.24a1.53,1.53,0,0,0,1-1.85A119.7,119.7,0,0,1,422,517.06h-3a83.5,83.5,0,0,0,7,24.39,17.43,17.43,0,0,1,1.45,7.82c0,2.5,0,7.62,1.77,9.57,1.5,1.69,4.87,1.56,6.94,1.3,1.61-.2,2.27-.67,2.53-2.34.5-3.23-1.58-8-2.61-11-1.79-5.35-2.81-9.9-.66-15.33l-2.51.66c2.89,2.6,7.71,10.9,11.24,4.73,2.92-5.1-1-13.22-2.63-18.18a39.69,39.69,0,0,1-.39-23.22c1.37-5.16,2.25-8.42,1.09-13.78-1.23-5.71-2.3-12.38-6.42-16.82-4.79-5.17-11.25-8.69-16.86-12.87-5.92-4.41-11-10.11-17.6-13.6-6.07-3.22-12.4-2.52-18.93-3.35-2.12-.27-3.2-1.41-4.82-2.73-3.41-2.8-6.89-5.44-10.18-8.38-.69-.61-4.88-3.19-5.17-3.94-.76-2,1.81-3.53,2.55-5.18,1.32-2.94.67-6-.35-8.92a1.53,1.53,0,0,0-1.45-1.1,16.55,16.55,0,0,0-6.36,1.72c-2.5,1.38-1.5,1.86-2.37-.07-1.19-2.67-1.65-6.25-2.57-9.1-.76-2.36-1.57-7.24-5.18-5.69-3.93,1.69-4.58,8-4.51,11.53l2.95-.4c-1.31-3.37-2.14-17.11-8.94-12.31-2.87,2-2,5.09-2.1,8.08-.31,7.61-6,4.81-9.08,9.21a4.62,4.62,0,0,0,0,5.63,10,10,0,0,0,3.35,2.38c2.86,1.63,3.65,3.3,4.2,6.38,1,5.37,2.13,10.7,3.6,16,.84,3,1.63,6.73,5.12,7.68a5.35,5.35,0,0,0,6-2.53c.67-1.2.27-2.85.87-3.93,2.92-5.23,2-1.26,2.87-.29,2.79,3,5.3,6.8,7.88,10,5.54,7,11.7,12,18.38,17.79,2.26,2,4.42,3.42,4,6.71-.43,3.45-2.2,6.42-2.28,10-.1,4.79,2,9.12,3.14,13.7.67,2.83,1,5.71,1.52,8.58,1.57,9.55,3.44,18.63,4,28.3C387.61,536.07,390.61,536.08,390.5,534.15Z" transform="translate(1.64 1.53)"/><path class="cls-2" d="M223.07,307.85" transform="translate(1.64 1.53)"/><path class="cls-1" d="M471.46,525.86,470,516a101.87,101.87,0,0,1-2.28-10.82,136.76,136.76,0,0,1-1.22-14.56c-1.13-19.8-1.28-19.86-1-22.27.64-5.56,1.68-7.67,1.5-13.46-.11-3.54-.57-4.78-1.5-10.36A223.17,223.17,0,0,1,463,422.3c-.39-6.82,0-6.87-.5-14-.36-5-.53-4.53-1.37-13.25-1.08-11.14-1.62-16.7-1.62-17.3-.05-3.74.11-7.47-1-7.77-.65-.17-1.18,1-3.5,3.11s-3.54,3.24-5,3.11a4.17,4.17,0,0,1-3.5-3.62c-.07-1.58,1.26-2.75,3.5-4.66,3.43-2.92,4.57-2.42,5.5-4.14,1.39-2.59.17-6.26-.5-8.29-.09-.27-.8-2.38-1.5-5.18-.31-1.23-.53-2.26,0-3.11a2.82,2.82,0,0,1,1.86-1.12c2.21-.48,4.25,1.09,5.64,2.15a14.94,14.94,0,0,1,3,3.11,4.56,4.56,0,0,0,.5-3.11c-.43-1.71-2-2.11-3-3.62-.71-1.06-1.3-2.89-.5-6.21a11.12,11.12,0,0,1,5.5,4.66c1.34,2.41.6,3.64,2,6.21s2.82,2.81,6,5.7a68.12,68.12,0,0,1,5.5,6.21c2.33,2.8,5.42,6.62,9,11.39a9.92,9.92,0,0,1-3.5,2.07,12,12,0,0,1-4,.52c-2.31,0-3.13-.44-5,0-.92.22-1.68.41-2,1-.65,1.28,1.06,3.41,1.41,3.87,2.34,3,5.72,12.54,12.5,31.52,7.73,21.66,2.71,26,9.91,32.81,4,3.74,7.09,4,15.16,11a103.38,103.38,0,0,1,9.79,10c8.58,10.29,13.74,24.84,14.47,45.76.57,16.43-.37,33.42,5.45,48.71l-10,.28-6.07-25.93c-.38-1.61-1-3.47-2.5-4q-.88,14.33-1.22,28.68c-1.23,2.05-4.55,1.38-5.88-.6s-1.29-4.59-1.3-7a82.92,82.92,0,0,0-15.62-47.91,34,34,0,0,0-5.84-6.48l-.09,60.15a2.64,2.64,0,0,1-.52,1.92,2.41,2.41,0,0,1-1.77.45l-7-.1a502.73,502.73,0,0,0-1.91-55.24c-.15-1.72-.49-3.72-2-4.5-.28,1.72-.66,4.33-1,7.51-1.08,10.1-.47,14.6-1,30.09,0,0-.13,3.8-3.5,18.12a7.16,7.16,0,0,1-2.48,4.16c-.47.34-1.44,1.05-2.18.73-1.15-.5-1.12-3.21-.84-7.49a103.14,103.14,0,0,1,1-10.36A55.16,55.16,0,0,0,471.46,525.86Z" transform="translate(1.64 1.53)"/><path d="M472.91,525.46c-1.39-9.11-3.83-18.09-4.49-27.3-.57-7.85-1-15.71-1.39-23.57a42,42,0,0,1-.06-6.21c.39-4.24,1.54-8.27,1.51-12.56a54.79,54.79,0,0,0-1.14-9.23c-2.58-14.47-2.21-29-3.87-43.51-.86-7.46-1.56-14.93-2.25-22.41-.28-3,1.21-11.14-2.34-12.13-2.92-.81-3.93,4.5-6.24,4.66l-1.91-1.11q-3.3-.69-.92-2.05c.69-1.28,3.05-2.36,4.24-3.15a8.77,8.77,0,0,0,2.31-1.75c2.12-2.68,1.11-6.55.25-9.49-.43-1.47-1.52-3.45-1.47-5,.18-6.34,6.55.19,7.78,1.7.77,1,2.16.29,2.51-.66.67-1.85.9-3.58-.16-5.34-1.93-3.19-3.68-3.12-2.84-7.61l-2.2.9c4.34,2,4.82,4.88,6.34,8.93,1.11,3,3.26,4.37,5.58,6.31,6,5,10.83,12.18,15.52,18.4l.23-1.82c-4.07,3.31-8.15.82-12.45,2.39-2,.71-2.87,1.9-2.44,4,.34,1.66,1.7,3,2.53,4.42a46.51,46.51,0,0,1,2.73,6c5.94,14.75,11.6,29.79,13.81,45.58.5,3.6,1.2,6.91,3.55,9.79,3.47,4.27,8.81,6.47,13.11,9.75,12.75,9.74,21.61,22.51,25.14,38.23,5.09,22.64-.21,46.42,7.83,68.57l1.45-1.9-10,.28,1.45,1.1L530,540.34c-.9-3.84-1-9.08-4.7-11.35a1.52,1.52,0,0,0-2.26,1.3q-.4,6.69-.7,13.38-.15,3.35-.26,6.69c0,1,.42,6.2-.21,6.7-4.25,3.35-4.19-4.41-4.22-5.7-.06-2.29-.12-4.57-.33-6.85a86.62,86.62,0,0,0-1.43-9.71c-2.85-13.85-9.33-29.36-20.14-38.9a1.52,1.52,0,0,0-2.56,1.06l-.05,34.93,0,16.49c0,1.54.89,7.38,0,8.73-1.13,1.68-5.85.8-7.78.78l1.5,1.5c.21-11.52.07-23-.48-34.56q-.41-8.38-1.09-16.75c-.27-3.35,0-7.13-2.76-9.49-.76-.66-2.32-.55-2.51.66a155,155,0,0,0-1.78,22.59c-.05,5.87.3,11.89-.55,17.71-.47,3.22-1.16,6.42-1.85,9.6-.45,2-.5,5.39-1.76,7.1-2.56,3.45-2.22-1.58-2.11-3.47.55-9.14,2.16-17.73,1-26.93-.24-1.89-3.24-1.91-3,0a65.4,65.4,0,0,1-.13,17.36c-.65,4.75-1.76,10.5-.94,15.24.41,2.39,1.7,4.06,4.35,3,4.22-1.71,4.68-7.83,5.48-11.49,3.59-16.51,1.58-33.25,4.18-49.9l-2.51.66c3,2.64,2.21,11.5,2.46,15.25q.49,7.39.76,14.79c.35,9.54.41,19.09.23,28.64a1.52,1.52,0,0,0,1.5,1.5c3.3,0,8.65,1.55,10.5-2,1-1.94.29-5.49.29-7.62l0-10.67.06-43.66L493.66,498c8,7,13.34,17.74,16.69,27.67a83.43,83.43,0,0,1,3.44,14.11c.8,5.25.2,10.75,1.16,15.93.67,3.61,6.34,9.23,9.46,4.29,1.74-2.74.68-9.38.8-12.54q.34-8.61.86-17.2l-2.26,1.3c3.22,2,3.62,10.8,4.41,14.19l3.47,14.82a1.52,1.52,0,0,0,1.45,1.1l10-.28a1.51,1.51,0,0,0,1.45-1.9c-7.11-19.6-3.66-40.39-6.43-60.64-2.07-15.11-7.66-28.48-18.37-39.43a78.65,78.65,0,0,0-14.31-11.81c-4-2.49-8.1-4.91-9.61-9.62s-1.43-9.73-2.46-14.44c-2-9.1-5.52-17.85-8.7-26.58-2-5.37-3.71-11.18-6.59-16.16-1.61-2.79-2.74-4.31,1.84-4.22,3.93.08,6.92-.42,10-3a1.5,1.5,0,0,0,.23-1.82c-4.87-6.45-9.77-13.78-16-19a25.51,25.51,0,0,1-3.51-2.89c-1.55-1.88-1.54-4-2.32-6.12a12.19,12.19,0,0,0-6.7-6.7,1.52,1.52,0,0,0-2.2.9c-.38,2-.72,4.07,0,6,.93,2.49,4.16,3.65,3,6.91l2.51-.66c-2.33-2.88-12.28-10.21-13.36-2.17-.39,2.91,1.48,6.14,2.23,8.91,2.09,7.75-3.86,7.39-7.56,12.28-3.15,4.16,1.1,10.24,6.11,7.78,1.79-.88,3.43-2.73,4.78-4.09a13.76,13.76,0,0,1,1.46-1.54c-1.36,0-.74,3.9-.73,4.45,0,2.38.25,4.71.48,7.07.73,7.71,1.64,15.4,2.36,23.11.84,9,.61,18.06,1.62,27.08.8,7.19,2.83,14.54,3.06,21.75.17,5.45-1.63,10.66-1.61,16.08,0,7.94.88,16,1.36,23.88.64,10.64,3.21,20.87,4.81,31.38C470.3,528.16,473.2,527.36,472.91,525.46Z" transform="translate(1.64 1.53)"/></svg>